<?xml version="1.0" encoding="UTF-8"?>
<svg id="Layer_1" xmlns="http://www.w3.org/2000/svg" version="1.1" viewBox="0 0 210 273">
  <!-- Generator: Adobe Illustrator 30.4.0, SVG Export Plug-In . SVG Version: 2.1.4 Build 226)  -->
  <defs>
    <style>
      .st0 {
        fill: #fff;
      }
    </style>
  </defs>
  <polygon class="st0" points="172.64 244.5 48.7 250.44 16.15 65.69 12.05 54.69 12.69 46.05 50.04 38.75 105 35.41 182.09 42.5 172.64 244.5"/>
  <path d="M173.93,165.76l.27,29.24,1.66,25.98c.44,6.82-2.69,16.3-1.21,25.36-5.51-.77-10.45,1.15-15.74,1.5l-47.92,3.21-42,2.6c-6.22.38-11.97.03-18.06-1.1-1.69-.32-3.93-1.89-4.4-3.54l-4.41-15.64c-1.64-5.84-2.05-11.77-2.1-17.87l-.17-20.02-1.72-24.49c-.64-9.11-1.8-17.69-3.49-26.64l-6.36-33.65c-2.52-13.36-4.48-26.23-5.09-39.8-.08-1.82-1.13-3.81,1.19-5.17.74,10.93.94,21.55,3.08,32.31l5.31,26.67,4.45,25.92,3.38,30.85c1.05,9.59,1.34,18.86.97,28.5-.29,7.79.45,15.11,2.31,22.62l3.59,14.51c.46,1.88,2.27,3.73,4.33,4.07,4.38.73,8.69,1.27,13.22,1.01l35.03-1.98,34.45-2.29,20.77-1.29,17.36-2.14.77-12.02c.35-5.41.88-10.55.61-16l-1.38-27.98c-.38-7.76-.62-15.25-.43-23.02l.71-29c.27-11.02.86-21.73,2.55-32.59l6.32-31.58c.93-4.64,1.43-9.1,1.16-13.88-2.25,2.67-4.54,5.5-8.05,6.42-5.4,1.42-10.64,2.93-16.19,3.8-11.42,1.8-22.54,3.11-34.21,3.18l-44.97.3c-7.18.05-13.97-.56-21.06-1.59l-31.43-4.54c-7.02-1.01-15.71-3.86-16.46-10.39s4.46-11,10.63-12.42c8.62-1.98,16.8-4.13,25.61-5.38,17.09-2.41,33.87-3.44,51.15-4.21,8.05-.36,15.53.14,23.57.86l46.39,4.13c3.09.28,6.03,1.39,8.42,2.81l-.22,2.84c.69,3.74-.64,7.05-3,9.92-3.83.99-7.42,1.63-11.34,2.18l-31.67,3.15c-11.43,1.14-22.61.27-34.1.52-7.42.71-14.31.63-21.56-1-11.15-.1-22.07.06-33.12-.89-3.31-.28-5.92-.66-9.35-.19-4.61.62-10.49-1.11-12.05-5.77-1.2-3.57,2.34-7.99,6.19-7.56l-3.59,3.36c-1.58,1.48-1.93,3.67-.27,5.34,2.01,2.02,5.21,3.56,8.21,3.22,4-.44,7.56-.38,11.51.02,7.34.74,14.6.86,22.01.63,6.93-.21,13.2.98,20.05,1.61s13.62.2,20.48-.02c9.58-.3,18.8-.08,28.28-1.1l33.28-3.59c1.95-.21,4.87-.68,6.25-1.63,2.41-2.16,2.58-5.5,2.31-8.39l-3.67-1.81,2.14-1.06c-2.38-.56-4.51-.98-7.12-1.22l-36.93-3.32c-10.91-.98-28.18-1.72-38.54-1.06l-29.01,1.85c-12.54.8-24.34,3.74-36.51,6.48-6.57,1.48-13.33,3.9-12.93,10.75.36,6.14,8.74,9,15.34,9.93l31.1,4.4c8.78,1.24,17.16,1.56,26.01,1.55l26.02-.02c16.44-.01,32.42-.46,48.56-3.53l13.47-3.04c5.83-1.32,10.92-6.6,10.68-12.75-.14-3.61-3.85-5.34-5.94-7.7,3.85-.12,7.12,3.64,7.28,7.49.22,5.45.66,10.92-.39,16.29l-7.16,36.64c-1.55,7.94-1.61,15.74-2.24,23.78l-.38,20.28-.48,17.76Z"/>
</svg>