<?xml version="1.0" encoding="UTF-8"?>
<svg id="Layer_1" xmlns="http://www.w3.org/2000/svg" version="1.1" viewBox="0 0 205 272">
  <!-- Generator: Adobe Illustrator 30.4.0, SVG Export Plug-In . SVG Version: 2.1.4 Build 226)  -->
  <defs>
    <style>
      .st0 {
        fill: #fff;
      }
    </style>
  </defs>
  <polygon class="st0" points="155.14 232.26 98.23 243.62 49.32 243.62 6.76 67.33 90.33 47.15 188.44 60.11 155.14 232.26"/>
  <path d="M96.01,243.97c-12.65,2.04-35.19,1.8-46.23-3.32-1.7-.79-1.65-3.98-1.86-5.57-1.1-8.62-2.55-16.67-4.34-25.14l-5.68-26.9c-1.79-8.48-4.74-16.33-5.99-24.91l-4.68-32.02-11-52.31c-4.69-1.7-10.22-2.81-9.47-6.47,4.24-2.4,8.68-4.27,13.39-5.17,2.43-1.59,4.93-2.71,7.82-3.17l23.02-5.04c3.49-.77,6.81-1.81,10.37-2.12,6.96-.61,13.14-2.63,19.78-4.66,7.77-2.37,15.82-1.8,23.97-.77l63.48,7.98c6.03.76,11.62,2.53,17.34,4.21,2.94.87,4.35,4.5,4.02,7.4-.19,1.64-1.21,4.97-2.66,5.58-2.72.99-5.09,1.24-8.11,1.82-1.9,5.42-2.93,11.07-3.37,17l-2.77,37.1c-.6,8.1-2.27,15.56-3.47,23.59l-7.16,47.85-4.05,21.91c-.64,3.44-.77,6.58-.84,10.41-5.14,2.2-10.49,4.5-16.34,5.44l-45.15,7.28h-.02ZM59.02,63.75c6.17-1.78,12.06-1.83,18.11-.37,5.61,1.35,11.05,1.99,16.88,2.04,10.94.1,22.2,1.01,32.03,5.48,7.49-.58,14.48-.19,21.98-.37,6.8-.16,13.64-1.36,20.21-2.85l13.69-5.62c-.28,2.14-2.54,2.41-4.14,3.22-3.47,1.76-6.79,3.72-10.62,4.38-3.58.61-6.76.98-10.72,1.92l12.61,1.27c2.97.3,6.23-.61,9.2-1.12l2.89-1.77c.43.84.69,1.51,1.06,1.45l1.37-.24c2.37-.41,3.8-1.3,4.53-3.58,1.09-3.42-.45-6.96-4.16-8.1-4.52-1.39-9.23-2.77-14.06-3.27l-18.71-1.95-44.71-6.1c-8.68-1.18-18.23-1.87-26.29,1.04-7.42,2.67-14.61,3.25-22.22,4.92l-32.73,7.18c-2.53.55-4.91,2.57-7.14,3.81-1.3.72-2.62.48-4,.73-1.91.35-3.99,1.58-6.06,2.48,2.09,1.75,4.83,2.9,7.46,3.58.39-.78.8-1.49.98-1.24l.9,1.26c13-.62,25.81-1.22,38.82.37l18.31.42c7.53.17,14.75.96,22.14-.58,4.26-.89,8.5-1.69,12.85-1.7l10.75-.04c-7.28-2.4-14.84-3.18-22.74-3.23-7.02-.05-13.6-.65-20.43-2.19-13.12-2.97-18.87,1.72-26.56,1.97-10.75.35-21.14-.32-31.63-1.55,2.53-1.19,5.07-1.09,7.62-.74,4.37.6,8.61.35,13.02.55,6.58.3,12.82.51,19.5-1.42v-.04ZM69.23,216.09c2.6,8.2,7.18,14.87,12.34,21.3l6.41,3.44c.57-.12,1.83-.53,1.91-.08l.43,2.38c17.67-2.58,35.24-4.94,52.8-8.53,4.47-.91,8.46-2.94,12.72-4.1l1.26-11.44,3.73-20.22,5.38-38.04,4.46-26.9,3.72-45.09,2.78-15.18c-4.44.63-8.44.89-12.64.49l-13.86-1.34c-2.39-.23-5.66-.67-7.85.03-4.51,1.45-8.32,1.53-12.91.79-7.38-1.19-14.85-1.72-22.4-1.54l-16.59,2.24c-12.25.45-24.27.12-36.5-.75-8.45-.6-16.44-1.18-24.92-.61l-11.62.77,11.03,52.8,5.05,34.09c.67,4.56,2.01,8.84,3.18,13.29,2.03,7.74,4.06,15.07,5.51,23l7.81,42.63c7.97,2.73,16.11,3.77,24.52,4.01,4.35.12,8.2.23,12.82-.53l-6.95-4.32c-7.37-7.83-11.75-17.03-14.83-27.25-4.74-15.72-12.31-30.06-22.95-42.43l-1.15-1.34c-.26-.3.65-.93,1.3-1.13,3.87,4.95,7.9,9.94,11.34,15.39,6.7,10.63,10.81,21.98,14.67,34.16h0Z"/>
  <path d="M171.97,84.83c.04,1.52-1.18,1.91-2.6,2.12-2.43.35-4.94,2.66-5.87,5.05l-6.03,15.49c-1.59,4.09-2.22,9.26-.94,13.47l4.56,14.99c1.12,3.67,4.54,5.77,7.51,7.87l-6.5,3.49-14.57-.42c-5.3-.15-10.22-1.58-14.69-4.16l-11.1-6.42c-2.77-1.6-4.9-3.61-6.86-6.21-6.03-8.01-11.75-15.98-18.72-23.22-4.75-4.94-9.8-9.1-13.88-14.65-2.83-3.84-5.46-7.62-7.9-11.34l1.1-.58,8.63,11.61c3.48,4.69,7.69,8.55,11.96,12.51,9.22,8.55,15.41,20,22.36,27.16,4.67,4.81,11.11,7.4,16.91,10.55,3.21,1.74,6.71,3.03,10.35,3.14l14.36.43c1.84.06,3.98-.92,5.26-2.08-2.45-2.43-4.87-4.49-5.88-7.53-1.67-5.03-3.24-9.86-4.47-15s-.32-10.75,1.53-15.56l4.89-12.7c1.64-4.27,5.81-8.8,10.59-8h0Z"/>
  <path d="M155.14,98.13c-.22.79-.6,1.9-1,2.38-.47.56-2.43-.21-2.78-.9l-2.62-5.32-9.1-15.99c-.24-.42.03-1.49.65-2.17l12.72,22.85,2.13-.85Z"/>
</svg>