<?xml version="1.0" encoding="UTF-8"?>
<svg id="Layer_1" xmlns="http://www.w3.org/2000/svg" version="1.1" viewBox="0 0 210 271">
  <!-- Generator: Adobe Illustrator 30.4.0, SVG Export Plug-In . SVG Version: 2.1.4 Build 226)  -->
  <defs>
    <style>
      .st0 {
        fill: #fff;
      }
    </style>
  </defs>
  <polygon class="st0" points="152.09 231.28 62.13 238.83 25.82 191.01 17.08 88.75 145.86 69.77 183.51 104.96 171.21 178.15 152.09 231.28"/>
  <path d="M54.23,226.67c-.29-.67.29-1.81.86-2.01,5.23-1.83,8.8-5.25,12.55-9.04l9.19-9.28,14.04-12.48c7.29-6.48,13.55-13.35,18.92-21.6,2.2-3.38,3.73-7.14,5.68-10.81l1.46.69c-2,3.47-3.31,7.36-5.61,10.7-4.35,6.32-8.58,12.59-14.32,17.67l-17.78,15.72-12,11.99c-3.71,3.7-7.61,6.57-13,8.46h0Z"/>
  <path d="M146.75,210.79c-7.14-2.89-13.13-7.19-17.7-13.36-.81-1.09-2.67-1.83-4.01-1.52-6.43,1.48-12.51,1.92-18.97,1.93h-3.91c1.2-2.19,2.98-1.93,4.86-1.86,13.74.53,25.76-1.59,35.65-11.25,1.76-1.72,3.23-3.32,6.08-3.56l-6.21,5.92c-3.85,3.67-8.43,6.1-13.52,8.06,3.06,3.07,5.79,6.37,9.06,9.27,4.41,3.9,13.04,4.49,9.58,8.71l-.92-2.32v-.02Z"/>
  <path d="M57.92,234.82l4.21,4.01,10.69-3.01c8.47-2.38,16.86-3.18,25.69-3.51,9.66-.35,18.86-1.06,28.5-2.03,7.22.71,14.17.24,21.26-.94l14.39-35.12c1.81-4.41,2.76-8.7,5.25-12.81,1.3-2.14,2.12-4.37,3.04-7.07-3.81-2.45-7.21-3.99-11.46-5.48-.03-3.16,1.05-6.04,2.5-8.88l11.5-22.5c2.12-4.15,4.12-8.06,5.49-12.52l3.65-13.32h.98c.3,0,.47,1.07.34,1.42-2.05,5.43-2.81,12.18-5.43,17.48l-8.28,16.74-6.79,13.2c-1.19,2.31-2.06,4.83-2.54,7.32,4.62,1.52,8.17,3.17,11.7,6.15-.92,3.89-2.65,6.86-4.4,10.27-2.86,5.55-4.16,11.6-6.71,17.34-4.28,9.64-8.55,18.9-12.06,29.02-7.25,1.76-14.51,1.08-21.96,1.59l-26.49,1.81c-6.35.43-12.68-.25-18.79,1.33l-20.56,5.32-4.95-4.85c-5.06-6.35-9.33-13.13-13.09-20.31-3.1-5.94-6.97-10.29-12.13-14.51s-6.73-11.71-6.32-18.21c.34-5.44-.95-10.32-1.18-15.82-.11-2.58,3.89-10.11,7.36-11.68.05-4.35-.31-8.81-.8-13.27l-4.49-35.34c.15-.32.53-1.16.71-1l.92.81,3.91,32.53,1.51,16.46,17.96-12.38c2.62-1.81,5.6-3.17,8.56-4.62l-.3-34.97c-12.82-2.75-18.91-3.73-31.8.05-5.62,1.65-11.96,1.33-11.98-1.53-.04-6.32,3.14-14.15,6.85-13.94l12.08.69c3.34.19,7.15-.76,10.41-1.34,6.22-1.1,11.13.21,16.92,2.33,2.75,1.01,7.05.3,10.2-.28,16.12-2.99,31.73-6.02,47.63-9.87,8.39-2.03,15.88-6.12,23.43-9.93,1.62-.82,2.92-1.89,4.69-.26,1.97,1.81,3.72,4.21,5.29,6.57l2.77,1.22,3.59,6.49c1.05,1.9,9.4,3.51,14.79,13.64,1.72,3.23,4.26,5.47,7.77,7l1.14-3.39,2.47.77-2.05,3.27c.38,1.85-.4,2.85-1.45,4.08-3,3.52-5.63,7.1-9.82,9.23-3.56,1.81-6.75,4.08-9.42,7.08-7.15,8.01-17.78,9.75-28.39,8.82l-16.45-1.44c-4.69-.41-9.14-.72-13.47-2.8-4.78-2.29-9.66-4.77-13.7-8.23s-7.95-6.44-12.86-8.7c-3.88-1.78-7.65-3.83-11.02-6.41-1.86-1.42-3.6-2.49-5.95-2.74v33.14l1.09-.69c.3-.19,1.46-.35,1.39,0l-.35,1.77,11.75,18.55c2.08,3.28,4.64,5.91,7.05,9.01,1.8,2.31,5.17,2.16,5.82,5.17l-4.99-.31c-.15,0-.74-.61-.64-.72l.8-.82c-3.8-4.26-7.69-8.56-10.79-13.54l-10.46-16.77c-.65.72-1.48,1.38-2.3,1.72-3.05,1.28-5.69,2.8-8.39,4.68l-21.84,15.14c-2.35,1.78-3.87,4.81-3.52,7.8.67,5.84,1.17,11.16,1.37,17.3,8.94.15,17.71-.36,26.57-1.63l28.07-4c2.21-.31,4.59-1.54,6.72-2.25,5.18-1.73,9.8-4.03,14.1-7.47,9.96-7.96,18.54-17.01,26.36-27.05,2.57-3.3,5.81-5.28,9.44-7.14l1.06-.54c.24-.12.99.41.88.66-1.04,2.2-6.12,2.52-10.51,8.34-6.73,8.91-14.29,16.51-22.56,23.92-8.87,7.96-20.17,12.65-32.01,14.14l-32.09,4.04-16.24.81c.59,4.35,1.53,9.12,5,12.09,4.41,3.78,8.69,7.36,11.49,12.56,4.35,8.05,8.79,15.73,14.65,23.08l.02-.02ZM61.1,101.83c7.16,2.42,11.75,8.48,20.23,10.66l-11.27-14.57c-1.72-2.22-4.26-3.79-6.59-5.38,1.09-.82,3.33-.42,4.31.7,2.46,2.8,4.79,5.45,7.02,8.47,5.9,7.98,12.31,15.23,20.45,21.03,5.41,3.85,11.47,5.98,18.04,7,3.34.52,6.81,1.23,10.17,1.03l11.48-.67c-1.68-5.36-1.85-10.6-.11-15.79l4.65-13.87c2.79-8.32,7.04-15.61,12.61-22.56-1.48-3.13-3.43-5.66-6.23-8.11l-15.53,7.54c-3.52,1.71-7.01,3.26-10.95,4.07l-44.33,9.15c-4.76.98-9.66,1.48-14.37.6-1.84-.34-6.27-3.94-17.04-1.97-4.94.9-9.59,1.25-14.67.74-2.52-.25-5.39-.28-7.87.11-2.94,3.31-3.96,7.51-4.02,11.9,1.04.87,3.04,1.42,4.32,1.14l8.82-1.93c6-1.32,11.94-2.43,18.11-1.39l11.2,1.89c.47-1.37.71-1.97,1.06-2.26.28-.23,1.44.47,1.29.79l-.76,1.66-.02.02ZM168.49,118.21l9.16-7.56c1.61-1.33,2.81-3.01,3.39-4.97-4.08-2-6.8-4.67-8.78-8.47-4.18-8-11.38-9.7-13.69-12.24-1.54-1.7-2.72-4.35-3.71-5.83-.71.5-1.45.67-2.3.64-4.77,6.17-9.01,13.18-11.48,20.76l-5.4,16.55c-1.44,4.42-.61,8.69,1.71,12.56,2.48-1.71,4.48-3.33,6.45-5.3,4.84-4.84,16.74.39,24.64-6.13h0ZM130.84,132.21c9.2,2.01,19.14,1.09,27.19-4.18,2.35-1.54,4.19-3.96,6.17-6.09-4.41,1.24-8.37,1.97-12.66,1.42-3.53-.46-6.2.76-8.31,3.4-2.96,3.7-7.57,4.5-12.39,5.44h0Z"/>
</svg>