<?xml version="1.0" encoding="UTF-8"?>
<svg id="Layer_1" xmlns="http://www.w3.org/2000/svg" version="1.1" viewBox="0 0 208 270">
  <!-- Generator: Adobe Illustrator 30.4.0, SVG Export Plug-In . SVG Version: 2.1.4 Build 226)  -->
  <defs>
    <style>
      .st0 {
        fill: #fff;
      }
    </style>
  </defs>
  <polygon class="st0" points="196.67 192.15 159.23 224.8 106.02 242.59 22.15 203.91 15.23 143.25 65.24 100.15 133 76.97 158.16 91.41 175.27 120.17 192.35 157.22 196.67 192.15"/>
  <path d="M59.75,220.54c-4.53-.76-8.47-1.92-12.66-3.09l-8.28-1.33c-3.51-.56-14.64-9-16.66-12.21-1.89-2.99-2.96-6.38-4.45-9.61-4.08-8.8-.65-17.72-1.52-23.07l-2.54-15.76c-.68-4.19-.25-8.49,1.59-12.22,1.73-3.5,4.76-5.16,8.2-7,2.65-3,2.67-10.28,6.22-12.6l23.89-15.56,18.13-10.41c3.96-4.33,8.59-7.22,14.32-8.71,1.15-.51,3.3-1.44,4.42-1.32l9.11.95c3.79.4,7.17-.08,10.69-1.41,5.72-2.16,11.3-4.07,17.15-5.84l.33-3.89c5.91-.77,11.4-.92,16.72,1.69,2.17,1.06,4.81,1.86,7.14,2.8l6.61,9.46,13.55,17.9c2.57,3.4,3.64,7.69,5.47,11.54,2.5,5.23,5.25,10.15,7.37,15.54.97,2.47,1.01,5.3,2.46,7.66,2.11,3.43,4.97,6.77,6.23,10.65,3.15,9.73,3.42,19.69,3.43,29.78,0,8.03-2.49,14.97-7.94,20.82-4.58,4.92-9.26,9.35-15.13,12.84l-28.51,16.95c-2.74,1.63-5.57,2.23-8.65,2.89-6.39,1.38-12.39,3.35-18.66,5.27-3.18.98-6.53.19-9.56-.71-.96,1.77-3.04,3.36-5,2.83-3.96-1.07-6.7-3.79-9.79-6.34-1.86-.6-4.53-1.01-6.2-2.22l-15.07-10.97c-3.69-2.69-7.64-4.48-12.42-5.28v-.02ZM132.84,85.52c1.22-2.37,4.78-2.36,6.79-1.14,2.42,1.47,5.34,2.69,7.4,4.6,6.27,5.79,10.81,13.03,14.12,20.83,1.52,3.58,1.69,7.65,3.54,11.01l12.45,22.54c.83,1.51,1.25,3.76,1.48,5.5l2.34,17.09c.44,3.23,1.92,5.21,2.92,7.99,3.59,10.05-8.91,26.77-16.73,33.71l-12.44,11.04c-4.3,3.81-8.87,6.22-14.42,7.72l-14.54,3.93c-4.8,1.3-8.55,4.74-13.5,5.94-1.63.4-4.45,2.06-3.51,4.08,3.38,3.07,9.64,1.44,14.66-.5,9.09-3.51,15.87-3.21,20.83-6.15l28.83-17.12c5.38-3.19,9.61-7.19,13.88-11.67s7.33-10.04,7.85-16.68c.85-10.98.06-21.96-2.87-32.67-.73-2.67-2.66-5.13-3.93-7.5-2.93-3.35-4.22-7.31-4.86-11.66-4.31-8.5-8.2-16.74-11.99-25.47l-14.16-18.41-6.5-9.37-8.76-3.33c-4.21-1.6-9.06-2.26-12.87-.41,2.01.24,3.29.17,4.29,1.39l-3.39.68.17,5.55-1.21-1.72-.96-1.44c-.99-1.48-8.48,5.97-11.47,9.48l3.41-.23c-.81,1.36-1.96,2.47-3.39,3.07l-2.82,1.19-13.3,16.8-14.19,28.71c-2.87,5.8-4.52,12.09-4.6,18.55l-.21,16.18c1.57,1.62,2.5,2.52,3.38,4.81-1.51-.56-1.89-.97-3.48-2.12-.12,2.6-.52,5.85.05,8.58l4.39,21.05,1.95,12.99,2.42,1.26-1.02,1.81c3.87,3.17,5.91,7.67,7.05,12.55l7.65-4.92c-1.6-3.99-3.57-7.94-4.14-12.13-1.52-11.1-3.25-21.81-3.92-33.04-.61-10.19.95-19.9,2.05-29.97,1.03-9.49,2.23-18.49,4.95-27.58,2.54-8.45,5.77-16.41,10.86-23.62,5.55-7.86,13.86-10.85,19.49-21.82l-.02.04ZM51.98,202.78l13.63,4.63c8.02,2.72,14.69,7.52,19.8,14.17l-1.24-10.38-4.57-23.2-.32-10.42c-1.64-2.06-4.29-3.71-6.35-5.47-8.29-7.08-18.51-8.97-29.28-9.29-4.26-.13-8.4-2.39-9.16-6.91l3.59,3.06c1.21,1.03,2.84,2.29,4.47,2.3,5.21.04,9.98.6,15,1.63,6.27,1.29,11.54,4.09,16.49,8.06l5.35,4.29.83-17.66c.26-5.65,2.48-10.95,4.78-16.1,4.11-9.19,8.06-18.13,13.25-26.73l11.53-15.72-24.58,12.73c-.86.44-2.41-.08-2.59-.78,5.15-4.51,8.35-9.85,8.91-16.46l-.56-.85c-.09-.14-.21-.09-.3.06l-.68,1.2c-.3-.17-.95-1.61-.9-2.28s1.55-1.47,2.2-1.31c4.1,1,.24,11.71-3.72,17.33l7.12-3.53c5.67-3.42,11.45-6.27,17.47-8.97,3.02-4.09,6.45-7.67,9.81-11.16l-16.66,5.04c-5.17.64-10.44-.84-15.61-.92-4.04,1.47-7.82,3-11.63,4.83-2.23,1.88-4.12,4.04-6.58,5.48l-17.72,10.34-24.64,16.26-2.64,7.98c-.52,1.57-1.68,3.54-3.2,4.17-9.7,3.99-9.14,14.16-6.91,24.01,3.19,14.05-.72,22.31,1.87,29.07,1.57,4.09,3.11,8.05,5.27,11.79,1.81,3.14,5.46,4.98,8.28,7.16,2.33,1.81,4.97,4.08,7.86,4.47,4.05.54,7.61,1.03,11.44,2.24,9.14,2.89,14.82,1.55,22.74,8.28,2.48,2.11,5.41,3.49,7.99,5.53l6.1,4.83c1.59,1.26,4.01,1.5,6.06,2.01-.73-3.05-1.77-5.66-3.7-7.84l-10.3-11.7c-3.34-3.79-7.7-6.32-12.47-8.02l-16.18-5.76-16.38-3.63c-1.96-.44-4.2-1.49-4.05-3.89,6.58,4.26,14.39,3.78,21.08,6.05v-.02ZM103.52,204.46c-.6-.17-1.68-.74-1.63-1.26l.22-2.19c1.14,1.18,1.89,1.97,3.04,2.28l17.78,4.87c5.22-.92,10.07-.29,14.88,1.52l17.4,6.5c3.58-3.2,7.61-5.98,10.79-9.66l10.22-11.81c3.9-4.5,7.59-13.72,6.71-20.02l-2.69-3.96-3.59-24.78c-3.78-7.48-7.66-14.49-11.91-21.68-1.34-2.42-2.38-4.79-3.07-7.45-1.37-5.29-3.22-10.2-6.18-14.82-2.62-4.09-5.41-8.16-9.02-11.44-2.32-2.1-5.25-3.44-8-5.06-1.07-.63-3.74-.49-4.23.58-4.95,10.87-14.85,14.89-19.99,22.68-7.57,11.49-12.28,24.45-13.73,38.22l-3.36,32.01c-1.11,10.54,1.92,31.12,4.02,42.87,1.09,6.08,3.94,11.51,5.55,17.2,1.4-2.56,3.28-3.72,5.78-4.56,3.9-1.31,7.29-3.09,10.92-5.02,3.31-1.76,7.4-1.92,10.96-3.11l13.14-4.41c2.2-.74,4.09-2.88,6.19-4.59l-19.39-7.21c-1.94-.72-4.51-1.2-6.44-.86-4.73.82-8.61-.34-13.01-1.59l-11.36-3.23v-.02ZM102.4,243.58c.97.6,3.17.06,3.62-.99l-1.98-7.64-7.32,5.13,5.68,3.51h0Z"/>
  <path d="M105.46,166.08c-.82-.6-.95-2.4-.18-3.27,3.72-4.22,6.52-8.6,8.87-13.69,1.71-3.72,3.92-7.22,6.73-10.23l14.02-14.99c4.77-5.07,9.17-10.02,13.64-15.35l1.29-.59c.31-.14.29,1.14.22,1.62l-29.92,32.5c-1.88,2.72-3.4,5.3-4.85,8.22-1.69,3.4-3.65,6.6-5.74,9.72l-4.08,6.07h0Z"/>
  <path d="M39.82,124.43l-1.75,1.09c-.4.25-.86-1.97-.44-2.2,1.22-.67,3.81-.09,5.15.83l7.8,5.31c3.37,2.3,7.03,4.17,11.06,5.54,1.67-3.95,3.32-7.59,5.74-11.13l10.35-15.15c.7,1.06.61,2.28.08,3.04l-10.92,15.66c-1.88,2.7-2.65,5.9-3.98,9.18-3.5-.53-6.78-1.85-9.77-3.74,0,0-13.32-8.43-13.32-8.43Z"/>
</svg>