<?xml version="1.0" encoding="UTF-8"?>
<svg id="Layer_1" xmlns="http://www.w3.org/2000/svg" version="1.1" viewBox="0 0 209 269">
  <!-- Generator: Adobe Illustrator 30.4.0, SVG Export Plug-In . SVG Version: 2.1.4 Build 226)  -->
  <defs>
    <style>
      .st0 {
        fill: #fff;
      }
    </style>
  </defs>
  <polygon class="st0" points="120.29 234.53 33.6 210.92 25.07 163.65 34.3 115.25 59.83 108.62 118.55 123.82 166.08 119.59 186.59 125.96 197.74 138.8 170.54 198.56 120.29 234.53"/>
  <path d="M125.75,194.13l20.28-.48c4.83-.12,7.12-3.02,11.87-3.82l4.1-11.8c2.31,2.34,1.68,4.59,1.32,6.88l-.81,5.26,7.25-11.56-2.8-2.82c3.79-5.13,9.63-3.98,9.13-7.26l12.92-11.34-2.09-1.4,3.95-1.46c.49-.18,1.51-.02,1.86.23s0,1.51-.36,1.82l-14.01,12.4c1.5.1,4.15.56,4.29,2.02.2,2.08-1.15,4.65-2.4,6.42l-13.02,18.47c-2.45,3.48,2.13,3.44,4.66,8.43l-6.38.41c-8.32.53-9.3,7.21-16.03,12.31-5.07-2.33-9.97-3.48-15.13-2.06-4.24,1.17-7.36,3.95-8.29,8.28-.68,3.19-2.4,5.99-4.52,8.42-5.4,6.2-16.12,1.91-22.42-3.67-12.95-11.48-20.05-14.11-37.59-14.02-3.64.02-6.83-2.38-9.96-3.64l-12.53,3.06c-2.09.51-4.42-.54-5.44-2.29l-3.8-6.53c1.79-4.6,5.74-7.68,7.58-12.34l-6.53-2.08c-.23-1.31.26-2.87,1.02-4.17,1.18-2.02,2.08-5.41-.18-7.03l-6.9-4.93c-.31-.22-.81-.87-.97-1.13s.5-1.14.84-1.24l6.71-2.11c-1.99-4.09-4.8-5.62-8.42-7.76,1.79-4.16,4.01-7.87,8.5-7.16.38-3.51,2.51-5.73,5.61-7.51-.27-7,.49-12.86-3.98-17.96-3.7-4.23-3.07-10.15,1.22-13.72,2.48-2.07,5.45-3.26,8.44-4.51,8.4-3.5,17.05-3.99,25.74-1.22l11.56,3c3.28.85,6.22,2.62,9.57,3.43l22.19,5.37.96-1.93c.31-.63,9.27-.61,14.67,2.72,1.68,1.04,3.74,1.53,5.66,1.03l13.54-3.55c3.17-.83,6.55-.97,9.84-.72l17.91,1.35c3.14.24,5.92,1.05,8.5,2.91,4.68,3.38,8.75,7.01,12.75,11.32,3.23,3.48,3.12,9.68-1.17,12.64-7.03,4.85-13.61,10.01-18.7,17.2-3.17,4.48-7.25,7.85-12.71,9.33l-21.18,5.76c-2.17.59-5.61.05-7.2-1.42l-6.18-5.73-2.98,3.69c5.71,1.14,7.78,6.74,6.32,7.72-1.32.89-3.15-.21-6.75,1.41-3.07,1.38-5.97,2.86-9.16,3.86-5.19,1.62-10.44,2.62-15.93,3.07-1.85.15-4.49-.84-6.16-.17l-13.32,5.31c4.11,4.08,7.58,8.05,11.04,12.33,1.3,1.6,3.34,2.34,5.42,1.95,9.13-1.7,18.24-3.18,27.53-1.82l19.11,2.79c1.67.24,3.38.15,4.85-.26l1.47-.42c.33-.09.42,1.2.12,1.34l-2.69,1.25,2.21.69,7.13-8.19-6.73-.22-7.13.49c1.02-1.55,2.38-1.84,4.01-2.18l10.63-2.18c.07-1.94.1-3.97-.13-5.28-1.73-1.62-1.82-3.02-.66-5.72l-7.01,2.98c-3.14,1.33-6.82.2-10.17.37l-26.48,1.32-1.06,1.81-16.5-.26c-2.65-.04-5.4,0-7.85.45-.14-.07-.85-.98-.63-1.13l1.45-.99,37.31-2.1h0ZM178.9,125.25l6.23,1.78c-3.81-4.5-9.05-5.11-14.66-5.53l-19.4-1.44-17.58,4.51c-1.97.5-4.18.5-5.97-.59-4.4-2.67-9.3-3.91-14.15-2.71,2.17.54,4.35-.03,5.18,2.55-8.81-1.2-17.02-3.33-25.55-5.23-4.83-1.08-8.9-2.86-13.52-4.5-6.47-2.29-13.39-3.9-20.32-4.65-9.69-1.04-31.86,5.78-26,16.77,1.76-4.3,3.93-8.68,8.42-10.63,11.64-5.06,24.59-4.57,36.32-.03,4.59,1.78,8.96,3.09,13.66,4.38,4.25,1.17,8.13,2.62,12.31,4.14,4.89,1.78,11.73-1.22,25.64,3.93,9.97,3.69,12.41-3.34,20.97-3.02l21.91.82c1.8.07,4.87-1.03,6.5-.56h.01ZM195.48,143.57c-7.21-.39-8.6,4.98-15.4,7.98-11.02,4.86-10.78,14.75-14.43,16.94-4.56,2.73-9.55,2.53-14.62,2.6-22.82.29-28.87-10.8-39.05-11.41l-22.34-1.34c-3.82-.23-7.31-2.99-11.16-3.23-9.19-.57-17.75-1.85-26.66-3.8-5.06-1.11-10.14-.22-15.26-.93.04-.28,1.12-1.25,1.79-1.23l12,.27c3.06-1.28,5.25-3.3,7.23-5.88,4.22-1.93,8.05-4.86,11.02-8.34,1.89-2.21.99-4.14.07-6.38l-6.33-15.34c-12.74.39-24.62.99-27.94,14.41,2.38,3.54,3.84,6.89,4.03,11.11l.36,8.01-5.81,5.67c1,3.44,4.06,5.82,7.73,6.67,13.48,3.1,26.36,3.18,40.29,6.22,3,.65,6.96.59,9.64,1.76,4.85,2.13,8.68,3.11,13.99,2.32,6.75-1.02,13.91-.88,20.74-.46,1.79.11,2.61.22,4.39-.49l-.07,2.45,5.85,5.45c1.54,1.43,4.53,1.78,6.73,1.17l20.68-5.77c4.7-1.31,8.31-4.15,11.09-7.98,5.02-6.93,11.09-12.63,18.32-17.15,1.36-.85,2.38-1.96,3.13-3.29h0ZM159.51,168.88c3.61,0,6.92-2.13,8.01-5.87,3.23-11.06,13.39-11.87,20.96-19.56l6.08-1.78c3.08-4.97-3.23-9.27-8.54-12.23-3.18-1.77-6.31-2.57-10.05-2.43-8.07.3-15.9.09-23.95-.52-3.71-.28-7.04.49-10.18,2.37-2.55,1.53-5.81,2.41-8.82,1.57l-9.75-2.71c-4.36-1.21-8.73-1.65-13.27-1.33-3.76.26-6.91-.82-10.25-2.15-4.74-1.89-9.69-2.86-14.54-4.52l-12.96-4.42c-2.43-.83-5.12-.99-8-1.45l6.8,16.68c.8,1.96-.39,4.72-1.72,6.25-4.4,5.07-10.75,7.45-15.93,12.95,9.68,3.55,22.69,2.34,29.46,4.89,4.26,1.61,8.04,2.67,12.65,2.84l16.93.61c7.8.28,14.4,8.15,28.09,10.73,3.42.65,6.98.53,10.45.72,2.97.16,5.6-.02,8.2-.54-.72-.9-1.37-1.69-1.92-1.9-4.81-1.85-10-4.32-13.88-7.91,1.25-.13,2.65.2,3.55.82,3.64,2.5,7.64,4.45,11.59,5.83.47.16,1.41.69,1.34,1.05l-.37,1.98.02.03ZM108.84,211.31c-9.31.6-14.46,4.06-18.86-1.33-3.37-4.13-6.82-8.03-10.61-11.78l-3.82-.52-13.13,1.5-6.87-2.13c-5.92,1.76-14.37,1.62-13,.69,2.42-1.64,9.22-.39,14.32-2.7,3.38-3.14,6.37-5.83,10.6-7.63l20.98-8.41,2.81-2.43.72,1.37c-.85.84-2.33,2.25-3.35,2.66l-20.7,8.34c-3.89,1.57-7.15,4.04-9.67,7.41,3.41,1.53,6.38.96,9.75.67,8.28-.71,16.15-2.15,23.54-6.03,2.49-1.31,4.41-.73,7.07-.73,7.74.02,15.72-2.26,22.81-5.26,3.09-1.3,5.59-2.63,9.27-2.53-1.14-5.68-8.77-4.2-6.3-7.64l2.65-3.71c-3.27-.53-6.41-1.32-9.56-1.07l-18.03,1.47c-3.32.27-6.24-2.09-9.29-2.64l-15.66-2.86-33.24-4.77c-3.02-.43-5.6-2.37-7.71-4.33-.94-.55-3.45-1.12-4.49-.86-1.99.75-3.5,3.26-4,4.95,3.72,2.49,8.12,5.56,7.37,8.55-.17.66-1.23,1.63-1.95,1.84l-4.7,1.37,5.62,3.64.35-1.86c.24-1.29,9.95,2.51,14.52,5.05,2.44,1.36,4.57.85,6.67-.63,3.49-2.46,7.64-4.15,12.3-2.87-1.64.86-3.26,1.13-5.3,1.46-5.99.99-8.62,6.52-14.13,3.55-4.28-2.3-8.42-4.49-13.41-4.97l1.87,3.5c1.1,3.3-.44,6.58-2.29,9.14l5.18,1.54c2,.59,1.47,3.56.53,4.84l-5.32,7.31c-.48.66-.65,2.55-.2,3.25l3.6,5.59c1.15.16,3.32.35,4.45.06l11.9-3.05c3.37,2.94,7.59,4.01,12.14,3.93,26.9-.43,32.34,14.94,43.97,19.46,3.2,1.24,7.08,1.89,10.23.2s4.93-5.32,5.74-8.61c1.44-5.8,5.25-9.2,11.52-10.56-8.58-1.99-17.62-2.05-26.93-1.45l.04.02ZM159.08,196.81c1.36,1.4,2.61,1.84,4.14,1.74.95-.06,1.6-1.51,2.3-2.51l10.49-15.01,5.98-9.77-2.77-1.06-4.45,2.04c-2.12.97-4.59,1.83-5.93,3.34l2.35,2.9-10.02,16.67-2.09,1.66h0ZM158.24,196.54l1.91-6.31-2.82,3.35c-.48.56.06,2.27.91,2.96h0ZM169.55,203.22c-1.28-2.66-3.2-3.28-5.43-3.19-2.42,1.56-4.74,3.11-6.42,5.33,4.22-1.71,7.79-2.34,11.85-2.13h0Z"/>
  <path class="st0" d="M169.55,203.22c-4.06-.2-7.62.42-11.85,2.13"/>
  <path class="st0" d="M158.24,196.54c-.85-.69-1.39-2.4-.91-2.96l2.82-3.35-1.91,6.31h0Z"/>
  <path d="M154.86,151.06c-2.47.09-3.81,1.74-5.1,3.57-2.12-5.68,7.62-5.29,14.74-5.69l15.61-.88c-3.07,1.84-6.46,2.32-10.11,2.45l-15.14.55Z"/>
  <path d="M75.21,180.02c-4.99,1.8-3.64.07-7.02.21.13-3.42,4.11-1.23,6.66-3.42l-4.99-.3,1.08-2.3c-3.67-1.96-7.97-3.19-12.37-3.89.77-1.33,2.57-2.13,4.22-1.66l14.48,4.15c1.71.49,6.12-1.56,5.56-.39l-.66,1.39,2.29,1.24c-1.63.83-2.4,1.51-3.62,2.95l-5.64,2.04v-.02Z"/>
  <path d="M66.24,186.37l-9.81-1.21c-2.07-.25-3.63-2.21-2.75-4.22,1.56,2.45,3.87,3.4,6.87,3.05,1.93.44,4.32-.65,5.69,2.38Z"/>
</svg>