<?xml version="1.0" encoding="UTF-8"?>
<svg id="Layer_1" xmlns="http://www.w3.org/2000/svg" version="1.1" viewBox="0 0 303.01 435.26">
  <!-- Generator: Adobe Illustrator 30.4.0, SVG Export Plug-In . SVG Version: 2.1.4 Build 226)  -->
  <defs>
    <style>
      .st0 {
        fill: #fff;
      }
    </style>
  </defs>
  <g>
    <path class="st0" d="M50.4,141.91c-3.89.52-7.69.07-11.03-.92.89-.74,1.49-1.48,1.34-2.01-.79.42-3.01,1.36-3.41.65-2.05-4.73-3.51-9.67-5.04-14.55-1.71-5.45-2.36-11.17-2.5-16.99s-.83-11.03-2.22-16.6c-1.96-7.86-1.58-14.91-3.98-22.78-3.5-11.48-5.68-18.36-1.24-29.78.74-1.9,1.87-3.38,3.69-4.19,4.73-2.09,9.68-2.61,14.6-3.98l21.62-6.04c6.19-1.73,12.08-2.84,18.67-3.73l17.95-2.42,11.21-1.24c7.87-.87,15.51-.91,23.25.8l4.47,1.86c3.51,1.46,6.77,2.9,9.24,5.94,3.64,4.48,6.42,9.38,9.48,14.34l2.37,3.86c5.76,7.46,8.37,15.72,9.2,25.09,1,11.23,1.05,22.22.26,33.54-.61,8.62-2.61,9.13-9.83,11.64-3.73,1.3-7.47,2.42-10.96,4.1-6.05,2.93-11.82,5.54-18.25,7.53l-17.83,5.51c-4.66,1.44-9.44,2.98-14.33,3.43-8.66.81-16.77,1.84-25.26,3.91-7.09,1.73-14.27,2.08-21.48,3.04Z"/>
    <path class="st0" d="M36.3,140.08c-8.92.47-15.04-6.38-16.86-14.89-3.31-15.5-3.84-24.2-2.46-39.96l.5-5.76.45-14.09c.13-3.96.03-7.92.94-11.73,1.57,9.56,4.94,16.84,5.94,26.57.54,5.23,1.45,10.12,2.67,15.25,2.12,8.88.55,19.94,3.57,28.95l5.25,15.67Z"/>
  </g>
  <g>
    <path class="st0" d="M268.61,215.62l-1.9,8.97c-.5,2.38-1.86,4.83-3.69,6.47-3.63,3.25-7.3,6.07-11.45,8.54-7.48,4.45-14.74,8.34-22.84,11.63-7.82,3.18-15.46,5.79-23.69,7.42l-12.23,2.42-19.02,2.38c-10.4,1.3-27.1.85-37.03-1.89l-12.17-3.35c-4.49-1.24-8.74-2.55-12.97-4.53s-8.62-3.73-13.4-4.52l-5.18-1.57-9.24-4.35c-5.93-2.79-11.2-6.84-15.8-11.45-.99-2.49-1.8-5.05-2.22-7.4l2.59,2.27c.5-2.49-2.06-2.64-2.65-3.71l-2.26-4.06c-2.53-4.54.4-9.87,4.36-12.52l4.71-3.15c2.17-1.45,5.06-2.02,7.46-3.23,6.1-3.08,12.23-5.15,18.81-6.94l9.23-2.51c4.29-1.17,8.22-2.56,12.69-3.39l3.24-1.06,15.45-2.61,14.38-2.05,9.8-.86,18.65-1.88c2.99-.3,5.86-1.43,9-1.15l31.86,2.85c4.39.39,8.35,1.2,12.46,2.64l11.49,4.03,7.78,4.44c3.6,2.06,6.97,4.93,8.64,8.85l5.2,12.24-2.9,5.23c-11.55,8.93-24.85,14.51-38.72,19.13-7.14,2.38-13.97,4.53-21.38,5.78l-15.08,2.54c-11.67,1.96-23.03,3.61-34.89,3.55l-10.73-.06c-14.96-.08-39.51-8.78-55.01-14.1l-9.91-3.4-10.8-5.54c1.08,2.14,3.4,2.47,5.1,3.55,3.25,2.06,6.43,3.38,10.07,4.57l5.26,1.72,24.67,8.1c15.16,4.98,30.37,7.18,46.28,5.95,5.53-.43,10.83-.35,16.39-1.24l26.7-4.27c7.6-1.22,14.69-3.23,21.95-5.7l7.66-2.6,11.08-4.42c7.48-2.99,14.33-6.85,20.6-11.89l3.61-3.84Z"/>
    <path class="st0" d="M168.23,317.65l-.09,2.3c-.07,1.76-7.65,3.74-12.02,3.53l-10.73-.5-5.73-.27-.4-7.89-.02-4.7c-.74-4.8-.14-9.24-.11-13.92l.14-22-.26-10.96,9.8,1.19,5.39.46,4.91.27,5.74-.12.95,4.88c.54,2.77.16,5.8.23,8.68l.52,21.41,1.76,13.05-.09,4.6Z"/>
    <g>
      <path d="M43.28,370.22l.09-11.21-.03-3.73,1.6-2.38c1.27-1.89,3.06-2.82,5.17-3.65l18.46-7.24c7-2.74,13.8-5.1,21.33-7.07-.24-3.83,1.21-7.27,4.46-10.42l-8.62-1.81-3.81-1.33-.43,6.89.64,7.53-.81.03-.81-7.26c-.29-2.64,1.23-6.34-.12-8.8-.88-1.59-2.24-2.49-2.01-4.54.14-1.29,1.47-3.38,3.09-4.28,3.97.14,7.98,1.08,12.06,2.03l7.45,1.74,17.27,2.78,11.21,2.52c1.64.37,4.06-1.02,5.33,1.35-3.86-.12-7.37-.94-11.04-1.67l-11.36-2.25-11.09-1.64-17.05-3.85c-1.13-.26-3,.31-3.72.96-.77.7-1.54,2.22-1,3.51.71,1.72,2.7,4.45,4.62,4.92l25.89,6.29c.88.21,1.65.76,2.37,1.47l19.49-5.67c1.11-.32,2.13-1.9,3.58-.36l-8.26,2.84-46.13,12.54-13.82,5.07-19.07,7.76c-1.67.68-2.63,2.27-3.48,4.06l4.72,1.9c6.93-1.36,13.58-3.3,20.35-5.6l7.94-2.7,10.51-3.69,28.32-10.06,15.78-4.64c3.35-.99,10.9-.48,13.78,1.8l.41,9.64.09,6.54-.08,5.71,1.12,16.18c.46,6.67,2.21,9.41,8.3,13.27,1.69,1.07,4.19.18,5.58-1.09,4.86-4.46,5.85-10.73,5.46-17.07l-.56-9.25-.87-7.9-2.57-12.35c.4-1.15,1.51-3.24,2.42-3.97,2.71-2.17,6.63-1.65,9.75-.78l8.38,2.35,20.85,4.46,13.23,3.25,11.38,2.34,17.37,2.62,5.31.29,6.83,1.08c2.07.33,3.64-.35,5.55-1.59l-4.8-3.21c-3.41-2.16-7.16-3.4-11.38-3.18-10.72-3.24-21.38-4.99-32.48-6.45l-10.95-2.51-16.79-2.7c-4.73-.76-9.19-1.32-14.05-1.37-1.55-.35-2.92-.12-5.07.28.5-.98,1.91-1.17,3.17-1.56l11.83-3.72,13.36-4.56,18.23-7.7c-.08-.52-.35-1.28-.05-1.36l1.85-.49c-.37-1.23-2.27-2.57-3.75-2.62l-6.59-.21c-4.54-.15-8.61.89-12.88,2.07-5.36,1.48-9.99,3.68-15.09,5.93l-9.22,4.08c.53,3.1-1.12,5.41-3.9,6.21-2.25.64-4.88,1.35-7.29,1.34l-8.85-.06-7.84-.67c-.47-.04-1.57.72-2.26,1.21-1.15-4.2-1.12-8.68-1.13-13.22l-.03-16.05.22-16.97-.27-8.98v-6.83s-25.97-7.46-25.97-7.46l-3.75,2.19-7.29,3.84c-2.19.51-4.04,1.69-5.33,3.41l-8.69,3.92-4.74,3.05-8.06,4.57c-3.21,1.82-13.78,2.21-16-.25-.49-.54-.31-2.11.12-2.87,2-3.52,5.25-4.99,8.58-6.71,2.92-1.5,5.57-2.15,9-2.71,8.13-1.31,12.98-6.09,16.26-3.85-3.09.35-4.97.91-7.51,2.08-7.39,3.4-13,2.64-17.88,5.42-2.77,1.58-5.86,3.28-7.48,6.11-.24.42-.41,1.76-.15,2.11.31.42,1.16.75,1.87.84,10.24,1.19,13.77-.78,21.73-6.23,3.99-2.73,8.44-4.55,12.8-6.41-1.59-1.13-2.83-2.6-2.66-4.28l5.2-2.44,9.01-3.65c-.58,1.51-2.03,1.81-3.31,2.36l-9.83,4.27c.03.74.51,1.96,1,2.23s1.65-.05,2.26-.35l9.08-4.53,5-2.73c-3.12-1.94-5.93-2.55-9.22-3.44l-6.06-1.64-9.62-3.9-3.43-1.67-10.01-6.71-4.94-3.95-2-4.08c-1-4.07-2.56-7.93-4.21-11.44-1.03-6.26,2.21-10.54,7.1-13.49l5.6-3.38-.41-8.41-1.22-19.23-.92-20.39-.36-7.54-.41-5.35-7.61,1.22-13.35,1.53c-4.49.58-8.88-.05-13.02-1.83-5.59.53-10.45-1.68-14.02-5.9-2.76-2.74-3.84-6.48-4.74-10.29-3.35-14.29-4.1-26.4-2.43-41.01,1.81-15.81-1-26.8,5.27-45.08,2.3-6.71,11.88-6.85,19.96-9.16l11.97-3.42c5.64-1.61,11.02-3.7,16.83-4.51l25.17-3.53,18.2-2.08c4.71-.54,9.36-.24,14.05.13,4.27.34,7.95,1.49,11.73,3.38,1.84.92,4.28,1.59,5.69,3.01,2.69,2.7,5.09,5.35,7.08,8.55l7.45,11.99c3.13,5.04,6.54,9.83,7.87,15.82,1.82,8.22,2.48,16.58,2.58,25.14l.06,5.59-.96,15.84c-.59,9.82-10.91,9.01-19.38,13.13-9.43,4.59-18.65,8.12-28.71,11.05-7.11,2.07-13.85,4.96-21.21,5.86l-19.1,2.33c-.61.07-1.89.35-1.95.86l-.28,2.4c-.29,2.51-.29,4.76-.14,7.26l.93,15.06.81,20.42.95,13.79-.98-.2-1.07-15.29-.35-12.42-.94-16.97-.73-11.31.79-2.66-5.46.96c1.3,2.02.72,1.87.58,3.27-.31,3.1-.05,6.3.09,9.41l1.02,21.21c.37,7.73,1.02,15.1,1.66,22.8l.35,4.24,4.41-1.93c5.75-2.52,11.32-4.7,17.31-6.41l5.71-1.63-.58-8.34-1.15-16.36-.36-7.46-.99-14.94c-.17-2.62-1.69-4.91-.37-7.71l.61,3.61c.83,4.9,1.19,9.67,1.43,14.62l.47,9.74.46,9.25.53,6.26.97,11.29,10.51-3.23,9.54-2.32,17.17-3.08,7.25-1.12,26.17-2.45,12.31-1.63,5.24-.22,20.86,1.82,8.88.86c5.14.5,9.85,1.72,14.8,3.15,6.52,1.88,12.54,4.37,18.15,8.09,5.25,3.48,9.03,7.7,11.16,13.74,1.34,3.79,3.94,7.7,3.06,11.88l-1.76,8.36c-.68,3.23-2.47,6.05-5.04,8.08l-7.28,5.76-10.73,6.32c-7.44,4.38-15.33,7.51-23.54,10.41-11.42,4.02-23.12,6.17-35.12,8l-20.05,1.88.96,6.05c.53,3.33.05,6.97.15,10.46l.51,17.92,2.02,16.37,15.3-6.99,8.76-2.89c4.79-1.58,9.42-2.23,14.47-2.18l3.93.04c3.21.03,5.77,2.74,5.79,3.06l.08,1.67c.63,1.03,1.18,2.8,1.19,4.19,2.25,1.34,4.66,3.08,6.62,5.09,4.32,4.44,9.26,9.59,4.26,11.95l-.69,4.4,18.54,4.44c2.63.63,5.77,0,8.29,1.52l7.65,4.58c.36.22.98.99,1.09,1.32.14.41-.65,1.29-.86,1.72l.25,3.24c.18,2.35,1.07,3.41,3.37,3.74,5.49.78,10.53,3.53,13.11,8.66,2.44,4.86-1.29,13.19-6.42,16.97-2.24,1.65-6.31,1.93-8.84,1.17-3.83-1.14-6.2-4.4-6.97-8.41l-2.02,1.03c-3.83-1.36-5.74-5.04-6.17-9.01l-.8-7.29-5-.31-4.39.02-10.22-.28-15.03-2.02-26.63-4.99c-4.56-.85-8.72-1.81-13.35-1.55l-8,.45.96,14.54c.22,3.4.44,7.16-.38,10.38-.72,2.85-.81,5.15-.5,8.09.24,2.26.43,4.51,1.73,6.38,8.43.15,14,6.86,13.23,14.83-.31.35-1.01,1.22-1.35,1.07l-1.92-.82-.89,4.96c-1.26,2.33-3.06,5.34-5.28,6.77-5.26,3.37-12.16.66-14.4-4.97l-1.44-4.99c-1.03.64-2.22,1.31-3.32,1.54-5.12-8.03-.85-16.64-2.56-26.12-2.53-2.26-3.41-5.12-3.85-8.44l-1.29-20.83c-.4-6.41.23-12.5-.62-18.95-4.47-1.6-9.02-2.28-13.52-.89l-15.53,4.79-9.44,3.25-21.35,7.72-12.64,4.31-13.02,4.1-10.57,2.33-4.4-1.86-.32,10.3.37,4.56c1.51-2.9,3.69-4.55,6.64-5.71,2.28-.89,4.1-.67,6.47-1.07l12.07-2.07,9.67-2.86,15.14-3.43,10.09-2.47,15.59-2.92c4.48-.84,9.03.04,13.54.53,3.78.41,7.64-.3,11.09,1.92l-10.62-.86-10.65-.84c-8.63.45-16.67,2.62-24.99,4.61l-21.57,5.17-7.35,2.2-9.01,1.68.15.97,4.45,1.68c2.77,1.05,4.76,4.04,6.77,6.2,1.17,2.13,1.17,4.39-.9,6.01.65,3.48-.58,6.84-3,9.34-2.09,2.85-5.1,3.63-8.45,3.71-6.91.16-12.26-3.18-14.38-9.87-.59-1.87-.42-3.79-.78-5.84l-1.23-6.98ZM50.4,141.91c7.21-.96,14.39-1.31,21.48-3.04,8.49-2.07,16.6-3.1,25.26-3.91,4.89-.46,9.67-1.99,14.33-3.43l17.83-5.51c6.43-1.99,12.2-4.6,18.25-7.53,3.49-1.69,7.23-2.81,10.96-4.1,7.21-2.51,9.22-3.01,9.83-11.64.8-11.33.74-22.31-.26-33.54-.83-9.37-3.45-17.63-9.2-25.09l-2.37-3.86c-3.06-4.96-5.84-9.86-9.48-14.34-2.47-3.04-5.73-4.48-9.24-5.94l-4.47-1.86c-7.75-1.71-15.39-1.67-23.25-.8l-11.21,1.24-17.95,2.42c-6.59.89-12.47,2-18.67,3.73l-21.62,6.04c-4.91,1.37-9.87,1.89-14.6,3.98-1.82.81-2.96,2.29-3.69,4.19-4.44,11.42-2.25,18.3,1.24,29.78,2.4,7.88,2.02,14.93,3.98,22.78,1.39,5.57,2.09,10.85,2.22,16.6s.79,11.54,2.5,16.99c1.53,4.88,2.99,9.82,5.04,14.55.39.71,2.62-.23,3.41-.65.15.53-.44,1.28-1.34,2.01,3.33.99,7.14,1.44,11.03.92ZM36.3,140.08l-5.25-15.67c-3.02-9.01-1.45-20.07-3.57-28.95-1.23-5.13-2.13-10.02-2.67-15.25-1-9.74-4.37-17.01-5.94-26.57-.92,3.81-.82,7.77-.94,11.73l-.45,14.09-.5,5.76c-1.37,15.76-.85,24.46,2.46,39.96,1.82,8.51,7.94,15.36,16.86,14.89ZM268.61,215.62l-3.61,3.84c-6.27,5.03-13.11,8.9-20.6,11.89l-11.08,4.42-7.66,2.6c-7.27,2.47-14.35,4.49-21.95,5.7l-26.7,4.27c-5.56.89-10.86.82-16.39,1.24-15.91,1.23-31.12-.97-46.28-5.95l-24.67-8.1-5.26-1.72c-3.64-1.19-6.83-2.51-10.07-4.57-1.7-1.08-4.01-1.41-5.1-3.55l10.8,5.54,9.91,3.4c15.5,5.32,40.05,14.03,55.01,14.1l10.73.06c11.86.06,23.22-1.59,34.89-3.55l15.08-2.54c7.41-1.25,14.24-3.4,21.38-5.78,13.87-4.62,27.17-10.2,38.72-19.13l2.9-5.23-5.2-12.24c-1.67-3.92-5.03-6.79-8.64-8.85l-7.78-4.44-11.49-4.03c-4.11-1.44-8.06-2.25-12.46-2.64l-31.86-2.85c-3.14-.28-6.01.85-9,1.15l-18.65,1.88-9.8.86-14.38,2.05-15.45,2.61-3.24,1.06c-4.47.83-8.39,2.22-12.69,3.39l-9.23,2.51c-6.58,1.79-12.71,3.85-18.81,6.94-2.39,1.21-5.28,1.77-7.46,3.23l-4.71,3.15c-3.97,2.65-6.89,7.98-4.36,12.52l2.26,4.06c.6,1.07,3.15,1.22,2.65,3.71l-2.59-2.27c.42,2.35,1.23,4.9,2.22,7.4,4.6,4.61,9.87,8.66,15.8,11.45l9.24,4.35,5.18,1.57c4.79.79,9.02,2.46,13.4,4.52s8.48,3.29,12.97,4.53l12.17,3.35c9.93,2.74,26.63,3.19,37.03,1.89l19.02-2.38,12.23-2.42c8.23-1.63,15.87-4.24,23.69-7.42,8.09-3.29,15.36-7.17,22.84-11.63,4.15-2.47,7.82-5.29,11.45-8.54,1.83-1.64,3.19-4.09,3.69-6.47l1.9-8.97ZM168.23,317.65l.09-4.6-1.76-13.05-.52-21.41c-.07-2.88.31-5.91-.23-8.68l-.95-4.88-5.74.12-4.91-.27-5.39-.46-9.8-1.19.26,10.96-.14,22c-.03,4.68-.63,9.12.11,13.92l.02,4.7.4,7.89,5.73.27,10.73.5c4.37.21,11.95-1.77,12.02-3.53l.09-2.3ZM199.84,324.3c-2.33.97-4.28,2.79-7.24,2.25l8.26-3.68,9.93-4.59c1.94-.9,4.49-1.79,5.74-3.25.29-.8.64-1.5,1.16-2.29s-.06-2.7-.7-3.8l-1.83,1.58-20.28,8.33-11.3,3.77-8.34,2.76,22.15,3.32,8.36,1.27-2.31-7.15-3.59,1.49ZM219.71,320.19c2.77-1.05,5.53.45,6.76,2.63l3.4,6.01c1.16-.51,1.83-2.53.96-3.52l-7.3-8.31c-1.13-1.29-3.03-2.49-4.71-2.7-1.96,2.03-3.88,3.14-6.24,4.28l-8.23,3.96,2.46,7.69,3.12.79,5.11-8.18c.69-1.11,3.17-2.07,4.67-2.64ZM223.99,333.55c1.14.19,3.73.69,4.17-.21,1.83-3.69-.36-6.94-2.36-9.8-1.75-2.5-4.05-3.51-7.01-2.13-2.36,1.1-4.06,3.02-5.38,5.29l-2.73,4.68,13.31,2.16ZM110.99,329.13l-15.54-4.37c-2.69,2.61-4.9,5.82-4.53,9.88l20.07-5.51ZM254.99,356.06c3.07-.18,5.62-1.09,8.27-2.44.28-1.76.12-3.79-.33-5.53-2.99.79-5.29.11-8.32-.11l-4.64-.34-13.07-1.45-11.64-2.22-14.14-3.33-26.25-5.6-11.29-3.09-3.99-.37c-2.07-.19-3.57,1.09-4.55,2.41-1.36,1.83-.99,3.51-.49,5.59l2.09,8.65,11.39-.5,2.81.05,12.91,2.58,9.84,1.94,15.76,2.55,6.09.85c3.83.53,7.39.94,11.28.94h8.75s9.53-.57,9.53-.57ZM264.87,360.45c2.55-1.42,5.34-.98,7.82-.35,3.3.84,5.05,3.01,7.57,5.7-.51-4.99-5.12-8.34-9.64-9.48l-6.82-1.72-6.36,1.96-6.84,1.1.54,6.47c.3,3.54,1.36,7.29,5.06,8.8,3.54-.3,2.11-8.81,8.67-12.47ZM273.55,379.66c3.75-2.62,5.68-6.42,6.94-10.8-1.25-2.12-2.44-4.35-4.29-5.92-3.06-2.6-8.29-3.39-11.58-1.15s-4.33,6.06-5.42,9.98c.29,3.71,2.63,7.65,6.72,8.94,2.13.67,5.85.19,7.63-1.05ZM70.65,379.18c.95-.98,1.55-2.56,1.19-3.61-.26-.76-1.12-1.62-1.96-2.43l-4.68-4.58c-7.42-3.38-7.78-2.83-14.99-1.22-2.38.53-3.92,2.41-4.66,4-1.05,2.24-.72,4.1.58,6.54,2.51-3.73,5.66-7.2,10.41-8.49,2.49-.68,6.35.23,7.94,2.19l6.17,7.6ZM62.72,391.59c4.36-1.07,8.25-5.94,7.46-10.47-.59-2.97-3.43-5.19-5.13-7.58-1.86-2.62-5.66-3.94-8.81-3-5.16,1.53-8.63,5.61-10.54,10.56,1.54,8.06,8.93,12.48,17.01,10.5ZM164.13,394.09c4.9-2.41,10.86-.68,12.62,2.69l3.64,6.99c.67-1.29.61-2.37.48-3.61-.66-6.36-5.57-10.43-11.88-10.68-4.14-2.52-2.4-6.29-3.38-10.11-2.28,2.48-4.17,5.84-8.02,5.79-1.89-.02-4.17-2.2-5.71-3.29l-.11,11.82c-.04,4.32-.26,8.77,2.19,12.41l2.83-3.06,3.15-4.64c.99-1.46,2.6-3.53,4.2-4.32ZM168.53,415.68c2.65-.14,3.98-1.39,5.46-3.18,2-2.43,3.65-4.94,3.28-8.32,1.15-1.58.79-3.46-.27-5.08-1.48-3.71-5.11-5.34-8.92-5.12-3.48.2-6.24,2.42-7.91,5.83l-1.79,3.64c-.64,1.3-.53,2.64-.22,4.04,1.11,5.13,4.79,8.48,10.37,8.19Z"/>
      <path d="M137.57,314.37c-7.21-1.99-13.7-3.47-20.63-4.44l-10.81-1.5c-5.23-.73-10.62-2.14-15.93-1.45-3.27.43-6.39,2.51-9.37,3.11l-.37-.79c3.23-.67,6.8-3.21,10.53-3.36,5.09-.2,10.12.72,15.03,1.45l13.4,2,11.92,2.35c2.16.42,4.87.39,6.22,2.63Z"/>
      <path class="st0" d="M254.99,356.06l-9.53.56h-8.75c-3.89.02-7.45-.4-11.28-.93l-6.09-.85-15.76-2.55-9.84-1.94-12.91-2.58-2.81-.05-11.39.5-2.09-8.65c-.5-2.08-.87-3.76.49-5.59.98-1.32,2.48-2.6,4.55-2.41l3.99.37,11.29,3.09,26.25,5.6,14.14,3.33,11.64,2.22,13.07,1.45,4.64.34c3.02.22,5.32.89,8.32.11.45,1.74.61,3.76.33,5.53-2.65,1.35-5.2,2.26-8.27,2.44Z"/>
      <path class="st0" d="M62.72,391.59c-8.08,1.98-15.47-2.44-17.01-10.5,1.91-4.95,5.38-9.03,10.54-10.56,3.15-.93,6.94.38,8.81,3,1.7,2.39,4.54,4.62,5.13,7.58.79,4.53-3.1,9.4-7.46,10.47Z"/>
      <path class="st0" d="M168.53,415.68c-5.58.29-9.26-3.06-10.37-8.19-.3-1.4-.42-2.74.22-4.04l1.79-3.64c1.68-3.41,4.43-5.64,7.91-5.83,3.81-.22,7.45,1.41,8.92,5.12,1.05,1.61,1.41,3.5.27,5.08.37,3.39-1.27,5.89-3.28,8.32-1.48,1.79-2.81,3.04-5.46,3.18Z"/>
      <path class="st0" d="M273.55,379.66c-1.78,1.24-5.5,1.72-7.63,1.05-4.09-1.29-6.43-5.23-6.72-8.94,1.09-3.91,2.01-7.66,5.42-9.98s8.52-1.45,11.58,1.15c1.85,1.57,3.05,3.8,4.29,5.92-1.26,4.37-3.19,8.18-6.94,10.8Z"/>
      <path class="st0" d="M164.13,394.09c-1.6.79-3.21,2.85-4.2,4.32l-3.15,4.64-2.83,3.06c-2.46-3.64-2.23-8.09-2.19-12.41l.11-11.82c1.54,1.1,3.81,3.27,5.71,3.29,3.85.05,5.74-3.31,8.02-5.79.98,3.82-.77,7.6,3.38,10.11,6.31.25,11.22,4.32,11.88,10.68.13,1.24.19,2.32-.48,3.61l-3.64-6.99c-1.75-3.37-7.72-5.1-12.62-2.69Z"/>
      <path class="st0" d="M199.84,324.3l3.59-1.49,2.31,7.15-8.36-1.27-22.15-3.32,8.34-2.76,11.3-3.77,20.28-8.33,1.83-1.58c.64,1.1,1.22,3.01.7,3.8s-.88,1.49-1.16,2.29c-1.25,1.46-3.8,2.35-5.74,3.25l-9.93,4.59-8.26,3.68c2.97.54,4.91-1.28,7.24-2.25Z"/>
      <path class="st0" d="M264.87,360.45c-6.56,3.66-5.13,12.17-8.67,12.47-3.7-1.51-4.76-5.26-5.06-8.8l-.54-6.47,6.84-1.1,6.36-1.96,6.82,1.72c4.53,1.14,9.13,4.49,9.64,9.48-2.53-2.69-4.27-4.86-7.57-5.7-2.47-.63-5.26-1.07-7.82.35Z"/>
      <path class="st0" d="M223.99,333.55l-13.31-2.16,2.73-4.68c1.32-2.27,3.02-4.19,5.38-5.29,2.97-1.38,5.27-.37,7.01,2.13,2,2.86,4.19,6.11,2.36,9.8-.44.89-3.03.39-4.17.21Z"/>
      <path class="st0" d="M219.71,320.19c-1.5.57-3.98,1.53-4.67,2.64l-5.11,8.18-3.12-.79-2.46-7.69,8.23-3.96c2.36-1.14,4.28-2.25,6.24-4.28,1.69.21,3.58,1.41,4.71,2.7l7.3,8.31c.87.99.19,3.02-.96,3.52l-3.4-6.01c-1.23-2.18-3.99-3.68-6.76-2.63Z"/>
      <path class="st0" d="M70.65,379.18l-6.17-7.6c-1.6-1.97-5.46-2.87-7.94-2.19-4.75,1.3-7.9,4.76-10.41,8.49-1.3-2.44-1.63-4.3-.58-6.54.75-1.59,2.28-3.47,4.66-4,7.21-1.6,7.57-2.16,14.99,1.22l4.68,4.58c.83.82,1.7,1.67,1.96,2.43.36,1.05-.25,2.62-1.19,3.61Z"/>
      <path class="st0" d="M110.99,329.13l-20.07,5.51c-.37-4.06,1.84-7.27,4.53-9.88l15.54,4.37Z"/>
    </g>
  </g>
</svg>