<?xml version="1.0" encoding="UTF-8"?>
<svg id="Layer_1" xmlns="http://www.w3.org/2000/svg" version="1.1" viewBox="0 0 303.01 435.26">
  <!-- Generator: Adobe Illustrator 30.4.0, SVG Export Plug-In . SVG Version: 2.1.4 Build 226)  -->
  <defs>
    <style>
      .st0 {
        fill: #fff;
      }
    </style>
  </defs>
  <path class="st0" d="M24.06,127.68c-9.35-2.44-14.17-10.46-13.86-19.73l.38-11.11,1.6-11.37,1.24-6.01c1.35-6.51,3.59-12.42,5.85-18.71l1.98-5.54,3.96-14.2c1.44-3.51,1.76-6.88,3.74-10.27l.24,15.22c.29,6.56-1.12,12.72-1.59,19.13l-.6,8.16c-.38,5.15-.37,9.85-1.55,14.98-1.76,7.67-3,15.27-2.98,23,.73,2.64.53,5.28.78,7.91l.81,8.54Z"/>
  <g>
    <path class="st0" d="M108.65,246.94l-26.96-4.24-13.39-2.58c-3.69-.71-7.21-3.39-10.93-3.44-1.36-.02-1.99-.2-2.81-1.54-1.8-.45-3.33-1.37-3.65-3.49-2.1-.97-3.39-3-3.36-5.38-.98-4.12.71-7.16,3.53-9.96l5.74-5.69,10.09-6.3,11.73-6.91,9.9-5.13c10.45-5.42,20.85-9.81,32.17-13.44l25.24-8.09,24.13-6.37,9.41-3.26c1.23-.43,3.89-.91,5.26-1.05l8.88-.89,23.37-1.7,15.04.47,5.23.62,3.87.47,6.91,1.61,7.47,2.76c7.17,2.65,12.24,7.27,15.94,14l4.07,7.4-2.29,5.81c-6.11,7.26-13.25,13.16-21.3,18.1l-4.44,2.73-2.74,1.7-8.25,4.83c-10,5.86-20.28,10.27-31.19,14.04l-12.28,4.23c-10.91,3.76-21.58,7.21-32.89,9.27l-13.96,2.55c-12.71,1.52-24.73.9-37.53-1.11Z"/>
    <path class="st0" d="M73.3,252.14c-8.49-3.86-17.71-6.47-19.75-15.03l1.79.72c.29.12.66-.18,1.09-.42l8.65,3.09,4.19,1.53,5.02.63,4.81,1,5.98,1.18,31.59,4.53,7.54.77,12.01-.03,7.31-.43,19.29-3.46,20.92-5.5,14.24-4.84,21.88-8,16.94-8.66,10.74-6.16c7.95-4.56,15.22-9.93,21.7-16.45l3.53-4.06,3.22-3.87-.23,8.62c-.11,3.97-2.04,7.48-4.65,10.29l-5.91,6.35-3.74,3.23-4.74,4.07-6.46,5.02-4,3.46-11.09,7.16-17.55,9.11-13.76,5.45c-9.67,3.84-19.38,6.23-29.37,8.81-5.83,1.51-11.34,2.49-17.54,2.62l-5.39,1.01c-5.79,1.09-11.54.11-17.29-.45l-6.48-.63c-5.36-.52-10.75-.81-15.93-2.24l-2.25-.62c-12.83-3.55-21.16-.88-36.31-7.77Z"/>
    <g>
      <path d="M104.54,260.09c-1.29-.34-3.55-.5-5.28-.64l-5.4-.43-11.98-2.15-5.23-1.78-7.99-3.47-8.09-3.96-5.15-3.51c-2.16-2.88-3.12-7.42-5.53-10.13-5.65-6.36-5.06-14.67,1.36-20.37,3.75-3.33,7.98-6.22,12.43-8.78l5.21-3,4.86-3.24-9.74-14.49c2.83,1.79,3.57,4.94,5.42,7.39l4.75,6.25c2.41.41,4.63-1.63,6.82-3.42l-6.68-8.35-7.9-8.77-.25-17.2-1-6.94,2.23-9.43.93-5.3c.25-1.42-4.13-1.87-4.73-.21-1.29,3.6-3.04,7.31-3.54,11.07-.56,4.24.69,8.74.83,13.02l.44,13.16c.1,3,.86,5.56,2.14,8.18-1.19-1-2.79-2.78-3.02-4.05l-.45-11.79c-.19-4.99-.44-9.43-1.38-14.23-.47-2.39.55-4.92,1.15-6.94l2.85-9.48-5.23-.4-11.97-1.42-5.25-.38c-5.78-.42-10.41-2.56-15.36-5.38-3.35-1.9-9.12-2.41-12.05-7.95-1.54-2.91-3.81-5.87-3.81-9.14l.02-13.8.58-5.74,1.41-8.15,2.91-12.85,1.5-4.54,5.74-16.62,2.27-8.03c2.37-8.41,5.07-16.23,9.41-23.77,5.11-8.88,5.52-10.23,16.09-10.32l22.35-.19,23.79-.16,17.13,1.97,5.26.64,5.29.72c.34.34,1.58,1.6,2.09,1.46l4.79-1.28,7.61-1.25,14.4.05c3.8.01,7.28,1.34,10.6,2.73l7.01,2.93c5.79,5.29,9.84,11.61,14.23,17.94,1.46,2.1,1.16,2.36.92,4.9l-1.65,17.37-1.97,27.66c-.74,10.33-1.75,20.27-3.87,30.42-.89,4.27-1.35,8.38-1.43,12.87l-1.24,1.31.72-9.19c2.53-11.96,3.94-23.53,4.78-35.75l2.58-37.75.97-9.16-7.7-11.12c-2.38-3.44-5.26-7.33-9.19-8.86l-10.13-3.96-7.73-.84c-3.79-.41-6.86,0-10.68.38l-8.37.81-8.42,2.31-12.16,3.52-20.89,7.02c5.02-3.5,10.51-5.16,16.14-6.75l10.01-2.82-1.24-1.92,4.94-.78,4.65-.84-8.46-1.25-4.48-.39-9.35-1.3c-5.08-.71-9.98-.55-14.75-.47l-16.24.28-12.95.09-9.87-.03c-2.23,0-5.61.22-7.3,2.01-6.52,6.88-8.65,15.79-8.68,24.99l-.06,15.87-1.88,16.88c-.58,5.18-.06,10.18-1.15,15.28l-1.76,8.23-1.34,9.61c-.55,3.98-.36,7.81.15,11.87s-.39,9.29,1.66,13.06c3.05,4.23,8.98,5.45,13.61,5.82l6.06.49,14.72,1.67,13.11.35,10.65,1.51c10.1,1.43,19.89,1.77,30.01,1.12l7.02-.45,18.1-1.21,14.66-2.56,8.65-.67c6.9-.54,11.94-.34,14.43-6.81.71,4.28-3.52,7.1-7.61,7.48l-12.11,1.15-6.26.58-11.17,2.23-13.47,1.06-10.36.42-10.99.56-10.2-.11-.47,7.14-.54,12.13.46,10.25,7.32,14.05c-1.61-.08-1.65-.77-2.17-1.79l-6.17-12.13c-2.02-3.98-.87-8.52-.87-12.56v-4.45s.45-7.13.45-7.13l.83-5.57-9.04-1.34-13.74-1.85c-1.5,5.72-3.93,11.42-3.79,17.51l.49,20.7,7.67-1.46c3.07-.59,5.81-2.71,9.51-1.83l-9.93,2.96-7.07,1.7,10.78,12.79c1.23,1.46,2.23,3.59,4.04,4.6l5.75-3.16,8.45-4.2c6.96-3.45,14.18-5.81,21.51-8.44l12.3-4.42,20.85-6.02,19.89-5.46c6.77-1.86,12.87-3.91,20.04-4.38l33.28-2.15c3.27-.21,6.92.74,10.44,1.07,11.62.83,22.68,4.52,31.61,11.55,4.62,6.04,8.72,11.63,10.97,18.79l-.51,7.69c-.33,5.03-1.27,8.96-4.47,12.72-3.82,4.48-7.65,8.62-12.31,12.24l-15.37,11.95c-17.1,13.29-48.43,25.1-70.47,28.83-1.22.56-.93.97.21,1.09l9.57-.57c.76.13,2.22.38.83.26l-11.84,1.15-8.52.73.57,9.77.28,14.22.26,14.62,2.37,18.4,14.51-6.6,6.94-2.99,4.7-1.77c5.58-2.1,11.15-2.76,17.11-2.71l4.4.03c2.75.02,5.28,1.65,6.68,3.72-1.07,1.98,1.76,2.76,1.22,6.32,2.69,1.53,5.26,3.4,7.52,5.71,4.89,5,10.29,10.6,4.82,13.54l-.85,4.87,20.84,5.11c5.07-.3,9.35,1.34,13.33,4.44,2.08,1.06,4.61,2.7,5.99,4.26-1.81,2.08-.88,7.07.02,8.48,1.18,1.85,13.64,1.31,17.72,11.4,2.19,5.41-.58,10.86-3.64,15.17-2.34,3.28-4.92,4.92-8.96,5.24-10.8.88-12.51-9.9-12.63-9.82l-1.83,1.19c-4.4-1.34-7.18-5.96-7.12-10.69l-1.03-7.59-21.52-1.31-17.85-2.29-29.44-5.53c-5.11-.96-9.81-2.04-15-1.75l-9.02.51,1.17,16.84c.36,5.18.02,9.71-1.2,14.82-.3,2.81.38,6.62.65,9.48.21,2.18,1.61,3.13,3.39,3.34,7.72.89,12.44,6.71,13.1,14.19.13,1.44-.84,3.58-2,3.39-.28-.05-1.22-.6-1.42-.73s-.61.45-.72.74l-.65,4.3c-1.26,2.99-3.45,6.15-6.05,8.08-3.3,2.44-8.23,1.83-11.48-.09-6.12-3.62-5.7-11.65-6.49-11.11l-1.22.83-1.56.83c-.45.24-1.47-.9-1.68-1.4-4.68-11.25.79-21-2.47-27.66-1.83-3.74-3.73-6.65-4-11.26l-1.23-20.83-.7-21.84c-5.03-1.8-10.13-2.57-15.19-1.01l-17.46,5.38-10.61,3.66-23.99,8.68-14.21,4.85-14.64,4.61-11.89,2.62-4.95-2.1-.36,11.57.42,5.12c1.69-3.26,4.15-5.12,7.47-6.42,2.56-1,4.61-.75,7.27-1.2l13.57-2.32,10.87-3.21,17.01-3.85,11.34-2.78,17.52-3.29c4.84-.91,9.81-.01,14.68.47l11.93,1.19c.59.65.67,1.38.03,1.14l-11.39-1.11c-7.1-.69-13.72-1.37-20.78.15l-14.04,3.03-27.82,6.62-9.95,2.93-7.94,1.46-1.88.34.43,1.09,4.93,1.86c3.14,1.18,5.35,4.53,7.62,6.98,1.3,2.37,1.34,4.96-1.04,6.73.85,4.02-.78,7.59-3.28,10.57s-5.68,4.08-9.59,4.13c-7.57.1-13.59-3.41-16-10.68-.76-2.3-.57-4.52-1.02-6.99l-1.38-7.67.13-15.6-.22-1.46c-.04-.26.88-.71,1.05-.92,1.01-2.76,3.86-4.64,6.68-5.77l12.03-4.82,14.24-5.36,18.46-5.97c-.11-4.21,1.36-8.29,5.06-11.62l-9.2-1.97-4.59-1.29-.22.69-.49,7.79.67,6.17.13,1.1c.02.19-.41.15-1.04.12l-.79-8.03c-.31-3.19,1.16-6.95-.11-10.02-.74-1.18-2.33-2.69-2.32-3.85.01-1.99.64-3.44,2.1-4.94.99-1.03,2.89-1.31,4.49-.95l18.03,3.96,18.9,2.99,15.38,3.47c.49-.15,1.11-.34,1.24-.32l3.11.36-.87,1.39-10.92-2-13.21-2.63-12.47-1.84-19.7-4.39c-1.3-.29-3.23.66-3.94,1.45-3.14,3.5,2.54,8.72,3.93,9.03l15.74,3.53,15.66,4.28c.32.24,1.38.89,1.43.88l20.93-6.07c1.23-.92,2.77-1.73,4.38-.64l-9.28,3.29-51.86,14.09-15.54,5.7-21.08,8.53c-2.07.84-3.26,2.56-4.26,4.75l5.3,2.13,23.3-6.43,8.49-2.9,11.82-4.14,31.83-11.31,17.26-5.11c5.27-1.56,10.74-.75,15.9,1.54l.53,11.22.09,7.35-.09,6.42,1.26,17.65c.55,7.73,2.3,9.91,8.63,14.53,5.71,4.17,13.77-6.69,13.22-16.16l-1.14-19.85-.74-4.33-2.59-12.28c.17-1.33,1.72-4.02,2.86-4.7,3.06-1.82,7.37-2.06,10.65-1.15l9.46,2.61,23.43,5.01,14.87,3.66,12.79,2.63,19.53,2.92,11.6,1.82c2.92.46,5.8.56,8.2-1.65-4.32-2.53-8.34-6.21-13.03-7.08l-10.62-1.97c-10.21-3.05-20.43-4.2-30.95-5.83l-14.28-3.12-24.54-3.9c-2.73-.43-5.38-.18-8.07.39-1.68-.67-3.12-.56-5.28.24.08.2-.51-.6-.33-.69l1-.5,10.42-3.54,6.91-2.42,12.53-4.37,21.3-8.85-.12-1.32c-.03-.32.8-.43,1.87-.66.55-.49-1.42-2.72-2.57-2.79l-8.23-.5c-5.4-.33-10.36.81-15.44,2.52l-5.76,1.94-10.77,5.08-10.38,4.6c1.41,6.84-7.66,8.67-14.88,8.53l-8.01-.16c-2.95-.06-7.4-.99-9.89-.34-.22.06-1.05,1.13-1.11.92l-.25-1.08c-1.05-4.48-.98-9.06-.99-13.73l-.04-18.04.2-18.52c.04-3.56.25-6.72-.39-10.25-.2-1.09.07-2.51,1-3.6l.53,8.9-.24,24.44c-.05,5.21-.62,10.09.13,15.38l.03,5.29.44,8.87,5.94.26c4.47.2,8.63.82,13.11.58,4.75-.25,11.89-1.46,12.85-3.58.27-.59.08-2.12.11-2.78l.23-5.35-1.99-14.67-.59-24.07.06-8.16-.7-6.21-1.11-.51-7.16,1.04-12.74.95c-.47.1-1.39.29-.83.17l.16,4.17c-1.06.39-1.42.27-.86-.45l-.93-3.85c-.21-.89-2.51-.61-3.41-.69l-6.64-.65-4.2-.47-6.04-.65-9.55-1.51-5.83,4.74-3.16,2.33-6.08,4.41c-.88.64-1.8,2.79-2.95,3.36-5.38,2.68-9.39,6.38-13.58,10.46l-7.6,6.04c-1.14.9-3.67,1.34-5.27,1.89-3.48,1.19-7.86,2.01-11.13.2-4.11-2.28,2-10.91,8.51-13.75l7.61-3.32c3.14-1.37,6.62-2.67,9.44-4.64,6.08-4.25,8.84-3.75,8.2-2.81l-.55.81c-2.73.18-4.67,1.51-7.05,3.11-7.37,4.96-13.36,5.29-19.72,9.71-3.29,2.28-6.87,6.08-6.58,8.77.31,2.89,11.69,1.98,17.46-2.16l9.94-8.73,3.64-2.88,7.38-4.89c-2.13-.65-4.21-3.05-3.23-4.11,3.18-3.42,7.29-5.42,11.22-7.81l2.97-1.8.54-.62ZM24.06,127.68l-.81-8.54c-.25-2.63-.05-5.26-.78-7.91-.01-7.73,1.22-15.34,2.98-23,1.18-5.13,1.17-9.83,1.55-14.98l.6-8.16c.47-6.41,1.88-12.57,1.59-19.13l-.24-15.22c-1.98,3.39-2.3,6.76-3.74,10.27l-3.96,14.2-1.98,5.54c-2.26,6.29-4.5,12.2-5.85,18.71l-1.24,6.01-1.6,11.37-.38,11.11c-.32,9.27,4.5,17.29,13.86,19.73ZM108.65,246.94c12.8,2.02,24.82,2.64,37.53,1.11l13.96-2.55c11.31-2.06,21.98-5.51,32.89-9.27l12.28-4.23c10.92-3.76,21.19-8.18,31.19-14.04l8.25-4.83,2.74-1.7,4.44-2.73c8.05-4.94,15.19-10.84,21.3-18.1l2.29-5.81-4.07-7.4c-3.7-6.73-8.78-11.35-15.94-14l-7.47-2.76-6.91-1.61-3.87-.47-5.23-.62-15.04-.47-23.37,1.7-8.88.89c-1.36.14-4.02.63-5.26,1.05l-9.41,3.26-24.13,6.37-25.24,8.09c-11.32,3.63-21.72,8.03-32.17,13.44l-9.9,5.13-11.73,6.91-10.09,6.3-5.74,5.69c-2.81,2.79-4.51,5.84-3.53,9.96-.03,2.38,1.26,4.41,3.36,5.38.32,2.12,1.85,3.04,3.65,3.49.81,1.35,1.45,1.52,2.81,1.54,3.72.06,7.24,2.73,10.93,3.44l13.39,2.58,26.96,4.24ZM73.3,252.14c15.15,6.89,23.48,4.22,36.31,7.77l2.25.62c5.19,1.43,10.58,1.72,15.93,2.24l6.48.63c5.74.56,11.5,1.54,17.29.45l5.39-1.01c6.2-.13,11.71-1.11,17.54-2.62,9.99-2.58,19.69-4.98,29.37-8.81l13.76-5.45,17.55-9.11,11.09-7.16,4-3.46,6.46-5.02,4.74-4.07,3.74-3.23,5.91-6.35c2.61-2.81,4.55-6.32,4.65-10.29l.23-8.62-3.22,3.87-3.53,4.06c-6.48,6.52-13.75,11.89-21.7,16.45l-10.74,6.16-16.94,8.66-21.88,8-14.24,4.84-20.92,5.5-19.29,3.46-7.31.43-12.01.03-7.54-.77-31.59-4.53-5.98-1.18-4.81-1-5.02-.63-4.19-1.53-8.65-3.09c-.43.24-.8.54-1.09.42l-1.79-.72c2.04,8.56,11.26,11.17,19.75,15.03ZM104.94,260.37l-.68.79c-.16.39-.99,1.51-1.5,1.84l-11.72,7.59c-.35.88,1.74,2.65,2.4,2.17l6.54-4.67,8.45-6.48c-1.5-.73-2.36-1.01-3.49-1.25ZM206.33,327.77l-4.03,1.66c-2.62,1.08-4.8,3.14-8.14,2.53l8.91-3.97,11.53-5.33c2.19-1.01,5.05-2.02,6.45-3.65.32-.88.78-1.79,1.27-2.54.64-.95-.03-3.08-.75-4.31l-2.06,1.78-23.18,9.5-11.92,3.97-6.11,1.95-2.2,1.38,23.43,3.62,9.41,1.43-2.62-8.03ZM224.64,324.81c3.11-1.18,6.22.51,7.6,2.95l3.82,6.76c1.3-.57,2.06-2.85,1.08-3.96l-8.2-9.33c-1.35-1.54-3.3-2.65-5.33-3.14-2.18,2.51-4.29,3.59-7,4.9l-9.24,4.46,2.77,8.65,3.5.88,5.74-9.19c.78-1.25,3.56-2.33,5.25-2.97ZM229.45,339.83c1.28.21,4.19.77,4.69-.23,2.07-4.16-.4-7.81-2.65-11.02-1.96-2.81-4.55-3.94-7.88-2.39-2.65,1.23-4.56,3.4-6.04,5.95l-3.06,5.26,14.96,2.43ZM102.43,335.4l-17.46-4.91c-3.03,2.93-5.51,6.54-5.1,11.1l22.56-6.19ZM251.65,366.01c7.68.26,15.66.43,22.13-3.3l-.51-6.01c-3.34.92-5.7.44-8.91.01l-20.81-2.75-12.23-2.34-16.76-3.93-29.09-6.16c-5.56-1.18-10.4-3.84-16.31-3.47-3.2.2-7.86,2.15-6.94,6.11l2.8,12.13,13.3-.56,5.27.58,11.47,2.32,11.46,2.25,17.72,2.87,6.84.94c4.13.57,7.94.89,12.15,1.03l8.43.28ZM275.4,370.61c2.87-1.6,6.01-1.1,8.79-.39,3.71.95,5.67,3.38,8.51,6.41-.58-5.61-5.75-9.37-10.84-10.66l-7.66-1.94-7.15,2.2-7.69,1.24.61,7.27c.33,3.98,1.53,8.19,5.69,9.89,3.98-.34,2.37-9.91,9.75-14.02ZM285.15,392.2c4.21-2.94,6.39-7.22,7.8-12.14-1.4-2.39-2.75-4.89-4.83-6.66-3.44-2.93-9.32-3.82-13.02-1.3s-4.86,6.82-6.09,11.22c.32,4.17,2.96,8.6,7.56,10.05,2.4.76,6.58.22,8.58-1.18ZM57.09,391.67c1.05-1.09,1.72-2.97,1.35-4.03-.31-.87-1.28-1.85-2.21-2.76l-5.26-5.15c-8.34-3.8-8.75-3.18-16.85-1.37-2.67.6-4.4,2.71-5.24,4.5-1.18,2.52-.81,4.6.65,7.35,2.82-4.19,6.36-8.09,11.7-9.55,2.79-.76,7.13.25,8.93,2.47l6.94,8.55ZM48.18,405.61c4.9-1.2,9.27-6.68,8.38-11.76-.66-3.34-3.85-5.83-5.76-8.52-2.09-2.95-6.36-4.43-9.9-3.38-5.8,1.72-9.7,6.3-11.84,11.86,1.74,9.05,10.04,14.03,19.12,11.8ZM162.17,407.88c5.51-2.71,12.21-.76,14.18,3.03l4.09,7.86c.75-1.45.68-2.66.54-4.05-.74-7.15-6.26-11.73-13.35-12.01-4.66-2.83-2.7-7.07-3.8-11.37-2.56,2.79-4.68,6.57-9.02,6.51-2.13-.03-4.69-2.47-6.41-3.7l-.13,13.29c-.05,4.86-.3,9.85,2.46,13.95l3.18-3.44,3.54-5.21c1.12-1.64,2.93-3.97,4.72-4.85ZM167.11,432.15c2.98-.16,4.48-1.56,6.14-3.57,2.25-2.73,4.1-5.55,3.69-9.36,1.29-1.77.89-3.89-.3-5.71-1.66-4.17-5.74-6-10.03-5.76-3.92.22-7.01,2.72-8.89,6.56l-2.01,4.09c-.72,1.46-.59,2.97-.25,4.55,1.25,5.76,5.39,9.53,11.66,9.2Z"/>
      <path d="M132.31,318.82l-23.18-4.99-12.16-1.69c-5.88-.82-11.94-2.4-17.91-1.63-3.68.48-7.18,2.82-10.53,3.5l-.42-.89c3.63-.75,7.65-3.6,11.84-3.77,5.72-.23,11.37.8,16.89,1.63l15.07,2.25,13.4,2.64c2.42.48,5.48.43,6.99,2.95Z"/>
      <path class="st0" d="M251.65,366.01l-8.43-.28c-4.21-.14-8.02-.46-12.15-1.03l-6.84-.94-17.72-2.87-11.46-2.25-11.47-2.32-5.27-.58-13.3.56-2.8-12.13c-.92-3.96,3.74-5.91,6.94-6.11,5.92-.37,10.76,2.29,16.31,3.47l29.09,6.16,16.76,3.93,12.23,2.34,20.81,2.75c3.22.43,5.58.91,8.91-.01l.51,6.01c-6.47,3.73-14.45,3.56-22.13,3.3Z"/>
      <path class="st0" d="M48.18,405.61c-9.08,2.23-17.39-2.75-19.12-11.8,2.14-5.56,6.05-10.14,11.84-11.86,3.54-1.05,7.8.43,9.9,3.38,1.91,2.69,5.1,5.19,5.76,8.52.89,5.09-3.49,10.56-8.38,11.76Z"/>
      <path class="st0" d="M167.11,432.15c-6.27.33-10.41-3.44-11.66-9.2-.34-1.57-.47-3.08.25-4.55l2.01-4.09c1.88-3.83,4.98-6.34,8.89-6.56,4.29-.24,8.37,1.59,10.03,5.76,1.18,1.81,1.59,3.93.3,5.71.42,3.81-1.43,6.62-3.69,9.36-1.66,2.01-3.15,3.42-6.14,3.57Z"/>
      <path class="st0" d="M285.15,392.2c-2,1.39-6.18,1.93-8.58,1.18-4.6-1.45-7.23-5.88-7.56-10.05,1.23-4.4,2.26-8.61,6.09-11.22s9.58-1.63,13.02,1.3c2.08,1.76,3.43,4.27,4.83,6.66-1.42,4.92-3.59,9.2-7.8,12.14Z"/>
      <path class="st0" d="M162.17,407.88c-1.8.89-3.61,3.21-4.72,4.85l-3.54,5.21-3.18,3.44c-2.76-4.1-2.51-9.09-2.46-13.95l.13-13.29c1.73,1.23,4.29,3.67,6.41,3.7,4.33.06,6.45-3.72,9.02-6.51,1.1,4.3-.86,8.54,3.8,11.37,7.09.28,12.61,4.86,13.35,12.01.14,1.39.21,2.61-.54,4.05l-4.09-7.86c-1.97-3.79-8.67-5.74-14.18-3.03Z"/>
      <path class="st0" d="M206.33,327.77l2.62,8.03-9.41-1.43-23.43-3.62,2.2-1.38,6.11-1.95,11.92-3.97,23.18-9.5,2.06-1.78c.72,1.23,1.39,3.36.75,4.31-.5.75-.95,1.66-1.27,2.54-1.41,1.63-4.27,2.64-6.45,3.65l-11.53,5.33-8.91,3.97c3.34.61,5.52-1.45,8.14-2.53l4.03-1.66Z"/>
      <path class="st0" d="M275.4,370.61c-7.37,4.11-5.77,13.68-9.75,14.02-4.15-1.7-5.35-5.91-5.69-9.89l-.61-7.27,7.69-1.24,7.15-2.2,7.66,1.94c5.09,1.29,10.26,5.05,10.84,10.66-2.84-3.02-4.8-5.46-8.51-6.41-2.78-.71-5.92-1.21-8.79.39Z"/>
      <path class="st0" d="M229.45,339.83l-14.96-2.43,3.06-5.26c1.48-2.55,3.39-4.71,6.04-5.95,3.34-1.55,5.92-.42,7.88,2.39,2.25,3.21,4.72,6.86,2.65,11.02-.5,1-3.4.44-4.69.23Z"/>
      <path class="st0" d="M224.64,324.81c-1.69.64-4.47,1.72-5.25,2.97l-5.74,9.19-3.5-.88-2.77-8.65,9.24-4.46c2.71-1.31,4.82-2.39,7-4.9,2.03.49,3.98,1.59,5.33,3.14l8.2,9.33c.98,1.12.22,3.39-1.08,3.96l-3.82-6.76c-1.38-2.45-4.49-4.14-7.6-2.95Z"/>
      <path class="st0" d="M57.09,391.67l-6.94-8.55c-1.8-2.21-6.14-3.23-8.93-2.47-5.34,1.46-8.88,5.35-11.7,9.55-1.46-2.75-1.83-4.83-.65-7.35.84-1.79,2.57-3.9,5.24-4.5,8.1-1.8,8.51-2.43,16.85,1.37l5.26,5.15c.93.91,1.91,1.89,2.21,2.76.37,1.06-.29,2.94-1.35,4.03Z"/>
      <path class="st0" d="M102.43,335.4l-22.56,6.19c-.41-4.56,2.07-8.17,5.1-11.1l17.46,4.91Z"/>
    </g>
  </g>
</svg>