<?xml version="1.0" encoding="UTF-8"?>
<svg id="Layer_1" xmlns="http://www.w3.org/2000/svg" version="1.1" viewBox="0 0 303.01 435.26">
  <!-- Generator: Adobe Illustrator 30.4.0, SVG Export Plug-In . SVG Version: 2.1.4 Build 226)  -->
  <defs>
    <style>
      .st0 {
        fill: #fff;
      }
    </style>
  </defs>
  <path class="st0" d="M160.42,322.86l-.37,11.77c-.04,1.28-.04,2.27.73,3.59l-3.96,19.48c-.93,4.56-7.84,11.45-11.77,9.53-2.42-1.19-5.49-5.2-5.88-7.95-.43-3.02-.33-6.26.16-9l1.97-10.97,2.32-11.58,1.05-6.79,1.02-5.71c-3.4-2.92-12.25-5.26-15.89-4.9l-19.62,1.93-26.41,2.97-8.92.87-11.19,1.65-4.12.04c-4.29.45-9.51,1.43-13.05-.99l-1.65-1.13c-.43-.29.77-2,1.33-2.22,2.66-1.02,6.83-1.87,9.95-2.32l8.18-1.19,5.8-.68,7.33-1.22,4.31-.95,6.12-.18,7.15-.21,15.12-.46,16.92-.6,10.38-.7-.29-3.08-17.44-7.91-6.21-2.41-11.13-4.91c1.82-1.69,3.75-3.46,6.06-3.79,1.39-.2,4.2,1.35,5.55,1.89l9.89,3.91,10.08,4.42,7.73,3.96-1.43,10.08c5.04-1.3,9.46,2.96,16.4,3.6l8.58.79c3.08.28,5.24-1.16,6.21-4.36.32-1.05,2.8-1.01,3.8-1.23l10.92-2.36,8.25-.91c6.18-.68,11.88-.15,17.97,1.39,2.36.6,4.3,1.37,5.58,3.13-2.12,1.65-3.59,2.72-5.45,3.01l-12.5,1.93-6.24.79-19.01,1.53c-2.27.42-4.71-.65-6.99,1.01,7.27,1.81,13.47,4.03,19.98,6.68l9.92,4.04,16.24,7.52,10.77,4.27,8.57,4.22,11.52,5.31c3.11,1.44,6.1,4.8,8.39,7.43-.64,1.59-2.76,1.72-4.18,1.13l-9.03-3.76-21.57-8.82-4.72-2.01-17.15-8.77-12.33-5.68-13.96-7.34c-1.06-.56-3.62-.66-4.9-.91-1.35.84-3.76,2.76-4.9,4.14Z"/>
  <path class="st0" d="M65.95,326.87l-6.91.41c-2.47.15-4.55-.47-7.02-1.18-1.82-.11-5.47.25-7.13.94l-4.11,1.71,2.9-11.88c3.3,2.43,6.65,3.01,10.56,2.77l10.94-.67,4.47-.6,8.71-1.18,4.7-.47,26.37-2.99,21.03-1.83c1.38-.12,4.33.23,5.61.69l7.95,2.87-1.41,9.12-.45,3.39-1.51,6.18-8.82-2.85-10.67-3.6c-3.14-1.06-7.15-1.09-10.68-1.11l-29.24-.23-7.15-.06-8.13.56Z"/>
  <path class="st0" d="M251.92,363.08c-5.1.43-9.84.35-14.4-.94l-11.63-3.29-8.09-2.31-14.43-5.6-10.6-4.83-10.71-4.83c-6.53-2.95-12.52-5.59-20.33-5.83v-11.69c3.07-5.29,7.5-3.12,13.22-.19l15.1,7.75,9.9,4.57,15.34,7.81,8.74,3.92,20.27,7.95,8.06,2.66c.53.77.3,3.2-.44,4.87Z"/>
  <path class="st0" d="M157.73,309.65l-12.43-3.59-2.23-.65c-.64-.19-1.36-1.93-1.23-2.59l1.93-9.57c.45,2.68.53,4.25,1.21,6.51,1.03-4.86,0-9.39-.01-14.14v-9.14s7.19-1.71,7.19-1.71l12.17-4.02,3.83,9.3c.46,1.11,1.31,2.87,1.36,4.02-2.98,4.68-6.09,9.38-7.94,14.42,3.81-2.8,3.55-7.04,7.07-10.47l2.17,9.98c.59,2.72-.31,6.16-1.46,8.39,1.26,4.01-6.5,4.74-11.63,3.26Z"/>
  <path class="st0" d="M142,295.61l-6.91-3.58-10.39-4.63-14.12-5.68c-.5-.26.15-2.08.63-2.44l9.59-7.19c.85-.64,2.34-3.11,3.43-2.71l7.74,2.84c4.16,1.53,7.9,2.84,11.79,5.21l-.37,12.83-1.4,5.36Z"/>
  <path class="st0" d="M49.39,352.73c-2.47-.58-4.21-.71-5.94-2.67-2.14-2.41-4.92-6.13-3.39-9.84,1.89-4.57,7.94-7.86,12.74-7.29s6.9,4.81,8.61,8.32c1.57,3.22,1.37,5.47-.74,8-2.99,3.59-6.46,4.62-11.28,3.48Z"/>
  <path class="st0" d="M151.96,399.6c-3.58,1.32-7.73-.66-9.47-3.18-2.36-3.41-2.51-7.4-.07-10.81,1.36-1.91,3.6-3.92,5.72-5.12,3.14-1.79,6.95-1,9.49,1.39,2.11,1.98,3.84,5.48,2.43,8.56-1.78,3.9-3.94,7.62-8.1,9.16Z"/>
  <path class="st0" d="M264.19,381.71c-.86,4.72-9.57,11.84-16.25,6.91-2.54-1.87-4.4-6.4-3.32-9.14,1.55-3.96,4.13-7.68,8.38-8.46,5.74-1.05,12.26,4.82,11.2,10.68Z"/>
  <path class="st0" d="M130.98,303.97l-10.77.57c-1.54.08-4.08.58-5.47-.18l-15.52-8.58-4.41-2.38,5.77-5.94,8.71,3.93,10.19,4.15,16.73,7.59c-1.45.4-3.39.75-5.23.85Z"/>
  <path class="st0" d="M162.77,389.18c-1.72-6.03-4.7-11.25-10.8-11.07-7.38.22-9.05,6.73-14.95,9.32-1.65-6.19.27-10.43,1.75-15.43l1.76-5.99,3.47,2.27c3.03,1.98,6.4-.26,9.32-2.12,1.27,3.97-2.42,7.28,2.29,9.85,5.21,1.52,10.06,7.09,7.17,13.17Z"/>
  <path class="st0" d="M84.68,297.65c-2.83,1.03-6.76,2.21-8.68-.2.29-3.99,4.1-6.59,6.94-8.63,4.93-3.55,8.43-2.86,11.03-5.11,3.4-2.96,6.92-4.91,11.22-6.26l3.22,2.73-5.18,3.86-3.15,1.93c-3.26,3.61-6.34,6.9-10.32,9.82l-5.08,1.85Z"/>
  <path class="st0" d="M190.08,321.44l-13.51-5.36,7.29-.99,6.53-.35,11-1.32,9.97-1.63,7.47-1.61c-.37,2.07-2.01,4.98-3.63,5.35l-7.64,1.77-5.99,1.16-9.33,1.77-2.14,1.2Z"/>
  <path class="st0" d="M250.61,370.17c-5.62,2.37-6.91,10.33-9.3,9.24-2.19-1.01-3.25-4.47-2.98-6.78l.97-8.34c5.09.57,8.72.62,13.29.07,4,2.21,9.22,3.55,10.83,8.37-4.58-1.7-8.18-4.5-12.81-2.55Z"/>
  <path class="st0" d="M216.78,333.18c-3.17-1.07-5.72-2-8.81-4.07,3.24-4.12,6.96-7.6,11.79-7.15,3.05.28,6.78,9.31,3.48,13.4l-6.46-2.18Z"/>
  <path class="st0" d="M214.98,321.2c-6.19,2.24-7.2,9.7-11.05,5.61l-.34-7.13,12.35-2.84c.9-.21,2.75-1.65,3.5-1.24,1.96,1.07,4.5,4.54,4.58,7.34-3-2.43-5.31-3.08-9.04-1.72Z"/>
  <path class="st0" d="M63.7,342.5l-3.39-6.54c-1.13-2.18-4.77-4.3-7.26-4.56-4.82-.51-8.5,1.78-12.16,4.92l-.63-2.94c1.7-4.78,6.6-6.51,11.14-4.62,2.27-.64,4.36.27,6.02,1.95,4.64,2.26,9.91,8.76,6.28,11.79Z"/>
  <path class="st0" d="M111.82,304.23c-6.32,1.35-12.14.54-18.66.91.71-3.59,3.31-6.32,6.68-7.82l11.98,6.91Z"/>
  <path class="st0" d="M91.4,305.29c-1.58.26-4.4.27-6.89.04l.66-6.64c3.55-1.03,5.38-1.87,8.26-3.86l4.27,1.87c-3.13,1.91-5.49,4.77-6.31,8.58Z"/>
  <path class="st0" d="M110.27,278.26c-.35.26-1.45.7-1.86.79-.54.13-1.36-1.83-.91-2.14l9.1-5.89,3.63-3.36,2.27,1.37-12.23,9.23Z"/>
  <polygon class="st0" points="202.2 326.49 192.18 322.24 202.19 319.85 202.2 326.49"/>
  <g>
    <path d="M171.69,267.17l-6.19,3.49,1.43,3.17c.99,2.96,1.81,5.16,3.48,7.77.79,1.23.1,3.18-.62,5.09-.49,1.28.83,4.03,1.12,5.45l1.66,8.02-.41,4.7,16.45-3.28,10.34-.65c1.34-.08,3.89-.36,5.1-.08l10.08,2.26c2.6.58,4.82,2.35,5.94,4.67l-.64,1.25c-.16.32.43,1.27.41,1.62l-.23,3.1c-.05.72,1.92,1.28,2.35,1.9l3.12,4.51c2.32,3.35,3.78,6.98,4.13,10.95l-3.06,1.66-1.77,3.33,7.44,3.49,11.58,5.67c2.65,1.3,5.11,2.61,7.12,4.78l5.35,5.77c-1.54,1.95-3,5.24-1.58,7.07,1.9,2.45,5.57,3.17,7.65,5.1,2.1,1.94,4.24,4.9,4.72,7.51,1.49,8.16-7.35,17.63-15.7,16.11-3.13-.57-7.09-3.51-7.59-6.98l-.37-2.54c-.09-.66-1.67-1.1-2.52-1.44-4.53-1.85-3.77-10.11-2.66-16.63l-12.11-3.63c-4.25-1.27-8.01-2.48-12.14-4.05l-12.64-4.8-7.87-3.67-9.03-4.07-7.31-3.36c-4.55-2.09-10.09-2.89-15.27-3.92.22,2.71.25,4.16-.18,6.25-1.24,6.03-1.76,12.4-4.2,17.99-1.82,4.18-3.08,8.69-2.07,13.34,5.53,1.64,9.57,5.82,10.32,11.37l-.52,4.31c-.1.86-.67,2.42-1.39,2.5l-2.65.33c-.67.08-.68,2.02-1.14,2.56-1.96,2.34-4.84,5.1-7.64,6.01-3.26,1.06-6.99-.38-9.14-2.33-5.36-4.83-1.46-10.89-6.88-10.1-3.55-9.07,3.66-18.26,2.8-25.91-.19-1.67-1.75-3.91-1.47-5.73l3.14-20.88c-2.83-2.24-6.79-2.55-9.83-3.84-7.18-3.06-13.93-4.53-21.68-4.56l-10.3-.05-8.3.07h-17.21s-7.45.47-7.45.47l-8.06.69,4.66,2.86,3.68,5.76c.88,2.72.87,5.01-1.82,6.58-.68,5.84-6.11,11.57-12.12,10.27l-6.98-1.5c-2.5-.54-7.09-6.42-6.96-11.85l.85-5.83c-.25-1.81-.36-3.02,0-4.57l2.74-11.73c.98-4.18,2.78-7.2,7.51-8.03l9.83-1.72,18.92-2.58,5.55-1.14.12-5.59-5.41.04c-.8,0-2.37-.67-2.86-1.29-2.26-2.84,2.79-8.18,7.02-11.27.44-.33,2.35-.38,2.32-.84l-.12-2.19c1.76-2.21,4.8-5.44,7.87-5.65,3.61-.25,7.17-1.35,10.61-1.76l2.88-.34,13.23-9.26-9.22-4.07c-5.53-.45-10.25-3.08-14.07-6.9l-20.57-13.14c-3.3-2.11-7.38-5.14-8.3-9.34l-2.9-13.28c-.97-4.44,2.59-9.13,5.99-10.98,4.86-2.65,9.45-3.67,14.65-4.8l5.79-1.26c1.49-.32,3.31-1,4.58-1.54l5.6-.12,7.13-1.22,13-2.2c-.19-2.55-.19-4.5.46-6.6l2.31,7.39c4.01-5.31,5.79-10.17,10.13-13.88l7.61-6.5-8.91-1.66-14.12-2.86-3.75,11.96c-1.28,4.07-2.09,7.35-.57,11.69-1.35-1.66-2.21-3.24-3.05-4.98l1.22-3.97c1.6-5.2,2.09-9.63,4.4-15.22l-10.04-4.1-5.3-2.03c-.61-.23-2.14-.47-2.76-.31s-1.44,1.36-1.65,2.03l-7.84,24.42c4.66-.42,7.37-1.24,11.07-2.24l1.57-.42.37.98-8.9,2.65c-1.23.37-4.16-.65-4.65,1.76l3.57,4.77-1.16.46-3.33-3.86c-.46-.53-1.63-1.8-1.31-2.32l1.41-2.26,2.01-5.96,6.89-21.15c-2.28-.75-4.3-.72-4.86.75l-5.37,14.1-2.7,10.58c-1.7,2.12-2.2,4.4-1,6.84.3,1.58,1.24,3.28,2.41,4.8l-.32,1-3.14-4.55c-1.59-2.3-.41-5.08.32-7.42l4.88-15.67,4.24-11.39-18.13-6.66c-4.86-2-9.29-4.25-12.63-8.4-3.66-1.59-6.89-4.45-8.35-8.01-1.88-5.07-2.02-9.86-.46-14.84l4.55-14.47,3.32-7.68,1.39-2.8,3.77-6.47,5.72-9.22,4.57-8.09c5.49-9.72,11.23-19.36,20.03-26.6,6-1.87,12.3.89,18.37,2.24l33.04,7.32,11.89,4.34,8.44,3.24c1.96.75,2.54,1.63,4.86,1.72,12.37.5,23.55,2.84,32.81,10.98,5.02,4.97,6.72,11.88,9.51,17.93,1.2,2.6.7,3.3-.14,5.79l-6.06,17.93-3.33,11.9-2.68,9.13,7.39-.28c7.76-.29,20.63,6.14,22.8,10.36l5.63,10.9c.57,8.25-1.84,15.89-4.6,23.65-7.01,19.71-19.46,40.37-33.81,55.23l-9.41,9.75c-2.99,3.09-6.08,6.01-9.88,8.25l-7.36,4.35-.49.36ZM200.33,142.85l3.26-10.97,9.11-28.73c-2.96-8.01-5.57-17.31-12.26-21.72l-5.47-3.6c-6.19-4.07-25.11-6.02-33.82-5.16l-6.1.6c-6.92.68-13.4.81-20.55,2.17l-.11-1.31c6.9-1.41,13.82-2.16,21.29-2.15.52,0,1.83-.52,1.99-.98l.41-1.18c1.64.11,2.82.07,4.24-.27l-8.27-3.33c-6.41-2.58-12.61-4.39-19.36-5.77l-19.99-4.09-12.15-2.88c-7.26-1.72-9.27,1.33-13.68,6.76-2.61,3.21-4.14,6.62-4.99,10.68l-2.92,14.04-1.64,4.9-2.04,4.94-5.18,17.02-4.44,10.04c-3.88,8.78-5.32,18.37-5.77,27.96,3.39,3.87,7.29,5.9,11.85,7.49l16.41,5.74c8.68,2.2,16.56,4.77,24.84,8.3s16.75,3.74,24.94,5.66c3.2.75,3.57-.12,5.97-1.75l17.4-11.83,12.88-8.08,10.5-5.2c3.5-1.73,8.2-3.83,12-4.47.74-.12,1.41-2.06,1.64-2.83ZM59.97,148.35l2.26-14.3c.96-6.06,3.51-11.29,5.84-16.86l3.16-7.55,7.95-25.14c1.3-4.1,1.82-8.45,2.38-13.26-2.3,1.94-3.21,4.21-4.56,6.5l-12.42,21.13-7.13,14.51c-2.6,5.29-3.72,10.95-5.12,16.77-1.57,6.52.77,15.14,7.64,18.2ZM72.13,229.98l10.45,7.39,11.71,6.36,12.97,6.72,8.03,3.66c8.92,4.07,18.09,6.95,27.89,9.19,2.05.47,4.06,1.81,6.46,1.2l5.42-1.36c2.86-2.66,5.02-6.24,5.52-10.14l1.53-12.01,1,.28-.85,8.05-1.11,7.77c2.7-1.6,5.12-3.74,7.56-6.07l6.45-6.15,3.53-3.66,6.02-6.6,15.89-18.98,7.05-9.89,4.62-7.44,8.9-16.41c3.64-6.72,10.49-24.42,6.55-28.83-1.74-1.94-5.14-2.84-7.28-4.13-4.24-2.56-8.16-3.36-12.79-2.75l-10.64,1.41c-4.39,1.4-8.2,3.47-12.37,5.33l-12,5.36-6.17,4.58-18.96,12.38c-.8.53-1.81,2.38-2.17,3.28-2.69,1.03-4.89,2.74-7.27,4.59-10.38,8.05-13.74,17.81-16.13,31.4-1.82-4.77,1.18-8.49,1.94-13.83l-4.65,3.19-5.32,4.48c.04-1.36,1.08-2.63,2.07-3.41l6.14-4.86c-3.5-.7-5.25.81-7.72,1.13l-14.32,1.82h-5.33c-.91,0-2.51,1.45-3.47,1.68l-9.9,2.44c-3.45.85-6.56,2.11-9.73,3.58-4.99,2.31-7.54,7.68-5.06,12.73,1.64,3.34,2.16,4.13,5.53,6.52ZM171.85,266.09l4.89-2.85c7.06-4.11,23.55-22,29.48-29.91l5.71-7.61c4.9-6.54,8.66-13.46,12.34-20.77,5.52-10.97,11.11-25.73,11.68-37.94-.93-2.87-2.44-5.77-4.55-8.87-2.93,10.95-6.06,20.98-11.73,30.59l-10.7,18.12c-5.75,9.74-13.68,17.61-20.85,26.35l-16.96,17.84c-3.54,3.73-7.2,7.06-12.03,8.84l-2.51,3.96c-2.95.63-7.12,2.58-10.25,1.83l-9.79-2.37-16.76-5.51-6.73-2.79-22.62-11.4-13.16-7.56c-3.17-1.82-5.28-4.69-9.02-6.56-.71,4.39,1.84,8.85,5.48,11.2l29.52,19.01c2.44,1.57,4.89,1.89,7.51,2.93l21.3,8.45,12.09,4.51,14.74-3.63,12.51-5.44.41-.41ZM110.27,278.26l12.23-9.23-2.27-1.37-3.63,3.36-9.1,5.89c-.45.31.38,2.27.91,2.14.41-.1,1.52-.53,1.86-.79ZM142,295.61l1.4-5.36.37-12.83c-3.89-2.36-7.63-3.68-11.79-5.21l-7.74-2.84c-1.09-.4-2.58,2.07-3.43,2.71l-9.59,7.19c-.48.36-1.13,2.18-.63,2.44l14.12,5.68,10.39,4.63,6.91,3.58ZM157.73,309.65c5.13,1.48,12.89.75,11.63-3.26,1.15-2.24,2.05-5.68,1.46-8.39l-2.17-9.98c-3.52,3.43-3.26,7.67-7.07,10.47,1.84-5.04,4.96-9.74,7.94-14.42-.05-1.15-.9-2.91-1.36-4.02l-3.83-9.3-12.17,4.02-7.19,1.71v9.14c0,4.75,1.04,9.28.01,14.14-.69-2.25-.76-3.83-1.21-6.51l-1.93,9.57c-.13.66.58,2.4,1.23,2.59l2.23.65,12.43,3.59ZM84.68,297.65l5.08-1.85c3.98-2.92,7.06-6.21,10.32-9.82l3.15-1.93,5.18-3.86-3.22-2.73c-4.3,1.35-7.83,3.3-11.22,6.26-2.59,2.26-6.09,1.56-11.03,5.11-2.84,2.04-6.65,4.64-6.94,8.63,1.92,2.41,5.85,1.23,8.68.2ZM160.42,322.86c1.14-1.38,3.55-3.3,4.9-4.14,1.28.25,3.84.35,4.9.91l13.96,7.34,12.33,5.68,17.15,8.77,4.72,2.01,21.57,8.82,9.03,3.76c1.42.59,3.55.46,4.18-1.13-2.29-2.63-5.28-6-8.39-7.43l-11.52-5.31-8.57-4.22-10.77-4.27-16.24-7.52-9.92-4.04c-6.51-2.65-12.71-4.87-19.98-6.68,2.28-1.66,4.72-.6,6.99-1.01l19.01-1.53,6.24-.79,12.5-1.93c1.86-.29,3.33-1.35,5.45-3.01-1.27-1.77-3.21-2.53-5.58-3.13-6.09-1.54-11.79-2.07-17.97-1.39l-8.25.91-10.92,2.36c-1,.22-3.48.18-3.8,1.23-.98,3.2-3.13,4.64-6.21,4.36l-8.58-.79c-6.94-.64-11.36-4.9-16.4-3.6l1.43-10.08-7.73-3.96-10.08-4.42-9.89-3.91c-1.35-.53-4.16-2.09-5.55-1.89-2.32.33-4.24,2.1-6.06,3.79l11.13,4.91,6.21,2.41,17.44,7.91.29,3.08-10.38.7-16.92.6-15.12.46-7.15.21-6.12.18-4.31.95-7.33,1.22-5.8.68-8.18,1.19c-3.12.45-7.3,1.3-9.95,2.32-.56.22-1.76,1.93-1.33,2.22l1.65,1.13c3.54,2.42,8.76,1.44,13.05.99l4.12-.04,11.19-1.65,8.92-.87,26.41-2.97,19.62-1.93c3.63-.36,12.48,1.98,15.89,4.9l-1.02,5.71-1.05,6.79-2.32,11.58-1.97,10.97c-.49,2.73-.58,5.98-.16,9,.39,2.75,3.45,6.77,5.88,7.95,3.93,1.92,10.84-4.97,11.77-9.53l3.96-19.48c-.77-1.33-.77-2.31-.73-3.59l.37-11.77ZM130.98,303.97c1.85-.1,3.79-.45,5.23-.85l-16.73-7.59-10.19-4.15-8.71-3.93-5.77,5.94,4.41,2.38,15.52,8.58c1.38.76,3.92.26,5.47.18l10.77-.57ZM91.4,305.29c.82-3.81,3.18-6.67,6.31-8.58l-4.27-1.87c-2.88,1.99-4.71,2.83-8.26,3.86l-.66,6.64c2.49.23,5.31.22,6.89-.04ZM111.82,304.23l-11.98-6.91c-3.37,1.5-5.97,4.23-6.68,7.82,6.52-.36,12.33.44,18.66-.91ZM190.08,321.44l2.14-1.2,9.33-1.77,5.99-1.16,7.64-1.77c1.62-.38,3.26-3.28,3.63-5.35l-7.47,1.61-9.97,1.63-11,1.32-6.53.35-7.29.99,13.51,5.36ZM65.95,326.87l8.13-.56,7.15.06,29.24.23c3.53.03,7.54.05,10.68,1.11l10.67,3.6,8.82,2.85,1.51-6.18.45-3.39,1.41-9.12-7.95-2.87c-1.27-.46-4.23-.81-5.61-.69l-21.03,1.83-26.37,2.99-4.7.47-8.71,1.18-4.47.6-10.94.67c-3.91.24-7.26-.33-10.56-2.77l-2.9,11.88,4.11-1.71c1.66-.69,5.32-1.05,7.13-.94,2.47.72,4.55,1.33,7.02,1.18l6.91-.41ZM214.98,321.2c3.73-1.35,6.04-.7,9.04,1.72-.08-2.79-2.62-6.27-4.58-7.34-.75-.41-2.6,1.04-3.5,1.24l-12.35,2.84.34,7.13c3.85,4.1,4.86-3.36,11.05-5.61ZM202.2,326.49v-6.64s-10.02,2.39-10.02,2.39l10.02,4.25ZM251.92,363.08c.74-1.66.97-4.09.44-4.87l-8.06-2.66-20.27-7.95-8.74-3.92-15.34-7.81-9.9-4.57-15.1-7.75c-5.72-2.94-10.15-5.11-13.23.19v11.69c7.82.25,13.81,2.89,20.34,5.83l10.71,4.83,10.6,4.83,14.43,5.6,8.09,2.31,11.63,3.29c4.56,1.29,9.3,1.37,14.4.94ZM216.78,333.18l6.46,2.18c3.31-4.09-.43-13.12-3.48-13.4-4.83-.45-8.55,3.03-11.79,7.15,3.09,2.07,5.64,3,8.81,4.07ZM63.7,342.5c3.63-3.03-1.64-9.53-6.28-11.79-1.66-1.68-3.75-2.6-6.02-1.95-4.54-1.89-9.44-.16-11.14,4.62l.63,2.94c3.66-3.13,7.34-5.42,12.16-4.92,2.49.26,6.13,2.38,7.26,4.56l3.39,6.54ZM49.39,352.73c4.82,1.14,8.29.11,11.28-3.48,2.11-2.53,2.31-4.78.74-8-1.71-3.51-3.9-7.76-8.61-8.32s-10.86,2.72-12.74,7.29c-1.53,3.7,1.25,7.43,3.39,9.84,1.73,1.95,3.48,2.09,5.94,2.67ZM250.61,370.17c4.63-1.96,8.23.85,12.81,2.55-1.61-4.82-6.83-6.16-10.83-8.37-4.56.55-8.19.51-13.29-.07l-.97,8.34c-.27,2.31.79,5.78,2.98,6.78,2.38,1.09,3.68-6.87,9.3-9.24ZM162.77,389.18c2.89-6.07-1.96-11.65-7.17-13.17-4.71-2.57-1.01-5.88-2.29-9.85-2.92,1.86-6.29,4.1-9.32,2.12l-3.47-2.27-1.76,5.99c-1.47,5-3.4,9.24-1.75,15.43,5.9-2.59,7.57-9.1,14.95-9.32,6.1-.18,9.08,5.04,10.8,11.07ZM264.19,381.71c1.06-5.86-5.46-11.73-11.2-10.68-4.25.78-6.82,4.49-8.38,8.46-1.07,2.74.78,7.26,3.32,9.14,6.68,4.92,15.4-2.2,16.25-6.91ZM151.96,399.6c4.16-1.54,6.32-5.26,8.1-9.16,1.4-3.08-.32-6.58-2.43-8.56-2.54-2.38-6.35-3.18-9.49-1.39-2.11,1.2-4.35,3.21-5.72,5.12-2.43,3.41-2.29,7.4.07,10.81,1.74,2.51,5.89,4.5,9.47,3.18Z"/>
    <path class="st0" d="M200.33,142.85c-.23.77-.91,2.71-1.64,2.83-3.79.63-8.5,2.74-12,4.47l-10.5,5.2-12.88,8.08-17.4,11.83c-2.4,1.63-2.76,2.5-5.97,1.75-8.19-1.92-17.04-2.31-24.94-5.66-8.29-3.52-16.16-6.1-24.84-8.3l-16.41-5.74c-4.56-1.59-8.46-3.62-11.85-7.49.45-9.59,1.89-19.18,5.77-27.96l4.44-10.04,5.18-17.02,2.04-4.94,1.64-4.9,2.92-14.04c.85-4.06,2.38-7.47,4.99-10.68,4.41-5.43,6.42-8.48,13.68-6.76l12.15,2.88,19.99,4.09c6.75,1.38,12.95,3.19,19.36,5.77l8.27,3.33c-1.42.34-2.6.37-4.24.27l-.41,1.18c-.16.46-1.46.98-1.99.98-7.47-.01-14.4.74-21.29,2.15l.11,1.31c7.16-1.36,13.63-1.49,20.55-2.17l6.1-.6c8.7-.86,27.63,1.09,33.82,5.16l5.47,3.6c6.69,4.4,9.3,13.71,12.26,21.72l-9.11,28.73-3.26,10.97Z"/>
    <path class="st0" d="M72.13,229.98c-3.37-2.38-3.89-3.17-5.53-6.52-2.48-5.05.07-10.42,5.06-12.73,3.17-1.47,6.28-2.73,9.73-3.58l9.9-2.44c.96-.24,2.55-1.68,3.47-1.68h5.33s14.32-1.83,14.32-1.83c2.47-.31,4.22-1.82,7.72-1.13l-6.14,4.86c-.99.78-2.03,2.05-2.07,3.41l5.32-4.48,4.65-3.19c-.76,5.34-3.76,9.06-1.94,13.83,2.39-13.59,5.75-23.35,16.13-31.4,2.39-1.85,4.59-3.56,7.27-4.59.36-.9,1.37-2.76,2.17-3.28l18.96-12.38,6.17-4.58,12-5.36c4.17-1.86,7.98-3.93,12.37-5.33l10.64-1.41c4.63-.61,8.55.19,12.79,2.75,2.14,1.29,5.54,2.19,7.28,4.13,3.95,4.41-2.9,22.11-6.55,28.83l-8.9,16.41-4.62,7.44-7.05,9.89-15.89,18.98-6.02,6.6-3.53,3.66-6.45,6.15c-2.45,2.33-4.87,4.48-7.56,6.07l1.11-7.77.85-8.05-1-.28-1.53,12.01c-.5,3.9-2.65,7.48-5.52,10.14l-5.42,1.36c-2.4.6-4.42-.74-6.46-1.2-9.8-2.24-18.97-5.12-27.89-9.19l-8.03-3.66-12.97-6.72-11.71-6.36-10.45-7.39Z"/>
    <path class="st0" d="M59.97,148.35c-6.87-3.06-9.21-11.68-7.64-18.2,1.4-5.82,2.52-11.48,5.12-16.77l7.13-14.51,12.42-21.13c1.35-2.29,2.25-4.57,4.56-6.5-.56,4.82-1.08,9.17-2.38,13.26l-7.95,25.14-3.16,7.55c-2.33,5.57-4.88,10.8-5.84,16.86l-2.26,14.3Z"/>
  </g>
</svg>