<?xml version="1.0" encoding="UTF-8"?>
<svg id="Layer_1" xmlns="http://www.w3.org/2000/svg" version="1.1" viewBox="0 0 303.01 435.26">
  <!-- Generator: Adobe Illustrator 30.4.0, SVG Export Plug-In . SVG Version: 2.1.4 Build 226)  -->
  <defs>
    <style>
      .st0 {
        fill: #fff;
      }
    </style>
  </defs>
  <path d="M141.06,353.96c-.96,1.26-.92,3.65-1.13,5.14-1.02,2.31-2.24,5.83.68,7.39s5.98,2.89,7.16,6.17c2.43,6.78.61,13.11-.98,12.96l-2.73-.26-2.21,3.37c-1.75,2.67-5.18,4.31-8.11,5.81-.92.47-3.23-.66-4.24-.76-6.61-.66-8.69-6.1-8.75-12.87l-3.7-1.03-.04-7.83c.77-4.7,2.72-8.82,4.47-13.27l.67-3.93c.63-3.69-1.75-5.79-.71-10.91l1.04-5.13,1.44-6.78,2.02-7.97-4.77-2.17-7.17-2.77c-3.93-1.52-7.29-3.36-11.44-4.39l-6.41-.75-10.75-1.24-8.2-.49-8.73-.57-6.57-.49-15.9-.44-6.81-.44,4.3,3.57,3.11,6.19c.68,1.36,1.25,4.5.29,5.52-1.75,1.86-2.99,3.16-3.61,5.62-.56,2.23-6.69,7.74-11.54,6.78-2.87-.57-6.84-.94-8.72-2.96l-3.98-4.27c-2.52-2.71-3.18-9.9-1.18-14.17l.39-5.9,1.22-4.45,3.89-12.14,3.37-3.21,7.84-1.21,10.4-.86,9.65-.7-.41-4.36,3.35-1.26,9.95.54c4.16.23,7.53.84,11.52-.98,2.18-.99,4.56-1.85,5.41-4.56,2.56,3.06,9.95-2.15,14.31-5.67l2.23-1.8-9.14-4.68-3.31-1.52c-4.11-1.26-7.67-3.61-10.33-7.07l-17.75-12.87-4.24-3.39c-10.88-8.68-6.85-12.98-9.03-20.07-1.4-4.56-.75-9.07,2.31-12.9,1.54-1.93,4.66-3.16,7.12-2.82l1.99,1.3c5.85-3.08,12.5-4.34,19.05-5.1l15.89-1.84,13.89-1.4,18.28-1.43,4.91-.4,7.19-.24,2.51-8.34c-5.42-4.8-11.56-12.79-14.49-19.53l-5.13-11.79c-.77-1.77.45-4.93,1.52-6.41l9.19-12.67c1.51-2.08,3.34-3.66,5.54-4.81l9.28-4.82,8.97-5.37c6.95-4.9,14.3-8.47,22.02-11.79l8.97-3.86-.64-1.84c4.4-1.91,8.8-1.16,13.35-.94,3.16.15,4.95,1.43,7.49,3.31l4.97,3.69,3.22,2.32,6.37,4.19,3.81,3.09,12.36,9.46,9.12,5.62,4.03,3.12,3.27,2.66,3.84,3.21,5.85,4.53,9.99,6.99c4.47,3.13,8.52,6.22,13.06,10.65l-1.59.38c-.36.09-.44,1.61-.39,2.05-3.32,7.92-9.21,14.54-14.88,20.9-2.01,2.26-4.05,3.96-6.44,5.53-5.93,6.63-11.6,13.15-19.02,18.24l-11.62,7.99-8.36,5.89-3.86,3.18-6.72,5.37c-2.57,2.05-5.8,3.16-8.43,5.13l-8.79,6.57c-2.67,2-5.14,3.29-8.43,4.28-1.34.4-2.6,2.78-3.63,3.76l-6.3,5.98c-3.52,3.34-7.49,6.35-11.91,8.57l-6.18,3.1-8.33,3.78,2.1,7.03c.57,1.89,1.01,3.42,2.3,4.99l.05,3.8c-1.28.94-1.75,2.06-1.63,3.59h-3.63s3.4-4.75,3.4-4.75c1.5-2.09-1.8-4.47-2.08-6.05-.5-2.78-1.23-5.88-2.26-8.22-5.38,2.2-9.74,2.86-15.14,3.41-1.46.15-4.42.72-5.29,1.77-1.69,3.34-.25,7.94,1.84,10.39,2.84-.69,4.56.1,6.89,1.16,5.81,2.64,12.59,4.49,18.93,3.78,2.05-.23,4.27-3.93,4.55-3.7l.99.81c1.46-1.44,2.52-3.46,2.66-5.42,1.75-1.93,3.16-3.79,4.49-6.05l5.91-5.84,6.11-4.4c2.95-2.13,6.97-4.08,10.09-1.2l3.57,3.29c.65.6,2.95-.44,3.84-.29l12.8,2.05c2.36.38,4.55,2.67,3.84,5.08-.41,1.4.52,4.71,2.45,3.96l9.47-3.66,11.63-5.17c2.16-.96,4.77-1.06,7.04-1.3,2.75-.29,5.96-.68,8.43.15,1.09,2.35,2.34,4.4,4.21,6.58l8.21-2.71c5.21-1.72,11.41-.22,14.69,4.38,3.08,4.32,3.74,11.3,1.88,16.55-.58,1.66-2.85,3.98-4.27,5.09-4.18,3.26-9.69,2.12-13.69-.77-3.85,3.5-9.35,1.29-13.09-3.15l-4.32-5.1-4.35,2.61-4.1,2.47-9.36,6.29-11.36,5.62-6.6,3.6-4.76,1.94-12.56,5.61-9.81,4.37-2.28,1.52c-8.6.18-16.82-1.6-25.3-3.3l-6.71-.74c-1.18-.13-2.02.59-2.25,1.65l-1.37,6.15-1.37,5.79-1.61,5.45c-.86,2.89-1.47,5.11-3.56,7.84ZM274.12,170.79c3.59.03,7.38-2.03,9.43-4.86-3.78-4.2-8.07-6.89-12.36-9.96l-5.69-4.08-7.88-5.83c-7.18-6.36-14.67-11.43-22.85-16.51l-8.87-6.96-6.1-4.66-11.32-7.82-5.27-4.12c-5.59-1.5-11.2-2.34-17.24-.53,1.41,1.13,3.36,1.34,4.87,2.3l8.26,5.23,3.51,2.54,16.04,10.76,3.89,1.92c6.93,3.43,12.65,7.61,17.91,13.2l9.63,8.37,11.37,9.67,12.67,11.33ZM153.41,165.88l10.47-10.72,4.21-4.04,4.19-4.53,10.86-8.76c2.17-1.75,4.62-3.54,7.01-4.8l14.39-7.55,5.55-2.9-4.71-3.43-7.36-5.22c-5.24-3.71-8.47-7.87-15.63-4.49l-6.91,3.26-10.55,4.78c-10.92,6.12-21.42,13.18-29.55,22.67l-8.37,9.77c-4.22,4.93-4.19,10.62-.95,16.33l4.39,7.73c2.6,4.59,6.08,8.36,9.98,12.03l4.82-9.3,8.17-10.84ZM126.05,266.79c1.79.53,2.88,1.04,4.39,1.77,3.19,1.55,7.9.4,11.07-.82l3.6-4.06c3.41-.97,5.5-2.95,8.07-5.17l3.19-2.75,9.43-7.89,3.24-2.96,3.46-4.19c-9.69,1.23-17.9,1.08-27.1-.37-.3.14-1.66.26-1.68-.09l-.08-1.2,4.28.62c7.6,1.1,14.84,1.2,22.54.08,1.99-.29,5.38-.48,6.16-2.49l2.51-6.46.83,1.57,2.54-5.65,3.46-9.79,1.94-5.12,4-8.51,7.35-16.74,6.16-20.12c2.64-8.62,3.77-17.47,4.8-26.5l.07-7.07c.03-2.89-.33-5.2-1.57-8.28l-8.28,4.71-10.49,5.39-10.91,8.05c-3.63,2.67-6.45,5.54-9.55,8.68l-13.61,13.78-5.12,5.85c-4.03,4.6-7.35,9.77-8.97,15.78l-4.9,18.22c-2.41-2.86.77-5.13.66-8.07-4.59-1.01-9.13.37-13.28.65l-16.1,1.08-15.58,1.49-15.34,1.95c-4.57.58-8.95.84-13.16,2.73l-13.53,6.07c-3.24,1.46-1.59,6.15-.93,8.48,1.17,4.14,4.04,5.82,6.94,8.44,3.29,2.97,6.59,5.63,10.41,8.09l8.94,5.75,17.37,10.43,11.61,6.51,8.67,3.86,6.37,2.48,6.12,1.8ZM186.87,250.13c1.5.52,4.28-.26,5.98-1.55l9.69-7.32,4.7-3.79c1.04.06,2.75-.14,3.66-.89l11.43-9.34,9.93-7.04,10.01-6.92c8.2-5.66,15.65-12.49,20.93-20.96l8.01-12.85c1.29-2.06,2.97-4.67,1.44-6.81-.19-.17-1.23-.57-1.04-.68l1.19-.68-3.13-2.22-7.44-6.98-22.01-18.96c-3.6-3.1-6.18-7.17-10.55-9.56l-4.66-2.55c-2.76-1.51-5.02-3.58-8.58-3.32,4.71,4.27,6.33,8.53,6.31,13.86l-.04,14.7-.41,5.88c-.06.85.37,2.09.83,2.61-1.84.86-1.4,3.19-1.8,5.06l-1.94,8.98-1.95,8.56c-1.12,4.94-2.67,9.97-4.68,14.71l-3.23,7.59-3.95,7.95-4.13,8.42-4.71,8.36-6.64,12.6c-.6,1.14-1.86,2.16-2.82,2.63l-.39.51ZM187.29,249.15l2.93-4.71,3.37-6.59,3.1-5.59,8.06-15.57,2-3.38c1.12-1.89.85-3.65,1.52-5.52l3.26-9c2.78-7.69,4.59-15.35,6.24-23.33l.86-4.14,1.01-6.76.6-7.65c.44-5.56.5-10.9-.01-16.44-.5-5.39-3.01-9.61-7.68-12.44l-.1,12.08c-.71,7.28-1.9,14.37-3.57,21.48l-1.29,5.48-5.59,18.87c-3.99,10.93-8.94,21.33-14.47,31.36-1.42,2.58-1.79,4.99-3.06,7.8l-2.62,5.78c-.84,1.86-1.5,3.55-2.55,5.22l-3.41,5.39-3.02,2.86-2.82,2.68-5.6,5.11-11.2,9.19-3.94,2.6c-.88.58-2.24.92-3.42,1.08l-4.04,4.56-9.92,1.74-3.55-1.5c-9.01-2.66-17.79-5.33-25.91-9.88l-10.59-5.93-15.36-9.24-7.97-5.06c-4.02-2.55-7.83-5.08-11.39-8.24l-6.25-5.56c-2.27,3.69,2.78,10.73,5.86,13.09l4.97,3.79,16.73,12.15,9.66,6.71,13.02,6.68,12.4,5.81c2.5-.99,2.98.7,6.09,2.62,4.1,2.53,10.42,5.22,11.15,3.98l1.03-1.75c2.06.43,4.72.94,6.87.25l16.56-5.37,4.92-2.19c3.25-1.45,6.13-3.1,8.83-5.35l7.47-6.22c3.82-3.18,7.26-6.38,10.16-10.12l.64-.83ZM122.52,156.08c1.37-3.61,2.66-5.69,4.74-8.12l6.79-7.93,9.44-9.76-10.11,5.54-5.29,7.5-4.64,6.41c-1.31,1.81-1.91,4.13-.94,6.35ZM264.9,192.59c8.06-6.89,13.57-14.97,18.47-23.83l-6.93,2.86c-2.05.85-2.21,2.07-2.19,4.23s-7.57,10.89-9.36,16.74ZM90.38,281.61c2.49-.88,4.63-2.71,6.56-4.47,1.32-1.21,2.45-2.27,2.8-3.93l-8.37,5.4c-.97.63-1.86,1.63-.99,2.99ZM143.32,343.05l1.48-5.26,1.8-6.37c.47-1.68.49-3.51.69-5.25l.85-7.65.6-5.84c.35-3.39,4.02-5.46,6.96-4.75.53,0,1.32-.11,1.31.16l-.02,1.3c3.77,3.12,8.03,5.52,12.7,7.34,3.09.32,5.83-.54,8.45-1.91l7.7-4.01,7.04-3.2,12.61-5.39,13.52-5.51,7.61-3.34,16.75-8.96c3.25-1.74,7.18-1.95,8.96-6.07l-7.07.37c-3.29.12-6.34.74-8.57,3.18-11.62,3.74-22.13,8.87-32.71,14.5l-7.55,3-8.86,4.71-10.43,4.95c-2.88,1.37-6.66-.38-9.83-1.4l4.78-6.24,7.11-10.31,8.04-12.42c.89-1.38,2.19-4.19.05-5.1-1.56-.66-3.82,1.72-5.09,2.46-4.5,2.61-7.71,5.89-10.99,9.88l-11.77,14.32-.77-.81c.22.23-4.63,1.53-12.1-.47l-5.69-1.52-4.59-1.93c-1.9-.8-5.35-2.33-7.1-1.94-.46.1-.7,1.73-.56,1.76l-1.89-.31c-.29-.05-.58-1.29-.54-1.64l1.13-10.11c-3.6-3.13-7.83-4.9-12.26-6.7l-8.19-3.34-5.25,2.05c-1.62.63-4.4,2.72-5.71,3.98-.47,1.48-.98,2.25-2.2,2.67l-4.92,1.67c-1.64,1.96-3.29,3.63-5.32,4.77l7.07.12c1.1.02,3.25.87,4.56.79l11.52-.67c4.79-.28,9.46-.39,14.2.45,1.66.3,2.99.05,4.08-.81l.7,2.43c-2.81.54-5.88.86-8.59.59-.56-1.01-1.65-1.91-2.59-1.88l-12.1.38-10.96-.15-15.92.17h-14.68c-2.93.01-5.44-.1-8.37.19l-6.41.65-7.3.44-5.35.63c-2.8.33-5.71.38-7.23,3.32,2.65,2.48,6.31,3.05,9.83,3.12l7.4.13,9.22.13c2.83-.39,5.57-.54,8.25.48l32.63-2.11,12.63-.53,6.67-.24c7.15-.26,16.8,1.76,21.46,6.58l-1.37,5.33-4.22,14.08-2.28,8.82-1.71,6.51-1.1,4.92c-.92,4.12-.79,7.56,1.65,11.19,1.04,1.55,2.79,4.41,4.81,4.55,4.03.28,6.51-2.54,8.96-5.01.9-.91,2.04-2.14,2.37-3.26l1.99-6.64ZM179.93,305.17c1.25-3.88,3.44-6.86,5.38-10.21l6.01-10.38c1.78-3.07,3.47-6.18.44-9.54l-2.91,5.74-2.84,4.75-8.96,13.29-6.73,8.65c1.01.27,2.99.6,3.76.31l5.86-2.61ZM197.18,295.68l.22-9.93c.68-3.37,2.99-5.56,5.62-6.93l-2.59-.97c-.85-.32-2.96-.1-3.57.48s-.74,2.26-1.21,3.16l-5.76,10.91c.6,1.69,2.09,3.13,3.72,4.24,1.14.77,3.54.43,3.57-.96ZM55.63,287.56l7.17.86c5.92.71,11.84.75,17.76-.39,3.25-.63,5.63-2.41,7.42-5.47-.04-.61-1.55-1.92-2.39-1.91-2.02.03-4.51,2.74-7.12,3.33-3.62.83-7.34.51-11.09.55l-11.94.15.18,2.87ZM204.54,293.37l7.7-4.03c.73-.38,2.18-1.02,2.25-1.71.25-2.69-7.24-8.27-12.06-5.41-1.83,1.09-3.27,5.12-3.12,7.08l.47,6.22,4.77-2.14ZM152.09,325.43l10.32,2.24,11.73,1.91c3.99,1.03,7.89.24,10.73-2.69,3.49-.97,6.68-2.44,9.81-4.25l10.25-4.47,9.25-3.94,5.96-3.44,8.34-4.09,15.24-9.79,3.34-2.26,6.5-5.56c1.4-1.2,2.36-2.78,3.37-4.61l-2.36-3.38-5.05,3.21-19.79,10.37-10.96,4.81-6.52,3.09-12.57,4.62-5.56,2.5-9.15,4-4.16,2.27-5.42,1.83c-1.65.55-5.47.46-7.06-.43l-13.22-7.44c-1.36-.76-4.52,1.98-4.61,3.47l-.37,6.11-.64,4.08c-.12.76,1.68,1.65,2.59,1.85ZM263,304.35c.41-2.3-.41-3.66-.79-5.15-.86-3.35-1.17-7.06.24-10.07,1.75-3.73,5.59-4.91,9.29-6.48-3.51-1.53-6.52.92-9.51,1.71s-3.93,2.37-5.51,4.82-4.16,4.08-6.45,6.25l7.1,7.82c.96,1.06,4.11,1.6,5.62,1.1ZM275.21,305.47c3.46-.9,6.66-4.15,6.97-7.66.27-3.1.49-7.02-1.22-9.41-2.09-2.93-6.05-3.4-9.44-2.79-2.58.47-6.01,2.36-7.16,5.73s-.09,7.88,1.94,10.98c1.78,2.72,5.77,3.98,8.92,3.16ZM192.26,298.85l-4.25-3.42-4.43,7.72,8.68-4.29ZM123.33,320.78l3.14,1.21,3.46-10.59,1.92-8.46c-3.19-1.62-6.04-3.56-9.19-3.99l-6.25-.86c-3.65-.5-7.6-.03-11.29.08l-14.28.42-4.93.18-8.95.46-10.66.68-6.21.07h-25.91s-5.26-.69-5.26-.69c-1.15-.15-2.97-1.95-4.22-2.93l-3.73,11.99,4.48-1.77c1.98-.53,6.14-.58,8.1,0s3.33,1.46,5.49,1.33c1.65-.1,3.25.64,4.87.69l16.33.52,6.49.53,7.17.54,8.19.54,9.25.61,6.36.73,4.55.78c4.01.69,7.9,2.38,11.63,3.94l9.46,3.97ZM44.05,325.17c2.06-1.22,1.69-3.17.68-4.8l-3.11-5c-1.47-2.36-4.29-4.09-6.78-5.45-1.61-.88-4.8-.96-6.67-1.11-4.41-.37-8.58,2.5-7.92,7.2,2.7-1.4,5.2-3.36,7.85-3.63l4.46-.45c2.06-.21,6.31,1.9,7.21,3.88l4.28,9.36ZM42.3,327.48c-1.76-5.81-3.41-11.57-8.45-13.35-5.88-.85-11.75,2.34-15.21,7.07-.52,4.89,1.53,8.9,5.3,11.89,2.64,1.71,6.08,3.16,9.44,2.86,3.87-.35,9.89-5.29,8.92-8.48ZM146.17,381.49c2.27-3.79.52-7.77-1.82-10.6l-5.32-3.11c-5.32-3.11.19-6.53-1.8-9.62-5.43,2.08-7.68,3.53-11.89-1.03-.22-.24-1.29-.68-1.38-.37l-.34,1.09-2.3,6.5c-1.62,4.58-3.57,8.7-2.2,13.83.91-.36,2.54-1.02,3.09-1.51l3.48-3.09c5.04-4.48,11.44-5.26,17.09-.75,1.87,2.11,2.46,5.23,3.39,8.65ZM140.21,387.42l3.11-5.33c.88-1.5,0-5.5-1.12-6.81l-3.26-2.46c-1.05-.79-4.13-1.25-5.5-1.25-3.06.72-5.39,2.69-7.73,4.8-1.8,1.61-2.67,4.48-2.93,7.19-.28,3.03,1.76,7.32,4.9,7.97l5.29,1.1c2.29-1.34,5.89-2.91,7.24-5.22Z"/>
  <path class="st0" d="M143.32,343.05l-1.99,6.64c-.33,1.12-1.48,2.36-2.37,3.26-2.44,2.47-4.93,5.29-8.96,5.01-2.02-.14-3.77-2.99-4.81-4.55-2.43-3.62-2.57-7.07-1.65-11.19l1.1-4.92,1.71-6.51,2.28-8.82,4.22-14.08,1.37-5.33c-4.66-4.83-14.31-6.84-21.46-6.58l-6.67.24-12.63.53-32.63,2.11c-2.68-1.02-5.42-.87-8.25-.48l-9.22-.13-7.4-.13c-3.52-.06-7.18-.64-9.83-3.12,1.52-2.93,4.43-2.99,7.23-3.32l5.35-.63,7.3-.44,6.41-.65c2.93-.3,5.44-.18,8.37-.18h14.68s15.92-.18,15.92-.18l10.96.15,12.1-.38c.94-.03,2.03.87,2.59,1.88,2.7.27,5.78-.05,8.59-.59l-.7-2.43c-1.09.85-2.41,1.1-4.08.81-4.74-.84-9.4-.73-14.2-.45l-11.52.67c-1.3.08-3.46-.77-4.56-.79l-7.07-.12c2.03-1.14,3.68-2.81,5.32-4.77l4.92-1.67c1.22-.41,1.73-1.18,2.2-2.67,1.31-1.26,4.09-3.34,5.71-3.98l5.25-2.05,8.19,3.34c4.43,1.81,8.67,3.57,12.26,6.7l-1.13,10.11c-.04.36.25,1.6.54,1.64l1.89.31c-.14-.04.1-1.66.56-1.76,1.76-.39,5.2,1.14,7.1,1.94l4.59,1.93,5.69,1.52c7.47,2,12.31.69,12.1.47l.77.81,11.77-14.32c3.28-3.99,6.49-7.27,10.99-9.88,1.27-.73,3.52-3.12,5.09-2.46,2.14.91.84,3.71-.05,5.1l-8.04,12.42-7.11,10.31-4.78,6.24c3.17,1.01,6.95,2.76,9.83,1.4l10.43-4.95,8.86-4.71,7.55-3c10.58-5.63,21.09-10.76,32.71-14.5,2.22-2.44,5.28-3.07,8.57-3.18l7.07-.37c-1.77,4.12-5.71,4.33-8.96,6.07l-16.75,8.96-7.61,3.34-13.52,5.51-12.61,5.39-7.04,3.2-7.7,4.01c-2.62,1.36-5.36,2.22-8.45,1.91-4.68-1.82-8.94-4.22-12.7-7.34l.02-1.3c0-.27-.78-.16-1.31-.16-2.95-.71-6.61,1.36-6.96,4.75l-.6,5.84-.85,7.65c-.19,1.74-.21,3.57-.69,5.25l-1.8,6.37-1.48,5.26Z"/>
  <path class="st0" d="M123.33,320.78l-9.46-3.97c-3.72-1.56-7.61-3.25-11.63-3.94l-4.55-.78-6.36-.73-9.25-.61-8.19-.54-7.17-.54-6.49-.53-16.33-.52c-1.62-.05-3.22-.79-4.87-.69-2.16.13-3.52-.74-5.49-1.33s-6.12-.53-8.1,0l-4.48,1.77,3.73-11.99c1.25.98,3.07,2.78,4.22,2.93l5.26.69h25.91s6.21-.08,6.21-.08l10.66-.68,8.95-.46,4.93-.18,14.28-.42c3.69-.11,7.64-.58,11.29-.08l6.25.86c3.15.43,6.01,2.37,9.19,3.99l-1.92,8.46-3.46,10.59-3.14-1.21Z"/>
  <path class="st0" d="M152.09,325.43c-.91-.2-2.71-1.08-2.59-1.85l.64-4.08.37-6.11c.09-1.49,3.25-4.24,4.61-3.47l13.22,7.44c1.58.89,5.41.98,7.06.43l5.42-1.83,4.16-2.27,9.15-4,5.56-2.5,12.57-4.62,6.52-3.09,10.96-4.81,19.79-10.37,5.05-3.21,2.36,3.38c-1.01,1.83-1.97,3.41-3.37,4.61l-6.5,5.56-3.34,2.26-15.24,9.79-8.34,4.09-5.96,3.44-9.25,3.94-10.25,4.47c-3.13,1.81-6.32,3.28-9.81,4.25-2.84,2.94-6.74,3.72-10.73,2.69l-11.73-1.91-10.32-2.24Z"/>
  <path class="st0" d="M42.3,327.48c.96,3.19-5.05,8.13-8.92,8.48-3.36.3-6.8-1.15-9.44-2.86-3.77-2.99-5.81-7.01-5.3-11.89,3.46-4.73,9.33-7.92,15.21-7.07,5.04,1.78,6.69,7.54,8.45,13.35Z"/>
  <path class="st0" d="M140.21,387.42c-1.35,2.31-4.96,3.88-7.24,5.22l-5.29-1.1c-3.15-.66-5.19-4.94-4.9-7.97.25-2.72,1.13-5.58,2.93-7.19,2.34-2.1,4.67-4.07,7.73-4.8,1.37,0,4.45.46,5.5,1.25l3.26,2.46c1.12,1.32,2,5.31,1.12,6.81l-3.11,5.33Z"/>
  <path class="st0" d="M275.21,305.47c-3.14.82-7.13-.44-8.92-3.16-2.03-3.1-3.12-7.5-1.94-10.98s4.58-5.26,7.16-5.73c3.4-.62,7.35-.14,9.44,2.79,1.71,2.39,1.49,6.32,1.22,9.41-.31,3.51-3.51,6.76-6.97,7.66Z"/>
  <path class="st0" d="M146.17,381.49c-.93-3.42-1.52-6.54-3.39-8.65-5.64-4.51-12.04-3.73-17.09.75l-3.48,3.09c-.56.49-2.18,1.15-3.09,1.51-1.37-5.13.58-9.25,2.2-13.83l2.3-6.5.34-1.09c.09-.31,1.16.13,1.38.37,4.21,4.56,6.46,3.1,11.89,1.03,1.99,3.09-3.51,6.51,1.8,9.62l5.32,3.11c2.34,2.83,4.09,6.81,1.82,10.6Z"/>
  <path class="st0" d="M179.93,305.17l-5.86,2.61c-.77.29-2.76-.04-3.76-.31l6.73-8.65,8.96-13.29,2.84-4.75,2.91-5.74c3.03,3.36,1.34,6.47-.44,9.54l-6.01,10.38c-1.94,3.35-4.13,6.33-5.38,10.21Z"/>
  <path class="st0" d="M263,304.35c-1.51.5-4.66-.05-5.62-1.1l-7.1-7.82c2.3-2.17,4.94-3.9,6.45-6.25s2.5-4.01,5.51-4.82,6-3.24,9.51-1.71c-3.7,1.57-7.54,2.75-9.29,6.48-1.42,3.02-1.11,6.73-.24,10.07.38,1.49,1.2,2.85.79,5.15Z"/>
  <path class="st0" d="M55.63,287.56l-.18-2.87,11.94-.15c3.75-.05,7.47.27,11.09-.55,2.6-.59,5.09-3.31,7.12-3.33.83-.01,2.34,1.3,2.39,1.91-1.79,3.06-4.17,4.84-7.42,5.47-5.92,1.14-11.85,1.09-17.76.39l-7.17-.86Z"/>
  <path class="st0" d="M204.54,293.37l-4.77,2.14-.47-6.22c-.15-1.96,1.29-5.99,3.12-7.08,4.83-2.86,12.31,2.72,12.06,5.41-.06.69-1.52,1.33-2.25,1.71l-7.7,4.03Z"/>
  <path class="st0" d="M197.18,295.68c-.03,1.39-2.43,1.73-3.57.96-1.63-1.11-3.13-2.54-3.72-4.24l5.76-10.91c.47-.9.6-2.58,1.21-3.16s2.72-.79,3.57-.48l2.59.97c-2.63,1.37-4.94,3.56-5.62,6.93l-.22,9.93Z"/>
  <path class="st0" d="M44.05,325.17l-4.28-9.36c-.9-1.98-5.15-4.09-7.21-3.88l-4.46.45c-2.65.27-5.15,2.24-7.85,3.63-.67-4.7,3.51-7.57,7.92-7.2,1.88.16,5.06.24,6.67,1.11,2.5,1.36,5.31,3.09,6.78,5.45l3.11,5c1.01,1.63,1.38,3.58-.68,4.8Z"/>
  <g>
    <path class="st0" d="M126.05,266.79l-6.12-1.8-6.37-2.48-8.67-3.86-11.61-6.51-17.37-10.43-8.94-5.75c-3.81-2.45-7.11-5.11-10.41-8.09-2.9-2.62-5.77-4.3-6.94-8.44-.66-2.34-2.32-7.03.93-8.48l13.53-6.07c4.2-1.89,8.59-2.15,13.16-2.73l15.34-1.95,15.58-1.49,16.1-1.08c4.16-.28,8.69-1.66,13.28-.65.11,2.94-3.07,5.21-.66,8.07l4.9-18.22c1.62-6.01,4.94-11.18,8.97-15.78l5.12-5.85,13.61-13.78c3.11-3.14,5.93-6.01,9.55-8.68l10.91-8.05,10.49-5.39,8.28-4.71c1.24,3.08,1.6,5.39,1.57,8.28l-.07,7.07c-1.03,9.03-2.16,17.88-4.8,26.5l-6.16,20.12-7.35,16.74-4,8.51-1.94,5.12-3.46,9.79-2.54,5.65-.83-1.57-2.51,6.46c-.78,2.01-4.17,2.2-6.16,2.49-7.7,1.12-14.94,1.02-22.54-.08l-4.28-.62.08,1.2c.02.35,1.38.23,1.68.09,9.2,1.45,17.41,1.6,27.1.37l-3.46,4.19-3.24,2.96-9.43,7.89-3.19,2.75c-2.58,2.22-4.66,4.19-8.07,5.17l-3.6,4.06c-3.17,1.22-7.88,2.37-11.07.82-1.51-.73-2.59-1.24-4.39-1.77Z"/>
    <path class="st0" d="M187.26,249.63c.97-.47,2.22-1.49,2.82-2.63l6.64-12.6,4.71-8.36,4.13-8.42,3.95-7.95,3.23-7.59c2.01-4.73,3.56-9.77,4.68-14.71l1.95-8.56,1.94-8.98c.41-1.88-.04-4.2,1.8-5.06-.46-.53-.89-1.77-.83-2.61l.41-5.88.04-14.7c.02-5.33-1.6-9.59-6.31-13.86,3.56-.25,5.82,1.82,8.58,3.32l4.66,2.55c4.37,2.39,6.94,6.45,10.55,9.56l22.01,18.96,7.44,6.98,3.13,2.22-1.19.68c-.19.11.84.51,1.04.68,1.53,2.14-.15,4.74-1.44,6.81l-8.01,12.85c-5.28,8.47-12.73,15.29-20.93,20.96l-10.01,6.92-9.93,7.04-11.43,9.34c-.91.74-2.62.95-3.66.89l-4.7,3.79-9.69,7.32c-1.7,1.29-4.48,2.06-5.98,1.55-.03-.01-.18-.13-.22-.16-2.9,3.74-6.34,6.94-10.16,10.12l-7.47,6.22c-2.7,2.25-5.58,3.9-8.83,5.35l-4.92,2.19-16.56,5.37c-2.15.7-4.82.19-6.87-.25l-1.03,1.75c-.73,1.24-7.05-1.45-11.15-3.98-3.11-1.92-3.6-3.61-6.09-2.62l-12.4-5.81-13.02-6.68-9.66-6.71-16.73-12.15-4.97-3.79c-3.08-2.35-8.13-9.4-5.86-13.09l6.25,5.56c3.56,3.16,7.37,5.69,11.39,8.24l7.97,5.06,15.36,9.24,10.59,5.93c8.12,4.55,16.89,7.22,25.91,9.88l3.55,1.5,9.92-1.74,4.04-4.56c1.18-.16,2.54-.49,3.42-1.08l3.94-2.6,11.2-9.19,5.6-5.11,2.82-2.68,3.02-2.86,3.41-5.39c1.06-1.67,1.71-3.36,2.55-5.22l2.62-5.78c1.27-2.8,1.64-5.22,3.06-7.8,5.54-10.03,10.49-20.43,14.47-31.36l5.59-18.87,1.29-5.48c1.67-7.11,2.86-14.2,3.57-21.48l.1-12.08c4.67,2.84,7.18,7.06,7.68,12.44.51,5.54.45,10.89.01,16.44l-.6,7.65-1.01,6.76-.86,4.14c-1.65,7.98-3.46,15.64-6.24,23.33l-3.26,9c-.68,1.87-.4,3.63-1.52,5.52l-2,3.38-8.06,15.57-3.1,5.59-3.37,6.59-2.93,4.71-.03.48Z"/>
    <path class="st0" d="M153.41,165.88l-8.17,10.84-4.82,9.3c-3.91-3.67-7.38-7.44-9.98-12.03l-4.39-7.73c-3.24-5.71-3.27-11.4.95-16.33l8.37-9.77c8.13-9.49,18.63-16.55,29.55-22.67l10.55-4.78,6.91-3.26c7.16-3.38,10.39.78,15.63,4.49l7.36,5.22,4.71,3.43-5.55,2.9-14.39,7.55c-2.39,1.25-4.84,3.05-7.01,4.8l-10.86,8.76-4.19,4.53-4.21,4.04-10.47,10.72Z"/>
    <path class="st0" d="M274.12,170.79l-12.67-11.33-11.37-9.67-9.63-8.37c-5.26-5.59-10.98-9.77-17.91-13.2l-3.89-1.92-16.04-10.76-3.51-2.54-8.26-5.23c-1.51-.96-3.46-1.17-4.87-2.3,6.03-1.8,11.64-.96,17.24.53l5.27,4.12,11.32,7.82,6.1,4.66,8.87,6.96c8.18,5.08,15.66,10.15,22.85,16.51l7.88,5.83,5.69,4.08c4.29,3.07,8.58,5.76,12.36,9.96-2.05,2.83-5.84,4.89-9.43,4.86Z"/>
    <path class="st0" d="M264.9,192.59c1.79-5.85,9.38-14.53,9.36-16.74s.13-3.38,2.19-4.23l6.93-2.86c-4.91,8.86-10.41,16.94-18.47,23.83Z"/>
    <path class="st0" d="M122.52,156.08c-.97-2.22-.37-4.55.94-6.35l4.64-6.41,5.29-7.5,10.11-5.54-9.44,9.76-6.79,7.93c-2.08,2.43-3.37,4.51-4.74,8.12Z"/>
  </g>
  <polygon class="st0" points="192.26 298.85 183.57 303.14 188 295.42 192.26 298.85"/>
  <path class="st0" d="M90.38,281.61c-.87-1.37.01-2.37.99-2.99l8.37-5.4c-.34,1.66-1.47,2.72-2.8,3.93-1.93,1.76-4.07,3.58-6.56,4.47Z"/>
</svg>