<?xml version="1.0" encoding="UTF-8"?>
<svg id="Layer_1" xmlns="http://www.w3.org/2000/svg" version="1.1" viewBox="0 0 303.01 435.26">
  <!-- Generator: Adobe Illustrator 30.4.0, SVG Export Plug-In . SVG Version: 2.1.4 Build 226)  -->
  <defs>
    <style>
      .st0 {
        fill: #fff;
      }
    </style>
  </defs>
  <path d="M99.12,361.64l-3.78-1.42c.03-2.89-.11-6.45,1.01-9.05l2.18-5.07,3.52-6.55,1.86-5.62-.83-4.76.65-4.71,1.17-4.7,2.69-7.19c.81-2.16,1.81-4.71,2.1-6.72-.85-.84-1.38-1.58-1.17-2.16.32-.85,1.22-1.1,2.46-.59l2.37-4.08-14.59-11.46-14.78-10.74-7.6-5.01-5.02-3.81-3.68-2.81-4.77-4-12.83-11.68-12.07-10.34c.07,6.77-.68,16.21-5.19,15.89-2.25-.16-3.31.91-5.05,1.85-3.69,1.99-8.84,1.67-12.55-.41-2.22-1.24-3.57-3.82-4.97-5.83-4.2-6.08-2.14-16.14,5.57-21.02l3.25-3.59,3.14-2.41,11.85-8.13,6.58-.18,8.84,5.39,8.08,5.6,11.41,9.24c2.52,2.04,4.23,4.57,7.11,6.18,3.03,1.7,6.2,3.57,8.75,5.72l5.95,5,6.92,5.85,12.78,9.95,3.85,3.31c1.24,1.07,2.41,1.91,4.52,1.77-4.66-6.81-10.49-12.06-15.96-18.21l-7.21-8.1-7.02-7.72-6.91-8.98c-3.56-4.63-7.6-8.86-10.37-14.07l-5.13-9.62c-1.46-2.73-2.96-6.4-3.02-9.49-.05-2.6,2.98-4.97,3.92-7.08.63-1.41,1.22-3.38,2.56-4.06l6.99-3.54,7.69-5.35c1.2-.83,4-2.4,5.25-1.7,2.69,1.51,4.73,3.3,6.87,5.3,6.28,5.86,15.3,12.83,23.03,15.6,2.45.88,4.21,1.58,6.11,3.29l6.54,5.89,7.88,7.56c.2.19.76.77.95.64l1.28-.9c.56,1.33,1.03,2.96.76,4.63l-11.85-11.39c-2.68-2.58-5.72-5.48-8.82-7.38l-8.58-3.67c-7.91-4.57-14.69-10.43-21.53-16.56l-3.22-2.23c-3.05,1.24-5.74,2.87-8.31,4.97-4.56,3.71-8.93,3.64-12.14,7.46l3.06,4.98,5.01,6.39,6.18,7.99,6.07,6.49,9.95,12.98,8.75,13.58c3.71,5.76,6.76,11.33,11.72,16.25l6.63,6.59c1.64.65,5.35,1.23,7,.34l8.73-4.66,7.89-6.79,9.39-7.88,3.01-2.66,3.73-4.45c-9.56,1.11-17.59,1.15-26.63-.37l-1.92.13c-.45.03-.4-1.57-.33-1.45l4.25.61c7.6,1.09,14.84,1.2,22.54.08,6.51-.95,6.51-2.08,8.65-8.94l.83,1.48,3.51-7.83,2.37-7.06,2.08-5.58,4.01-8.51,7.35-16.74,6.16-20.13c2.63-8.6,3.84-17.48,4.76-26.49l.05-9.95c0-1.73-1.26-3.84-2.37-5.09l-7.39,4.4-10.16,5.18-11.26,8.25c-3.52,2.58-6.25,5.39-9.29,8.44l-6.54,6.56-10.43,10.86-6.86,8.87c-3.59,4.65-3.72,11.18-5.33,16.57-.4.5-1.44,1.76-1.59,2.42l-1.87,8.17-1.31-.48,1.01-4.31c.27-1.15.26-1.9.21-3.29l-.16-.04c4.72-4.73,3.85-14.46,8.81-20.77l7.75-9.87,10.47-10.71,4.21-4.04,4.18-4.53,11.17-9,6.69-4.57,14.13-7.44c1.72-.9,4.15-3.11,6.13-.89.63,1.47,2.14,4.4,2.13,5.98l-.03,8.92c-.73,7.49-1.91,14.68-3.61,21.96l-1.29,5.48-5.59,18.87c-3.99,10.93-8.94,21.33-14.47,31.36-1.42,2.58-1.77,5-3.05,7.81l-2.45,5.4c-1.99,4.39-4.92,10.01-7.96,12.78l-10.59,9.66c-5.73,5.22-11.72,9.68-18.67,13.2-3.54,1.79-6.53,3.32-10.72,2.6-.32.57-.51.99-.66.82l-.89-1.06-4.41-4.78c-6.21-5.44-10.49-11.77-14.46-18.93l-8.29-12.96-7.99-10.53-5.23-6.26c-3.34-4-6.74-7.34-9.58-11.78l-2.91-3.01-4.55-6.83c-1.88,2.41-3.53,4.72-4.33,7.01.73,3.65,2.17,6.74,3.78,9.82l4.53,8.65c1.58,3.02,3.94,5.91,6.07,8.53l4.67,5.77c4.43,5.47,8.79,10.74,13.39,16.08l7.62,8.85c1.57,1.82,3.72,3.7,5.73,5.09,1.76,1.22,2.51,3.07,3.94,4.77l5.75,6.86,5.34,3.32c2.38,1.48,4.95,1.68,7.5.86l16.47-5.31,4.57-2.05c3.28-1.47,5.97-3.26,8.81-5.35l4.57-3.36,4.55-3.98,9.97-10.93c1.84-2.02,2.89-5.25,4.19-7.69l2.71-5.09,2.96-5.13,6.82-13.44,2-3.38c1.12-1.89.84-3.65,1.52-5.52l3.26-9c2.78-7.69,4.59-15.35,6.24-23.33l.86-4.14,1.02-6.76.58-7.66c.41-5.52.74-10.93-.16-16.42.15-4.17-1.6-7.88-5.21-9.97l-.33-.87c-.06-.15-.24-.38-.13-.29,1.82,1.46,5.18.69,6.95,5.54,2.02,5.55,1.76,13.41,1.44,19.91l-.46,9.13c0,.14,1,.88.97.86s-.76.27-.83.4l-1.01,1.79c-1.44,2.55,7.45.41,11.9,13.91l2.56,7.77c4.13,12.51,2.78,33.87,2.52,48.45l-.13,7.09-.46,5.09c-.37,4.07-1.46,7.74-3.52,11.29-3.17,5.48-1.65,11.06-4.64,12.04l-6.9,2.25-9.07,2.46c-.27.07-.6.94-.42,1.1l.58.5c-2.27-1.36-4.61-.85-5.94.9-7.39,2.31-14.52,3.98-22.2,2.75l-1.53,2.09c-4.31-.81-7.6,1.27-11.34,2.69-2.03.77-3.84,1.31-3.93,3.91l-1.7.76c-.44.2-.43,1.4-.4,1.98.1,1.69-2.42,1.24-2.5,3.35-.03.74,1.75,1.74,2.51,1.46l9.57-3.61,5.88-1.84,5.47-2.06,5.03-1.59,6.96-1.76,4.43-1.66,6.77-2.92,7.35-1.95,13.38-3.73c4.08-1.14,7.24-1.94,11.7-2.08l4.06-.12,3.92.84c.82.18-.16,1.45,1.88,5.08.96,1.71,2.2,1.97,4.19,1.43,5.4-1.46,11.85-1.94,16.71,1.48,6.42,4.52,5.53,17.97,2.78,20.98-1.28,1.41-3.25,3.13-4.68,3.96-4.32,2.53-9.62,1.05-13.28-2.08l-3.99,1.18c-4.53-.54-7.4-3.77-9.75-7.24l-2.97-4.39-10.24,4.59-11.46,5.8-10.39,4.06-8.92,3.03-13.82,4.25-11.25,3.5c-2.26.7-3.74,1.38-6.26.81l-7-1.59-13.87-4.73-8.7-2.02-3.09,8.08-1.73,4.72-1.78,4.24-5.12,9.78-2.29,6.72c-1.03,3.01.41,4.11,2.33,5.43,5.93,4.09,7.07,12.37,3.59,18.66-1.04,1.88-4.31-.95-5.11,1.44-.64,1.94-2.05,2.86-3.8,3.72-2.61,1.29-5.23,3.71-8.35,2.51l-4.22-1.62c-4.7-2.54-6.28-8.19-4.86-13.46ZM181.11,271.15c3.74.16,7.25-.23,11.29-1.07l-3.16-1.55,4.4.9c4.39.5,8.9-.73,12.79-2.94,5.72-.2,10.91-1.57,15.94-4.16,4.49-3.36,7.2-10.73,7.65-16.53l.51-6.55.1-13.5c.67-8.97.26-17.56-.26-26.57-.27-4.77-1.02-9.3-2.61-13.78l-3.87-10.95c-1.43-4.05-5-6.78-9.25-7.54l-2.1,8.94-1.94,8.55c-1.12,4.94-2.67,9.97-4.68,14.71l-3.23,7.59-3.95,7.95-4.14,8.42-4.71,8.37-6.62,12.69c-1.5,2.88-4.59,5.17-6.84,7.75l-7,8.05c-.64.73-2.27,2.15-3.13,2.65l-12.51,7.33,7.72.4,19.6.85ZM131.16,310.56l1.53-6.9,1.38-6.2c.85-3.81,6.34-5.81,9.34-3.98.65,1.58,1.52,2.96,2.87,3.93l6.01,4.3c3.76,2.85,8.48,2.73,12.45.41l25.13-7.63,8.67-1.88,14.21-4.43,13.5-4.98,6.62-3.04c2.85-1.31,6.24-1.04,8.55-4.49-3.86-1.1-10.36-.85-13.93.85-3.81,1.81-7.76,2.28-11.78,3.5l-12.56,3.81-11.88,4.32-9.1,2.53-13.33,4.62-4.46,1.48c-3.34,1.11-7.29-.53-10.41-2.18,1.56-4.45,5.94-4.74,6.39-8.13,3.59-2.15,7.65-4.31,11.61-5.71l3.27-.67-12.69-.92-7.84-.66-8.17,4.83c-.18-.21.11.13.63.74-1.52.39-3.42,1.04-5.04.87-1.05-.1-1.86-2.78-1.87-3.85l-.07-5.54-6.77,1.48c-9.2,2.01-10.46-3.75-14.55-2.74-1.97.49-3.11-.15-4.51-1.18l-11.61-8.61-6.81-5.23-3.97-3.65-12.91-10.09-15.6-12.19-16.53-11.37-5.89-3.43c-1-.58-3-1.72-3.96-.67-.71.78.26,3.45.98,4.22l2.62,2.8,7.17,6.06,7.99,6.23,5.49,4.88,11.45,8.16,12.34,8.61,7.07,4.95c.84.59,1.17,1.02,1.89,1.68l3.49,3.17,18.48,15.5c-2.82,0-4-2.34-5.78-3.75l-20.04-15.84-8.44-5.32-10.06-7.35-8.32-5.63c-.79,0-.87.01-.83,0,.01,0,0-.83,0-1l-22.7-17.71c-2.93-2.37-5.06-4.84-6.02-8.93l-8.76,6.22,7.12,3.86c1.81.98,2.72,2.02,3.46,4.14l4.72,4.89,2.82,2.87,5.34,4.5,6.49,5.44,14.8,13.94c4.83,4.55,9.81,8.02,15.16,11.85l14.27,10.2,13.18,10.45c.81-.08,2.36-1.1,2.61-1.81l4.29-12.06,1.33,1.32c.2.2.09,1.11,0,1.39l-1.21,4.12-6.14,14-2.98,7.48-2.35,5.9c-1.18,2.96-2.13,5.66-2.37,8.76s-.49,5.54,1.16,8.54c.91,1.66,1.81,5.06,4.58,5.17,5.1.2,9.86-3.97,11.84-8.67l6.23-14.8c.75-1.77,1.23-3.58,1.72-5.77ZM34.23,237.6c.2-.37.2-1.86-.11-2.19l-4.79-4.99c-3.04-3.17-8.59-3.95-10.67.55,4.48-.02,7.7.94,11,3.06,2.95,1.9,3.64,5.32,4.57,3.57ZM28.34,253.3c2.1-3.34,4.24-10.88,2.62-14.49-4.06-4.69-9.93-6.69-15.99-5.14-5.75,4.69-5.87,13.09-.63,18.22,2.2,4.48,11.38,5.56,13.99,1.4ZM34.3,251.45l1.4-7.86c.19-1.06-.95-3.31-1.53-4.46.78,5.5-3.45,14.52-1.33,13.22l1.47-.9ZM158.63,277.25c2.32,1,5.27.92,7.72,1.01l12.62.44,7.78-.22,6.44-.61c1.46-.14,3.92-.86,5.03-1.51,3.87-2.29,7.93-2.69,12.04-3.96l12.49-3.87c1.29-1.39,1.78-4.55,1.42-6.01-4.1,2.79-9.12,4.5-13.52,4.66-2.53.09-4.54.79-6.73,1.68-8.43,3.39-17.5,3.64-26.56,3.27l-14.75-.61-8.51-.3c-3.26-.12-6.1.85-9.08,2.88,3.2,1.39,6.61,3.05,9.76,2.76,1.68-.15,2.06-.36,3.85.41ZM152.99,278.4l-5.61-2.12c-2.11-.8-4.8-1.43-6.53-1.26.91,3.35.69,4.99.47,8.64,1.8.04,3.77-.57,5.3-1.48l6.37-3.78ZM158.94,317.75c4.09,1.37,6.59-.31,9.79-1.32l8.74-2.74,14.02-4.54,8.15-2.33,13.79-5.33c1.49-.58,3.62-1.41,4.87-2.17l4.47-2.74,4.8-2.33,5.2-2.52,4.3-2.58,6.43-4.74c.7-.52,1.58-2.18,1.56-3.02s-1.35-2.65-2.18-2.65-2.48,1.44-3.27,1.74l-9.52,3.58-7.18,3.22-14.66,5.07-15.3,4.19-10.88,3.04-15.2,4.66c-11.42,3.5-16.99-1.77-25.62-9.27-1.5-.23-4.75,1.39-5.09,2.83l-1.68,7.22c-.21.9-.77,2.76-.47,3.55s1.89,1.3,2.9,1.65l12.91,4.49,9.09,3.04ZM249.36,301.91c1.26-1.99-1.61-4.8-.32-10.94.49-2.36,1.35-4.89,3.66-6.09l6.02-3.11c-3.79-.82-9.02-.19-11.93,2.74l-4.25,4.28c-1.73,1-3.18,2.11-4.59,3.52l3.28,5.01c2.79,4.26,7.18,6.09,8.13,4.58ZM262.84,304.52c2.06-.84,4.58-3.06,5.48-5.08,1.29-2.91,1.75-7.08.67-10.09s-5.56-4.54-8.29-4.48c-3,.06-6.71,1.22-8.26,4.25-1.89,3.69-1.43,8.99.93,12.48,1.84,2.73,6.38,4.17,9.47,2.92ZM119.15,351.13c-4.93-3-1.22-5.58-.97-10.31l-6.96,1.69-3.81-2.19c-.6-.98-1.77-2.15-2.33-2l-4.43,8.65c-1.86,3.63-3.82,6.83-3.13,11.54,2.36-.39,4.29-1.64,6.08-3.07,4.29-3.45,9.37-4.71,14.59-2.32,3.67,1.68,5.12,5.75,6.04,10.2,2.96-4.44-.89-9.64-5.07-12.18ZM120.1,367.17c2.43-3.55,1.93-7.04-.73-10.09-3.29-3.76-8.94-4.11-12.36-1.17l-5.61,4.82c-1.01,3.38-1.23,5.76.34,9.09.94,1.68,3.59,4.22,6.58,4.64,4.92.7,9.07-3.34,11.78-7.3Z"/>
  <path class="st0" d="M131.16,310.56c-.49,2.19-.97,3.99-1.72,5.77l-6.23,14.8c-1.98,4.7-6.73,8.87-11.84,8.67-2.76-.11-3.67-3.51-4.58-5.17-1.65-3.01-1.4-5.46-1.16-8.54s1.19-5.8,2.37-8.76l2.35-5.9,2.98-7.48,6.14-14,1.21-4.12c.08-.28.2-1.19,0-1.39l-1.33-1.32-4.29,12.06c-.25.71-1.8,1.73-2.61,1.81l-13.18-10.45-14.27-10.2c-5.36-3.83-10.34-7.3-15.16-11.85l-14.8-13.94-6.49-5.44-5.34-4.5-2.82-2.87-4.72-4.89c-.75-2.12-1.65-3.16-3.46-4.14l-7.12-3.86,8.76-6.22c.96,4.08,3.09,6.56,6.02,8.93l22.7,17.71c0,.17.02.99,0,1-.03.02.05,0,.83,0l8.32,5.63,10.06,7.35,8.44,5.32,20.04,15.84c1.78,1.41,2.97,3.74,5.78,3.75l-18.48-15.5-3.49-3.17c-.72-.65-1.05-1.09-1.89-1.68l-7.07-4.95-12.34-8.61-11.45-8.16-5.49-4.88-7.99-6.23-7.17-6.06-2.62-2.8c-.72-.77-1.69-3.45-.98-4.22.96-1.05,2.96.09,3.96.67l5.89,3.43,16.53,11.37,15.6,12.19,12.91,10.09,3.97,3.65,6.81,5.23,11.61,8.61c1.39,1.04,2.54,1.67,4.51,1.18,4.08-1.01,5.34,4.75,14.55,2.74l6.77-1.48.07,5.54c.01,1.07.82,3.75,1.87,3.85,1.63.16,3.52-.48,5.04-.87-.52-.61-.81-.95-.63-.74l8.17-4.83,7.84.66,12.69.92-3.27.67c-3.96,1.39-8.02,3.56-11.61,5.71-.46,3.39-4.83,3.68-6.39,8.13,3.12,1.65,7.07,3.29,10.41,2.18l4.46-1.48,13.33-4.62,9.1-2.53,11.88-4.32,12.56-3.81c4.02-1.22,7.96-1.68,11.78-3.5,3.58-1.7,10.07-1.95,13.93-.85-2.31,3.45-5.7,3.18-8.55,4.49l-6.62,3.04-13.5,4.98-14.21,4.43-8.67,1.88-25.13,7.63c-3.97,2.32-8.69,2.44-12.45-.41l-6.01-4.3c-1.36-.97-2.22-2.36-2.87-3.93-3-1.83-8.49.17-9.34,3.98l-1.38,6.2-1.53,6.9Z"/>
  <path class="st0" d="M181.11,271.15l-19.6-.85-7.72-.4,12.51-7.33c.86-.51,2.5-1.92,3.13-2.65l7-8.05c2.25-2.58,5.34-4.87,6.84-7.75l6.62-12.69,4.71-8.37,4.14-8.42,3.95-7.95,3.23-7.59c2.01-4.73,3.56-9.76,4.68-14.71l1.94-8.55,2.1-8.94c4.25.76,7.82,3.49,9.25,7.54l3.87,10.95c1.59,4.49,2.34,9.01,2.61,13.78.52,9.01.93,17.6.26,26.57l-.1,13.5-.51,6.55c-.45,5.8-3.16,13.17-7.65,16.53-5.03,2.6-10.22,3.97-15.94,4.16-3.89,2.21-8.4,3.44-12.79,2.94l-4.4-.9,3.16,1.55c-4.04.84-7.55,1.23-11.29,1.07Z"/>
  <path class="st0" d="M158.94,317.75l-9.09-3.04-12.91-4.49c-1.02-.35-2.61-.88-2.9-1.65s.26-2.65.47-3.55l1.68-7.22c.33-1.44,3.58-3.06,5.09-2.83,8.63,7.5,14.19,12.77,25.62,9.27l15.2-4.66,10.88-3.04,15.3-4.19,14.66-5.07,7.18-3.22,9.52-3.58c.79-.3,2.42-1.74,3.27-1.74s2.16,1.82,2.18,2.65-.86,2.5-1.56,3.02l-6.43,4.74-4.3,2.58-5.2,2.52-4.8,2.33-4.47,2.74c-1.24.76-3.37,1.59-4.87,2.17l-13.79,5.33-8.15,2.33-14.02,4.54-8.74,2.74c-3.21,1.01-5.7,2.69-9.79,1.32Z"/>
  <path class="st0" d="M158.63,277.25c-1.79-.77-2.17-.56-3.85-.41-3.15.28-6.56-1.38-9.76-2.76,2.97-2.02,5.82-2.99,9.08-2.88l8.51.3,14.75.61c9.06.37,18.12.12,26.56-3.27,2.2-.88,4.2-1.58,6.73-1.68,4.4-.16,9.42-1.87,13.52-4.66.36,1.46-.13,4.61-1.42,6.01l-12.49,3.87c-4.11,1.27-8.18,1.67-12.04,3.96-1.11.66-3.57,1.37-5.03,1.51l-6.44.61-7.78.22-12.62-.44c-2.46-.09-5.4-.01-7.72-1.01Z"/>
  <path class="st0" d="M28.34,253.3c-2.61,4.16-11.79,3.08-13.99-1.4-5.24-5.13-5.12-13.54.63-18.22,6.06-1.55,11.93.45,15.99,5.14,1.61,3.61-.52,11.15-2.62,14.49Z"/>
  <path class="st0" d="M120.1,367.17c-2.71,3.96-6.86,8.01-11.78,7.3-2.99-.43-5.64-2.96-6.58-4.64-1.57-3.33-1.35-5.71-.34-9.09l5.61-4.82c3.41-2.94,9.07-2.59,12.36,1.17,2.66,3.05,3.16,6.54.73,10.09Z"/>
  <path class="st0" d="M262.84,304.52c-3.1,1.26-7.63-.19-9.47-2.92-2.36-3.49-2.82-8.79-.93-12.48,1.55-3.02,5.26-4.18,8.26-4.25,2.73-.06,7.18,1.39,8.29,4.48s.63,7.18-.67,10.09c-.9,2.02-3.42,4.25-5.48,5.08Z"/>
  <path class="st0" d="M119.15,351.13c4.18,2.54,8.03,7.74,5.07,12.18-.92-4.45-2.37-8.52-6.04-10.2-5.21-2.39-10.29-1.12-14.59,2.32-1.79,1.44-3.72,2.68-6.08,3.07-.69-4.71,1.27-7.92,3.13-11.54l4.43-8.65c.56-.15,1.73,1.03,2.33,2l3.81,2.19,6.96-1.69c-.25,4.73-3.96,7.32.97,10.31Z"/>
  <path class="st0" d="M249.36,301.91c-.95,1.5-5.34-.33-8.13-4.58l-3.28-5.01c1.41-1.41,2.86-2.52,4.59-3.52l4.25-4.28c2.91-2.93,8.14-3.56,11.93-2.74l-6.02,3.11c-2.31,1.19-3.17,3.72-3.66,6.09-1.29,6.14,1.58,8.95.32,10.94Z"/>
  <path class="st0" d="M152.99,278.4l-6.37,3.78c-1.54.91-3.51,1.52-5.3,1.48.22-3.65.44-5.29-.47-8.64,1.73-.17,4.42.46,6.53,1.26l5.61,2.12Z"/>
  <path class="st0" d="M34.23,237.6c-.93,1.75-1.62-1.67-4.57-3.57-3.3-2.12-6.52-3.08-11-3.06,2.07-4.5,7.62-3.72,10.67-.55l4.79,4.99c.31.33.31,1.81.11,2.19Z"/>
  <path class="st0" d="M34.3,251.45l-1.47.9c-2.12,1.3,2.11-7.72,1.33-13.22.59,1.15,1.72,3.41,1.53,4.46l-1.4,7.86Z"/>
</svg>