<?xml version="1.0" encoding="UTF-8"?>
<svg id="Layer_1" xmlns="http://www.w3.org/2000/svg" version="1.1" viewBox="0 0 300.63 380.33">
  <!-- Generator: Adobe Illustrator 30.4.0, SVG Export Plug-In . SVG Version: 2.1.4 Build 226)  -->
  <defs>
    <style>
      .st0 {
        fill: #fff;
      }
    </style>
  </defs>
  <polygon class="st0" points="114.72 13.52 111.54 72 93.86 103.7 105.19 111.45 116.92 111.45 141.84 110.32 129.37 342.22 75.78 359.41 87.38 370.53 150.32 377.78 190.33 368.6 182.11 357.48 147.13 339.59 155.04 109.85 192.75 107.1 216.55 92.13 184.68 56.51 176.17 6.38 169.06 -3.11 114.44 7.08 114.72 13.52"/>
  <path d="M81.47,362.17c1.9,1.66,4.14,2.68,6.6,3.04l9.51,1.4,8.64.53,6.93.53,26.03,4.03,5.37.52,11.29.02c5.51.01,17.54-5.01,27.64-4.36-4.4-5.01-8.84-10.04-14.5-13.42-5.55-3.31-11.4-5.19-17.25-7.64l-8.38-3.51.49,6.38.52,6.01.04,6.54c-.79-.81-.89-1.59-.95-2.78l-.41-7.59-.56-6.5-.46-7.48.49-8.68.52-7.02.39-7.01.37-7.55.6-7.56.51-5.36.52-8.63.55-9.21v-12.94s.01-5.46.01-5.46l.41-18.6.48-18.41,3.08-24.44.6-7.56.91-9.68.42-4.93.31-16.68.54-7.56c.29-4.09.55-7.92.09-12.03-.36-3.2-.38-6.75-.1-10l.53-6.04.58-5.34.28-7.33-11.18.33-.21,16.15-.47,9.74-.91,9.62-.48,8.1-.55,7.57-.54,5.94-.55,5.95-.5,5.91-.49,8.28-.49,16.23-.45,14.84-.33,5.99-.43,6.46-.51,6.5-.54,8.07-.4,29.94-.48,12.18-.52,8.06-.51,6.5-.52,7.04-.59,8.59-.52,7.57-.55,6.37-.97,8.76c-.56,5.05-.52,9.67-.3,14.92-2.01-4.41-1.21-8.8-.78-13.27l1.61-16.77.43-5.93.59-9.15.5-6.51.55-7.03.47-6.51.52-11.58.38-28.86.38-7.54.42-7.55.52-5.37.52-8.66.41-15.43.53-15.6.47-9.47.49-5.9.55-5.95.55-5.94.53-6.5.53-9.17.92-10.22.49-4.87.11-21.39c-5.35-.28-10.16-1.73-15.41-3.43l-1.46,4.2-1.32,5.54c1.05,1.57,1.03,3.31.38,4.87l-1.02,10.19-.38,3.84c-.23,2.32-.79,4.26.1,6.59s.68,5.17-1.81,6.76c-1.19.76-3.65-.68-4.42-1.86-.82-1.26-.62-3.93.39-5.05,1.83-2.03,1.53-3.48,1.96-5.99l1.18-7,.89-3.64.09-3.89.32-4.84.52-5.28.59-5.16c-2.38.37-5.32,1.18-7.41,1.07l-6.32-.35c-3.66-.2-9.44-1.53-12.67-2.34-.3-.08-.34-1.34-.11-1.25l1.14.49c3.24.82,6.81,1.71,10.18,1.97l6.64.51c3.06.24,6.53-.86,9.58-1.48l1.89.46c1.65-2.8,4.11-5.72,5.25-8.98,3.73-10.66,4.91-21.55,5.61-32.71.31-4.94.55-9.9,0-14.74l-1.34-12-.47-5.52c-.51-6.05.81-10.58.19-16.49,2.49,1.44.91,3.91.86,5.87-.11,4.47-.38,8.9.09,13.23l1.75,15.98c.45,4.12.25,8.38-.02,12.61-.72,11.36-1.87,22.46-5.47,33.4-1.14,3.48-3.6,6.38-5.55,9.84,4.58,1.66,9.76,3.04,14.84,3.63l1.1-1.3c.23-.27,1.14,1.01,1.54,1l8.73-.25,3.92-.4c4.37-.45,8.42-2.27,12.76-3.33l8.06-.65,5.27-1.11-5.93-3.57c-5.57-3.35-9.71-7.65-11.43-13.99l-1.6-5.92-4.45-23.12c-1.27-6.61-2.65-12.91-3-19.6l-.38-7.35-.35-7.04c-.15-3.03-.5-5.81-.84-9.12,2.8,3.64,1.6,7.88,1.84,11.83l.43,7.03.65,8.08,1.25,8.58,4.17,22.76,3.04,13.02c1.41,6.02,4.92,10.37,10.37,13.56l6.32,3.7c.37.22.78,1.64,1.15,1.51l1.68-.62,3.91-.8c4.93-.23,9.28-.23,13.53-2.87l9.83-6.1c.94-.03,1.41,1.52-.08,1.06l-7.98,5.18c-7.32,4.75-12.9,2.69-19.61,4.77-1.3.76-2.24.65-3.77.76l-7.81.59c-7.18.54-11.93,3.43-18.37,4.2.31,2.07.14,4.21-.09,6.26l-.6,5.37-.5,5.44c-.4,4.43.06,8.95.05,13.38v7.61s-.62,9.68-.62,9.68l-.29,15.62-.51,5.99-.55,5.89-.52,5.99-.52,6.49-2.95,23.25-.42,16.43-.58,15.06c-.15,3.92.08,7.61.1,11.6l.04,11.32-.55,9.21-.54,9.17-.5,5.37-.55,7.04-.58,10.25-.54,9.15-.5,6.51c-.26,3.32-.59,6.58-.19,10.06l10.18,4.32c9.77,4.15,17.12,5.88,25.7,15.21l6.22,6.75-7.87.94-14.79,2.86c-6.29,1.22-12.21,1.62-18.59.97l-7.5-.76c-9.13-1.84-17.98-3.49-27.23-3.99l-9.25-.5c-8.98-.49-23.61-3.34-18.04-7.27"/>
  <path d="M81.96,360.53c14.17-9.98,24.87-9.58,36.21-14.52,3.5-1.52,7.04-2.56,10.75-2.39l-11.14,3.62c-3.59,1.16-6.89,2.62-10.58,3.47-9.28,2.13-17.71,5.52-25.72,11.47"/>
  <path d="M119.89,148.33c2.52-1.2,2.94-4.27,1.7-6.65-1.24.61-2.49.75-4.03.66-.38.76-.92,3.21-.47,3.94s1.68,1.39,2.8,2.04Z"/>
  <path class="st0" d="M119.89,148.33c-1.12-.65-2.35-1.31-2.8-2.04s.09-3.18.47-3.94c1.54.08,2.8-.05,4.03-.66,1.24,2.38.82,5.45-1.7,6.65Z"/>
  <g>
    <path d="M216.55,92.13c-2.85,1.29-5.26-.99-7.36-2.43-10.3-7.1-17.49-16.96-22.33-28.43-2.48-5.88-5.82-11.24-7.05-17.6-1.25-6.45-2.1-12.76-2.88-19.27l-1.59-14.54-.86-1.01c-.17-.2-.49.82-.65,1.32l-16.42,2.26-7.96.23-6.05.45c-10.46.78-19.84,3.88-28.67.42l-.45,7.61-.33,5.44-.43,36.45c-.18,14.98-8.33,31.19-19.64,40.67,6.28-8.19,12.67-15.36,15.87-25.08,1.51-4.59,2.68-9.56,2.73-14.52l.32-34.37.43-5.37c.34-4.23.08-8.52.82-12.64,4.34-3.22,9.27-5.02,14.57-5.99l22.3-4.12c3.79-.7,7.76-.38,11.67-.19l10.5.54c-2.97,1.91-5.75.4-8.56.34-3.23-.07-6.56-.26-9.76.01-6.42.55-12.55,1.86-18.84,3.08l-9.09,1.77c-4.39.85-8.35,2.66-12.08,5.17,5.18,2.4,10.38,2,15.74,1.29l9.19-1.22-.15-4.24c-.07-1.99,3.23-2.25,4.72-2l4.25.72.91,4.81,7.03-.35,14.94-1.73c1.71-.2,2.66-1.23,2.7-2.96.04-1.63-1.74-2.3-3.68-2.48.24-.46,1.77-1.14,2.23-.76l2.27,1.87,1.3,1.09c.29.24-.32,1.47-.27,1.87l1.76,13.71,2.43,18.59c.92,7.03,4.37,12.86,7.11,19.3,4.94,11.62,11.94,21.64,22.38,28.98,2.1,1.48,4.03,2.31,6.98,3.3ZM148.37,11.84l-.8-3.49c-2.25-1.26-4.87-1.83-7.18-.52l.37,4.4,7.6-.39Z"/>
    <path class="st0" d="M148.37,11.84l-7.6.39-.37-4.4c2.31-1.31,4.92-.74,7.18.52l.8,3.49Z"/>
  </g>
</svg>