<?xml version="1.0" encoding="UTF-8"?>
<svg id="Layer_1" xmlns="http://www.w3.org/2000/svg" version="1.1" viewBox="0 0 300.63 380.33">
  <!-- Generator: Adobe Illustrator 30.4.0, SVG Export Plug-In . SVG Version: 2.1.4 Build 226)  -->
  <defs>
    <style>
      .st0 {
        fill: #fff;
      }
    </style>
  </defs>
  <polygon class="st0" points="74.96 55.2 102.29 112.56 100.73 143.39 102.29 149.27 126.95 134.89 134.88 158.53 144.44 213.34 138.08 340.39 87.4 360.66 91.64 366.34 164.98 375.8 199.85 370.12 195.8 359.58 166.06 341.74 157.95 337.14 158.13 283.44 163.09 210.37 157.02 180.87 150.32 127.11 207.96 83.32 207.96 74.13 179.58 64.12 145.79 38.44 132.81 20.06 122.63 13.3 92.8 29.79 72.53 50.07 74.96 55.2"/>
  <g>
    <path d="M140.76,342.04l1.66-17.18.44-5.99.6-9.25.5-6.58.56-7.1.47-6.57.52-11.7.39-29.16.38-7.62.42-7.64.53-5.4.46-8.88-.46-6.32-1.21-7.61-2.61-14.9-2.34-16.6c-2-.78-4.11-2.44-3.47-5.23.57-2.49-.67-4.53-1.28-6.78l-2.32-8.61c-.3-1.12-.36-2.03-.82-2.94l-2.04-4.07-1.96-5.02-2.23-6c-1.23-3.32-2.15.71-8.24,3.21s-11.33,5.08-17.98,5.29c3.4-1.82,7.06-1.64,10.49-3.13l3.65-1.59c3.66-1.59,6.82-2.93,9.84-5.6,1.09-.97,2.3-1.65,3.77-2.23.64-4.26,1.48-9.02.55-13.36-2.22-10.42-5.4-19.99-9.59-29.66l-6.14-12.46-1.92-2.98c-5.82-7.98-10.41-16.46-13.96-25.69l-.84-.73c-.15-.13.22-.96.4-.85l1.28.75c3.07,9.35,7.94,17.5,13.66,25.46l2.43,4.1,5.82,11.76c4.84,11.37,9.12,22.85,10.28,35.41l-.52,8.3,4.72-.61c.23-.03.86-1.08,1.05-.96l.93.62,6.34-1.41-.16.78-6.29,1.79,1.43,9.01.47,4.39,1.14,8.2,2.04,11.56c.83.81,1.92,1.81,2.17,3.1l-2.41-1.71.68,7.08c2.99-1.37,1.7-3.34,1.65-5.56.95.7,1.41,2.15,1.23,3.37-.19,1.32-1.06,2.09-2.36,3.19-.38,1.22.04,3.9.25,5.55l.89,6.87,2.58,14.35,1.4,7.61c.84,4.56,1.24,8.99.91,13.69l-.54,7.63-.51,6.56-.55,8.16-.4,30.25-.48,12.31-.53,8.14-.51,6.56-.53,7.12-.59,8.69-.46,6.56-1.66,16.9-.25,14.54c-1.95-4.28-1.27-8.52-.82-13.18ZM136.54,150.67l1.2,3.39,1.47,4.47-1.53-10.86-1.85-16.42-5.28.79.42,4.64c.12,1.34.93,3.97,1.54,5.1,1.06,1.46,1.8,2.8,2.41,4.47l1.62,4.43ZM140.58,172.39l.13-5.01-2.63.56c.35,1.94.96,3.53,2.5,4.46Z"/>
    <path d="M118.82,350.28c-9.53,2.17-18.22,5.58-26.43,11.7,1.92,1.68,4.19,2.71,6.67,3.07l9.61,1.41,8.73.53,7,.53,26.3,4.08,5.43.53,11.41.02,14.74-3.08c4.44-.93,8.48-1.21,13.19-1.33-4.44-5.06-8.93-10.14-14.65-13.56-5.61-3.35-11.52-5.24-17.43-7.72l-8.47-3.55.5,6.45.52,6.08.04,6.61c-.79-.81-.9-1.61-.96-2.81l-.41-7.67-.56-6.57-.46-7.56.5-8.77.52-7.1.39-7.08.38-7.63.61-7.64.52-5.42.52-8.72.56-9.31.02-13.08v-5.51s.4-18.8.4-18.8l.5-19.04.8-6.27c-1.33,1.49-3.16,3.17-4.83,3.98.79-2.82,4.92-3.65,4.65-6.46l-1.91-19.34-1.77-15.31-3.49-18.59-1.02-7.64c-.46-3.47-.95-6.76-2.03-10.1-1.39-4.28-2.08-8.61-2.66-13.15l-1.55-1.45,6.99-2.99c1.84-.79,3.08-1.32,4.21-3.09-.16-.18.36.26.38.41l.2,1.39c2.39-1,4.88-2.92,6.8-5.11,3.32-3.8,7.13-5.87,11.4-8.39l4.69-3.53c-5.98-1.6-13.42.39-19.19-4.29-5.68-4.61-9.99-10.33-14.38-16.13l-12.92-17.07-7.38-11.18-7.67-13.57c-.9-1.59-1.81-3.39-2.98-4.47l-.87-.8c-.18-.16.19-.94.43-.88s.86.35,1,.55l2.85,4.08c5.95,12.36,13.33,23.13,21.7,33.91,6.54,8.42,12,17.04,20.01,24.2,1.96,1.75,5.59,3.37,8.2,3.59l11,.94c.36.03,1.34,1.06,1.58.79l1.32-1.49,3.77-2.98c4.08-1.63,7.47-3.8,9.9-7.66l6.18-9.82c.11-.18.65-.67.79-.76.21-.14,1,.65.8.8l-1.04.77c-2.59,4.75-5.27,8.97-8.72,13.13l-8.37,5.36-3.08,2.78c-1.09.98-2.11,1.49-3.34,2.23l-6.4,3.86c-2.59,1.56-4.95,3.27-7.02,5.5-6.87,7.4-12.12,6.27-18.65,10.48l3.64,16.83,2.4,14.06,2.98,15.91,1.15,8.55,1.83,15.82,1.42,14.46-.74,7.49-.41,17.11-.58,15.22.1,11.73.04,11.44-.55,9.3-.55,9.26-.51,5.43-.56,7.12-.58,10.36-.54,9.25-.51,6.58c-.26,3.36-.59,6.65-.19,10.16l10.29,4.37c9.61,4.08,17.24,5.93,25.7,15.08l6.55,7.09-7.95.95-17.14,3.39c-5.55,1.1-10.99,1.05-16.57.49l-7.6-.77c-9.22-1.85-18.17-3.52-27.52-4.03l-9.34-.51c-9.06-.49-23.85-3.37-18.23-7.34,14.2-10.04,25.09-9.7,36.2-14.52,3.68-1.6,7.35-2.77,11.25-2.57l-11.26,3.65c-3.48,1.13-6.67,2.58-10.25,3.4Z"/>
    <path class="st0" d="M136.54,150.67l-1.62-4.43c-.61-1.67-1.34-3.01-2.41-4.47-.62-1.13-1.42-3.76-1.54-5.1l-.42-4.64,5.28-.79,1.85,16.42,1.53,10.86-1.47-4.47-1.2-3.39Z"/>
    <path class="st0" d="M140.58,172.39c-1.54-.93-2.15-2.52-2.5-4.46l2.63-.56-.13,5.01Z"/>
    <g>
      <path d="M142.49,40.35l-7.04-11.16-5.39-7.79c-.72,1.31-1.36,2.48-2.22,3.05l-11.88,7.82-9.66,5.59-6.8,4.07-7.87,5.29c-4.22,2.84-8.17,4.88-13.69,5.7.46,2.1,1.31,4.01,2.19,6.05l2.65,6.1,6.94,14.37c3.14,6.5,6.83,12.55,9.48,19.3,1.7,4.35,3.43,8.76,4.04,13.47,1.37,10.52.43,21.71-3.64,31.44,2.01-10.79,4.54-20.61,2.69-31.08-1.45-8.18-4.79-15.29-8.39-22.64l-10.01-20.47-5.32-11.65-2.07-5.71c-.5-1.38,1.74-4.13,2.68-5.29,4.49-5.54,10.11-9.12,15.63-13.31l10.61-8.06c3.33-2.53,7.69-3.94,11.59-5.69l7.54-3.38c-.09.45-.97,1.5-1.45,1.73l-13.91,6.41c-5.88,2.71-10.52,7.49-15.79,11.33l-3.49,2.54c-4.99,3.64-9.71,7.46-12.53,13.36,3.88-.3,7.51-1.27,10.59-3.31l11.58-7.67-1.05-2.45c-.3-.71-.79-1.93-.81-2.57-.02-.75,1.22-2.05,2-2.3l5.41-1.75,3.06,3.81,8.16-4.48,10.87-7.18c1.55-1.02,1.93-2.53.77-4.34-.61-.95-2.68-.82-4.12-.12.44-3.04,6.35-.67,6.35-.66l.17,1.46,7.92,11.68,2.33,3.73,2.68,4.29.21.2,7.9,10.85c3.47,4.76,8.75,7.54,13.12,11.42,9.5,8.42,20.54,14,33.24,15.91,2.43.37,4.46.14,7.25-.09-2.75,2.33-6.01,1.4-9.18.79-9.39-1.8-18.59-5.44-26.18-11.36l-10.73-8.38c-4.59-3.58-8.43-7.59-11.74-12.32l-4.37-6.24-.34-.31ZM100.83,39.74l6.36-3.51-1.87-2.79c-2.06-.1-4.26.21-6.29,1.66-.52.37-.34,2.08.05,2.55l1.75,2.09Z"/>
      <path class="st0" d="M100.83,39.74l-1.75-2.09c-.39-.47-.58-2.18-.05-2.55,2.04-1.44,4.23-1.75,6.29-1.66l1.87,2.79-6.36,3.51Z"/>
    </g>
  </g>
</svg>