<?xml version="1.0" encoding="UTF-8"?>
<svg id="Layer_1" xmlns="http://www.w3.org/2000/svg" version="1.1" viewBox="0 0 300.63 380.33">
  <!-- Generator: Adobe Illustrator 30.4.0, SVG Export Plug-In . SVG Version: 2.1.4 Build 226)  -->
  <defs>
    <style>
      .st0 {
        fill: #fff;
      }
    </style>
  </defs>
  <path d="M219.67,349.79c-10.83-5.52-20.5-4.23-36.18-16.54-9.41-7.38-18.19-15.04-28.32-21.62l-6.63-4.3c-4.64-3.01-13.03-10.2-11.59-12.95.27-.52,1.57-1.1,2.24-1.11l10.87-.15,6.86,1.03,16.69,4.02c5.24,1.26,10.22,1.18,15.48,3.61l10.74-15.07,4.25-6.26c1.07-1.58,1-4.74,1.15-6.84l1.5-20.81.48-13.08.25-26.06-8.84-17.28c-2.37-4.64-4.71-9.46-8.08-13.35l-5.83-6.72-12.15-13.95-7.29-9.08c-2.31,1.16-5.05-.21-5.93-2.77-.83-2.43-2.25-3.21-4.06-4.88l-8.44-7.79-2.61-1.74-4.42-3.19-4.56-3.64-3.19-2.64c-2.17,7.08-8.5,14.9-13.84,20.14-1.36,1.33-2.89,2.27-4.73,2.15-3.71-14.98-10.98-28.97-24.22-37.54l-29.41-19.04-8.96-6.28-4.42-3.23c-.4-5.77.6-11.28,2.8-16.71l8.72-21.5c2.63-6.5,7.91-11.89,11.45-17.84,3.14.85,6.06-1.42,6.55-.87l1.18,1.31,16.69,7.78,13.15,6c6.39,2.91,13.17,3.11,19.98,4.34,12.42,2.24,24.58,1.69,36.42-3.14,2.59-1.05,4.75-2.12,6.53-4.49.53.31,1.17.7,1.1.99l-.42,1.69c.2.8.51,2.19.49,3.02l-.25,10.69c-.11,4.86-2.02,8.7-4.71,12.73l-1.72,6.03-.06,1.58-1.46,1.22-3.93,7.75c-3.59,7.08-2.6,12.62-8.85,19.14-1.66,1.73-3.05,3.61-4.34,5.7l2.94,4.2,6,6.08c3.06,3.1,5.95,5.91,8.67,9.34l4.33,5.45,11.5,12.87,12.52,15.99,8.38,11.36c1.2,1.63,2.17,3.13,3.03,5.03l2.17,4.81,8.22,14.17,3.46,6.43c1.79,3.33,3.08,6.46,3.14,10.46l.3,18.39-1.42,27.08-1.21,16.31c-.15,2.07.57,5.24-.07,7.11l-8.25,12.6-7.49,11.99,4.23,6.05c5.43,6.23,10.81,12.36,14.31,19.93,2.65,5.74,3.71,11.75,5.1,17.95-2.27.3-3.79-.88-6-2.01ZM60.94,49.64l4.48,2.03c3.67-5.43,6.17-10.9,8.82-16.8.61-1.36,1.72-2.94,1.83-4.55.07-.94-2.5-2.35-3.13-1.69-.91.95-2.17,1.6-3.47,1.81l-7.09,9.79c-3.06,4.23-4.58,9.08-6.29,14.48,2.19-1.43,3.48-3.19,4.85-5.07ZM164.69,66.29c1.8-3.38,4.35-6.85,4.34-10.61l-.04-13.71c-7.5,2.86-14.05,5.59-21.6,5.93l-9.18.4-4.31-.39-14.46-1.77c-5.56-.68-10.44-2.27-15.46-4.6l-12.94-5.98-12.66-6.12-2.13,5.11-6.04,13.08c4.26,1.28,7.18,2.91,10.47,4.94,11.05,6.82,22.43,11.7,34.51,16.31,8.93,3.4,17.29,7.59,26.69,9.27,3.97.71,7.58-.17,10.94-1.84l8.27-4.08,1.77-.52c.34-.1-.24-1.08-.36-1.32l2.19-4.09ZM144.28,110.92c-.57-.86-1.02-1.36-.89-1.56l.53-.78,4.89-6.63c.56-.76.74-2.76.68-3.63l2.05.44c.32.07.83-1.06.96-1.5l3.93-12.88,3.74-7.37c.19-.38-.06-2.42-.4-2.25l-1.55.76c-5.01,2.45-10.16,5.48-15.98,4.47-9.45-1.64-17.84-5.6-26.75-9.07-12.16-4.73-23.82-9.41-34.9-16.28-2.72-1.69-5.27-3.21-8.28-4.37-1.13-.44-1.27-.54-2.72-2.29l-3.32,6.1-4.14,7.85-1.26,2.83,6.23,4.09c4.13,2.71,7.99,5.51,12.43,7.69l11.89,5.83,10.94,6.78,6.89,5.12c7.75,5.75,15.01,12.15,20.57,20.09l4.14,7.74,4.09-4.3c2.54-1.22,5.7-4.45,6.19-6.88ZM61.24,59.26l3.56-5.81c-.49-.38-2.58-1.08-3.31-.69-1.3.69-2.73,2.35-3.61,3.93l3.36,2.57ZM60.64,61.13l-2.41-1.64c-.56-.38-1.77-.99-1.83-1.55s.09-1.35.26-2.84l-1.21.16-3.06,7.82c-2.23,5.71-4.42,11.25-4.43,17.81,4.71-2.44,6.63-6.89,8.62-11.13l4.06-8.64ZM123.51,138.13l4.01-5.59,4.32-10.04c-2.08-6.28-5.42-10.22-9.53-14.47-6.26-6.48-13.11-11.58-20.25-16.99s-14.38-8.61-22.11-12.28c-6.23-2.96-11.69-6.62-17.15-10.7l-2.89-1.37-1.88,4.11c-2.11,4.6-4.35,8.2-8.34,11.91l8.99,6.57,9.73,6.64,23.09,14.84c4.33,2.79,7.79,6.41,11.1,10.35,6.21,7.4,9.17,16.38,12.47,25.78l8.44-8.77ZM184.23,332.41l6.02,4.03,7.21,4.47,12.46,3.8c4.78,1.35,8.74,3.09,13.87,5.79-.74-6.65-2.58-13.06-5.75-18.82-2.83-5.14-6.49-9.39-10.11-13.93l-6.57-8.24-2.9,6.37-5.69,10.61c-.3-.94-.04-1.85.43-2.8l2.61-5.25,3.74-8.05c2.08-4.47,4.26-8.51,7.06-12.53l3.12-4.48,5.67-8.5c1.79-2.69,1.35-4.97,1.54-8.06l.93-15.24,1.1-15.28.25-21.24-.54-13.9c-.86,3.03-1.17,6.75-4.24,8.64,1.57-4.01,4.17-7.9,3.22-12.13l-5.54-10.07-8.47-14.92-2.01-3.85-1.98,4.53c-.11-.03-.63-.26-.64-.48l-.04-1.17c2.06-3.13,1.36-6.67-1.33-9.15l-5.75-7.83-14.85-18.95-10.58-11.7-5.35-6.63-6.4-6.82-9.01-9.49c-1.6,3.2-2.92,5.28-5.66,7.81l6.49,8.15,2.39,3.18,5.39,6.62c2.08,2.56,3.72,6.17,6.9,7.43l4.91,1.94c2.03,1.83,2.26,4.47.84,6.67l3.68,4.67,4.93,6.02,10.87,12.52,4.59,5.28,3.29,4.29,3.06,5.63,3.73,7.21,2.33,4.7,5.19,9.42-.02,4.23-.06,10.36-.18,4.9-2.18,41.37-.09,5.16c-.63,2.68-3.03,5.47-4.75,7.91l-11.09,15.75c-2.39,3.4-4.59,6.53-5.68,10.78l-1.77-.45,5.19-9.76c-2.97-1.4-5.91-2.31-9.07-2.66-4.25-.48-8.21-1.26-12.32-2.46-9.38-2.73-18.62-4.17-28.68-3.05,1.69,4.87,7.97,9.49,12.51,12.43l5.62,3.64c9.99,6.46,18.76,13.94,28.15,21.6ZM144.8,131.28c1.49,1.51,2.29,2.76,4.8,2.72l-4.76-6.58-6.02-7.21-3.32,2.85,2.6,3.75,3.24,3.06,3.46,1.4Z"/>
  <path class="st0" d="M184.23,332.41c-9.4-7.67-18.16-15.14-28.15-21.6l-5.62-3.64c-4.54-2.94-10.82-7.56-12.51-12.43,10.06-1.12,19.31.33,28.68,3.05,4.11,1.2,8.08,1.98,12.32,2.46,3.16.36,6.11,1.27,9.07,2.66l-5.19,9.76,1.77.45c1.09-4.25,3.29-7.38,5.68-10.78l11.09-15.75c1.72-2.44,4.12-5.23,4.75-7.91l.09-5.16,2.18-41.37.18-4.9.06-10.36.02-4.23-5.19-9.42-2.33-4.7-3.73-7.21-3.06-5.63-3.29-4.29-4.59-5.28-10.87-12.52-4.93-6.02-3.68-4.67c1.42-2.2,1.18-4.84-.84-6.67l-4.91-1.94c-3.18-1.26-4.82-4.87-6.9-7.43l-5.39-6.62-2.39-3.18-6.49-8.15c2.74-2.53,4.06-4.61,5.66-7.81l9.01,9.49,6.4,6.82,5.35,6.63,10.58,11.7,14.85,18.95,5.75,7.83c2.69,2.48,3.39,6.02,1.33,9.15l.04,1.17c0,.22.52.44.64.48l1.98-4.53,2.01,3.85,8.47,14.92,5.54,10.07c.94,4.23-1.65,8.12-3.22,12.13,3.07-1.89,3.38-5.61,4.24-8.64l.54,13.9-.25,21.24-1.1,15.28-.93,15.24c-.19,3.09.25,5.37-1.54,8.06l-5.67,8.5-3.12,4.48c-2.8,4.02-4.98,8.06-7.06,12.53l-3.74,8.05-2.61,5.25c-.47.95-.73,1.86-.43,2.8l5.69-10.61,2.9-6.37,6.57,8.24c3.62,4.54,7.28,8.79,10.11,13.93,3.16,5.75,5,12.16,5.75,18.82-5.14-2.7-9.09-4.44-13.87-5.79l-12.46-3.8-7.21-4.47-6.02-4.03Z"/>
  <path class="st0" d="M144.28,110.92c-.5,2.42-3.65,5.65-6.19,6.88l-4.09,4.3-4.14-7.74c-5.56-7.94-12.83-14.34-20.57-20.09l-6.89-5.12-10.94-6.78-11.89-5.83c-4.44-2.18-8.3-4.98-12.43-7.69l-6.23-4.09,1.26-2.83,4.14-7.85,3.32-6.1c1.44,1.75,1.58,1.85,2.72,2.29,3.01,1.17,5.56,2.69,8.28,4.37,11.08,6.87,22.74,11.55,34.9,16.28,8.91,3.47,17.29,7.43,26.75,9.07,5.82,1.01,10.97-2.02,15.98-4.47l1.55-.76c.34-.17.59,1.87.4,2.25l-3.74,7.37-3.93,12.88c-.13.43-.64,1.57-.96,1.5l-2.05-.44c.06.86-.12,2.86-.68,3.63l-4.89,6.63-.53.78c-.14.2.31.7.89,1.56Z"/>
  <path class="st0" d="M164.69,66.29l-2.19,4.09c.13.23.7,1.22.36,1.32l-1.77.52-8.27,4.08c-3.37,1.66-6.97,2.55-10.94,1.84-9.4-1.68-17.76-5.86-26.69-9.27-12.09-4.61-23.47-9.48-34.51-16.31-3.29-2.03-6.2-3.66-10.47-4.94l6.04-13.08,2.13-5.11,12.66,6.12,12.94,5.98c5.02,2.32,9.91,3.92,15.46,4.6l14.46,1.77,4.31.39,9.18-.4c7.55-.33,14.1-3.06,21.6-5.93l.04,13.71c0,3.76-2.54,7.23-4.34,10.61Z"/>
  <path class="st0" d="M123.51,138.13l-8.44,8.77c-3.3-9.4-6.26-18.39-12.47-25.78-3.31-3.94-6.77-7.56-11.1-10.35l-23.09-14.84-9.73-6.64-8.99-6.57c3.99-3.71,6.23-7.31,8.34-11.91l1.88-4.11,2.89,1.37c5.46,4.08,10.91,7.74,17.15,10.7,7.73,3.67,15.24,7.07,22.11,12.28s13.99,10.51,20.25,16.99c4.11,4.26,7.45,8.2,9.53,14.47l-4.32,10.04-4.01,5.59Z"/>
  <path class="st0" d="M60.94,49.64c-1.37,1.89-2.67,3.65-4.85,5.07,1.71-5.41,3.23-10.25,6.29-14.48l7.09-9.79c1.3-.22,2.56-.86,3.47-1.81.63-.66,3.2.75,3.13,1.69-.12,1.61-1.22,3.19-1.83,4.55-2.65,5.9-5.15,11.37-8.82,16.8l-4.48-2.03Z"/>
  <path class="st0" d="M60.64,61.13l-4.06,8.64c-1.99,4.25-3.91,8.7-8.62,11.13.01-6.57,2.2-12.11,4.43-17.81l3.06-7.82,1.21-.16c-.18,1.49-.32,2.28-.26,2.84s1.27,1.17,1.83,1.55l2.41,1.64Z"/>
  <path class="st0" d="M144.8,131.28l-3.46-1.4-3.24-3.06-2.6-3.75,3.32-2.85,6.02,7.21,4.76,6.58c-2.51.04-3.31-1.21-4.8-2.72Z"/>
  <path class="st0" d="M61.24,59.26l-3.36-2.57c.89-1.58,2.31-3.24,3.61-3.93.72-.38,2.82.32,3.31.69l-3.56,5.81Z"/>
</svg>