<?xml version="1.0" encoding="UTF-8"?>
<svg id="Layer_1" xmlns="http://www.w3.org/2000/svg" version="1.1" viewBox="0 0 300.63 380.33">
  <!-- Generator: Adobe Illustrator 30.4.0, SVG Export Plug-In . SVG Version: 2.1.4 Build 226)  -->
  <defs>
    <style>
      .st0 {
        fill: #fff;
      }
    </style>
  </defs>
  <path d="M131.44,244.58c-1.09.88-2.67-.62-3.01-1.74-.27-.89-.66-2.78.47-3.57.67-.47,2.11.65,2.63,1.29.66.81,1.06,3.1-.09,4.03Z"/>
  <path class="st0" d="M215.56,356.89l-12.6-4.02-7.25-4.24-6.19-4.15-22.49-17.82-8.57-5.66-5.88-3.91-7.47-6.78c-.71-.65-1.3-2.25-1.59-3.42,9.91-1.07,19.17.34,28.55,3.08,4.11,1.2,8.08,1.98,12.32,2.46,3.16.36,6.11,1.27,9.07,2.66l-5.19,9.76,1.77.45c1.09-4.25,3.29-7.38,5.68-10.78l11.09-15.75c1.72-2.44,4.13-5.22,4.75-7.91l.1-5.15,1.99-33.76.31-12.54.14-10.35-.02-4.22-5.38-9.81-3.12-6.25c-4.04-8.09-8.09-15.62-11.16-24.72,2.68-1.86,9.15-1.19,8.83-1.55.35.4.99,1.38,1.24,1.95l5,10.97,8.04,14.32,5.36,9.83c2.02,3.72-1.56,8.33-2.98,12.35,2.74-1.67,3.35-5.19,4.18-8.6.87,4.38.62,9.06.57,13.89l-.25,21.24-1.1,15.28-.94,15.25c-.18,2.92.36,5.18-1.32,7.7l-5.89,8.85-3.11,4.48c-2.79,4.02-4.98,8.06-7.06,12.53l-3.74,8.05-2.61,5.25c-.47.95-.72,1.86-.43,2.8l5.37-9.88,3.22-7.11,6.57,8.25c3.62,4.55,7.28,8.79,10.11,13.94,3.16,5.75,5,12.17,5.75,18.81-5.02-2.62-8.81-4.3-13.66-5.77Z"/>
  <path class="st0" d="M116.05,189.4c-.54-3.39-1.41-5.8-3.17-8.85l15.89-3.04,6.55-.82,9.34-.99,11.01-1.61,6.51-.68,6.83-.56,5.89-.5,6.14-.54,10.01-.51c2.54-.13,6.12-.62,7.97,1.69,1.73,2.16,2.41,4.65,3.55,7.7l-6.59.89-6.06.59-12.1,1.71-12.42,1.64-11.49,1.27-10.08.32-27.79,2.28Z"/>
  <g>
    <path d="M178.81,310.3c5.49,1.32,10.44,1.22,15.69,3.66l10.74-15.08,4.25-6.26c1.07-1.58,1-4.74,1.16-6.84l1.5-20.81.48-13.07.31-26.07-8.89-17.3-4.56-8.97-6.27-15.74-10.31,1.18-11.43,1.51-5.98-.06-10.48,1.07-21.14,2.15-17.22,1.63c-.19,2.47-.71,5.15.4,7.02l4.8,8.05,3.13,8.33c2.33,6.18,1.78,12.93,2.87,14.1,1.43,1.54,1.34,3.45.63,4.91.8.52,1.84,1.29,2.21,1.85.43.65-.5,2.73-1.28,2.69-.74-.03-2.21-.95-2.62-1.49s-.2-1.82.01-2.83c-1.55-1.49-2.22-3.16-1.42-5.87-7.86-2.83-15.94-4.48-24.47-4.46-9.77.02-18.79,3.53-27.66,7.5l-16.99,7.61-11.99,4.9-7.94,3.07c-1.73.67-3.57.53-5.19-.74-4.15-3.26-7.61-7.18-10.63-11.58l-9.07-13.21-3.09-4.54-7.72-17.92-.65-1.49c-.14-.32.96-.96,1.09-1.31l1.7-4.31,5.41-3.08,16.04-9.58,11.78-7.82c4.92-3.27,8.01-8.32,11.99-12.57,8.61-9.2,14.71-19.66,17.17-32.19.84-4.31-1.11-8.27.77-7.25l1.43.78,5.41,3.37c14.37,8.94,11.98,14.02,18.29,20.21.25.25,1.3.42,1.32.67l.15,1.74,5.41,9.8c2.35,4.26,7.98,7.07,10.01,16.09.56,2.49,1.33,4.68,2.67,7.28l19.09-3.39,6.7-.79,6.06-.58,17.74-2.57,5.57-.44,11.03-.65,11.3-.96,7.12-.17c5.57-.13,6.36,5.55,7.11,7.2l8.53,18.62,8.08,14.36,3.48,6.43c1.8,3.33,3.07,6.46,3.14,10.47l.3,18.39-1.42,27.08-1.21,16.31c-.15,2.07.56,5.24-.07,7.11l-8.25,12.6-7.49,11.99,4.23,6.05c5.44,6.23,10.79,12.37,14.31,19.93,2.58,5.54,3.5,11.28,5.07,17.29l-.84,1.18-5.31-2.61-19.13-6.65c-6.08-2.11-11.67-5.72-16.87-9.8-9.42-7.37-18.19-15.03-28.33-21.61l-6.63-4.3c-4.65-3.02-13.03-10.2-11.59-12.95.27-.52,1.57-1.1,2.24-1.11l10.87-.15,6.86,1.03,16.48,3.97ZM32.73,199.55l7.88-4.15,20.31-13.49,6.95-4.63,12.64-9.63c4.52-3.44,7.03-8.43,7.22-14.53.08-2.67.28-5.27,1.22-8.03l-2.68-4.27-4.65-7.9c-2.93-3.62-6.93-5.91-10.75-8.37l-3.07-1.98c-1.83,12.37-6.29,23.42-14.25,32.71l-8.57,9.99c-3.14,3.66-6.46,6.97-10.55,9.57l-13.58,8.63-4.22,2.35-4.49,2.62-4.37,2.99,10.13,16.35c2.42-2.05,5.64-3.67,8.69-5.18l6.15-3.06ZM96.81,196.27l2.63-.4,7.12-.58,8.52.8c-.29-2.25-.76-3.73-1.5-5.2,1.02-2.9-.15-7.08-2.15-9.24-.43.01-1.5.37-1.62.07l-.45-1.18-2.42-6.91c-.51-1.44-1.43-2.45-2.89-3.17l1.3-2.49-9.31-11.28c-2.12-2.57-2.16-6.93-6.09-8.08-.3,11.95-2.51,16.38-11.24,23.17l-6.08,4.73-22.31,15.21c-8.22,5.61-16.85,9.75-25.73,14.14l-5.99,3.94,2.14,4.08,6.13,11.18,15.09-6.08,6.28-3.41c7.85-4.26,15-8.9,23.42-11.98,8.31-3.04,16.22-5.95,25.16-7.31ZM116.05,189.4l27.79-2.28,10.08-.32,11.49-1.27,12.42-1.64,12.1-1.71,6.06-.59,6.59-.89c-1.14-3.05-1.82-5.54-3.55-7.7-1.85-2.31-5.43-1.82-7.97-1.69l-10.01.51-6.14.54-5.89.5-6.83.56-6.51.68-11.01,1.61-9.34.99-6.55.82-15.89,3.04c1.75,3.05,2.63,5.46,3.17,8.85ZM215.56,356.89c4.85,1.47,8.64,3.15,13.66,5.77-.75-6.64-2.59-13.06-5.75-18.81-2.83-5.14-6.49-9.39-10.11-13.94l-6.57-8.25-3.22,7.11-5.37,9.88c-.29-.94-.04-1.86.43-2.8l2.61-5.25,3.74-8.05c2.08-4.47,4.26-8.51,7.06-12.53l3.11-4.48,5.89-8.85c1.68-2.52,1.14-4.79,1.32-7.7l.94-15.25,1.1-15.28.25-21.24c.06-4.83.3-9.51-.57-13.89-.83,3.41-1.44,6.93-4.18,8.6,1.42-4.02,5-8.63,2.98-12.35l-5.36-9.83-8.04-14.32-5-10.97c-.26-.57-.89-1.55-1.24-1.95.32.37-6.15-.31-8.83,1.55,3.06,9.1,7.12,16.63,11.16,24.72l3.12,6.25,5.38,9.81.02,4.22-.14,10.35-.31,12.54-1.99,33.76-.1,5.15c-.63,2.69-3.03,5.47-4.75,7.91l-11.09,15.75c-2.39,3.4-4.59,6.53-5.68,10.78l-1.77-.45,5.19-9.76c-2.97-1.4-5.91-2.31-9.07-2.66-4.25-.48-8.21-1.26-12.32-2.46-9.38-2.74-18.64-4.14-28.55-3.08.29,1.17.88,2.77,1.59,3.42l7.47,6.78,5.88,3.91,8.57,5.66,22.49,17.82,6.19,4.15,7.25,4.24,12.6,4.02ZM15.37,222.77l-.64-6.15,3.75-2.55-3.83-7.63-7-11.61c-.49-.81-1.97-1.35-2.46-1.23-1.57.71-1.67,1.93-1.36,3.27-.47,2-.49,3.4.27,5.17l4.97,11.49,6.3,9.25ZM59.33,235.2l16.82-7.53c17.48-7.83,30.53-7.5,49.01-2.04-.36-3.83-.91-7.05-2.08-10.26l-2.9-7.96-5.82-9.25-8.92-1.07-18.79,3.68-14.25,4.71c-8.31,2.75-15.4,7.13-22.75,11.61-5.76,3.51-11.83,5.71-17.93,8.41l-3.52,1.56,2.43,4.11c2.56,4.34,4.49,7.87,4.96,13.52l8.14-3.02,15.62-6.48ZM22.43,221.71l-2.73-5.97c-1.36.83-2.73,2.3-2.52,3.74s1,2.87,1.91,3.95l3.34-1.72ZM33.05,244.48c.5-5.21-1.82-8.52-3.99-12.05l-4.32-7.12c-2.24-3.7-2.4.72-7.66.06l5.1,7.81c2.89,4.42,6.21,8.56,10.87,11.3Z"/>
    <path class="st0" d="M96.81,196.27c-8.94,1.36-16.85,4.28-25.16,7.31-8.42,3.08-15.57,7.71-23.42,11.98l-6.28,3.41-15.09,6.08-6.13-11.18-2.14-4.08,5.99-3.94c8.88-4.39,17.5-8.53,25.73-14.14l22.31-15.21,6.08-4.73c8.73-6.79,10.94-11.23,11.24-23.17,3.93,1.15,3.97,5.51,6.09,8.08l9.31,11.28-1.3,2.49c1.46.72,2.38,1.72,2.89,3.17l2.42,6.91.45,1.18c.11.3,1.19-.06,1.62-.07,2,2.16,3.17,6.34,2.15,9.24.74,1.48,1.21,2.95,1.5,5.2l-8.52-.8-7.12.58-2.63.4Z"/>
    <path class="st0" d="M32.73,199.55l-6.15,3.06c-3.05,1.52-6.27,3.13-8.69,5.18l-10.13-16.35,4.37-2.99,4.49-2.62,4.22-2.35,13.58-8.63c4.09-2.6,7.42-5.91,10.55-9.57l8.57-9.99c7.96-9.29,12.43-20.34,14.25-32.71l3.07,1.98c3.82,2.46,7.82,4.74,10.75,8.37l4.65,7.9,2.68,4.27c-.93,2.77-1.13,5.36-1.22,8.03-.19,6.09-2.7,11.08-7.22,14.53l-12.64,9.63-6.95,4.63-20.31,13.49-7.88,4.15Z"/>
    <path class="st0" d="M59.33,235.2l-15.62,6.48-8.14,3.02c-.47-5.66-2.39-9.18-4.96-13.52l-2.43-4.11,3.52-1.56c6.1-2.7,12.16-4.9,17.93-8.41,7.35-4.48,14.44-8.86,22.75-11.61l14.25-4.71,18.79-3.68,8.92,1.07,5.82,9.25,2.9,7.96c1.17,3.21,1.72,6.43,2.08,10.26-18.48-5.47-31.52-5.8-49.01,2.04l-16.82,7.53Z"/>
    <path class="st0" d="M15.37,222.77l-6.3-9.25-4.97-11.49c-.77-1.77-.75-3.17-.27-5.17-.3-1.34-.21-2.57,1.36-3.27.49-.11,1.97.42,2.46,1.23l7,11.61,3.83,7.63-3.75,2.55.64,6.15Z"/>
    <path class="st0" d="M33.05,244.48c-4.66-2.75-7.99-6.88-10.87-11.3l-5.1-7.81c5.27.66,5.42-3.76,7.66-.06l4.32,7.12c2.17,3.52,4.49,6.84,3.99,12.05Z"/>
    <path class="st0" d="M22.43,221.71l-3.34,1.72c-.92-1.08-1.71-2.58-1.91-3.95s1.16-2.91,2.52-3.74l2.73,5.97Z"/>
  </g>
</svg>