<?xml version="1.0" encoding="UTF-8"?>
<svg id="Layer_1" xmlns="http://www.w3.org/2000/svg" version="1.1" viewBox="0 0 300.63 380.33">
  <!-- Generator: Adobe Illustrator 30.4.0, SVG Export Plug-In . SVG Version: 2.1.4 Build 226)  -->
  <defs>
    <style>
      .st0 {
        fill: #fff;
      }
    </style>
  </defs>
  <path d="M71.51,322.62l-2.96-5.35.15-6.44.39-17.1-.25-15.32c-.1-5.85-2.69-11.03-4.11-16.62-3.43-13.4-10.3-25.56-21.12-34.32-1.29-.43-2.31-.9-3.41-1.79l4.9-2.85c4.37-2.54,9.05-4.3,14.06-5.45,3.19-.73,6.66.02,10.02.13l4.82-.61c1.8-.23,3.14-.11,4.92.01l9.35.65,10.81-1.12,9.2.52,5.52.22-3.08-1.06,6.43-5.8,7.18-5.32,7.9-6.22,8.45-6.83,18.59-13.15,10.71-6.99c2.6-1.7,6.77.46,9.1,2.48l8.74,7.57,6.62,12.04c1.03,1.88,1.34,4.95,1.38,7.26l.31,18.44-1.42,27.07-1.21,16.31c-.15,2.07.56,5.24-.07,7.11l-8.25,12.6-7.49,11.99,4.23,6.05c5.51,6.33,11,12.55,14.47,20.29,2.56,5.7,3.64,11.72,4.93,17.63-2.73.26-4.04-1.45-6.14-2.17l-19.16-6.62c-5.97-2.06-11.49-5.57-16.55-9.55l-23.01-18.07-2.29,11-1.93,7.95c-5.48,2.86-11.11,3.91-17.16,4.11l-13.26.42c-5.34.17-10.43.69-15.73-.32l-14.58-2.78ZM159.9,319.22l6.03,4.04,7.25,4.24,12.4,3.97c4.75,1.52,8.73,3.12,13.87,5.83-.75-6.65-2.59-13.06-5.75-18.81-2.83-5.14-6.49-9.39-10.11-13.93l-6.57-8.24-2.9,6.37-5.69,10.61c-.3-.94-.04-1.85.43-2.8l2.61-5.25,3.74-8.05c2.08-4.47,4.26-8.51,7.06-12.53l3.11-4.48,5.89-8.85c1.68-2.52,1.14-4.79,1.32-7.7l.94-15.25,1.1-15.28.25-21.24-.54-13.9c-.85,3.04-1.19,6.74-4.23,8.65,1.5-4.05,4.26-7.86,3.12-12.16l-5.12-9.17c-.27-.49-.64-2.28-1.11-2.66l-8.56-6.92c-1.92-1.55-3.49-2.43-5.71-2.66s-3,.98-4.64,2.11l-8.64,5.99-20.59,14.8-21.56,16.66c-1.18.91-2.79,2.94-3.77,4.16l12.59,2.75,10.14-7.03c8.54-5.15,15.89-11.5,23.7-17.61l11.66-9.11c2.81-2.2,4.26-4.7,6.36-8.07.04,2.7-1.74,4.64-2.87,6.75l9.26,14.98-.05,4.28-.06,10.35-.19,4.9-2.18,41.37-.09,5.16c-.63,2.7-3.03,5.47-4.76,7.91l-11.1,15.76c-2.46,3.49-4.73,6.86-5.66,10.78l-1.37-.26c-.14-.03-.04-.94.05-1.1l4.69-8.77c-2.79-1.48-5.64-2.36-8.63-2.68-5.34-.58-10.22-1.77-15.91-3.4l-2.5,17.02,23.29,18.47ZM161.67,236.06c-5.81,5.28-11.16,10.63-14.83,17.59-4.72,8.93-6.53,18.87-7.47,28.9l9.9,2.45c5.49.71,10.5,1.5,15.6,3.5l10.61-14.97,4.25-6.26c1.07-1.58,1-4.74,1.16-6.85l1.62-22.39.29-8.22.39-29.34-7.94-15-7.4,5.68-10.7,8.49-4.02,2.3-10.11,7.5-5.42,4.27-4.74,3.45-4.27,3.3,6.58,3.57,9.95.36,6.9,1.36c4.09.81,8.03,2.4,11.77,4.39,1.47.78,2.56,4.31,1.86,5.69-1.87,3.66.4,4.6-1.63,6.42-2.72,2.45-1.06-3.09-2.35-6.17ZM110.49,309.39c1.44-5.7,2.16-10.9,2.4-16.43l.42-9.46.74-6.73c.51-4.61.67-8.57,1.67-13,2.57-11.33,5.29-22.34,11.14-32.45l4.96-6.25-5.08-2.9-6.53-2.23c-.98-.33-2.58-1.49-3.59-1.52l-6.53-.24-9.42.22-11.76,1.58-7.5-.58c-.44-.03-1.69.63-2.04.83-.74.43,9.57,5.56,11.64,14.12,2.17,8.98,2.09,17.9,2.5,27.09l.46,10.37.19,14.18-1.96,21.31.55,6.4,17.19,1.09c.03-2.33.07-3.57.54-5.4ZM90.22,313.09c-.31-4.56-.02-8.21.47-12.35,1.21-10.24,1.23-20.2.91-30.47l-.56-17.51-1.06-11.61c-.61-6.61-3.33-11.78-8.69-16l-6.62-5.22-11.06-.48c-3.98-.17-7.7,1.16-11.19,2.77l-6.73,3.12,6.33,6.75c7.69,8.21,12.05,18.01,14.9,28.7,1.7,6.37,4.43,12.3,4.41,18.94l-.06,19.57-.31,13.66,19.26.13ZM130.94,317.39l1.84-8.97,1.57-7.7,3.1-18.54c1.49-23.06,7.3-34.79,24.6-50.07-1.87-1.14-3.7-2.08-5.59-2.59l-8.63-2.33c-2.42-.65-4.72-.87-7.25-.76l-6.61.27-3.07,3.32c-2.92,3.15-4.38,6.66-5.92,10.59-2.49,6.37-4.64,12.73-6.07,19.51l-1.9,9.02-1.62,8.7-.38,17.1c-.19,8.6-3.77,18.98-2.02,19.52,2.37.73,9.74-.56,17.94,2.92ZM96.11,320.86c-.05-1.73-.25-3.56-.68-4.58l-8.3-1.06-13.97-.06c-.84,0-2.06,2.31-1.46,2.68l2.12,1.32c1.22,1.17,2.33,2.11,4.09,2.45,7.74,1.47,14.92,2.99,23.06,1.26l-4.84-2ZM103.81,317.04l-5.2-.81c-1.06,2.13.42,3.24,2.06,3.82.92.33,2.23.44,2.95.22s1.02-3.11.2-3.24ZM112.5,322.95c5.91-.09,11.37-.5,16.76-3.01-3.87-2.86-7.99-3.04-12.1-2.96l-10.51.22c-.24,2.63-.37,3.5-1.08,5.85l6.93-.1Z"/>
  <path class="st0" d="M159.9,319.22l-23.29-18.47,2.5-17.02c5.69,1.63,10.57,2.82,15.91,3.4,2.98.32,5.84,1.2,8.63,2.68l-4.69,8.77c-.09.17-.18,1.08-.05,1.1l1.37.26c.92-3.92,3.2-7.29,5.66-10.78l11.1-15.76c1.72-2.45,4.12-5.21,4.76-7.91l.09-5.16,2.18-41.37.19-4.9.06-10.35.05-4.28-9.26-14.98c1.13-2.1,2.91-4.04,2.87-6.75-2.09,3.37-3.54,5.87-6.36,8.07l-11.66,9.11c-7.81,6.1-15.16,12.45-23.7,17.61l-10.14,7.03-12.59-2.75c.98-1.21,2.59-3.25,3.77-4.16l21.56-16.66,20.59-14.8,8.64-5.99c1.64-1.14,2.48-2.34,4.64-2.11s3.79,1.11,5.71,2.66l8.56,6.92c.47.38.84,2.17,1.11,2.66l5.12,9.17c1.14,4.3-1.62,8.1-3.12,12.16,3.04-1.91,3.38-5.61,4.23-8.65l.54,13.9-.25,21.24-1.1,15.28-.94,15.25c-.18,2.92.36,5.18-1.32,7.7l-5.89,8.85-3.11,4.48c-2.79,4.02-4.98,8.06-7.06,12.53l-3.74,8.05-2.61,5.25c-.47.95-.73,1.86-.43,2.8l5.69-10.61,2.9-6.37,6.57,8.24c3.62,4.54,7.28,8.79,10.11,13.93,3.16,5.75,5,12.17,5.75,18.81-5.15-2.7-9.12-4.31-13.87-5.83l-12.4-3.97-7.25-4.24-6.03-4.04Z"/>
  <path class="st0" d="M110.49,309.39c-.46,1.83-.51,3.07-.54,5.4l-17.19-1.09-.55-6.4,1.96-21.31-.19-14.18-.46-10.37c-.41-9.19-.33-18.11-2.5-27.09s-12.37-13.7-11.64-14.12c.35-.2,1.6-.87,2.04-.83l7.5.58,11.76-1.58,9.42-.22,6.53.24c1.01.04,2.61,1.19,3.59,1.52l6.53,2.23,5.08,2.9-4.96,6.25c-5.85,10.11-8.57,21.12-11.14,32.45-1,4.43-1.16,8.39-1.67,13l-.74,6.73-.42,9.46c-.24,5.53-.96,10.73-2.4,16.43Z"/>
  <path class="st0" d="M90.22,313.09l-19.26-.13.31-13.66.06-19.57c.02-6.65-2.71-12.58-4.41-18.94-2.86-10.69-7.22-20.49-14.9-28.7l-6.33-6.75,6.73-3.12c3.49-1.62,7.21-2.95,11.19-2.77l11.06.48,6.62,5.22c5.35,4.22,8.08,9.39,8.69,16l1.06,11.61.56,17.51c.33,10.28.31,20.23-.91,30.47-.49,4.15-.78,7.79-.47,12.35Z"/>
  <path class="st0" d="M130.94,317.39c-8.2-3.48-15.57-2.2-17.94-2.92-1.75-.54,1.82-10.92,2.02-19.52l.38-17.1,1.62-8.7,1.9-9.02c1.43-6.78,3.57-13.14,6.07-19.51,1.54-3.94,3-7.44,5.92-10.59l3.07-3.32,6.61-.27c2.53-.11,4.83.11,7.25.76l8.63,2.33c1.89.51,3.72,1.44,5.59,2.59-17.3,15.28-23.11,27.01-24.6,50.07l-3.1,18.54-1.57,7.7-1.84,8.97Z"/>
  <path class="st0" d="M96.11,320.86l4.84,2c-8.13,1.73-15.32.21-23.06-1.26-1.76-.34-2.86-1.28-4.09-2.45l-2.12-1.32c-.59-.37.63-2.68,1.46-2.68l13.97.06,8.3,1.06c.44,1.02.63,2.85.68,4.58Z"/>
  <path class="st0" d="M112.5,322.95l-6.93.1c.71-2.35.84-3.21,1.08-5.85l10.51-.22c4.11-.09,8.23.09,12.1,2.96-5.39,2.5-10.86,2.92-16.76,3.01Z"/>
  <path class="st0" d="M103.81,317.04c.82.13.51,3.02-.2,3.24s-2.02.1-2.95-.22c-1.63-.58-3.12-1.69-2.06-3.82l5.2.81Z"/>
  <path d="M164.03,243.08c1.09.62.37,3.76-1.2,4.16s-2.24-1.28-2.02-2.68c.14-.87,1.17-1.66,3.22-1.48Z"/>
</svg>