<?xml version="1.0" encoding="UTF-8"?>
<svg id="Layer_1" xmlns="http://www.w3.org/2000/svg" version="1.1" viewBox="0 0 894.55 1287.27">
  <!-- Generator: Adobe Illustrator 30.4.0, SVG Export Plug-In . SVG Version: 2.1.4 Build 226)  -->
  <path d="M691.33,1019.54l.68,9.66.74,10.67.67,10.04.81,12.16.6,7.95.45,12.07.67,10.05.76,11.42.63,14.38c.26,5.91,1.73,12.62-.42,18.04-1.31,3.32-4.87,5.72-7.13,7.91-3.75,3.62-7.18,5.97-11.91,8.4-1.86.96-4.72,4.52-7.02,4.92l-25.47,4.48c-13.43,2.36-26.74,1.89-40.36,2.83l-33.56,2.31-25.8.81-57.77-.05h-44.34s-22.89.82-22.89.82l-33.52-.11-21.55-.78c-15.2-.55-29.78-1.9-44.78-4.18l-32.89-5.01c-12.33-1.88-23.67-4.92-35.5-8.68-5.68-1.81-11.37-1.96-16.83-4.72-7.38-22.32-7.58-52.92-8.85-77.04l-.53-10.01-2.67-34.39-1.96-35.74-.92-21.47-2.93-48.55-1.77-25.87-2.57-33.51-4.81-51.39-2.42-39.37-4.63-78.51-.77-26.51-.67-22.87-.8-33.67.08-119.86.64-21.57.54-16.49v-47.69s-.51-27.39-.51-27.39l-.25-106.35c-.05-20.41-.25-39.89-2.47-60.08l-.55-15,.33-35.78.35-3.61c.05-.46-.78-1.45-.98-1.88-.24-.54,1.22-1.42,1.86-1.76l27.4-7.49c9.16-2.28,18.13-3.39,27.51-4.7,13.42-1.87,26.35-2.92,39.84-3.8l42.48-2.77c6.87-.45,13.26-2.03,20.09-2.46l41.41-2.62,20.74-.91,12.95-.8c21.93-2.81,43.35-4.25,65.44-3.68l22.36-.5c15.44.5,30.27.82,45.78.2l17.77.57,15.75.74,12.94.61,9.12,1.14c4.69.59,8.78-.24,13.22,1.35,3.12,1.12,7.36,4.27,6.53,7.86-.54,2.35-.55,3.25,0,5.59,3.04,12.73,4.66,25.49,5.71,38.52l.75,9.41.54,41.05.66,12.2.74,13.58.54,11.39.41,9.28.87,22.87.63,12.11.73,12.87.68,12.15.74,13.58.74,12.86.7,10.05.71,9.29.71,9.31.67,10.68.84,18.6.61,12.82.74,14.3.72,12.14.73,11.43.69,10.05.78,9.3,4.56,42.88.8,9.21.67,8.69.64,7.09,3.53,25.06,7.08,50.66.55,7.18.64,12.14.8,15.71.7,11.44.7,10.72.69,10.77.39,21.11.78,15.36.43,10.01.61,9.97.23,50.61.54,8,.43,43.97.68,76.41.68,20.38.4,8.62.55,11.39.74,12.15.68,10.77.74,11.39.73,11.1ZM391.82,141.02l65.95-.2,12.24-.54,30.71-.7,16.47-.68,37.85-.19,9.33-.66,59.27-.03c4.57,0,9.09-1.34,12.78-3.54l2.29-4.44c-3.94-7.9-12.14-6.23-17.15-6.66l-15.77-1.33-12.15-.64-14.3-.75-25.01-.1-22.2-.07-32.1-.2-25.73.41-17.22.84-35.65,3.38-20.72.86-20.74,1.16c-13.11.74-25.57,1.63-38.59,3.6l-12.83.86-16.48.85-24.27,2.04c-23.51,1.97-48.53,3.67-70.92,10.61l-19.18,5.26c5.66,2.57,11.7,2.01,18.02,1.45l52.85-4.64c17.1-1.5,33.52-3.4,50.66-3.76l35.73-.73,21.47-.73,15.42-.73ZM695.57,1108.54l-.68-10.77-.74-11.39-.5-10.01-.47-10-.82-12.84-.62-8.6-.78-10.72-.68-9.3-.69-10-.79-12.1-.65-10.06-.74-12.1-.7-12.86-.59-13.26-.73-20.8-.68-77.13-.34-43.94-.59-12.2-.34-47.77-.53-8.64-.47-9.28-.68-20.03-.49-16.44-.69-10.77-.69-10.71-.76-13.57-.73-13.58-.66-12.14-.55-7.2-8.5-59.93-2.84-24.29-.59-7.25-.79-9.22-4.54-42.89-.8-9.3-.69-10.05-.72-11.43-.73-12.15-.55-10.67-.41-9.28-.87-21.45-.6-9.3-.77-10.72-.7-9.29-.69-9.3-.75-11.37-.68-12.16-.75-13.58-.71-12.87-.66-12.84-.83-21.5-.61-12.83-.78-15.71-.69-12.87-.67-12.21-.57-41.04-.66-10.13-5.45-37.94-.77-1.35c-.12-.21-.32-.07-.99.25-3.42,1.63-7.68,3.69-11.84,3.7l-62.12.08-10.76.59-39.05.29-18.71.64-14.38.4-25.81.65-64.9.29-8.61.53-20.02.65-26.42.83-21.31.29-39.55,3.11-49.9,4.57c-7.78.71-15.04,1.03-22.7.63-.59-.25-1.45-.65-1.59-.3l-.71,1.86-.04,18.54c-.74,11.29-.96,22.22.16,33.49,1.49,14.93,2.17,29.31,2.26,44.38l.24,42.25.3,84.18.45,26.56-.02,40.65-.71,26.49-.75,30.03-.35,54.96.45,37.22.68,37.86.74,26.46.68,22.16.72,22.87.85,19.36,4.03,57.11,5.42,66.95,2.82,36,3.18,45.64,2.25,36.52.8,18.57.69,13.58,1.88,32.53,3.72,59.6,4.89,46.68c.29,2.79,1.59,6.52,2.73,8.78,3.29,1.61,6.63,2.21,10,3.1l11.88,3.14c8.93,3.08,17.73,5.09,27.17,6.53l42.6,6.52c16.6,2.54,32.77,3.51,49.66,3.52l54.21.03,28.04-.57,100.53.03,10.91-.61,53.47-3.12c13.09-.76,25.4-2.99,38.17-4.9,5.7-.85,9.19-3.1,14.14-6.23l8.61-5.45,10.69-10.7-.42-13.48-.62-13.19Z"/>
  <g>
    <path d="M485.24,530.48l-9.44,6.44c-1.12.77-2.13,2.94-4,2.71,1-1.5,1.56-3.92.56-5.91-5.29-10.52-10.8-20.71-17.5-30.18-5.58-7.89-12.91-12.77-19.8-18.98s-13.73-13.23-23.71-14.94l-10.26,14.22c.17-6.45-.63-11.23-1.72-17.08l-3.13-16.76,10.92-1.06,7.15-.48,12.44,1.13c-.13.89-.44,3.28-1.06,4.25l-5.69,8.97,9.51,4.48,15.56,7.23c6.49,3.02,11.19,8.28,15.21,14.1l11.4,16.48,6.7,13.24,6.86,12.14ZM483.58,530.24l-6.35-11.44-6.46-12.8-13.88-19.71c-3.42-4.86-8.21-8.92-13.58-11.38l-13.7-6.29c-3.91-1.8-8.05-3.21-11.24-5.72l7.49-12.28-6.59-.59-8.64-.03-13.01.99,2.88,15.3c.91,4.83,1.75,8.87,1.84,14.32l8.4-12.56c8.15,1.96,15.22,6.66,21.48,12.16l9.14,8.03c3.62,3.18,7.16,6.06,10.37,9.62,3.78,4.18,7.03,8.28,9.68,13.28l13.22,24.99,8.95-5.9Z"/>
    <path d="M453.23,586.11c1.62.79,3.56,1.96,3.96,3.11s.11,3.71-.66,4.85c-7.79,11.64-15.8,22.71-25.58,32.99-1.6-7.94-3.32-15.07-6.09-22.28-13.43,1.31-26.45.84-39.76-1.69-11.85-3.16-21.88-9.63-29.99-18.57l-11.61-12.82c-.64-.7-1.11-2.68-.96-3.55.17-.99,1.54-2.54,2.36-3.38l4.65-4.76,2.78,5.17c5.28,5.87,11.55,11.08,19.03,13.74l12.2,4.34c6.05,2.16,12.79,1.3,19.25,1.53l17.03.59.6-15.29,32.79,16.01ZM455.73,592.85c1.53-2.3-.5-4.48-2.14-5.28l-14.92-7.22-17.29-8.52.2,14.53-28.02-.49c-14.42-.25-37.15-10.15-44.41-23.7l-5.08,5.37c-.75.8.45,3.92,1.23,4.72l12.91,13.42c10.69,11.12,24.42,17.95,40,18.06l27.24.18c2.17,4.13,3.36,8.15,4.4,12.37l1.99,8.05,17.14-21.4,6.75-10.1Z"/>
    <path d="M336.69,539.74c-4.28.65-8.05-1-11.12-3.6l-6.54-5.55c-3.81-3.23-7.33-6.13-9.47-11.01l17.98-2.43,1.21-8.88c.91-6.7,2-13.72,5.08-19.81,4.62-9.14,10.3-17.48,16.68-25.37,5.48-6.78,12.57-11.14,20.01-15.2,1.7-.93,3.09-1.65,4.86-1.78l-1.25,1.82c-.11.15,7.35,8.54,9.6,14.9-9.25,5.24-16.76,10.99-24.5,17.47-4.45,3.73-8.07,7.58-11.08,12.57-4.42,7.32-8.42,14.76-10.44,23l10.37,1.22c-4.86,7.64-8.06,14.45-11.38,22.65ZM335.76,538.83l10.16-20.82-9.55-1.15c2.03-10.09,6.81-18.23,12.04-26.62,2.24-3.6,4.83-6.44,8.04-9.16,8.21-6.97,16.2-13.27,25.68-18.75-2.38-5.12-5.23-9.45-9.51-13.79-7.6,3.46-14.79,7.66-20.25,14.25-6.99,8.44-13.38,17.54-17.99,27.57-4,8.71-3.97,18.31-5.43,27.64l-17.51,2.69c3.12,5.31,7.25,7.79,11.19,11.3s7.56,7.04,13.15,6.83Z"/>
  </g>
</svg>