<?xml version="1.0" encoding="UTF-8"?>
<svg id="Layer_1" data-name="Layer 1" xmlns="http://www.w3.org/2000/svg" viewBox="0 0 894.55 1287.27">
  <defs>
    <style>
      .cls-1 {
        fill: #fff;
      }
    </style>
  </defs>
  <polygon class="cls-1" points="266.33 332.57 260.31 359.63 239.75 472.62 190.29 1122.75 612.41 1099.79 675.49 728.75 700 379.1 352.72 348.08 266.33 332.57"/>
  <g>
    <path d="M664.48,763.92l-7.45,54.5-10.09,46.52c-8.34,38.46-10.44,76.88-11.75,116.14-.84,25.26-3.96,49.14-8.71,73.89l-6.14,32.02c-.87,4.53-3.72,10.41-7.92,12.81-7.52,4.29-16.27,6.17-24.99,6.17l-37.49.03-67.47.57c-24.93.21-48.97,4.29-73.48,8.17l-29.61,4.69-45.64.47-31.54.11-23.86-.53c-12.85-.29-24.63-2.96-36.89-5.97l-23.2-5.69c-23-5.64-22.15-24.77-23.74-47.21-1.46-20.6-1.62-40.23.17-61l7.68-89.36,2.38-68.15,1.25-37.66,4.08-56.88,1.43-25.27,8.98-98.83,5.26-43.08,6.84-41.5c3.28-19.88,7.71-38.87,9.43-58.97l8.44-57.3,12.75-63.28,4.47-21.42,8.55,12.77c21.98,3.42,42.32,2.72,64.04.68l24.96-.05,73.23,5.24,69.21,7.33,62.23,8.88,54.84,7.84c22.09,3.16,72.86,5.48,74.1-13.28l.74-11.19c.99-14.87,1.83-29.03,4.39-43.53,1.71-9.7-4.27-17.99-13.88-20.71-18.45-5.22-37.16-6.25-56.41-7.4l-29.24-3.15-13.37-1.67-27.1-1.02.4-10.99,2.62-17.31c.72-4.76-5.43-8.16-9.94-9.88-32.98-12.55-68.25-15-103.77-12.8l-32.81-1.69c-7.38-.38-18.81,1.1-23.15,7.4-8.49,12.34-8.37,27.11-8.14,41.37l-22.84-.19-20.75-.98c-8.53-.4-17.22-1.58-25.74-.42-7.6,1.03-13.8,6-20.38,9.03l-10.32,4.75c-3.24,6.68-4.15,13.69-4.63,20.55-5.48-1.21-9.88-1.3-14.27.37-4.57,7.7-5.1,16.08-3.9,24.7-3.12,8.97-5.16,17.66-6.03,27.06l-12.75,62.28-7.81,50.71c-1.98,25-6.48,48.71-11.65,73.34l-9.77,70.43-9.89,107.57-.81,14.51-5.13,74.07-.39,44.86-5.15,81.19-4.48,50.94c-1.77,20.09-2.89,39.55-1.67,59.49l1.29,20.92c1.1,17.85,4.27,35.16,22.9,39.87l30.71,7.78c11.81,2.99,22.69,4,34.86,4.38,24.83.77,48.92,1.48,73.78-.54,17.11,1.94,33.2.92,49.79-3.21l67.64-8.42,21.61-1.12,64.06.03,30.44-.09c9.54-.03,19.38-1.99,27.23-7.3,5.18-3.5,7.62-10.31,8.71-16.12l5.73-30.4c5.07-26.89,7.99-52.82,8.93-80.16,1.28-37.16,3.62-73.48,11.54-109.86l9.95-45.69,7.74-56.77,12.65-96.05c6.46-35.82,7.21-70.57,7.84-106.74l.98-56.04,5.64-81.81,5.72-35.3c.89-5.52.96-10.05-2.37-10.02-.54,0-1.76,1.06-1.46,1.48l1.95,2.72c-3.39,14.92-6.11,29.13-7.15,44.3l-5.6,81.68-.49,56.98-1.04,35.6c-.63,21.43-3.7,41.67-6.51,63.01l-13.4,101.79ZM456.13,245.95c-10.8-.56-21.03-1.97-30.05,3.37l.41,25.03,1.24,18.21c-10.62,2.81-22.04,5.09-32.53,1.8-4.66-1.46-3.24-8.03-3.08-11.17l.62-12.12c-1.02-12.1-.58-25.72,7.15-36.23,4.12-5.61,15.14-6.25,21.5-5.89l14.5.82h45.22c25.79-.01,50.67,4.43,74.5,13.06,3.15,1.14,8.76,4.39,8.35,7.32l-3.18,22.59c-.56,14.89.26,28.9,2.25,44.22l-41.39-7.76c-.73-.14-3.16.35-3-.2l.59-2.05.92-44.25c2.45-17.21-21.85-14.57-40.89-15.55l-23.12-1.19ZM499.18,275.22l-69.84-.53-.46-23.67c4.83-2.35,10.95-3.01,16.74-2.75l46.67,2.1c10.09.45,25.17.66,25.08,8.99l-.17,16.54-18.01-.67ZM701.01,312.06c-.53,12.81-12.11,21.39-25.17,20.91l-17.17-.64-78.34-4.57-17.43-.84-20.65-.99-50.97-.58-29.85-2.26-46.41-3.13h-48.71s-33.66-.1-33.66-.1l-35.19-1.81c-4.68-.24-7.43-3.76-7.81-8.27l11.46-.5c.73-.03,2.08-.9,2.51-1.38s-1.93-1.81-2.77-1.73l-12.68,1.16c-.37-6.29.51-13.32,3.61-18.76l23.66-9.25-2.62-1.05c6.84-3.04,12.88-3.14,19.84-2.75l17.32.98,39.69,1.64c-2.4,6.52-2.25,16.11,3.96,18.53,11.8,3.84,24.57,1.46,36.47-1.92.48-6-.12-10.94-.98-16.92l77.28.07,11.05,1.06-1.48,32.18,37.87,6.76c2.58.46,4.19,1.7,6.38,3.38,1.99,1.52,5.69-2.25,5.53-4.82l-2.18-35.07,26.06,1.25c5.55.27,10.81,3.02,16.73,2.22l33.6,2.92,14.28.91,21.02,2.75,15.53,3.78c8.07,1.97,10.57,8.67,10.23,16.85ZM698.44,326.42l-2.17,37.84c-.13,2.27-1.13,5.86-2,8.06-12.79,7.92-39.23,9.41-54.42,7.3l-75.67-10.49-52.95-7.54-76.02-8.04-64.55-4.66c-12.23-.88-23.64-1.27-35.83,0-19.03,1.99-37.55,1.78-56.56-.69-10.47-10.5-12.46-25.4-6-38.32,5.03-.97,10.79-.92,14.59,1.36,1.42,9.38,10.65,10.35,21.92,10.41l85.8.47,58.13,3.01,26.71,2.17,19.39,1.03,49.96.64,19.59.93,22.83,1.08,82.36,4.89c9.82.58,18.76-2.58,24.89-9.46Z"/>
    <path class="cls-1" d="M701.01,312.06c.34-8.18-2.16-14.88-10.23-16.85l-15.53-3.78-21.02-2.75-14.28-.91-33.6-2.92c-5.92.79-11.18-1.96-16.73-2.22l-26.06-1.25,2.18,35.07c.16,2.57-3.54,6.34-5.53,4.82-2.19-1.68-3.8-2.92-6.38-3.38l-37.87-6.76,1.48-32.18-11.05-1.06-77.28-.07c.86,5.98,1.46,10.92.98,16.92-11.89,3.38-24.67,5.77-36.47,1.92-6.21-2.42-6.36-12.01-3.96-18.53l-39.69-1.64-17.32-.98c-6.97-.39-13-.29-19.84,2.75l2.62,1.05-23.66,9.25c-3.11,5.44-3.98,12.47-3.61,18.76l12.68-1.16c.84-.08,3.19,1.25,2.77,1.73s-1.77,1.35-2.51,1.38l-11.46.5c.38,4.51,3.13,8.03,7.81,8.27l35.19,1.81,33.66.09h48.71s46.41,3.14,46.41,3.14l29.85,2.26,50.97.58,20.65.99,17.43.84,78.34,4.57,17.17.64c13.06.48,24.65-8.09,25.17-20.91Z"/>
    <path class="cls-1" d="M698.44,326.42c-6.13,6.88-15.07,10.05-24.89,9.46l-82.36-4.89-22.83-1.08-19.59-.93-49.96-.64-19.39-1.03-26.71-2.17-58.13-3.01-85.8-.47c-11.27-.06-20.51-1.02-21.92-10.41-3.8-2.28-9.56-2.32-14.59-1.36-6.47,12.91-4.47,27.82,6,38.32,19.01,2.47,37.53,2.68,56.56.69,12.19-1.28,23.6-.89,35.83,0l64.55,4.66,76.02,8.04,52.95,7.54,75.67,10.49c15.19,2.11,41.63.62,54.42-7.3.87-2.2,1.87-5.79,2-8.06l2.17-37.84Z"/>
    <path class="cls-1" d="M456.13,245.95l23.12,1.19c19.04.98,43.34-1.67,40.89,15.55l-.92,44.25-.59,2.05c-.16.56,2.27.07,3,.2l41.39,7.76c-1.99-15.32-2.8-29.34-2.25-44.22l3.18-22.59c.41-2.93-5.2-6.18-8.35-7.32-23.82-8.63-48.71-13.07-74.5-13.07h-45.22s-14.5-.81-14.5-.81c-6.36-.36-17.38.28-21.5,5.89-7.72,10.51-8.17,24.13-7.15,36.23l-.62,12.12c-.16,3.14-1.58,9.71,3.08,11.17,10.49,3.28,21.91,1.01,32.53-1.8l-1.24-18.21-.41-25.03c9.03-5.34,19.25-3.92,30.05-3.37Z"/>
  </g>
</svg>