<?xml version="1.0" encoding="UTF-8"?>
<svg id="Layer_1" data-name="Layer 1" xmlns="http://www.w3.org/2000/svg" viewBox="0 0 894.55 1287.27">
  <defs>
    <style>
      .cls-1 {
        fill: #fff;
      }
    </style>
  </defs>
  <polygon class="cls-1" points="579.61 225.94 606.77 214.41 622.72 196.2 607.33 152.64 583.53 108.84 554.25 109.89 530.83 119.37 520.75 133.75 532.72 149.24 563.04 141.53 577.1 172.39 581.85 182.95 557.91 198.04 579.61 225.94"/>
  <polygon class="cls-1" points="615.19 373.75 649.8 373.64 657.72 1108.25 277.4 1161.55 229.5 793.22 231.01 393.4 615.19 373.75"/>
  <g>
    <path d="M649.53,387.15l.95,36.47,3.79,71.1,6.42,59.08,2.91,32.24c2.04,22.6,1.74,44.25,1.6,67.03l-.64,107.4-.68,55.92-4.01,47.61c-3.38,40.09-.78,79.45,2.65,119.57,2.21,25.82,2.08,50.48.51,76.22l-2.04,33.29c-.29,4.71-2.3,11.02-6.02,13.93-6.65,5.2-14.77,8.09-23.08,9.07l-34.79,4.14-65.18,8.19c-23.74,2.98-46.16,9.83-69.05,16.52l-27.66,8.08-43.44,5.58-30.04,3.63-22.8,2.12c-12.28,1.14-23.82-.27-35.87-1.96l-22.79-3.2c-22.55-3.17-24.08-22.71-28.25-45.43-3.75-20.47-6.3-40.09-7.07-61.08l-3.43-93.97-5.81-68.6-3.3-38.49-2.9-58.38-1.65-25.89-3.23-101.64-.13-44.46,1.58-43.02,2-60.25c-.64-20.37-.5-39.77,1.36-60.12l4.56-63.96-.16-2.47c-.03-.41-1.52-.86-1.7-.48l-1.11,2.46-4.51,64.05-1.48,52.49c1.04,25.69-.37,50.32-2.37,75.99l-.91,72.81,3.4,110.65.96,14.86,3.95,76,5.07,46.76,4.68,82.22,1.8,52.37c.71,20.65,1.96,40.59,5.51,60.76l3.72,21.16c3.17,18.06,8.26,35.32,26.57,38.05l30.19,4.49c11.62,1.73,22.1,1.55,33.75.57,23.75-1.99,46.8-3.95,70.25-8.78,16.54.07,31.75-2.77,47.07-8.82l63.46-16.12,20.46-3.56,61.05-7.13,27.96-3.28c9.45-1.11,18.98-4.12,26.13-10.67,4.51-4.14,6.03-11.34,6.38-17.38l1.84-31.6c1.62-27.94,1.32-54.68-1.05-82.62-3.21-37.98-5.31-75.23-2.1-113.16l4.04-47.63.61-58.67.61-99.22c1.89-37.21-1.56-72.65-5.25-109.57l-5.92-59.26-4.19-80.99-.07-23.05-2.56-.16c-.46-.03-.54,1.65-.53,2.22Z"/>
    <path d="M611.04,285.88l-30.41-48.83-22.72-39.01c5.62-9.81,16.01-8.34,23.95-15.09-.9-9.7-4.07-17.58-8.41-26.14-2.71-5.35-5.21-11.88-10.4-15.28-6.82-4.46-18.66,6.89-30.33,7.71l-11.96-15.49,11.83-12.1c5.79-5.92,13.39-10.22,21.67-11.77l15.6-2.92c3.97-.74,8.71-.4,11.28,3.64l24.18,37.95c7.86,15.1,12.11,31.17,17.4,47.64l-15.95,18.22-26.86,9.62c-.06,0-.7,1.81-.3,1.91.6.15,2.73.45,3.51.16l23.04-8.59c6.2-2.31,9.14-9.41,13.69-13.55,4.09-3.73,6.01-7.64,4.11-13.39-4.7-14.21-8.76-28.79-15.6-42.27l-24.83-39.45c-5.12-5.73-11.43-7.01-18.07-3.25-13.05.28-25.45,4.46-34.62,13.78l-11.34,11.51-13.89-24.63-17.37-32.82-20.27-41.06-13.19-19.32-36.77-1.77c-6.82-.33-17.64,2.1-20.21,7.52-.93,1.96-.65,6.85.67,8.62l11.58,15.45c15.57,17.94,28.14,37.33,37.41,59.41,7.28,17.33,15.43,32.75,25.58,48.54l38.77,60.32,21.97,37.75,23.08,43.21,14.69,28.83c4.46,8.76,9.51,16.36,16.69,22.91,9.92,9.03,18.12,18.79,26.96,29.91l-49.3-1.57-60.82-.11-49.8,2.57-27.13,2.23-92.63,5.25-65.6.86c-7.6.1-15.2-.79-22.29-2.11l-.67-2.63c-.11-.43-1.77-1.06-1.84-.62l-.37,2.64c-.17,1.18,2.5,3.69,3.76,3.79l23.82,1.76,66.65-.95,98.88-6.12,25.83-1.85,75.53-2.18,97.54,3.8c1.04.04,3.35,1.75,4.32,1.52,3.46-.85,3.34-6.29,8.71-6.38l-16.14-43.23c-5.91-15.82-13.46-29.82-22.62-44.53ZM621.69,374.16c-2.04-.14-5.55-4.07-7.33-5.99l-25.98-28.13c-6.01-6.51-10.81-13.48-14.9-21.49l-14.36-28.13-22.3-41.83-23.59-40.47-50.06-79.11-12.94-27.71c-10.14-21.71-21.66-41.58-37.49-59.53l-11.83-15.88c-2.42-3.26-.4-8.35,3.38-9.36,5.11-1.37,10.72-2.7,16.13-2.4l32.99,1.79,11.91,17.5,20.67,41.68,16.98,32.14,13.92,24.78-2.19,3.39c2.61,1.16,5.69,2.64,7.09,5.08l54.96,95.48,32.24,51.95c8.26,13.32,15.53,26.35,21.07,41.1l13.74,36.57c-.98,3.5-1.04,6.02-.9,10l-21.22-1.41ZM568.75,186.39c-5.05,2.32-8.32,4.08-12.51,8.76l-24.37-42.64c16.59-1.82,26.24-15.94,33.81-4.56l11.43,24.44,2.11,9.2-10.47,4.8Z"/>
    <path class="cls-1" d="M621.69,374.16l21.22,1.41c-.14-3.98-.08-6.5.9-10l-13.74-36.57c-5.54-14.75-12.8-27.78-21.07-41.1l-32.24-51.95-54.96-95.48c-1.4-2.44-4.48-3.92-7.09-5.08l2.19-3.39-13.92-24.78-16.98-32.14-20.67-41.68-11.91-17.5-32.99-1.79c-5.41-.29-11.03,1.03-16.13,2.4-3.78,1.01-5.81,6.11-3.38,9.36l11.83,15.88c15.83,17.95,27.36,37.82,37.49,59.53l12.94,27.71,50.06,79.11,23.59,40.47,22.3,41.83,14.36,28.13c4.09,8.01,8.89,14.98,14.9,21.49l25.98,28.13c1.78,1.93,5.29,5.86,7.33,5.99Z"/>
  </g>
</svg>