<?xml version="1.0" encoding="UTF-8"?>
<svg id="Layer_1" xmlns="http://www.w3.org/2000/svg" version="1.1" viewBox="0 0 303.01 435.26">
  <!-- Generator: Adobe Illustrator 30.4.0, SVG Export Plug-In . SVG Version: 2.1.4 Build 226)  -->
  <defs>
    <style>
      .st0 {
        fill: #fff;
      }
    </style>
  </defs>
  <path d="M228.82,190.72l-.42,7.43-1.19,13.24-1.03,11.06-.55,3.36c-.62,3.8-1.16,7.42-3.46,10.66l-2.29.61c-.7-.34-2.3-1.21-2.69-1.99-1.12-2.25-1.46-5.16-1.48-7.89l-.13-17.26.26-12.37.33-6.77.12-6.67c.82.91.81,2.11.74,3.33l-.37,6.58-.29,11.84-.19,11.8.51,12.84.68,3.24c.26,1.23,1.4,2.26,2.39,2.35,1.35.12,2.56-.66,3.07-2.07,1.14-3.12,1.79-6.33,2.28-9.62l.72-4.87.45-4.84.65-8.12,1.31-17.25.04-8.54-13.12,1.74.19,1.37-4.12.29c-1.54.11-2.87.56-4.26.84l-14.24,2.81-3.63,1.03c-1.43.41-3.58,0-5.21.2-2.13.26-5.15,2.19-7.43,2.08l-5.87-.28c-1.35,1.15.2,2.6.34,3.57l.98,6.7,1.63,21.14.63,9.78.84,8.66,1.16,35.68c.03.81.52,1.67.99,2.43l-10.39,2.24c-7.41,1.6-14.57,2.9-22.08,4.1-9.33,1.49-18.25,3.58-27.44,5.78l-8.76,1.71-5.8,1.2c-3.55.73-7.1,1.85-10.75,1.9l-7.36.08-9.24-.07-1.68.15c-.46.04-.32,1.41-.41,1.88-.27,1.34-1.15,3-1.3,4.23l-.64,5.43c-.21,1.77.05,3.32-.2,5.16l-.48,3.51c-.15,1.1-1.14,2.94-2.05,3.36-1.67.78-2.37-.84-3.02-1.83-1.09-1.68-2.16-3.17-2.56-5.22-1.01-5.16-.92-10.36-.68-15.67l.27-5.91c.09-2.05.14-4.25-.18-6.4l-9.78-7.99-6.44-5.35-6.17-5.3-7.21-5.72-.45,4.87c-.33,3.58-.24,6.97-.05,10.58l-.41,7.25c-.1,1.69-.35,4.08-1.61,5.11-1.39,1.13-3.97.64-4.86-.73-1.27-1.96-1.53-4.28-1.75-6.59l-.55-5.8-.33-5.52-.36-10.01-.5-8.49-.03-13.26-.29-9.66v-10.15s.34-5.13.34-5.13l.05-13.33.35-11.5.07-6.3.19-5.98c.1-3.11.66-6.03.74-9.15l.15-6.07c.03-1.06.06-1.6.37-2.8l-1.91-1.51-.28-6.72c-.01-.32-.22-1.03-.36-1.28s-.93-.13-1.22-.06l-.78.17c-.12.03-.09-.28-.09-.72l10.51-.66,34.66-4.27c7.09-.87,13.74-1.95,20.91-2.63,12.67-1.21,24.92-2.73,37.51-4.65,6.26-.95,12.12-1.99,18.43-2.34l20.9-1.19,11.33-1.55,14.31-2.18,5.35-1.23c3.96-.91,8.02-.79,12.09-1.13l6.23-.52c2.75-.23,4.63-.11,7.13,1.03l9.86,4.47,11.06,3.75,11.56,4.62,2.48,1.48,5.35,2.85,5.61,2.49c3.85,1.71,7.24,3.82,10.85,5.99l5.13,1.91,3.23,1.3c.21.79-.26,2.51-.33,3.52l-.23,3.78-4.35,1.01,1.6,4.71-.79,2.85c-.37-2.85-.6-4.85-1.43-7.47l-9.29,1.42-15.57,2.82-9.6,1.67-7.12.5-8.12.5-15.18,2.09-26.47,4-16.95,2.79.26,11.28c3.25.03,6.71.36,9.73-.89,2.77-1.15,5.45-.95,8.49-1.16l3.65-.98,4.86-1.01,7.02-1.32,4.54-1.06,3.97-1.23c7.87-1.75,15.73-2.19,23.71-2.97l7.8-.76c3.96-.39,7.8-1.13,11.71-2.09l8.63-2.12c.9-.22,1.8-.13,2.88-.12,1.14,0,2.69-.71,3.89-1.02l7.73-2.04,2.11-.28c.15-.01.59.2.47.3s-.56.39-.77.44l-4.95,1.17-5.25,1.37c-1.8.47-3.59.98-5.42,1.11-2.75.2-4.74.63-7.71,1.53l.23.74.37,10.42,1.07,13.37.5,8.06.26,10.16-.29,3.2c-.35,3.83-.21,7.25.49,10.99s-.67,7.82-.54,11.74l.35,11.09.46,7.48,2.22,17.08,2.4,12.01,2.66,7.99c.58,1.74,2.72,2.42,4.19,1.66l.57-4.57c2.88-4.06,2.55-10.54,2.5-15.81l.95-7.3.39-8.52.07-4.56.65-9.79.43-7.29.06-12,.33-8.18.13-15.15.56-15.13,1.35-18.7c-.38-.49-.6-.79-.55-1.06.07-.33.79-.91.94-.68.21.31.41.97.39,1.35l-1.46,19.12-.37,12.9-.24,6.22-.17,14.65-.28,6.68-.1,14.72-.4,3.31-.7,10.57-.21,7.87c-.05,3.79-.49,7.42-1.27,11.13.41,4.29.03,8.36-.62,12.76l-1.73,3.85-.83,4.44c-1.68.39-4.13.09-4.93-1.71-1.75-3.97-3.09-8.19-3.88-12.44l-2.51-13.43c-1.29-10.85-2.27-21.61-1.79-32.56.21-4.8.38-9.03-.35-13.77l.14-7.26c.14-7.26.06-14.41-.58-21.63l-.85-9.64-.55-13.35-.18-.75-4.19.88-7.22,1.36c-.32.06-.93.94-1.12.77l-.95-.89-3.99.63-9.77,1.31-.52,9.24ZM38.93,170.22l6.87,6.86c1.64,1.64,4.03,2.75,5.59,4.55,1.46,1.69,2.79,3.07,4.62,4.31l.65,1.47c1.86,1.08,3.86,2.67,5.81,3.4,1.55.58,2.91.73,4.03,1.88.98,1,1.64,1.53,3.3,2.4l-.4-4.03c-.01-.14-.92-.38-.8-.46l.66-.47,15.6-2.66,19.12-3.43,22.03-4.03,8.47-1.51,23.77-3.35,12.99-2.03,21.55-2.61,13.18-1.31,15.09-1.64,19.85-2.07,13.26-2.11,16.13-4.09,6.44-1.79,4.37-.83c.47-.09,1.43-.55,1.82-.81-1.71-2.39-5.01-1.82-7.22-3.19-5.56-3.44-10.97-6.37-17.17-8.67l-3.68-2.05c-2.74-1.53-5.16-3.11-8.09-4.16l-15.42-5.53-8.08-3.28-7.68-3.32-.64.7c-.11.12-.53-.51-.7-.75l-12.62.78c-4.05.25-7.72.35-11.54,2.01l-3.35.36-8.12,1.38-17.76,2.28-7.45.44c-9.08.19-17.77,1.06-26.72,2.41l-7.99,1.21-16.47,2.23-17.24,1.83-26.49,3.43-14.01,1.8-18.04,1.99-4.03.13,1.57,2.39c1.68,2.55,4.3,4.35,6.62,6.35l5.08,4.36,9.86,8.26,2.67,2.69,2.57,2.71,8.67,7.51c2.65,2.3,5.09,4.27,8.26,6.45-1.27-.14-2.43-.92-3.78-1.55l-10.28-9.04-4.86-4.37c-2.22-1.99-4.07-4.24-6.4-6.1l-3.91-3.14-2.46-2.24-13.37-11.67c-.21,1.93-.1,3.7.17,5.27l2.77,2.11,5.01,3.82c2.11,1.61,3.72,3.59,5.51,5.54l2.83,3.07ZM102.4,188.04l6.46-.69,10.66-1.02,8.06-.96,12.77-2.11,26.51-4.61,5.7-.8,6.5-1.14,12.71-1.93,2.34-.36,17.03-2.56,16.42-2.35c3.86-.55,7.78,0,11.73-.62l23.45-3.66,5.44-1.18,14.52-2.36-.14-4.71-3.01.6-13.08,3.47-8.3,2.06c-5.88,1.46-11.59,2.55-17.6,3.15l-23.18,2.33-19.23,2.07-23.02,2.61-12.68,1.95-25.81,3.59-2.04.34-31.2,5.72-13.92,2.4-19.3,3.46.26,4.76,7.47-1.9c4.91-1.25,9.71-2.43,14.75-3.45,3.22-.66,6.3-1.71,9.71-2.07ZM30.65,286.13c.65-3.34.92-6.57.92-9.9v-10.89s.39-4.35.39-4.35c.4-4.39.56-8.77-.25-13.14-.53-2.86.01-5.57.06-8.51l.17-10.27c.09-5.65.96-11.06.77-16.71l-.35-10.67-.34-13.47,1.32-20.65c-.04-.85-.51-2.64-.8-3.45-.77-.77-2.21-1.53-2.99-2.23-1.57-1.41-3.09-3.06-5.13-3.52-.06,3.4-.05,5.99-.41,8.88-.71,5.67-.71,11.16-.86,16.87l-.3,11.8-.04,12.55-.37,9.01v6.03s.18,27.98.18,27.98l.24,3.17.62,9.96.42,10.49.34,3.53c.36,3.67.55,8.57,3.53,9.18,1.04.21,2.65-.53,2.88-1.7ZM74.78,295.1l7.84.1,8.72-.05c2.12-.01,4.41-.73,6.59-1.15l13.45-2.6,13.79-3.07,5.47-1.23,5.19-1.04,10.27-1.87,7.79-1.21,12.7-2.58,9.03-1.99-.51-9.21-.4-11.42-.29-15.82-.23-3.35-.92-8.36-.45-8.05-.76-10.18-.97-11.27-.3-2.48-.32-2.61c-.93-1.39-.99-2.69-1.02-4.39l-.23-12.17c-7.23.83-14.89,2.21-22.51,3.64l-12.57,2.37-10.93,1.5-13.98,1.42-9.29,1.12-10.98,2.49-6.01,1.16-12.87,3.72-4.98-3.96c-.43-.34-1.65-.31-2.12-.25l-3.5-2.24-4.1-2.62c-.37-.24-.72-.91-.78-1.38l-3.44-3.44c-1.41-2.3-4.22-3.17-5.98-5l-11.03-11.45-1.31,17.63v16.56c.95,8.4.38,16.52,0,24.88l-.2,4.57-.55,14.77.74,5.04-.08,7.88c.28.86,1.08,2.3,1.72,2.84l19.67,16.41,5.34,4.26,3.11,2.38.26-21.11v-12.55s0-18.92,0-18.92l.34-8.26.69-11.04.28-11.18c.03-1.09-.18-2,.65-2.78l.73,9.98-.71-1.59-.04,2.65c-.91,10.27-1.18,20.22-1.2,30.54l-.03,24.15-.23,20.96,1.34,1.71-1.22.75c-.28.17-.16,1.27-.09,1.62-.51,6.68-.67,13.12-.27,19.77.3,4.11,1.29,8.07,4.58,10.7,1.44-.11,2.48-2.05,2.4-3.61-.19-3.53.09-6.89,1.14-10.33-.23-1.99,0-3.79.92-5.61.35-1.23.26-2.46-.15-3.5.5-.93.63-2.26.43-3.48h4c1.02,0,1.96-.22,2.98-.52l.12.96-6.38.47c-.02,1.04.77,1.9,1.59,1.91Z"/>
  <path d="M225.62,174.84c-.61,2.37-3.38,3.5-4.52,2.5-.33-.29-.54-1.18-.41-1.62.52-1.82,1.85-3,3.61-3.28.64.37,1.49,1.72,1.31,2.41ZM224.93,173.98l-2.04.03c-.88,0-2.21,2.36-1.12,2.8,1.4.57,3.4-1.11,3.17-2.83Z"/>
  <path class="st0" d="M74.78,295.1c-.82-.01-1.61-.88-1.59-1.91l6.38-.47-.12-.96c-1.02.3-1.96.52-2.98.52h-4c.21,1.22.07,2.55-.43,3.47.41,1.05.49,2.27.15,3.5-.91,1.82-1.15,3.62-.92,5.61-1.06,3.44-1.33,6.8-1.14,10.33.08,1.56-.96,3.5-2.4,3.61-3.29-2.63-4.28-6.59-4.58-10.7-.4-6.65-.24-13.09.27-19.77-.07-.35-.2-1.45.09-1.62l1.22-.75-1.34-1.71.23-20.96.03-24.15c.01-10.32.28-20.27,1.2-30.54l.04-2.65.71,1.59-.73-9.98c-.83.79-.62,1.7-.65,2.78l-.28,11.18-.69,11.04-.34,8.26.02,18.92v12.55s-.27,21.11-.27,21.11l-3.11-2.38-5.34-4.26-19.67-16.41c-.64-.54-1.45-1.98-1.72-2.84l.08-7.88-.74-5.04.55-14.77.2-4.57c.37-8.36.94-16.48-.02-24.88v-16.56s1.32-17.63,1.32-17.63l11.03,11.45c1.76,1.83,4.57,2.7,5.98,5l3.44,3.44c.06.47.41,1.15.78,1.38l4.1,2.62,3.5,2.24c.47-.06,1.69-.09,2.12.25l4.98,3.96,12.87-3.72,6.01-1.16,10.98-2.49,9.29-1.12,13.98-1.42,10.93-1.5,12.57-2.37c7.63-1.44,15.28-2.81,22.51-3.64l.23,12.17c.03,1.7.09,3,1.02,4.39l.32,2.61.3,2.48.97,11.27.76,10.18.45,8.05.92,8.36.23,3.35.29,15.82.4,11.42.51,9.21-9.03,1.99-12.7,2.58-7.79,1.21-10.27,1.87-5.19,1.04-5.47,1.23-13.79,3.07-13.45,2.6c-2.18.42-4.47,1.14-6.59,1.15l-8.72.05-7.84-.1ZM129.66,231.18l14.02-2.12,6.35-1.24,8.96-1.43,6.94-1.21c1.2-.21,2.75.41,3.66-1.06l-11.07,1.65-8.68,1.39-11.34,1.9-40.96,7.26-7.67,1.39-14.17,3.2c-.6-3-.39-5.64-.23-8.58l.32-5.87.38-3.37.74-4.86.48-3.14.52,2.21c.43-3.49.37-6.98.26-10.7-.2-3.71,0-7.16,1.22-10.64-.04-.27-.3-1.13-.49-1.01l-.62.42c.35.96.1,2.31-.53,3.06l-.54-3.29-.49.17.66,8.31c-.3,5.32-.63,10.47-1.38,15.63-.59,4.05-1.06,7.8-1.17,11.82l-.23,8.49c-.02.73-.39,1.69-.68,2.19.17.32.64,1.48.61,2.02l-.25,4.72.4,6.14c.33,5.03-.01,9.79-.37,14.86l-1.33,18.79c-.08,1.12-.86,2.19.19,3.4l.83-7.81,1.04-14.69c.42-5.92.53-11.54.47-17.48l-.45-3.12.11-6.82,8.67-1.94,10.57-2.26,17.24-3.21,18.04-3.19ZM132.03,207.8c.19-1.49-.26-3.37-.45-4.77l-2.38-1.17c-1.96-.96-4.19.83-5.56,2.19s-1.73,3.59-.69,5.2c.91,1.4,2.63,2.2,4.56,1.86,1.6-.28,4.25-1.26,4.52-3.31ZM130.09,256.56l1.42-2.77-.78-6.55-2.62.21c-4.21,0-6.89,3.73-6.23,7.72.28,1.73,1.36,2.84,3.19,2.45l5.02-1.06Z"/>
  <path class="st0" d="M38.93,170.22l-2.83-3.07c-1.79-1.94-3.41-3.93-5.51-5.54l-5.01-3.82-2.77-2.11c-.27-1.57-.38-3.34-.17-5.27l13.37,11.67,2.46,2.24,3.91,3.14c2.32,1.86,4.18,4.11,6.4,6.1l4.86,4.37,10.28,9.04c1.35.63,2.51,1.41,3.78,1.55-3.17-2.18-5.6-4.15-8.26-6.45l-8.67-7.51-2.57-2.71-2.67-2.69-9.86-8.26-5.08-4.36c-2.33-2-4.95-3.8-6.62-6.35l-1.57-2.39,4.03-.13,18.04-1.99,14.01-1.8,26.49-3.43,17.24-1.83,16.47-2.23,7.99-1.21c8.95-1.35,17.64-2.22,26.72-2.41l7.45-.44,17.76-2.28,8.12-1.38,3.35-.36c3.82-1.66,7.48-1.76,11.54-2.01l12.62-.78c.16.24.59.87.7.75l.64-.7,7.68,3.32,8.08,3.28,15.42,5.53c2.93,1.05,5.34,2.63,8.09,4.16l3.68,2.05c6.2,2.3,11.61,5.23,17.17,8.67,2.21,1.37,5.51.8,7.22,3.19-.39.26-1.35.72-1.82.81l-4.37.83-6.44,1.79-16.13,4.09-13.26,2.11-19.85,2.07-15.09,1.64-13.18,1.31-21.55,2.61-12.99,2.03-23.77,3.35-8.47,1.51-22.03,4.03-19.12,3.43-15.6,2.66-.66.47c-.11.08.79.32.8.46l.4,4.03c-1.65-.87-2.32-1.4-3.3-2.4-1.12-1.15-2.48-1.3-4.03-1.88-1.95-.73-3.95-2.32-5.81-3.4l-.65-1.47c-1.83-1.24-3.16-2.62-4.62-4.31-1.56-1.8-3.95-2.91-5.59-4.55l-6.87-6.86Z"/>
  <path class="st0" d="M30.65,286.13c-.23,1.17-1.84,1.91-2.88,1.7-2.98-.61-3.17-5.51-3.53-9.18l-.34-3.53-.42-10.49-.62-9.96-.24-3.17-.19-27.98v-6.03s.37-9.01.37-9.01l.04-12.55.3-11.8c.15-5.71.15-11.21.86-16.87.36-2.89.35-5.48.41-8.88,2.04.47,3.56,2.11,5.13,3.52.78.7,2.22,1.46,2.99,2.23.29.8.76,2.59.8,3.45l-1.32,20.65.34,13.47.35,10.67c.19,5.65-.68,11.06-.77,16.71l-.17,10.27c-.05,2.94-.59,5.65-.06,8.51.81,4.37.66,8.75.25,13.14l-.4,4.35v10.89c.02,3.33-.25,6.56-.9,9.9Z"/>
  <path class="st0" d="M102.4,188.04c-3.41.36-6.49,1.42-9.71,2.07-5.04,1.03-9.83,2.2-14.75,3.45l-7.47,1.9-.26-4.76,19.3-3.46,13.92-2.4,31.2-5.72,2.04-.34,25.81-3.59,12.68-1.95,23.02-2.61,19.23-2.07,23.18-2.33c6.01-.6,11.72-1.69,17.6-3.15l8.3-2.06,13.08-3.47,3.01-.6.14,4.71-14.52,2.36-5.44,1.18-23.45,3.66c-3.96.62-7.88.07-11.73.62l-16.42,2.35-17.03,2.56-2.34.36-12.71,1.93-6.5,1.14-5.7.8-26.51,4.61-12.77,2.11-8.06.96-10.66,1.02-6.46.69Z"/>
  <path class="st0" d="M224.93,173.98c.24,1.72-1.77,3.4-3.17,2.83-1.09-.44.24-2.8,1.12-2.8l2.04-.03Z"/>
  <path d="M129.66,231.18l-18.04,3.19-17.24,3.21-10.57,2.26-8.67,1.94-.11,6.82.45,3.12c.06,5.94-.05,11.56-.47,17.48l-1.04,14.69-.83,7.81c-1.05-1.21-.27-2.28-.19-3.4l1.33-18.79c.36-5.07.7-9.83.37-14.86l-.4-6.14.25-4.72c.03-.54-.45-1.7-.61-2.02.3-.49.66-1.46.68-2.19l.23-8.49c.11-4.02.58-7.77,1.17-11.82.75-5.16,1.07-10.32,1.38-15.63l-.66-8.31.49-.17.54,3.29c.63-.76.88-2.11.53-3.06l.62-.42c.18-.13.45.74.49,1.01-1.22,3.48-1.41,6.93-1.22,10.64.11,3.72.18,7.22-.26,10.7l-.52-2.21-.48,3.14-.74,4.86-.38,3.37-.32,5.87c-.16,2.94-.37,5.58.23,8.58l14.17-3.2,7.67-1.39,40.96-7.26,11.34-1.9,8.68-1.39,11.07-1.65c-.91,1.47-2.46.85-3.66,1.06l-6.94,1.21-8.96,1.43-6.35,1.24-14.02,2.12Z"/>
  <path d="M130.09,256.56l-5.02,1.06c-1.84.39-2.91-.73-3.19-2.45-.65-3.99,2.02-7.72,6.23-7.72l2.62-.21.78,6.55-1.42,2.77ZM129.5,255.6c2.2-2.31,1.19-5.44-.45-7.41-2.36-.24-4.36.62-5.59,2.42-.96,1.42-1.8,4.56-.05,5.85,1.34.99,4.95.33,6.09-.86Z"/>
  <path d="M132.03,207.8c-.27,2.05-2.91,3.04-4.52,3.31-1.94.33-3.65-.46-4.56-1.86-1.04-1.6-.68-3.83.69-5.2s3.59-3.15,5.56-2.19l2.38,1.17c.19,1.4.65,3.28.45,4.77ZM131.36,207.49c.16-1.27-.25-3-.44-4.11l-2.9-1.24c-2.2.71-4.23,2.27-4.91,4.47s1.35,3.9,3.44,3.81c1.77-.07,4.51-.57,4.81-2.92Z"/>
  <path class="st0" d="M129.5,255.6c-1.14,1.2-4.74,1.85-6.09.86-1.75-1.29-.92-4.44.05-5.85,1.23-1.8,3.23-2.66,5.59-2.42,1.64,1.98,2.65,5.1.45,7.41Z"/>
  <path class="st0" d="M131.36,207.49c-.3,2.36-3.04,2.85-4.81,2.92-2.08.09-4.09-1.7-3.44-3.81s2.71-3.76,4.91-4.47l2.9,1.24c.19,1.12.61,2.84.44,4.11Z"/>
</svg>