<?xml version="1.0" encoding="UTF-8"?>
<svg id="Layer_1" xmlns="http://www.w3.org/2000/svg" version="1.1" viewBox="0 0 303.01 435.26">
  <!-- Generator: Adobe Illustrator 30.4.0, SVG Export Plug-In . SVG Version: 2.1.4 Build 226)  -->
  <defs>
    <style>
      .st0 {
        fill: #fff;
      }
    </style>
  </defs>
  <path d="M219.82,181c-16.52,1.97-32.16,4.45-48.17,7.88l1.64,17.12.24,4.43.65,7.89.36,6.55,1.35,14.48.32,3.3.36,19.46.44,11.15.33,4.8c.12,1.73.38,3.44,1.01,4.86l-13.86,3.06-15.21,2.84c-11.88,1.73-23.12,4.81-34.82,7.23l-12.3,2.54-12.69,2.45-11.46.15-9.03.04-1.51,7.11-.87,6.86-.34,7.24c-.09,1.89-1.55,4.11-3.4,4.17-3.68-2.74-5.3-7.05-5.53-11.5l-.42-8.03-.05-12.58.38-5.5.32-4.8c-2.11-3.03-4.72-4.84-7.26-7.28l-4.47-4.29-14.01-16.39-8.08-9.67-2.66-2.7c-1.58,5.19-2.83,9.68-3.28,14.7-.07.73-.16,1.33-.35,2.02l-2.14,8.05c-.4,1.52-1.52,2.98-2.72,3.24-1.71.37-3.7.18-4.58-1.68-1.05-2.2-.87-5.33-.63-7.91l.73-7.7,1.53-9.67,2.44-17.58,4.89-26.49,2.18-9.63,2.42-12.06,3.57-16.98-7.12-7.34-7.05-6.29c.07-1.42.71-3.23,1.9-4.04.99-.67,2.96-.23,4.05-.35l10.02-1.09c.2-.47.25-.24.24.29l7.44-.66,7.78-1.22,5.49-1.08,30.93-4.15,37.61-4.7,18.54-2.65,7.81-.73,18.19-1.05c10.95-1.16,21.57-2.78,32.31-5.02,2.97-.62,5.49-1.32,8.66-1.43l3.07-.1,13.17-.96,7.5,3.27c5.08,2.22,10.08,3.75,15.26,5.7l9.55,3.59,7.17,3.2,7.09,3.78,8.86,3.97c1.83.82,4.18,1.26,5.71,2.62,3.42,3.03,7.12,5.39,11.18,7.08l1.15,3.28c.05.14.38.59.25.61l-.87.16c-2.57.47.66,3.19-.38,8.29l-.25,1.24c-.06.31-.64.56-1.12.66l-9.89,2.16-7.32,1.14c1.96,2.82,2.83,5.42,2.97,8.63l2.63,7.44c.06.18-.72,1.07-.78,1.17l.59,3.92,2.28,12.07,3.23,16.17,2.94,14.76,2.31,10.79,1.73,12.4.89,4.96.69,3.56,1.76,9.64.41,5.92c.11,1.66.26,2.82.67,4.33,1.15,4.26,1.8,8.84,1.28,13.23-.29,2.48-.38,4.56-.27,7.23-1.26.74-3.93,1.2-5.3,0-1.55-1.35-2.71-3.23-3.63-5.07l-3.62-7.25-1.08-2.45c-3.64-8.28-6.96-16.41-9.29-25.2l-4.78-17.99c-.46-5.42-1.74-10.51-3.68-15.56l-.7-3.65-1.48-8.72-1.18-4.68c-1.45-5.76-2.82-11.21-5-16.73l-.95-3.04-2.86-11.12-2.86-8.64c-2.66.84-4.97,1.87-7.42,2.14l-5.69.62c-.62.07-2.22.48-2.6,1.03l-.46,8.43-.92,14.59-.28,3.81-.62,4.78.03,2.92-1.61,12.44c-.46,3.58-1.02,7.29-3.43,10.13-1.4,1.65-4.61.91-5.51-.99-1.18-2.51-1.53-5.09-1.55-7.79l-.17-18.59v-9.23s.37-7.27.37-7.27l.7-12.54ZM64.33,194.64c.89-3.55-1.27-4.32-.96-4.68.15-.18.79-.71,1.02-.75l4.05-.58,20.86-3.81,25.92-4.64,12.07-2.34,16.03-2.47,30.61-4.61,19.39-2.44,8.94-.9,3.27-.4,3.22-.4,3.16-.41,19.2-2,22.65-2.71c4.29-.51,7.87-2.5,11.99-3.4l23.41-5.08c-2.81-1.16-5.61-2.63-7.86-4.81-2.49-2.41-5.06-3.32-8.12-4.4-4.26-1.51-8.43-3.12-12.21-5.45-4.89-3.01-9.84-5.03-15.26-6.94l-10.97-3.85-16.07-6.64c-.33.25-.82.75-1.02.6l-.99-.75-15.43,1.02c-2.7-.16-5.01.75-7.61,1.29-11.06,2.29-22.11,3.98-33.36,5.11l-17.77.98-22.15,2.81-37.01,4.77-35.6,4.74-6.56,1.13-4.78.77-10.41.9-9.01.6-4.38.38c2.8,3.32,6.23,4.43,7.77,6.96-1.27,0-1.95-.45-2.46-.92l-5.59-5.22-.59,2.09,5.76,5.17c2.77,2.48,4.97,5.05,7.49,7.73l10.5,11.16c2.35,2.49,4.56,4.44,7.41,6.34,2.2,1.47,3.8,3.92,5.95,5.58l1.99,2.33c2.62,3.07,8.1,3.75,9.74,5.09l3.75,3.06ZM79.55,191.3l16.91-3.77,9.91-1.27,7.32-.73c11.37-1.14,22.29-3.42,33.55-5.29l21.87-3.64,12.02-2.02,15.6-2.45,14.81-2.39,11.58-1.62c7.36-1.03,14.3-1.61,21.7-2.1l18.85-3.22,16.72-3.67,10.47-2.82-.98-2.63-8.65,1.74-14.02,2.91-8.7,3.1-19.75,2.79-16.58,1.75-13.81,1.55-20.6,2.25-29.22,4.19-23.43,3.36-35.68,6.67-14.65,2.63-19.66,3.64.18,4.75,2.96-.62,11.29-3.09ZM231.94,178.19l10.32-.37,16.75-4.77,10.91-2.75,7.36-1.45c4.35-.86,8.53-1.29,12.6-2.81.09-1.51.4-3.33.18-4.42l-.83-4.13-19.08,4.82-9.83,2.07-15.24,2.7-10.95.51-12.65,1.86.28,3.99-.81,6.16,10.99-1.41ZM15.43,264.41c.85-2.79,1.05-5.52,1.64-8.38l1.31-6.34c1.29-6.26,3.23-12.39,3.59-18.78.19-3.4.88-6.14,1.78-9.47l.93-3.43,1.25-6.79,3.32-12.81,2.68-16.57,1.53-8.43c.27-1.51-.22-2.19-1.12-3.23l-3.16-3.63-3.12-3.35-1.97,8.42-.77,3.75-.87,4.52-1.01,5.32-1.79,8.35-4.18,22.37-3.18,17.73-.86,6.64-.43,3.1-1.03,6.31-.69,4.99-.83,8.1c-.34,3.28-.37,6.72,1.78,8.06,2.72,1.69,4.1-2.85,5.19-6.46ZM200.82,182.78l15.09-2.02c1.34-.18,3.77-.05,4.15-1.92l.95-4.69c.26-1.31-.34-3.12-1.04-4.65l-32.17,5.02-17.12,2.91-.35,2.35,1.26,8.35,15.03-2.91,14.21-2.43ZM292.54,279.21l-.75-5.62-1.22-6.19-.87-4.4-.98-5.01-.42-4.25-1.64-10.26-.86-3.95-.84-3.78-.75-3.64-1.76-10.1-.73-3.53-.91-3.96-2.09-10.51-2.11-10.75-.99-5.96c-.16-.96.16-2.28.44-3.35l-1.78-5.3c-.46-2.87-.93-5.51-2.92-7.9l-15.16,3.75-6.52,1.8,3.17,8.78,2.47,8.59,2.99,9.56c2.13,6.82,3.85,13.82,5.29,20.86l2.24,10.88,1.38,2.54.66,3.72,1.09,7.96,1.01,4.55c1.99,8.94,4.35,17.68,7.89,26.17l4.72,11.32c2.1,5.04,4.45,9.61,7.62,14.09.83,1.17,3.97,1.8,3.96.29-.02-2.34-.16-4.2.3-6.23,1.16-5.2-.36-10.29-1.53-15.33l-.4-4.86ZM97.13,188.45l-13.85,3.04-5.88,1.35-3.59,1.2c.67.65,1.23,1.41,1.11,1.81l-1.22,4.08v16.03c0,.87-.99,2.02-1.11,2.74l-1.28,7.37-.3,3.95-.41,7.59,6.61-1.72,14.79-3.3,17.25-4.33,9.26-1.69,19.64-3.93,9.87-1.52,13.53-2.55,4.12-1.18c.17-.05.35.8.16.85l-5.78,1.47-9.17,1.74-14.91,2.45-18.3,3.62-13.37,2.75-14.42,3.64-7.4,1.75-11.66,2.63c-.39,1.57-.3,3.23.66,4.59l12.67-2.84,40.3-7.81,13.93-2.12,8.52-1.53,6.35-1.22,9.4-1.48,7.01-1.08,2.12,1.31c1.42,1.64,2.02,4.52,1.1,6.69-.92.54-2.8.04-3.89.13l-18.06,1.47-6.44.43-25.13,3.25c-6.12.79-12.02.81-18.16,1.98-7.58,1.44-14.93,2.15-22.57,3.03l-7.93.92c-.56,3.06-.12,5.71,0,8.5l.41,9.84-.04,4.35-1.4,18.67-.76,10.77-.97.27c-.24.07.02-.91.14-1.12l1.13-16.34.79-10.82-.13-13.95c-.02-1.96-.25-3.67-.28-5.69l-.07-4.51c-.02-1.19.8-3.24.2-4.4-.22-.43-.75-1-.55-1.21l.82-.86.34-12.2.91-5.02,1.29-16.74-.93-8.93c-2.34.43-4.64,1.12-6.58,1.88l-2.98-2.34c-1.58-1.24-2.6-2.32-4.7-2.25l-4.56-2.97-3.73-2.6-2.13-2.67-4.71-4.49-7.58-6.4-1.44,8.34c-.84,7.28-1.78,14.4-3.71,21.39l-1.48,5.38-3.19,14.45c-.6,2.73-1.1,4.85-1.41,7.67l-.79,7.11c-.77,1.99-.75,3.99-.1,6.23l8.92,10.76,9.03,11.44,11.21,11.6,5.62,4.89.28-14.31-.08-19.67.03-7.57-.18-8.54.22-3.6.42-10.06.34-6.21.11-3.67.2-10.74c.14-.19.21-.22.95-.18l.7,8.85c.02.3.36,1.07.15,1.25l-1,.87-.55,9.94-.52,10.33.12,29.39.15,4.43-.12,3.99-.22,16.09-.55,10.8-.32,6.04c-.08,1.45.36,2.87.41,4.25l.13,3.7.39,8.44c.17,3.73,1.97,7.11,4.76,9.96,1.21-.83,2.21-2.48,2.19-3.93-.06-3.91.42-7.39,1.14-11.27.34-1.82,0-3.66.95-5.46.59-1.11.19-2.69.24-3.81l.17-4,8.22-.06c-2.11,1.28-4.68.93-7.07,1.12-.47,1.26.94,2.22,2.16,2.16l6.63-.29,4.39.05,3.01-.1c2.71-.09,4.87-.19,7.48-.72l12.71-2.6,11.04-2.17,11.48-2.7,14.29-2.87,11.71-1.98,11.31-2.28,11.64-2.67-.59-9.26-.22-6.02-.45-17.23-.08-2.48-.94-10.87-1.08-13.9-.95-13.65-.09-4.07-1.49-15.42c-.32-3.28-.61-6.54-1.53-9.8-.1-.34-.03-1.17,0-1.94l-26.52,4.49c-9.46,1.6-18.49,3.25-27.95,4.32l-17.78,2.01ZM228.69,225.58l.91-6.09.7-9.86.75-6.65.58-9.13.32-8.64c.08-2.1.43-4.07-.08-6.13l-11.16,1.51-.29,4.59-.63,9.92-.08,30.07c-.01,4.48.47,11.44,3.26,12.17,3.63.95,4.91-6.41,5.71-11.77ZM143.7,232.1c5.14-.26,9.87-.84,14.96-2.54l-1.35-.9-18.05,2.37-9.26,1.76,13.69-.69ZM169.97,231.12c.33.23,1.3.86,1.45.57,1-1.93-2.76-2.35-6.01-1.79l-7.33,1.26,11.89-.04ZM95.96,239.92c-.54-.56-1.49-.73-2.21-.54l-5.75,1.46,7.96-.91Z"/>
  <path class="st0" d="M97.13,188.45l17.78-2.01c9.47-1.07,18.49-2.72,27.95-4.32l26.52-4.49c-.04.77-.1,1.6,0,1.94.92,3.26,1.22,6.52,1.53,9.8l1.49,15.42.09,4.07.95,13.65,1.08,13.9.94,10.87.08,2.48.45,17.23.22,6.02.59,9.26-11.64,2.67-11.31,2.28-11.71,1.98-14.29,2.87-11.48,2.7-11.04,2.17-12.71,2.6c-2.61.53-4.78.63-7.48.72l-3.01.1-4.39-.05-6.63.29c-1.22.05-2.64-.9-2.16-2.16,2.38-.19,4.95.16,7.07-1.12l-8.22.06-.17,4c-.05,1.12.35,2.7-.24,3.81-.95,1.8-.61,3.64-.95,5.46-.73,3.87-1.2,7.35-1.14,11.27.02,1.44-.98,3.1-2.19,3.93-2.79-2.86-4.58-6.24-4.76-9.96l-.39-8.44-.13-3.7c-.05-1.38-.49-2.81-.41-4.25l.32-6.04.55-10.8.22-16.09.12-3.99-.15-4.43-.12-29.39.52-10.33.55-9.94,1-.87c.21-.18-.13-.95-.15-1.25l-.7-8.85c-.74-.04-.81,0-.95.18l-.2,10.74-.11,3.67-.34,6.21-.42,10.06-.22,3.6.18,8.54-.03,7.57.08,19.67-.28,14.31-5.62-4.89-11.21-11.6-9.03-11.44-8.92-10.76c-.64-2.23-.67-4.24.1-6.23l.79-7.11c.31-2.81.81-4.94,1.41-7.67l3.19-14.45,1.48-5.38c1.93-6.99,2.87-14.11,3.71-21.39l1.44-8.34,7.58,6.4,4.71,4.49,2.13,2.67,3.73,2.6,4.56,2.97c2.11-.07,3.12,1.01,4.7,2.25l2.98,2.34c1.94-.76,4.24-1.45,6.58-1.88l.93,8.93-1.29,16.74-.91,5.02-.34,12.2-.82.86c-.2.21.33.77.55,1.21.6,1.16-.22,3.21-.2,4.4l.07,4.51c.03,2.02.26,3.74.28,5.69l.13,13.95-.79,10.82-1.13,16.34c-.13.21-.39,1.19-.14,1.12l.97-.27.76-10.77,1.4-18.67.04-4.35-.41-9.84c-.12-2.79-.56-5.44,0-8.5l7.93-.92c7.63-.88,14.99-1.59,22.57-3.03,6.15-1.17,12.04-1.19,18.16-1.98l25.13-3.25,6.44-.43,18.06-1.47c1.1-.09,2.98.4,3.89-.13.92-2.17.31-5.05-1.1-6.69l-2.12-1.31-7.01,1.08-9.4,1.48-6.35,1.22-8.52,1.53-13.93,2.12-40.3,7.81-12.67,2.84c-.96-1.36-1.05-3.02-.66-4.59l11.66-2.63,7.4-1.75,14.42-3.64,13.37-2.75,18.3-3.62,14.91-2.45,9.17-1.74,5.78-1.47c.18-.05,0-.9-.16-.85l-4.12,1.18-13.53,2.55-9.87,1.52-19.64,3.93-9.26,1.69-17.25,4.33-14.79,3.3-6.61,1.72.41-7.59.3-3.95,1.28-7.37c.12-.72,1.12-1.87,1.12-2.74v-16.03s1.21-4.08,1.21-4.08c.12-.4-.44-1.17-1.11-1.81l3.59-1.2,5.88-1.35,13.85-3.04ZM130.47,207.75l-.47-4.83-2.32-1.24c-2.18-1.16-4.29.76-5.85,2.06-1.72,1.43-2.31,3.2-1.52,5.19.75,1.88,2.37,2.57,4.61,2.56,2.13,0,5.32-.96,5.54-3.74ZM120.6,259.86c1.02,1.37,6.65,1.14,8.56-1.23.89-1.1,1.18-2.9.86-4.51l-.92-4.6-2.96.23-3.27.68-4.29-3.83-.11,1.2c-.02.24.58.49.78.64l3.14,2.65-1.52,1.42-4.71-2.34-.11.63,4.33,2.63c-.72,2.34-1.17,4.58.21,6.43Z"/>
  <path class="st0" d="M64.33,194.64l-3.75-3.06c-1.64-1.34-7.12-2.02-9.74-5.09l-1.99-2.33c-2.15-1.66-3.75-4.11-5.95-5.58-2.84-1.91-5.06-3.85-7.41-6.34l-10.5-11.16c-2.53-2.69-4.73-5.25-7.49-7.73l-5.76-5.17.59-2.09,5.59,5.22c.51.47,1.18.92,2.46.92-1.55-2.53-4.98-3.64-7.77-6.96l4.38-.38,9.01-.6,10.41-.9,4.78-.77,6.56-1.13,35.6-4.74,37.01-4.77,22.15-2.81,17.77-.98c11.25-1.13,22.29-2.82,33.36-5.11,2.6-.54,4.91-1.45,7.61-1.29l15.43-1.02.99.75c.19.15.69-.35,1.02-.6l16.07,6.64,10.97,3.85c5.42,1.9,10.37,3.92,15.26,6.94,3.77,2.32,7.95,3.93,12.21,5.45,3.06,1.09,5.64,1.99,8.12,4.4,2.24,2.18,5.04,3.65,7.86,4.81l-23.41,5.08c-4.12.9-7.71,2.88-11.99,3.4l-22.65,2.71-19.2,2-3.16.41-3.22.4-3.27.4-8.94.9-19.39,2.44-30.61,4.61-16.03,2.47-12.07,2.34-25.92,4.64-20.86,3.81-4.05.58c-.23.03-.87.57-1.02.75-.3.36,1.85,1.13.96,4.68ZM62.36,187.91l-8.86-7.13-14.8-13.32c-3.77-3.39-8.13-5.99-11.28-10.04-.66-.85-.96-.9-1.73-1.42l-4.26-2.89c.42.7,1.19,1.27,1.79,1.8l13.01,11.43c5.19,4.56,9.88,9.22,15.1,13.77l2.78,2.42c2.48,2.22,4.95,4.73,8.26,5.38Z"/>
  <path class="st0" d="M292.54,279.21l.4,4.86c1.17,5.04,2.69,10.12,1.53,15.33-.45,2.02-.32,3.89-.3,6.23.01,1.51-3.13.88-3.96-.29-3.17-4.48-5.52-9.05-7.62-14.09l-4.72-11.32c-3.54-8.5-5.9-17.24-7.89-26.17l-1.01-4.55-1.09-7.96-.66-3.72-1.38-2.54-2.24-10.88c-1.45-7.04-3.16-14.04-5.29-20.86l-2.99-9.56-2.47-8.59-3.17-8.78,6.52-1.8,15.16-3.75c1.98,2.39,2.45,5.02,2.92,7.9l1.78,5.3c-.28,1.07-.6,2.39-.44,3.35l.99,5.96,2.11,10.75,2.09,10.51.91,3.96.73,3.53,1.76,10.1.75,3.64.84,3.78.86,3.95,1.64,10.26.42,4.25.98,5.01.87,4.4,1.22,6.19.75,5.62Z"/>
  <path class="st0" d="M15.43,264.41c-1.1,3.61-2.47,8.14-5.19,6.46-2.15-1.33-2.12-4.78-1.78-8.06l.83-8.1.69-4.99,1.03-6.31.43-3.1.86-6.64,3.18-17.73,4.18-22.37,1.79-8.35,1.01-5.32.87-4.52.77-3.75,1.97-8.42,3.12,3.35,3.16,3.63c.9,1.04,1.4,1.72,1.12,3.23l-1.53,8.43-2.68,16.57-3.32,12.81-1.25,6.79-.93,3.43c-.9,3.33-1.59,6.07-1.78,9.47-.36,6.39-2.29,12.52-3.59,18.78l-1.31,6.34c-.59,2.85-.8,5.59-1.64,8.38Z"/>
  <path class="st0" d="M79.55,191.3l-11.29,3.09-2.96.62-.18-4.75,19.66-3.64,14.65-2.63,35.68-6.67,23.43-3.36,29.22-4.19,20.6-2.25,13.81-1.55,16.58-1.75,19.75-2.79,8.7-3.1,14.02-2.91,8.65-1.74.98,2.63-10.47,2.82-16.72,3.67-18.85,3.22c-7.4.48-14.34,1.07-21.7,2.1l-11.58,1.62-14.81,2.39-15.6,2.45-12.02,2.02-21.87,3.64c-11.26,1.87-22.18,4.16-33.55,5.29l-7.32.73-9.91,1.27-16.91,3.77Z"/>
  <path class="st0" d="M231.94,178.19l-10.99,1.41.81-6.16-.28-3.99,12.65-1.86,10.95-.51,15.24-2.7,9.83-2.07,19.08-4.82.83,4.13c.22,1.08-.09,2.91-.18,4.42-4.06,1.53-8.25,1.95-12.6,2.81l-7.36,1.45-10.91,2.75-16.75,4.77-10.32.37ZM224.51,175.89c1.36-.2,3.03-.52,3.68-1.12.93-.87,1.28-1.94,1.09-2.78-.15-.63-1.1-1.96-1.74-1.88-2.09.26-4.93,3.62-3.02,5.78Z"/>
  <path class="st0" d="M228.69,225.58c-.8,5.36-2.08,12.72-5.71,11.77-2.78-.73-3.27-7.68-3.26-12.17l.08-30.07.63-9.92.29-4.59,11.16-1.51c.5,2.06.16,4.03.08,6.13l-.32,8.64-.58,9.13-.75,6.65-.7,9.86-.91,6.09Z"/>
  <path class="st0" d="M200.82,182.78l-14.21,2.43-15.03,2.91-1.26-8.35.35-2.35,17.12-2.91,32.17-5.02c.7,1.53,1.31,3.34,1.04,4.65l-.95,4.69c-.38,1.87-2.81,1.74-4.15,1.92l-15.09,2.02Z"/>
  <path class="st0" d="M143.7,232.1l-13.69.69,9.26-1.76,18.05-2.37,1.35.9c-5.09,1.7-9.83,2.29-14.96,2.54Z"/>
  <path class="st0" d="M169.97,231.12l-11.89.04,7.33-1.26c3.24-.56,7-.14,6.01,1.79-.15.29-1.12-.34-1.45-.57Z"/>
  <path class="st0" d="M95.96,239.92l-7.96.91,5.75-1.46c.72-.18,1.67-.01,2.21.54Z"/>
  <path d="M120.6,259.86c-1.38-1.85-.93-4.1-.21-6.43l-4.33-2.63.11-.63,4.71,2.34,1.52-1.42-3.14-2.65c-.2-.15-.81-.4-.78-.64l.11-1.2,4.29,3.83,3.27-.68,2.96-.23.92,4.6c.32,1.61.03,3.4-.86,4.51-1.91,2.37-7.54,2.59-8.56,1.23ZM121.45,259.5c2.1.28,4.89.25,6.4-1.11,2.1-1.9,1.63-5.38-.38-7.35-.58-.57-2.48-.42-2.85-.05l.56,1.45-2.18-.64c-2,1.93-3.2,4.85-1.55,7.7Z"/>
  <path d="M130.47,207.75c-.22,2.78-3.42,3.74-5.54,3.74-2.25,0-3.86-.69-4.61-2.56-.8-1.99-.2-3.76,1.52-5.19,1.56-1.3,3.68-3.22,5.85-2.06l2.32,1.24.47,4.83ZM129.67,207.76c.26-1.22-.14-2.99-.36-4.24l-2.91-1.39c-.96-.46-2.58,1.07-3.03,1.89-1.71.69-2.6,2.16-2.32,3.78.27,1.53,1.53,2.85,3.44,2.81,1.76-.03,4.69-.59,5.17-2.85Z"/>
  <path d="M62.36,187.91c-3.31-.66-5.78-3.16-8.26-5.38l-2.78-2.42c-5.23-4.55-9.92-9.21-15.1-13.77l-13.01-11.43c-.6-.52-1.37-1.1-1.79-1.8l4.26,2.89c.78.53,1.07.57,1.73,1.42,3.15,4.05,7.51,6.65,11.28,10.04l14.8,13.32,8.86,7.13Z"/>
  <path d="M224.51,175.89c-1.91-2.17.94-5.52,3.02-5.78.64-.08,1.6,1.24,1.74,1.88.19.85-.16,1.92-1.09,2.78-.65.61-2.32.92-3.68,1.12ZM227.89,172.22c-1.13-.38-2.13-.12-2.45.33s-.73,1.96-.33,2.22c1.12.7,3.86-.96,2.78-2.54Z"/>
  <path class="st0" d="M121.45,259.5c-1.65-2.85-.45-5.78,1.55-7.7l2.18.64-.56-1.45c.36-.36,2.26-.52,2.85.05,2.01,1.97,2.49,5.45.38,7.35-1.5,1.36-4.3,1.39-6.4,1.11Z"/>
  <path class="st0" d="M129.67,207.76c-.48,2.26-3.41,2.82-5.17,2.85-1.91.04-3.18-1.28-3.44-2.81-.28-1.62.61-3.09,2.32-3.78.45-.82,2.07-2.35,3.03-1.89l2.91,1.39c.22,1.25.62,3.02.36,4.24Z"/>
  <path class="st0" d="M227.89,172.22c1.08,1.58-1.66,3.25-2.78,2.54-.4-.25.02-1.79.33-2.22s1.32-.71,2.45-.33Z"/>
</svg>