<?xml version="1.0" encoding="UTF-8"?>
<svg id="Layer_1" xmlns="http://www.w3.org/2000/svg" version="1.1" viewBox="0 0 303.01 435.26">
  <!-- Generator: Adobe Illustrator 30.4.0, SVG Export Plug-In . SVG Version: 2.1.4 Build 226)  -->
  <defs>
    <style>
      .st0 {
        fill: #fff;
      }
    </style>
  </defs>
  <g>
    <path d="M121.75,303.7c-3.91,1.87-10.81,1.97-15.62,4.23l-5.31,2.5c.72,1.06,1.01,2.03.73,3.05-.5,1.85.25,3.17.4,5.03l.4,4.9c1.16,4.51,3.03,11.29-.35,12.5-2.67.96-8.14-5.56-9.61-11.02l-3.28-12.19-.84-3.72-1.85-7.51-.97-7.04-1.45.85-6.46-3.76-5.32-3.51-12.74-8.98-7.48-5.57-13.61-9.9-.58,5.97.09,2.93c.47,4.97.76,9.59.66,14.66-.04,1.97.19,4.3-.99,5.97-1.25,1.78-4.73,1.87-6.16.21-1.84-2.14-2.2-5.05-2.62-7.71l-1.14-7.25-.52-4.27-.77-8.05-.88-7.03-.85-8.07-.42-5.31-.44-6.76-.4-6.11-.46-6.84-.38-5.1-.31-13.63-.51-8.76-.39-6.7-.2-11.95c-3.6-2.66-7.43-4.77-11.36-6.77l-5.34-2.71c-.51-.26-1.4-.99-1.63-1.46-.26-.54.1-1.72.34-2.44.5-1.49,1.15-2.13,2.65-2.6l6-1.88,6.07-2.11,9.54-3.13,4.9-2.17,5.86-2.81,17.16-7,13.91-5.48c15.06-5.94,29.93-11.39,44.76-17.94.97-.43,2.9.18,3.76.59l1.28,6.85,19.27,2.76,1.09-.39c.21-.08.51,1.04.46,1.28l-1.81,7.89,6.34,1.51,13.31,3.22,8.41,2.37c3.08.87,4.01,4.37,6.39,3.09l2.15,1.69,2.52,2.11c.2.18.42.38.43.37.02-.01-.33.41-.43.5l-1.68,1.43c-.46.4.24,1.96.34,2.58l1.19,7.27,2.2,9.11c.87,3.58,2.09,7.16,3.65,10.42-.05.73,0,1.96.23,2.64l1.99,5.81,5.7,17.28,4.42,12.19,2.4,9,3.5,12.48,4.15,13.06c1.3-2.36,1.9-5.19,4.36-5.44l7.14-.72c5.06-.51,9.7-1.24,14.49-2.84l7.27-2.43,6.6-2.81,1.12,3.58c1,1.73,4.07,2.06,5.96,2.22l.92.08c.22.02.49.55.32.68l-.78.6,1.51.59c.34.13-.04,1.25-.04,1.59.98.79,1.95,1.75,1.73,3.18l4.09.74c.19.04.61.28.5.44s-.45.56-.59.69l-1.24,1.12c-.87.79,4.42,2.13,6.02,4.16.77.97-.99,1.87-1.75,1.98l-7.74,1.07-22.9,3.8-5.58.63c-5.07,1.28-9.74.73-14.68-.33-3.89-.84-6.83-2.88-6.95-7.66l-14.11,7.09-7.39,3.53c-12.62,5.03-24.4,11.17-36.4,17.49l-12.95,6.3-12.45,5.96ZM10.32,172.17c3.8,2.04,6.7,3.99,10.08,6.13l7.95,5.03,10.1,6.3,5.21,1.93,6.92,3.94c1.08.61,1.93,1.23,2.93,2.03,1.87.93,4.89,1.83,6.93,1.99,1.76.13,2.98.15,4.52.85l3.7,1.69c.09-2.39-.54-3.01-2.1-4.27.65-.85,1.73-1.29,2.87-1.81l10.42-4.71,19.19-8.8,38.47-17.55,18.48-7.54,14.11-6.12-3.59-3.1-8.63-2.31-17.12-4.31c-.7-.18-1.8-.05-2.82.05-.44-.95-.49-2.53-.2-3.74l1.35-5.56-20.56-2.92-1.59-7.35-4.66,1.42-21.21,8.86-16.75,6.31-33.79,13.49-15.26,6.46-7.53,2.67-4.94,1.73-8.73,2.64c2.16,1.65,4.28,2.13,6.36,3.14l7.86,3.82c.63.31,1.73.55,2.45.65.42.06,1.11.86,1.52,1.11,4.87,3.04,10.23,4.66,15.09,7.56l6.07,3.62,9.28,4.54,3.08,1.5c3.08,1.49,5.83,2.99,9.12,3.89l-.2,1.21-8.33-3.37-9.79-4.84-13.16-7.3-15.89-8.01-3.32-1.71c-1.03-.53-3.23-.35-4.24-1.16-5.62-4.52-7.41-2.23-6.03-1.48l6.34,3.41ZM89.72,191.77l9.04-4.66,9.97-4.04,5.39-1.91c9.62-3.41,18.84-7.26,28.1-11.64l9.33-4.41,15.45-6.78,8.9-3.9c-1.11-1.41-2.37-2.37-3.87-2.83l-11.59,5.05-2.26.96-24.08,9.98-29.09,13.54-19.54,8.91-16.76,7.69,1.59,4.55,11.29-6.33,8.13-4.17ZM176.82,199.37c.3-.22.7-.36.83-.17l.33.49c.1.14-.48.64-.64.72l-7.78,3.87-7.8,3.81-11.56,4.89-9.81,4.76-6.8,3.23-13.94,6.66-10.61,5.71-7.17,4.01-5.12,2.42c-3.01,1.42-5.8,2.73-8.54,4.53l-1.21.8c-.28.19-.11,1.27.07,1.61l1.37,2.63,14.44-7.45,8.77-4.12,9.12-4.29,36.71-16.49,17.01-7.64c3-1.35,5.8-3.17,9.11-3.53,1.36-.15,2.56-.56,3.59-1.47l-6-17.32c-.36-1.05-.44-1.93-.14-2.91l-2.84-9.67-2.32-10.11-1.42-7.77c-1.98.59-2.2,1.93-1.87,3.89-1.13-.03-1.62-.63-1.99-2.22l-14.51,6.16-20.47,9.59-12.43,5.17-14,5.17-9.94,4-15.99,7.97-4.05,2.53c1.45,1.71.25,3.96.71,5.79l4.07,16.31c.35,1.4-.36,2.62-.29,3.74l.43,6.54,1.52,8.36.94,4.39,5.26-3.08,9.63-4.58,6.42-3.54,7.16-3.83,7.25-3.96,10.89-5.06,12.43-5.93,5.61-2.71,17.13-7.57c2.96-1.31,5.78-2.41,8.43-4.35ZM36.79,273.18l-.16-12.91-.35-2.57c.27-7.01-2.21-10.56-1.5-16.32.5-4.07-.46-7.96-.49-12.02l-.02-3.24c-.04-5.53.51-10.85-.1-16.46l-1.49-13.62-.56-7.14c-.05-.68-.26-1.95-.77-2.3l-3.67-2.52-5.38-3.49.1,7.26.43,9.22.45,7.09.3,8.43.48,8.32.47,7.45.55,7.25.34,4.26.5,8.69.91,9.65,1,8.32c.93,7.73,1.55,25.69,6.26,26.62,5.48,1.09,2.76-14.32,2.69-19.98ZM79.85,268.97l4.84,19.4,2.03,9.51.73,5.95c.16,1.32,1.28,2.55,1.55,3.62l2.89,11.46,1.51,5.18c1.32,4.52,3.96,8.63,8.15,11.03,1.91-1.86,1.34-4.14.66-6.27-.97-3.05-.99-6.21-1.21-9.54l-.7-2.96c.07-2.35-.03-4.61-.45-6.79l-2.12-10.96-2.12-11.45-1.96-11.3-3.74-14.32c-.58-2.22-1.58-4.04-1.89-6.44-.19-1.47-.9-3.14-1.49-4.26.61-1.96.02-3.78-1.32-5.05.14-1.35.16-3.41-.29-4.97-1.68-5.79-1.87-11.42-2.86-17.35l-.83-4.99-.99-5.55c-.76-4.27-2.25-8.14-4.1-12.26l-4.79,2.53c-.34.18-.95.92-1.28.78l-1.25-.54-3.92-1.7c-1.02-.45-2.51-.18-3.51-.49l-9.39-2.86c-1.43-.44-3.81-3.19-8.59-5.45l-9.8-4.62c-.15,2.29.02,4.02.24,5.89l1.37,11.67.53,7.55.14,7.13-.15,3.35.09,6.56.48,9.62c-.28,2.88-.12,5.07.34,7.92l.89,5.48.28,6.36,1.54,2.38,10.52,7.62c.87.63,1.55,1.6,1.95,2.56l6.99,5.2,17.94,12.55,7.96,4.48-2.26-9.5-1.18-5.05-1.76-7.64-10.46-41.62-1.24-6.72-.7-3.61-3.26-13.05c-.07-.19.55-.92.87-.92s.5.47.67,1.03l2.65,7.64c.29.83.19,1.68-.24,2.45l1.68,8.93,2.42,11.9,1.56,6.43.73,2.86,5.63,21.22ZM107.22,306.74l11.22-3.31c2.38-.7,4.45-1.61,6.7-2.69l16.09-7.74,9.37-4.57,13.86-7.03,9.91-4.69,9.39-4.13,7.71-3.61,13.74-7.11-3.04-9.51-6.03-20.98-2.63-8.88-.83-2.37-2.93-7.64-2.28,1.18-11.32,3.46-13.45,4.6-19.79,7.85-7.5,2.83-14.49,5.22-12.49,5.59-12.81,4.66-7.27,2.81c.33,3.38,1.43,6.04,2.3,9.14l3.73,13.18,4.01,21.78,1.13,8.36c.29,2.18.7,4.35,1.34,6.48l6.35-2.86ZM259.36,265.52c1.85-.32,3.09-.4,5.04-1.02-2.24-2.24-7.49-3.69-6.64-4.88l1.15-1.6c-.91-.15-2.86-.54-3.59-1.01l-1.84-3.62c-.2-.39-.39-1.19-.73-1.27l-1.39-.33.21-.91-6.27-2.19-.2-3.07c-1.12-.02-2.49.1-3.45.62-3.9,2.13-7.76,3.18-11.93,4.47-4.43,1.37-8.92,1.81-13.56,2.28l-7.2.73c-2.07,1.64-3.15,4.79-2.59,7.26l.5,1.12c.1.23-.76.74-.84,1.05-.59,2.22.93,5.73,3.65,6.34l7.08,1.59c2.29.51,5.05.17,7.29-.11l9.81-1.23,16.11-2.62,9.38-1.61Z"/>
    <path class="st0" d="M107.22,306.74l-6.35,2.86c-.64-2.14-1.05-4.3-1.34-6.48l-1.13-8.36-4.01-21.78-3.73-13.18c-.88-3.09-1.97-5.75-2.3-9.14l7.27-2.81,12.81-4.66,12.49-5.59,14.49-5.22,7.5-2.83,19.79-7.85,13.45-4.6,11.32-3.46,2.28-1.18,2.93,7.64.83,2.37,2.63,8.88,6.03,20.98,3.04,9.51-13.74,7.11-7.71,3.61-9.39,4.13-9.91,4.69-13.86,7.03-9.37,4.57-16.09,7.74c-2.25,1.08-4.32,1.99-6.7,2.69l-11.22,3.31ZM142.44,253.63c1.71,1.59,7.87-.55,8.83-3.62.53-1.7.25-3.23-.55-4.98l-1.91-4.16-3.6,1.26-2.47,1.34-5.96-2.75c.94,2.98,5.83,2.54,5.01,4.49-.09.22-.72.92-.95.87l-4.85-1.08c-.2-.07-.2.95.05,1.01l4.67,1.16c-.19,2.36-.01,4.82,1.74,6.45Z"/>
    <path class="st0" d="M10.32,172.17l-6.34-3.41c-1.38-.74.41-3.04,6.03,1.48,1.02.82,3.21.63,4.24,1.16l3.32,1.71,15.89,8.01,13.16,7.3,9.79,4.84,8.33,3.37.2-1.21c-3.29-.9-6.04-2.4-9.12-3.89l-3.08-1.5-9.28-4.54-6.07-3.62c-4.86-2.9-10.22-4.52-15.09-7.56-.41-.25-1.11-1.06-1.52-1.11-.72-.1-1.81-.35-2.45-.65l-7.86-3.82c-2.07-1.01-4.19-1.49-6.36-3.14l8.73-2.64,4.94-1.73,7.53-2.67,15.26-6.46,33.79-13.49,16.75-6.31,21.21-8.86,4.66-1.42,1.59,7.35,20.56,2.92-1.35,5.56c-.3,1.22-.24,2.79.2,3.74,1.02-.1,2.12-.23,2.82-.05l17.12,4.31,8.63,2.31,3.59,3.1-14.11,6.12-18.48,7.54-38.47,17.55-19.19,8.8-10.42,4.71c-1.14.52-2.22.95-2.87,1.81,1.56,1.26,2.2,1.89,2.1,4.27l-3.7-1.69c-1.54-.71-2.76-.72-4.52-.85-2.04-.15-5.06-1.05-6.93-1.99-1-.8-1.85-1.42-2.93-2.03l-6.92-3.94-5.21-1.93-10.1-6.3-7.95-5.03c-3.38-2.14-6.28-4.09-10.08-6.13Z"/>
    <path class="st0" d="M176.82,199.37c-2.65,1.94-5.47,3.04-8.43,4.35l-17.13,7.57-5.61,2.71-12.43,5.93-10.89,5.06-7.25,3.96-7.16,3.83-6.42,3.54-9.63,4.58-5.26,3.08-.94-4.39-1.52-8.36-.43-6.54c-.07-1.12.63-2.35.29-3.74l-4.07-16.31c-.46-1.83.74-4.07-.71-5.79l4.05-2.53,15.99-7.97,9.94-4,14-5.17,12.43-5.17,20.47-9.59,14.51-6.16c.37,1.59.87,2.19,1.99,2.22-.33-1.96-.11-3.29,1.87-3.89l1.42,7.77,2.32,10.11,2.84,9.67c-.3.98-.23,1.86.14,2.91l6,17.32c-1.03.91-2.22,1.32-3.59,1.47-3.31.36-6.11,2.18-9.11,3.53l-17.01,7.64-36.71,16.49-9.12,4.29-8.77,4.12-14.44,7.45-1.37-2.63c-.18-.34-.36-1.43-.07-1.61l1.21-.8c2.74-1.8,5.53-3.11,8.54-4.53l5.12-2.42,7.17-4.01,10.61-5.71,13.94-6.66,6.8-3.23,9.81-4.76,11.56-4.89,7.8-3.81,7.78-3.87c.16-.08.73-.58.64-.72l-.33-.49c-.13-.19-.53-.05-.83.17ZM139.34,198.22l-1.67-4.5-3.1-.77c-2.35-.58-4.19,1.97-5.17,3.66-1.27,2.2-1.64,4.22,0,5.96,1.49,1.57,3.19,2.01,5.5,1.27s5.55-2.63,4.44-5.62Z"/>
    <path class="st0" d="M79.85,268.97l-5.63-21.22-.73-2.86-1.56-6.43-2.42-11.9-1.68-8.93c.43-.77.53-1.63.24-2.45l-2.65-7.64c-.16-.55-.34-1.03-.67-1.03s-.94.73-.87.92l3.26,13.05.7,3.61,1.24,6.72,10.46,41.62,1.76,7.64,1.18,5.05,2.26,9.5-7.96-4.48-17.94-12.55-6.99-5.2c-.4-.96-1.08-1.92-1.95-2.56l-10.52-7.62-1.54-2.38-.28-6.36-.89-5.48c-.46-2.85-.62-5.04-.34-7.92l-.48-9.62-.09-6.56.15-3.35-.14-7.13-.53-7.55-1.37-11.67c-.22-1.87-.39-3.6-.24-5.89l9.8,4.62c4.78,2.26,7.16,5.01,8.59,5.45l9.39,2.86c1.01.31,2.49.04,3.51.49l3.92,1.7,1.25.54c.33.14.94-.6,1.28-.78l4.79-2.53c1.84,4.13,3.33,8,4.1,12.26l.99,5.55.83,4.99c.99,5.94,1.18,11.56,2.86,17.35.45,1.56.44,3.61.29,4.97,1.34,1.26,1.93,3.08,1.32,5.05.59,1.13,1.3,2.8,1.49,4.26.31,2.4,1.31,4.21,1.89,6.44l3.74,14.32,1.96,11.3,2.12,11.45,2.12,10.96c.42,2.19.52,4.45.45,6.79l.7,2.96c.21,3.33.24,6.49,1.21,9.54.68,2.13,1.25,4.41-.66,6.27-4.18-2.4-6.83-6.51-8.15-11.03l-1.51-5.18-2.89-11.46c-.27-1.07-1.39-2.3-1.55-3.62l-.73-5.95-2.03-9.51-4.84-19.4Z"/>
    <path class="st0" d="M36.79,273.18c.07,5.65,2.79,21.06-2.69,19.98-4.71-.93-5.33-18.9-6.26-26.62l-1-8.32-.91-9.65-.5-8.69-.34-4.26-.55-7.25-.47-7.45-.48-8.32-.3-8.43-.45-7.09-.43-9.22-.1-7.26,5.38,3.49,3.67,2.52c.51.35.72,1.61.77,2.3l.56,7.14,1.49,13.62c.61,5.6.06,10.93.1,16.46l.02,3.24c.03,4.06.99,7.95.49,12.02-.71,5.76,1.77,9.32,1.5,16.32l.35,2.57.16,12.91Z"/>
    <path class="st0" d="M89.72,191.77l-8.13,4.17-11.29,6.33-1.59-4.55,16.76-7.69,19.54-8.91,29.09-13.54,24.08-9.98,2.26-.96,11.59-5.05c1.5.46,2.76,1.43,3.87,2.83l-8.9,3.9-15.45,6.78-9.33,4.41c-9.26,4.38-18.48,8.23-28.1,11.64l-5.39,1.91-9.97,4.04-9.04,4.66Z"/>
    <path d="M142.44,253.63c-1.76-1.63-1.94-4.09-1.74-6.45l-4.67-1.16c-.25-.06-.24-1.08-.05-1.01l4.85,1.08c.24.05.86-.64.95-.87.82-1.95-4.06-1.51-5.01-4.49l5.96,2.75,2.47-1.34,3.6-1.26,1.91,4.16c.8,1.74,1.08,3.28.55,4.98-.96,3.06-7.12,5.21-8.83,3.62ZM143.77,252.94c1.85-.09,4.83-1.02,5.77-2.46,1.79-2.76-.11-6.79-2.85-7.42-.34-.08-1.58.35-1.5.68l.42,1.67-2.25-.48c-1.86,2.12-2.36,6.03.41,8.01Z"/>
    <path d="M139.34,198.22c1.11,2.99-2.15,4.89-4.44,5.62s-4,.3-5.5-1.27c-1.65-1.73-1.28-3.76,0-5.96.98-1.7,2.82-4.25,5.17-3.66l3.1.77,1.67,4.5ZM138.37,198.62c-.08-1.07-.86-2.84-1.49-3.74-.52-.75-2.88-1.24-3.68-.74-1.65,1.03-3,2.94-3.48,4.77-.33,1.26.33,2.81,1.24,3.42,2.6,1.75,7.61-1,7.41-3.72Z"/>
    <path class="st0" d="M143.77,252.94c-2.77-1.98-2.27-5.89-.41-8.01l2.25.48-.42-1.67c-.08-.32,1.16-.76,1.5-.68,2.74.64,4.64,4.67,2.85,7.42-.94,1.44-3.93,2.36-5.77,2.46Z"/>
    <path class="st0" d="M138.37,198.62c.2,2.72-4.81,5.47-7.41,3.72-.91-.61-1.57-2.16-1.24-3.42.48-1.84,1.83-3.75,3.48-4.77.8-.5,3.16-.01,3.68.74.62.9,1.41,2.67,1.49,3.74Z"/>
  </g>
  <g>
    <path d="M257.17,244.48l1.66,3.17,2.88-2.61c.44-.4,1.87.65,2.29,1.05l2.98-7.25,1.37-3.67,1.25-3.91,1.25-3.73,2.63-7.34,2.95-7.94,2.31-6.41,1.83-4.07,2.14-4.05,2.59-6.67,1.53-3.51-7.25-.63c-6.44-.56-12.5-1.78-18.74-3.34l-10.74-1.49-2.39-.78c-1.48.59-3.24.38-4.8.08l-2.86-.55-5.85-.75-2.36,7.36-4.85,13.82-3.33,8.75c-2.81,7.38-9.86,30.48-16.77,25.63-2.25-1.58-2.04-5.89-1.32-9.17l1.41-6.38,8.62-29.16,2.52-7.61,2.25-7.15c-.92-1.35-2.82-.79-4.07-1.09l-8.9-2.12-7.26-1.51-8.44-1.67-4.49-.74.36-8.3,1.87-3.43c.14-.25.27-1.23.05-1.37l-.96-.62-6.76-3.71c-2.83-1.55-6.4-2.26-8.83-4.5-1.88-1.73-1.37-4.7-.9-7.33l-17.75-2.93,6.35-7.44c-4.42-1.01-9.51-1.68-13.8-3.97-2.32-1.24-4.34-2.77-6.98-3.47-1.86-.5-2.94-1.24-3.61-3.33l17.43-1.94,19.5-1.14,17.32-2.36,12.97-2.25c.9-.16,1.95-.89,3.17-.64,4.15.85,6.34-.24,9.83.6l6.87,1.65c3.96.95,8.56,1.14,12.29,2.68,4.39,1.81,7.46,6.26,11.33,8.86l6.85,4.61,5.43,3.75,8.02,6.09,7.59,7.1,6.73,5.82,3.45,4.06,3.79,4.55c1.41,1.7,2.84,2.96,4.43,4.45l6.05,5.67c1.09,1.02,1.14,2.87.68,4.15l-1.78.25c-1.42,4.8-3.87,8.98-7.09,12.76l-3.49.2-1.48,3.33-1.34,4.68-3.54,8.52-2.29,5.61-3.72,10.08-4.25,11.63-4,11.11-1.38,3.43-.27,2.73-3.44-3.13-3.12,3.32-2.86-4.82-2.67,3.46c-.43-.49-1.07-1.3-1.42-1.51l-5.45-3.29c-.82.85-1.86,1.35-2.64,1l2.06-8.74,3.36-8.37,3.64-11.49,2-7.62,2.16-9.56,3.1-11.16c.27-.96-.27-2.24,1.36-2.61l-1.15,4.74c-.21.85-.18,1.92.12,2.78l-3.28,12.51-1.82,8.18-3.06,10.36-3.31,8.75-2.95,8.89c.87,1.79,2.99,2.88,4.66,3.99l2.75,1.84,1.65-2.5c.33-.5,1.81.26,2.08.78ZM292.26,170.31l6.55.34-5.65-5.21-4.48-4.32c-2.61-2.52-4.23-6.13-7.14-8.35l-5.24-4-7.95-7.89-10.34-7.66-9.87-6.92-11.42-9.19c-2.45-.19-5.18.66-6.84,1.81,1.79.92,3.38,1.94,3.98,3.26.13.6-1.41,1.64-2.07,1.82l1.67,2.78c.3.5-1.22,1.89-1.51,1.76.77-1.63.66-2.59-.5-3.53-.29-.23-.96-1.1-.65-1.28l1.13-.67,1.2-.71c.26-.15-.58-.93-.93-1.16l-3.77-2.39,5.68-2.78-9.2-1.93-11.51-2.35h-4.83c-3.54-.84-6.2.36-9.51.92l-14.6,2.48-18.65,1.97-9.53.43-18.79,1.99,1.15,1.25c3.42.73,6.33,2.68,9.35,4.32,4.35,2.37,9.41,2.6,14.19,3.91l-6.25,7.13,16.67,2.95-.25,4c-.11,1.82.58,3.66,2.24,4.46l3.92,1.91c3.85,1.41,7.33,3.08,10.5,5.3l.39-2.35c.06-.35,1.48-.03,1.69.06l16.27,4.26,11.44,2.84,6.11,2,19.02,3.18,15.81,2.14,6.69.27,14.33,2.21,11.5.91ZM298.32,171.55l-7.09-.52-12.43-1.07-16.83-2.6-1.74,1.06-11.54-1.72-14.16-2.37-7.32-1.21c-3.04-.5-5.54-2.05-8.53-2.75l-8.14-1.89-9.08-2.39-5.85-1.6-5.62-1.57.1,2.14,13.1,3.34,19.89,5.65c3.19.91,5.98,1.65,9.32,1.78,4.26.17,8.29,1.4,12.46,2.4l3.4.81,6.17.97,6.84.6,7.73.25,11.77.59,10.28,1.29c2.47.31,5.68,1.06,8.03.88.4-.03.61-1.43.3-1.58l-1.05-.5ZM290.77,186.54c3.12-3.44,5.32-7.57,6.65-11.98-11.74-1.88-23.54-3.76-34.26-2.63l-5.06-.28-7.78-.93-13.87-3.07-5.56-.59c-1.06-.11-2.73-.18-3.51-.6-2.75-1.45-6.04-1.95-9.05-2.83l-9.7-2.82-11.53-3.21-6.49-1.63-1.84,4.4c-.93,2.24-.66,5.62-.91,8.01l8.42,1.47,15.19,3.23c2.19.98,4.48,1.41,6.75,1.11,3.27,1.54,6.45,2.2,9.84,2.85l15.54,2.95,4.06.45c2.52.69,4.61,1.29,7.18,1.62l6.7.86,15.08,2.92c4.69.52,9.47,1.1,14.15.7ZM225.24,203.2l3.48-10.42c-1.55.47-2.67.98-3.77,1.65l-.44,3.65-3.25,3.44-.32-.61,2.84-3.4.35-3.54,5.17-2.52,1.44-4.41.97-3.13,1.35-4.97-10.93-1.63c.06-.19-.39-.76-.89-1.16l-4.22,12.85-1.57,5.76-.96,3.25-1.24,4.26-1.1,3.88-2.08,7.47-3.33,13.45c-.89,3.6-.56,7.85,1.88,8.02,3.31.22,6.15-6.75,8.2-10.83,2.4-4.76,3.67-9.65,5.72-14.57l2.71-6.49Z"/>
    <path class="st0" d="M259.36,265.52l-9.38,1.61-16.11,2.62-9.81,1.23c-2.24.28-5.01.62-7.29.11l-7.08-1.59c-2.72-.61-4.24-4.12-3.65-6.34.08-.3.95-.81.84-1.05l-.5-1.12c-.56-2.46.53-5.61,2.59-7.26l7.2-.73c4.64-.47,9.13-.92,13.56-2.28,4.17-1.29,8.02-2.34,11.93-4.47.96-.52,2.33-.64,3.45-.62l.2,3.07,6.27,2.19-.21.91,1.39.33c.34.08.53.88.73,1.27l1.84,3.62c.72.46,2.68.85,3.59,1.01l-1.15,1.6c-.85,1.19,4.4,2.63,6.64,4.88-1.94.62-3.19.7-5.04,1.02Z"/>
    <path class="st0" d="M292.26,170.31l-11.5-.91-14.33-2.21-6.69-.27-15.81-2.14-19.02-3.18-6.11-2-11.44-2.84-16.27-4.26c-.21-.09-1.63-.42-1.69-.06l-.39,2.35c-3.17-2.22-6.66-3.89-10.5-5.3l-3.92-1.91c-1.66-.81-2.35-2.65-2.24-4.46l.25-4-16.67-2.95,6.25-7.13c-4.78-1.31-9.84-1.54-14.19-3.91-3.01-1.64-5.92-3.58-9.35-4.32l-1.15-1.25,18.79-1.99,9.53-.43,18.65-1.97,14.6-2.48c3.31-.56,5.97-1.76,9.51-.91h4.83s11.51,2.34,11.51,2.34l9.2,1.93-5.68,2.78,3.77,2.39c.36.23,1.19,1.01.93,1.16l-1.2.71-1.13.67c-.3.18.36,1.05.65,1.28,1.16.94,1.27,1.89.5,3.53.29.13,1.81-1.26,1.51-1.76l-1.67-2.78c.66-.19,2.2-1.22,2.07-1.82-.6-1.33-2.19-2.34-3.98-3.26,1.66-1.14,4.38-2,6.84-1.81l11.42,9.19,9.87,6.92,10.34,7.66,7.95,7.89,5.24,4c2.91,2.22,4.53,5.84,7.14,8.35l4.48,4.32,5.65,5.21-6.55-.34Z"/>
    <path class="st0" d="M290.77,186.54c-4.68.4-9.46-.19-14.15-.7l-15.08-2.92-6.7-.86c-2.56-.33-4.66-.92-7.18-1.62l-4.06-.45-15.54-2.95c-3.4-.64-6.57-1.3-9.84-2.85-2.28.3-4.56-.13-6.75-1.11l-15.19-3.23-8.42-1.47c.25-2.39-.03-5.77.91-8.01l1.84-4.4,6.49,1.63,11.53,3.21,9.7,2.82c3.01.88,6.3,1.37,9.05,2.83.78.41,2.45.48,3.51.6l5.56.59,13.87,3.07,7.78.93,5.06.28c10.72-1.13,22.51.75,34.26,2.63-1.32,4.41-3.53,8.54-6.65,11.98ZM232.21,172.14c.44-.83.18-2.79-.35-3.52-2.89-.83-6.3,2.34-5.52,4.08.96,2.11,5.07.93,5.87-.56Z"/>
    <path class="st0" d="M225.24,203.2l-2.71,6.49c-2.05,4.92-3.33,9.81-5.72,14.57-2.05,4.08-4.89,11.05-8.2,10.83-2.44-.16-2.77-4.42-1.88-8.02l3.33-13.45,2.08-7.47,1.1-3.88,1.24-4.26.96-3.25,1.57-5.76,4.22-12.85c.51.39.96.97.89,1.16l10.93,1.63-1.35,4.97-.97,3.13-1.44,4.41-5.17,2.52-.35,3.54-2.84,3.4.32.61,3.25-3.44.44-3.65c1.1-.67,2.22-1.18,3.77-1.65l-3.48,10.42Z"/>
    <path class="st0" d="M298.32,171.55l1.05.5c.31.15.1,1.55-.3,1.58-2.36.18-5.56-.57-8.03-.88l-10.28-1.29-11.77-.59-7.73-.25-6.84-.6-6.17-.97-3.4-.81c-4.16-1-8.2-2.23-12.46-2.4-3.34-.14-6.13-.88-9.32-1.78l-19.89-5.65-13.1-3.34-.1-2.14,5.62,1.57,5.85,1.6,9.08,2.39,8.14,1.89c2.99.69,5.49,2.24,8.53,2.75l7.32,1.21,14.16,2.37,11.54,1.72,1.74-1.06,16.83,2.6,12.43,1.07,7.09.52Z"/>
    <path d="M232.21,172.14c-.79,1.49-4.91,2.67-5.87.56-.79-1.73,2.62-4.91,5.52-4.08.53.72.8,2.69.35,3.52ZM231.41,170.66c-1.49-.37-2.43-.39-3.08.04-.47.32-.8,1.72-.47,2.12,1.67.23,3.3-.57,3.54-2.16Z"/>
    <path class="st0" d="M231.41,170.66c-.24,1.59-1.87,2.39-3.54,2.16-.34-.39,0-1.8.47-2.12.64-.44,1.58-.41,3.08-.04Z"/>
  </g>
</svg>