<?xml version="1.0" encoding="UTF-8"?>
<svg id="Layer_1" xmlns="http://www.w3.org/2000/svg" version="1.1" viewBox="0 0 303.01 435.26">
  <!-- Generator: Adobe Illustrator 30.4.0, SVG Export Plug-In . SVG Version: 2.1.4 Build 226)  -->
  <defs>
    <style>
      .st0 {
        fill: #fff;
      }
    </style>
  </defs>
  <g>
    <path d="M206.54,265.43l16.97-3.71,16.38-4.36,3.56-.68,3.56-.83-1.73-3.88-2.55-7.88c-.52-.83-1.57-2.25-1.89-3.33l-1.04-3.44-1.78-4.89-21.24,3.67-6.23.77-5.49.93-9.71,1.4-5.61.13-.37,2.64-3.23-9.16-5.48-18.75-3.22-8.96-2.17-7.48.43-.79.98,2.81,2.69,8.46,6.72,21.34,9.93-2.67,12.96-2.79,7.93-1.74,17.57-3.29c1.2-1.14-.49-2.52-.71-3.32l-2.45-8.96-1.31-4.53-1.56-4.74-1.65-5.8c-.37-1.3-1.79-3.69-1.18-5.03l3.69-7.99,6.27-13.46,2.54-.77-1.46-18.27,3.92-2.02,2.39-.73-.04-9.44-.32-6.62c-.06-1.18-.13-1.93-.51-3.04l2.53-1.3,9.13,12.77c.23.59.8,1.57,1.14,2.12l7.71,12.46,8.29,11.45,7.99,10.22c.94,1.75,2.2,3.3,3.78,4.03l3.61,7.53,2.91,9.05,3.11,9.63c.53,1.64.44,3.81.01,5.7-1.42,6.24-2.49,12.24-2.9,18.67l-1.55,12.04c-.5,3.9-1.7,7.43-2.58,11.27l-2.08,9.08-3.49,8.67-1.24,3.94-3,11.18c-.15.57-1.12,1.25-1.62,1.37-.63.16-1.81-.21-2.42-.64-4.56.28-8.83.44-13.5-.27l-1.93-3.04-9.42,1.45-9.09.93-12.65,1.98c-3.64.57-7.04-.19-10.71-.35l-4.72-.2c-4.09.28-7.94,1.19-11.78,2.41-2.41.76-4.73.73-7.21.96l-9.54.9,1.82-2.54-3.94,1.27c-.05-.92.5-1.9,1.25-2.64l1.71-1.68-1.62-.48c-.23-.07-.24-.66-.26-1.03l2.88-3.1-4.03-.74.44-2.25-2.06-.86c.38-1.68,1.89-2.56,3.63-2.87l5.15-.9,6.81-1.63,6.39-1.71,7.51-1.6ZM274.95,280.2l1.3-4.21,2.43-8.77,3.1-8.29,2.49-11.13,1.62-5.88,2.15-17.42.42-3.82,2.26-12.45c.86-4.74-3.74-6.68-3.67-6.76-.69.71.19,5.19-2.22,4.44l-1.28-.4c-.71-.22-.73,2.47-2.78,2.16l-1.02-.16c-.18-.03-.24-.84-.05-.87l1.18-.17c.87-.12,1.39-1.78,1.65-3.26l2.67,1.34c1.23-1.74-.42-3.68,1.11-4.86l4.12,2.35-5.53-17.83-2.79-5.45c-1.06-2.06-2.26-4.19-3.95-5.75-3.8-3.49-6.2-7.85-9.43-11.84-4.33-5.35-7.84-10.86-11.41-16.69l-4.95-8.09-8.17-11.29c-.29,2.17.12,3.35.5,5.08l-.37,5.13c.43,4.13,1.53,7.88,2.86,11.66.27.78.36,1.77.32,2.47l-8.44-1.92,1.77,5.25,3.3,9.78-3.16,1.48c-2.04.96-3.16,2.27-3.05,4.65l.15,3.5c.59,3.66.82,7.01.59,10.52l1.87-.38c.27-.06.73.87.79,1.14l2.32,10.11,1.58,5.4c.65,2.23.68,4.43,1.52,6.58.66,1.7,1.32,3.55,1.44,5.31.13,1.9.41,3.49,1.02,5.26l3.96,11.4,2.09,5.97,5.22,13.86,1.94,3.13,3.78,10.55.94,2.51,3.15,7.62,3.5,7.12,1.16,1.89ZM238.82,146.15c3.05,1.11,4.76,1.39,7.34,1.51l-1.41-4.48c-2.03,1.8-4.39,1.23-5.93,2.97ZM242.84,162.26l-2.1-6.15c-.72-2.11-.95-4.1-2.42-6.05-.36,1.81-.38,2.98-.25,4.35l.93,9.19,3.84-1.34ZM234.05,184.55l3.2-.35c.61-3.01.31-5.86.15-8.83l-.53-10.23-3.94,7.75-6.41,13.79c2.26.71,4.15-1.77,7.52-2.14ZM263.23,255.98l-1.98-5.12c-.37-.97-.89-1.62-1.88-2.02l-4.49-11.94-2.68-7.64-3.63-10.66c-.91-2.67-1.29-5.07-1.47-8.05l-2.32-7.67c-.32-2.97-1.38-5.47-2.04-8.32l-1.42-6.13-.89-4.01c-.08-.37-.92-.88-1.14-.62s-.37.98-.29,1.32l1.47,5.9,2.18,8.59,1.21,6.36,2.64,9.71.76,4.39c2.7,6.04,4.64,11.9,6.28,18.37,1.12,4.4,2.95,8.74,5.05,12.82l2.95,5.72,4.48,7.95-2.8-8.95ZM258.22,282.06c4.33.61,8.15.97,12.47,0l-1.81-5.7-5.81-14.09-4.58-8.46-2.41-4.24-4.15-10.76-2.27-8.44-1.64-4.34-1.56-3.6-2.99-13.16-.91-3.93-1.99-9.95-2.71-10.09-4.73.63-6.35,2.49,3.29,10.06,2.03,6.67,2.54,9.1c.27.97,1.3,2.07,1.3,3.21,0,2.64.69,4.88,1.49,7.33l4.75,14.68,1.9,4.35c.24,2.87,1.22,5.03,2.32,7.73l1.22,2.98,4.86,15.09,3.28,7.83,2.49,4.58ZM218.44,234.47c1.9-.27,3.48-.51,5.31-1.24-.45-1.19-2.21-2.19-3.08-1.67-1.89,1.14-3.11,1.16-5.08.33l-1.3-.54c-.3-.13.5-1.23.79-1.08,3.87,1.96,4.93-.17,7.45.02l3.82,2.95,9.94-2.13c.47-.1,1.19-.55,1.33-.88.11-.25,0-.97-.11-1.22l-3.47-8.73-3.65.54-9.81,1.89-8.32,1.85-5.09,1.2-20.8,5.27,2.4,6.96,4.76-.33,5.59-.44,4.9-.73,4.87-.9,3.83-.28,5.71-.82ZM184.2,282.21l-3.43,2.39,3.15.34-.68,2.18,4.05-.46c10.52.14,17.14-4.8,27.32-3.43,2.24.3,4.91,1.28,7.02.31,1.14-.52,1.92-.76,3.16-.95l12.43-1.9,3.71-.26,3.41-.03,6.79-.78,4.01-.73-2.58-5.93c-2.25-5.18-4.03-10.5-5.52-15.85l.15-.83c.03-.18-.87-.16-.87.03v1s-3.6.84-3.6.84l-4.16.59-6.24,1.6-10.61,2.84-7.77,1.71-9.27,1.9-8.16,1.89-8.24,2.12-5.39,1.15-4.55.83c.84,1.08,1.35,1.29,2.6,1.74l-1.42,1.82,4.07,1.13c-.54,1.47-1.33,2.36-2.51,3.6.96.6,1.3.7,2.86.69l.27.47ZM273.64,280.97l-1.59-3.37-2-3.59c-.41,1.7-.22,2.04.23,3.14l2.35,5.72c.15.36,1.66-.28,1.52-.63l-.51-1.27Z"/>
    <path class="st0" d="M274.95,280.2l-1.16-1.89-3.5-7.12-3.15-7.62-.94-2.51-3.78-10.55-1.94-3.13-5.22-13.86-2.09-5.97-3.96-11.4c-.62-1.78-.9-3.37-1.02-5.26-.12-1.75-.78-3.6-1.44-5.31-.83-2.15-.86-4.35-1.52-6.58l-1.58-5.4-2.32-10.11c-.06-.27-.52-1.2-.79-1.14l-1.87.38c.23-3.51,0-6.86-.59-10.52l-.15-3.5c-.11-2.39,1.01-3.7,3.05-4.65l3.16-1.48-3.3-9.78-1.77-5.25,8.44,1.92c.04-.7-.05-1.69-.32-2.47-1.33-3.78-2.44-7.53-2.86-11.66l.37-5.13c-.38-1.74-.79-2.91-.5-5.08l8.17,11.29,4.95,8.09c3.57,5.82,7.08,11.34,11.41,16.69,3.22,3.98,5.63,8.34,9.43,11.84,1.69,1.55,2.9,3.68,3.95,5.75l2.79,5.45,5.53,17.83-4.12-2.35c-1.52,1.18.13,3.12-1.11,4.86l-2.67-1.34c-.26,1.48-.78,3.14-1.65,3.26l-1.18.17c-.18.03-.13.84.05.87l1.02.16c2.05.31,2.07-2.38,2.78-2.16l1.28.4c2.4.75,1.52-3.72,2.22-4.44-.07.08,4.53,2.02,3.67,6.76l-2.26,12.45-.42,3.82-2.15,17.42-1.62,5.88-2.49,11.13-3.1,8.29-2.43,8.77-1.3,4.21Z"/>
    <path class="st0" d="M184.2,282.21l-.27-.47c-1.56,0-1.9-.09-2.86-.69,1.17-1.24,1.97-2.13,2.51-3.6l-4.07-1.13,1.42-1.82c-1.25-.45-1.76-.66-2.6-1.74l4.55-.83,5.39-1.15,8.24-2.12,8.16-1.89,9.27-1.9,7.77-1.71,10.61-2.84,6.24-1.6,4.16-.59,3.58-.84v-1c.02-.19.92-.21.89-.03l-.15.83c1.49,5.36,3.27,10.67,5.52,15.85l2.58,5.93-4.01.73-6.79.78-3.41.03-3.71.26-12.43,1.9c-1.25.19-2.02.42-3.16.95-2.11.97-4.78-.01-7.02-.31-10.18-1.37-16.8,3.57-27.32,3.43l-4.05.46.68-2.18-3.15-.34,3.43-2.39Z"/>
    <path class="st0" d="M258.22,282.06l-2.49-4.58-3.28-7.83-4.86-15.09-1.22-2.98c-1.1-2.7-2.08-4.87-2.32-7.73l-1.9-4.35-4.75-14.68c-.79-2.45-1.48-4.69-1.49-7.33,0-1.14-1.03-2.24-1.3-3.21l-2.54-9.1-2.03-6.67-3.29-10.06,6.35-2.49,4.73-.63,2.71,10.09,1.99,9.95.91,3.93,2.99,13.16,1.56,3.6,1.64,4.34,2.27,8.44,4.15,10.76,2.41,4.24,4.58,8.46,5.81,14.09,1.81,5.7c-4.32.97-8.14.61-12.47,0ZM245.23,226.58c1.19-.77,1.67-2.47.58-3.3-2.56-1.94-5.2-2.34-5.87-.56-.29.77-.1,1.72.42,2.47,1.12,1.62,3.12,2.53,4.87,1.4Z"/>
    <path class="st0" d="M218.44,234.47l-5.71.82-3.83.28-4.87.9-4.9.73-5.59.44-4.76.33-2.4-6.96,20.8-5.27,5.09-1.2,8.32-1.85,9.81-1.89,3.65-.54,3.47,8.73c.1.25.21.97.11,1.22-.14.33-.87.78-1.33.88l-9.94,2.13-3.82-2.95c-2.52-.19-3.58,1.94-7.45-.02-.29-.15-1.09.95-.79,1.08l1.3.54c1.97.83,3.18.81,5.08-.33.86-.52,2.63.48,3.08,1.67-1.82.73-3.4.97-5.31,1.24Z"/>
    <path class="st0" d="M263.23,255.98l2.8,8.95-4.48-7.95-2.95-5.72c-2.1-4.07-3.94-8.42-5.05-12.82-1.64-6.48-3.58-12.33-6.28-18.37l-.76-4.39-2.64-9.71-1.21-6.36-2.18-8.59-1.47-5.9c-.09-.34.07-1.06.29-1.32s1.05.26,1.14.62l.89,4.01,1.42,6.13c.66,2.85,1.72,5.34,2.04,8.32l2.32,7.67c.18,2.98.56,5.38,1.47,8.05l3.63,10.66,2.68,7.64,4.49,11.94c.99.4,1.5,1.05,1.88,2.02l1.98,5.12Z"/>
    <path class="st0" d="M234.05,184.55c-3.38.36-5.26,2.85-7.52,2.14l6.41-13.79,3.94-7.75.53,10.23c.15,2.96.45,5.81-.15,8.83l-3.2.35Z"/>
    <path class="st0" d="M242.84,162.26l-3.84,1.34-.93-9.19c-.14-1.36-.11-2.54.25-4.35,1.47,1.95,1.7,3.94,2.42,6.05l2.1,6.15Z"/>
    <path class="st0" d="M238.82,146.15c1.54-1.74,3.9-1.17,5.93-2.97l1.41,4.48c-2.57-.12-4.29-.4-7.34-1.51Z"/>
    <path class="st0" d="M273.64,280.97l.51,1.27c.14.35-1.37.99-1.52.63l-2.35-5.72c-.45-1.1-.64-1.44-.23-3.14l2,3.59,1.59,3.37Z"/>
    <path d="M245.23,226.58c-1.75,1.14-3.75.22-4.87-1.4-.52-.75-.71-1.7-.42-2.47.67-1.78,3.3-1.37,5.87.56,1.09.83.61,2.53-.58,3.3Z"/>
  </g>
  <g>
    <path d="M71.61,254.82l-2.23-10.17-3-10.86-1.64-5.72-7.86-.25-5.87-.15-11.98-.29-6.24-.56.05,22.46.26,5.73v22.55s-.2,6.07-.2,6.07l-.78,9.78c-.21,2.63.38,5.45-1.61,7.76-.56.65-2.53.77-3.37.27-6.26-3.76-6.28-8.74-6.38-15.14l-.13-7.94-.3-4.75.06-3.96-1.13-13.06-.5-11.47-.15-3.98-.31-9.93.12-3.18-.02-10.56-.44-10.67-.29-3.38-5.46.61-1.84-2.44c-.05-2.13.66-3.35,1.8-4.82l3.49-4.47,3.38-4.5,2.43-3.11,2.89-3.91,2.69-4.41,2.71-4.78,7.58-11.55,9.53-14.23,26.25-39.37,3.08-1.54,4.67,4.97,14.27-7.06c1.09-.54,1.84-1.13,2.95-2.11.98.73,1.75,2.38,2.32,3.79l1.73,4.27,3.6-1.62,11.28-4.23c4.02-1.51,8.03-3.32,12.36-3.64l5.17-.38,6.15.11-1.08,2.44,5.71,5.77,4.96,4.54,9.56,7.92c.75.62,1.6.91,2.21,1.58l1.94,2.13c1.46,1.6,3.4,2.66,5.26,3.72-.53,1.99-1.2,3.77-2.32,5.43l-8.92,13.27-2.58,4.56-4.37,7.62-12.04,20.42-3.34,4.05-4.41,6.33-6.5,9.32-6.47,8.24,7.09-1.56,9.15-1.62,14.38-2.19,8.99-1.41,16.24-3.16.76.59c.17.13-.55.47-.75.52l-10.1,2.86-8.51,2.74-27.36,9.85-12.07,4.6-15.31,6.08-12.06,4.59-2.27,1.71c-1.03.77-2.85,1.65-3.78-.07l-4.33-.45-12.75-1.16,4.57,16.53,1.09,4.82,2.65,12.08,3.15,10.79,3.25,9.02,1.81,4.84,1.87,6.57,2.59,9.65c.55,2.05,1.19,3.86,1.1,5.85-2.85-6.23-4.66-12.44-5.95-19.06-.52-2.65-1.13-5.08-2.06-7.55l-3.23-8.67-1.05-3.36-3.77-14.94ZM152.31,114.65l-6.43-5.64-2.77-2.79-3.99-3.92c-.55.61-.95,1.02-.82,1.23l.65,1.05c.3.49.54,1.63.36,2.14-1.16-.22-1.58-.52-2.41-1.17l-4.56,7.12-3.34,5.38-9.52,16.31-6.9,10.89-4.73,6.72-7.05,9.95-3.09,4.78-8.51,15.31c-1.04,1.86-1.53,3.99-3.72,4.91l8.14-15.68c1.91-3.68,3.75-7.06,6.15-10.43l6.99-9.77,12.74-19.55,3.23-5.56,7.1-11.99,7.44-11.51,1.64-2.83c-1.69-.33-3.17-.34-4.45.05l-8.63,13.66-9.37,14.35-7.55,12.34-3.72,6.57-2.49,4.25-9.37,15.48-8.52,14.42-5.95,9.88,4.96,3.54,21.45,14.08,7.27,4.78,3.62-4.91,6.5-8.5,8.92-12.46,6.4-9.11,6.19-10.42,5.7-9.89,7.55-12.14c2.5-4.02,12.57-16.97,10.48-18.38l-4.29-2.92-2.24-1.49c-.99-.66-1.65-1.31-2.39-2.24-1.83-2.29-4.36-3.85-6.68-5.89ZM12.67,200.14l4.11-.34,9.68-1.46,18.95-3.21,5.1-.36,3.36-.29c3.01-.26,5.48-1.31,8.38-1.78l9.57-1.54,4.86-.41c1.35-1.32,2.36-3.24,3.38-4.92l3.61-5.95,6.18-10.48,6.2-10.03,3.24-5.46,3.1-5.28,3.06-5.17,7.45-12.43,15.98-24.64,3.73-5.99c-2.24-.96-4.42-.48-6.6.28l-4.46,1.55-2.03.7-15.57,5.81-1.8,1.32c-.61-.87-1.25-1.7-1.49-2.32l-2.2-5.62-15.54,7.74c-.47.23-1.24.73-1.66.82s-1.12-.51-1.49-.86l-3.32-3.11c-.28-.27-.72-.66-.93-.5l-.87.66-11.28,17.68-13.79,19.74-13.01,19.52-4.98,7.74-1.69,2.59-3.32,5.39-4.94,6.98-2.76,3.92-6.78,8.7-.45.69c-.1.15.81.35,1.01.33ZM18.84,202.51l17.1-.94,7.93-.61,3.53-.12c2.46-.08,4.61-.99,6.99-1.26l5.31-.6,13.9-2.87,4.54-1.43,3.82-.78c-1.34-1.14-3.22-2.61-5.26-2.39l-12.71,1.38c-.34.31-.88,1.08-1.16,1.55l-7.8,1.15c-3.11.46-6.1.98-9.21.19l-11.63,2-16.96,2.79-4.1.6c-.37.05-1.2.66-.92.89.21.17.97.62,1.28.61l5.35-.16ZM47.46,226.81l10.67.25c2.2.05,4.72.48,6.86-.14.65.62,1.67.69,3.03.78l16.58,1.12c2.83.19,5.14-2.35,7.3-3.75l4.37-2.84,13.82-7.55c.64-.35,1.47-1.01,1.71-1.34l-6.54-4.37-20.48-13.52c-1.72-1.14-3.46-1.14-5.42-.44-3.74,1.33-7.48,2.05-11.32,3.03l-5.7,1.47c-.8.2-1.62,1.12-2.59,1.05-1.42-.11-3.09-.22-4.23.14-2.75.86-4.96.84-7.8.93l-3.84.13-11.29.62c.33,1.47.26,3.18.25,4.78l-.09,19.1,14.71.54ZM117.94,216.08l17.91-6.82,7.78-2.92,11.38-3.75,10.85-3.78-5.65,1.02-8.68,1.56-19.23,2.9-8.37,1.58-6.89,1.83c.71,3.05.9,5.15.89,8.38ZM21.65,283.32c-.2,4.02-.4,7.78.71,11.46s5.91,7.58,7.6,6.03,1.37-4.97,1.48-6.65l.75-11.36.11-3.29v-27.1s-.29-5.75-.29-5.75v-36.77s.21-3.51.21-3.51c.09-1.42.07-2.68-.52-4.02l-13.09.92c-.22,1-.19,2.98.37,2.54l-.13,2.4.27,8.44-.11,16.98.51,8.67.68,16.64.37,3.19.55,10.29.31,6.3.24,4.6ZM100.11,223.13l17.64-6.98c-.28-.73-.51-1.58-.59-2.26l-.56-5.03-4.17,5.39c-7.11,3.61-13.89,7.14-20.51,11.74,3.08-.26,5.41-1.66,8.2-2.85Z"/>
    <path d="M102.59,283.56l5.79-1.72c2.64-.78,4.66-1.43,7.1-2.6l15.71-7.58,8.87-4.32,13.11-6.65,9.37-4.44,8.88-3.91,7.29-3.42,10.17-5.25c.08.86-.37,1.44-1.21,1.83l-27.49,12.93-23.4,11.76-12.49,6.09-9.96,4.85c-1.85.9-3.85,1.37-5.87,1.9l-6.64,1.76c-.08-.07.37-1.13.75-1.24Z"/>
    <path d="M88.32,309.41c.59,1.42,1.89,2.93,3.27,3.5,1.74.72,4.01.23,5.25-1,.49-.49.41-2.05.29-2.73l-1.72-9.58-2.71-15.14-3.12-12.25-4.41-17.62-2.41-16.27c-.29-1.95-.39-3.92-.26-5.97l3.17,20.67c.94,6.12,2.32,11.82,4.25,17.66l1.92,7.24c1.11,4.2,2.13,8.12,2.5,12.46l1.73,8.51,1.52,8.53c.24,1.36.98,3.34.13,4.63-1.07,1.62-3.62,2.18-5.47,1.71-1.68-.43-3.65-1.98-3.91-4.36Z"/>
    <path d="M132.34,234.42c-1.66-1.55-1.83-3.87-1.65-6.1l-4.42-1.1c-.23-.06-.23-1.02-.05-.96l4.59,1.02c.22.05.81-.61.9-.82.78-1.84-3.84-1.43-4.74-4.25l5.64,2.6,2.34-1.26,3.4-1.19,1.81,3.93c.76,1.65,1.02,3.1.52,4.71-.91,2.9-6.73,4.93-8.35,3.42ZM133.73,233.59c1.51.34,4.46-.86,5.33-2.16,1.57-2.36.09-6.32-2.54-6.91-2.77-.62-4.62,2.21-4.67,4.73-.03,1.42-.17,3.89,1.87,4.34Z"/>
    <path class="st0" d="M12.67,200.14c-.2.02-1.11-.18-1.01-.33l.45-.69,6.78-8.7,2.76-3.92,4.94-6.98,3.32-5.39,1.69-2.59,4.98-7.74,13.01-19.52,13.79-19.74,11.28-17.68.87-.66c.21-.16.64.23.93.5l3.32,3.11c.37.35,1.08.95,1.49.86s1.19-.58,1.66-.82l15.54-7.74,2.2,5.62c.24.62.88,1.45,1.49,2.32l1.8-1.32,15.57-5.81,2.03-.7,4.46-1.55c2.18-.76,4.36-1.24,6.6-.28l-3.73,5.99-15.98,24.64-7.45,12.43-3.06,5.17-3.1,5.28-3.24,5.46-6.2,10.03-6.18,10.48-3.61,5.95c-1.02,1.68-2.03,3.6-3.38,4.92l-4.86.41-9.57,1.54c-2.9.47-5.37,1.51-8.38,1.78l-3.36.29-5.1.36-18.95,3.21-9.68,1.46-4.11.34Z"/>
    <path class="st0" d="M152.31,114.65c2.32,2.03,4.84,3.6,6.68,5.89.74.92,1.4,1.58,2.39,2.24l2.24,1.49,4.29,2.92c2.08,1.42-7.98,14.36-10.48,18.38l-7.55,12.14-5.7,9.89-6.19,10.42-6.4,9.11-8.92,12.46-6.5,8.5-3.62,4.91-7.27-4.78-21.45-14.08-4.96-3.54,5.95-9.88,8.52-14.42,9.37-15.48,2.49-4.25,3.72-6.57,7.55-12.34,9.37-14.35,8.63-13.66c1.28-.39,2.76-.38,4.45-.05l-1.64,2.83-7.44,11.51-7.1,11.99-3.23,5.56-12.74,19.55-6.99,9.77c-2.41,3.37-4.24,6.75-6.15,10.43l-8.14,15.68c2.18-.93,2.68-3.05,3.72-4.91l8.51-15.31,3.09-4.78,7.05-9.95,4.73-6.72,6.9-10.89,9.52-16.31,3.34-5.38,4.56-7.12c.82.65,1.24.94,2.41,1.17.18-.51-.05-1.66-.36-2.14l-.65-1.05c-.13-.21.28-.61.82-1.23l3.99,3.92,2.77,2.79,6.43,5.64ZM130.75,162.01c3.49-1.01,5.22-4.98,3.98-8.22-1.29-1.16-3.06-2.32-4.63-3.12-.97.17-2.79.72-3.41,1.37-1.8,1.87-2.04,7.14-.13,8.97.93.89,2.53,1.49,4.2,1.01Z"/>
    <path class="st0" d="M47.46,226.81l-14.71-.54.09-19.1c0-1.6.07-3.3-.25-4.78l11.29-.62,3.84-.13c2.84-.1,5.05-.07,7.8-.93,1.14-.36,2.81-.25,4.23-.14.98.07,1.8-.85,2.59-1.05l5.7-1.47c3.84-.99,7.58-1.71,11.32-3.03,1.95-.69,3.7-.69,5.42.44l20.48,13.52,6.54,4.37c-.25.33-1.07.99-1.71,1.34l-13.82,7.55-4.37,2.84c-2.16,1.41-4.47,3.94-7.3,3.75l-16.58-1.12c-1.36-.09-2.38-.16-3.03-.78-2.13.61-4.66.19-6.86.14l-10.67-.25Z"/>
    <path class="st0" d="M21.65,283.32l-.24-4.6-.31-6.3-.55-10.29-.37-3.19-.68-16.64-.51-8.67.11-16.98-.27-8.44.13-2.4c-.56.44-.59-1.54-.37-2.54l13.09-.92c.59,1.34.61,2.6.52,4.02l-.22,3.51v36.77s.29,5.75.29,5.75v27.1s-.1,3.29-.1,3.29l-.75,11.36c-.11,1.69.13,5.18-1.48,6.65-1.69,1.56-6.44-2.17-7.6-6.03s-.91-7.44-.71-11.46Z"/>
    <path class="st0" d="M18.84,202.51l-5.35.16c-.31,0-1.06-.44-1.28-.61-.29-.23.55-.84.92-.89l4.1-.6,16.96-2.79,11.63-2c3.11.78,6.1.27,9.21-.19l7.8-1.15c.28-.47.81-1.24,1.16-1.55l12.71-1.38c2.04-.22,3.93,1.25,5.26,2.39l-3.82.78-4.54,1.43-13.9,2.87-5.31.6c-2.38.27-4.53,1.18-6.99,1.26l-3.53.12-7.93.61-17.1.94Z"/>
    <path class="st0" d="M117.94,216.08c0-3.22-.18-5.32-.89-8.38l6.89-1.83,8.37-1.58,19.23-2.9,8.68-1.56,5.65-1.02-10.85,3.78-11.38,3.75-7.78,2.92-17.91,6.82Z"/>
    <path class="st0" d="M100.11,223.13c-2.79,1.2-5.11,2.59-8.2,2.85,6.62-4.6,13.4-8.13,20.51-11.74l4.17-5.39.56,5.03c.08.68.31,1.53.59,2.26l-17.64,6.98Z"/>
    <path class="st0" d="M133.73,233.59c-2.04-.46-1.9-2.93-1.87-4.34.05-2.52,1.9-5.35,4.67-4.73,2.62.59,4.11,4.55,2.54,6.91-.87,1.3-3.83,2.5-5.33,2.16Z"/>
    <path d="M130.75,162.01c-1.67.48-3.27-.13-4.2-1.01-1.91-1.83-1.68-7.1.13-8.97.62-.64,2.44-1.2,3.41-1.37,1.57.8,3.34,1.96,4.63,3.12,1.25,3.24-.49,7.22-3.98,8.22ZM133.54,154.65c-.41-.9-2.15-2.14-3.18-2.49-.71-.24-2.49.48-2.94,1.1-1.22,1.7-1.31,4.24-.33,6.16.48.95,1.89,1.68,2.79,1.52,2.77-.52,4.59-4.22,3.66-6.29Z"/>
    <path class="st0" d="M133.54,154.65c.93,2.06-.89,5.77-3.66,6.29-.9.17-2.3-.56-2.79-1.52-.98-1.91-.88-4.46.33-6.16.45-.62,2.23-1.34,2.94-1.1,1.02.34,2.77,1.58,3.18,2.49Z"/>
  </g>
</svg>