<?xml version="1.0" encoding="UTF-8"?>
<svg id="Layer_1" xmlns="http://www.w3.org/2000/svg" version="1.1" viewBox="0 0 303.01 435.26">
  <!-- Generator: Adobe Illustrator 30.4.0, SVG Export Plug-In . SVG Version: 2.1.4 Build 226)  -->
  <defs>
    <style>
      .st0 {
        fill: #fff;
      }
    </style>
  </defs>
  <path d="M157.2,241.02l5.65-3.08,10.33-5.01,17.51-7.57,9.03-3.91,4.72-1.94,12.2-4.64c.42-.16,1.5-.06,1.68.23s.42,1.04.42,1.38l.15,6.34-.22,3.76-16.81,9.9-10.69,5.85.19.71c.05.17-.22.72-.34.59l-.82-.87-19.98,7.36,6.41,1.14,13.33,2.06,8.26.93,13.67,1.29,5.92.91,3.64.2-.27-5.45c-.11-2.21.26-4.54.47-6.75-.2-.87-.65-2.59-.61-3.49l.2-5.06-.03-3.64c0-.87-2.32-1.41-3.07-1.43.83-.27,3.26-.81,3.41-1.76l.87-5.8c.36-2.37,1.25-5.12,1.02-7.52s-.19-4.41.06-6.9l.55-5.43.39-4.21.13-3.91.27-5.92.08-3.65.29-2.58,4.3-4.07,8.94-8.87,4.43-4.45,2.71.13,2.39-8.54,2.47-9.39c2.15-.35,4.78-.44,7.31-.4l3.25-8.74,1.96-6.6c.41-1.39.96-2.21.54-3.42l3.24.02,2.28,8.11,2.16,9.21,3.18,15.76,4.34,15.45,3.58,11.41c.5,1.58,1.18,3.23,2.02,4.43l.89,8.71c.07.72.12,2.01.05,2.77l-.43,4.51-.39,6.13-.47,8.06c-.13,2.17-2.24,4.55-3.34,6.4l-5.2,8.68-2.78,6.13-7.95,14.67-3.46,4.64-6.29,9.52-5.81,6.3-9.15,12.78c-.55.77-1.88,1.25-2.79,1.25-.75,0-1.87-1.02-2.54-1.54l-10.97-4.13c-1.22-.46-1.9-1.03-2.12-2.49l-.27-1.78c-.08-.54-1.9-.74-2.43-.83l-4.09-.74-15.88-3.8-13.31-2.91-2.86-1.56-4.88-2.44-2.22-.99c-5.35-1.22-10.54-1.71-15.92-2.11-3.31-1.43-6.68-2.33-10.35-2.87-1.01-.34-1.98-.83-2.55-1.36l.95-.59c.22-.14-.03-.93-.28-.96l-2.92-.31,4.37-2.98-1.22-1.26c-.21-.22.63-.93.92-1.1l2.77-1.61c-.84-1.03-1.8-1.43-3.06-1.76l.68-2.46-1.07-2.36c3.92-1.86,5.74.15,8.5-.07l-2.01-2.28c-.54-.62.4-2.28.88-2.92l1.86-2.47ZM248.58,278.48l5.32-6.18,3.71-6.47c4.38-5.2,7.76-10.77,10.75-16.84l4.15-8.42,6.6-11.56c2.24-3.92,3.81-5.47.15-9.89-.82,1.87-1.44,3.32-2.85,3.83l-2.2-1.23c-.84.93-1.66,1.62-2.45,1.49-.56-.09-1.47-.76-1.82-1.18l.51-.7c.07-.1.17-.01.31.08l1.66.17c.45.05,1.79-2.96,2.74-1.73l1.44,1.87,2.34-4.84c1.25,1.08,2,2.07,2.95,3.55l.73-.15.18-7.31.4-4.05c.41-4.14.21-7.85-.36-11.92-.3-2.14-.2-4.35-1.17-6.37-2.31-4.81-3.5-9.75-5.05-14.83-1.93-6.34-3.66-12.44-4.93-18.93l-1.87-9.56-.57-2.88c-.89-4.49-1.92-8.67-3.77-13.15l-2.14,6.71c-1.12,2.22-1.96,4.24-2.13,6.66l-.66,9.37c-.02.33-.36,1.25-.65,1.09l-1.03-.57-6.27-4-.28,13.07-.25,2.91-2.55.25c-1.33.13-3.68.13-4.42,1.56-3.22,6.27-2.46,10.82-5.55,15.47l2.17.43c.4.08.38,1.18.33,1.59l-1.46,11.55-.36,4.49c-.24,2.96-.93,5.66-.89,8.63l-1.11,6.89-.57,12.94-.13,22.24.77,3.7v18.99s.33,5.29.33,5.29l.38,5.36c.09,1.35.49,2.7.96,3.73,2.16-2.37,3.18-3.74,4.38-5.96l4.24-5.19ZM259.26,152.74l.39-4.34-6.96.33c2.4,1.83,3.49,2.44,6.57,4.01ZM250.91,164.43l.36-9.57.04-.95c0-.2-.57-.43-.73-.31s-.59.66-.65.91l-2.9,10.62c.53,1.13,3.83.94,3.89-.7ZM231.53,183.66c1.95-.28,3.8.51,6.05,1.35,1.71-2.8,2.63-5.8,3.45-8.8l2.48-9.13-4.4,4.2-6.88,6.76-5.79,5.74c2.3.29,3.3.14,5.1-.12ZM235.1,287.03l.02-8.56-.15-2.96-.18-5.93-1.35-9.73c-.32-2.34-.96-4.4-1.02-6.89l-.23-9.58.74-5.8.14-11.24c-1.18,1.62-2.32,2.36-4.28,2.08-1.69-.24-3.86-4.18-2.11-5.85,1.52-1.46,3.93.17,5.79,3.11,1.55-4.45,1.65-9.13,2.22-13.83l.75-6.19c.47-3.92,1.22-7.66,1.64-11.75l.38-3.63c.1-.97.69-3.4-.16-3.84-1.04-.49-2.59-1.24-3.5-1.26l-6.21-.13c-.82-.02-1.4.99-1.43,1.82l-.3,9.38-.36,6.07-.64,6.04c-.22,2.08-.06,4.5-.04,6.41-.85,3.93-1.24,7.53-1.36,11.5l-.28,9.57c-.09,2.87-.33,5.68.02,8.51-.57,2.27-.78,4.59-.72,7.01l.32,4.96-.37,4.13-.44,6.25v6.98s.86,10.47.86,10.47c.11,1.3.57,2.21,1.84,2.78l5.61,2.52,4.62,1.06.2-3.46ZM235.63,251.34l.2-9,.06-3.93.16-12.14.41-7.7,1.56-6.44.28-6.74.68-5.27.19-3.42,1.13-8.05.29-2.65c.03-.31-.79-.76-.96-.48-.12.18-.38.76-.41.99l-.57,3.95-.32,5.75-2.43,16.41-.23,3.89c-.08,1.42-.2,2.54-.6,3.89-.95,3.26-.08,6.61.08,9.89l.13,2.76c-1.68,9.07-1.97,18.1-.28,27.18,0,2.02.43,3.82.76,5.92l.67,4.27.43-5.25c.74-9-1.3-11.12-1.24-13.85ZM166.93,249.97l12.94-4.21,9.52-3.52,11.13-5.86,17.03-9.75v-1.82c.61-1.19.65-2.51.59-3.88l-.24-5.37-11.78,4.07-8.09,3.31-7.01,3.07-6.75,2.88-10.83,4.72-6.24,2.94-5.86,3.09c-2.76,1.46-5.48,3.2-6.41,6.38,2.06,3.12,10.13,4.55,12,3.94ZM206.73,278.34l5.22,1.56,2.36.68,6.81,1.41-.31-6.74v-12.67s.64-4.6.64-4.6c-3.01.21-5.59-.79-8.56-1.11l-6.4-.69-9.32-.84-6.49-.79-8.29-1.34-3.19-.42-4.8-.62-8.67-1.02c-2.05-.24-3.76-.2-5.74-.57l-6.57-1.22c-1.13-.21-1.88-.27-3.46-.24l1.86,2.27-2.04,1.17,3.05,2.24c.23.4-.52,1.42-.93,1.7l-2.4,1.59,2.75,1.13c-.59,1.82-2.6.57-4.31,2.08l2.82.82c.08.23.07.88-.17,1.05l-1.35.93,8.7,2.39c6.52,1.79,13.72,1.13,19.24,3.47l3.26,1.38c2.03.86,4.27,3.14,6.65,3.08,1.77-.05,3,.09,4.66.43l9.17,1.84,5.82,1.64ZM237.62,292.63c1.1-3.19.23-6.11-.64-9.2-.88,3.11-1.47,6.42.64,9.2Z"/>
  <path d="M62.16,269.28c-1.95,1.97-3.23,3.76-5.46,5.18l-5.81,5.18-5.32,4.45c-.18.15-.05,1.19-.02,1.43.04.3-1.14-.21-1.37-.03l-3.1,2.44-4.02,3.56c-1.49,1.32-2.93,1.81-4.11,3.48l-1.58,2.25,7.77,4.96,3.14,2.06,10.27,6.33,3.6-3.05,3.32-2.81,4.92-4.03,6.45-4.81,10.43-7.77,2.96-1.96c.9-.6,1.86-1.68,2.35-2.32.92.06,1.69-.44,2.76-1.12l7.86-5.01,2.21-1.44,3.33-2.17c-.14,2.03-2.11,2.35-3.4,3.18l-7.74,4.98-2.73,1.24-6.08,4.68-4.71,3.53-2.59,1.91-13.11,9.57-3.62,3.22-2.47,2.04-3.26,3.3-10.95-6.8-3.96-2.59-6.92-4.42c-.35-.2-1.41.29-1.92.45-1.2.38-3.3-.91-4.11-2.18l-.27-9.99.05-5.15c.04-4.27.08-8.36-.63-12.46l-.67-3.91-.59-8.46-.66-6.3-.47-6.68-.4-6.13-.43-6.84-.39-6.88-.4-8.09-.48-8.9-1.7-19.49c-.17-1.96-.63-4.67-.2-6.38.16-.59,1.08-1.96,1.24-2.25l4.14.51c.58.07,2.26.49,2.68.04.87-.93,1.66-3.34,2.24-4.51l5.78-11.74.14-2.08c2.65,1.09,5.26,2.67,7.7,4.31.44.29.99-.94,1.25-1.35l4.34-6.91,6.59-10.86c1.93-3.18,4.4-5.45,7.06-7.86,1.89-1.72,3.71-3.26,6-4.57l.72.22c.16.83.47,2.16.97,2.19l2.25.13c6.08,1.09,11.99,1.67,18.16,1.78l6.1.11c1.48.03,2.59-.26,4.05.05,3.06.66,6.1.54,9.31,0l.7,2.5,1.13,8.42,11.05-4.26,15.26-5.43,10.19-4.44c.43.13,1.09.34.64.21l1.8,12.11,2.24,13.83,1.82,11.32,1.19,5.85,17.34-6.45,10.4-3.8,8.94-3.16,6.3-1.87,5.97-2.44c-4.97-1.03-8.9-2.99-13.19-5.2l-9.86-5.07-7.65-3.75-14.16-6.09-5.95-2.57-4.82-2.44c1.82-.12,2.83.78,4.28,1.39l9.69,4.08,10.75,4.69,8.15,4.04,10.58,5.51c3.87,2.02,7.47,3.6,11.78,4.55,1.72.38,3.41,2.66,3.91,4.26l2.84,9.06,6.82,21.55c.75.74.81,1.17.76,2.26-.11,2.35,1.35,4.78,2.02,6.99l1.04,3.47,1.48,3.91-6.15,2.62-7.99,2.91-7.81,2.98-23.84,8.61-11.39,4.05-6.14,2.34c-6.19,2.36-12.2,4.63-17.96,7.98l-14.09,8.2-5.92,3.35-7.07,3.03c-1.58.68-2.55,1.16-2.94,3.19l-6.17,13.67-.72.37c-.16.08,0-.52.08-.69l4.77-10.57,2.09-4.91,2.24-4.92,4.82-9.47c-3.55.36-5.58.46-8.51-.11-1.52-.29-3.8.96-5.27,1.11l-11.49,1.17c-3.79.39-7.85-.1-11.62,1.07-2.3.72-3.36,3.83-4.63,5.47l-2.74,3.51-1.83,2.12-3.28,3.7c-.83.93-1.24,2.03-1.86,3.19l-4.48,4.52ZM73.42,232.74l1.51,12.88,3.81.26-.51-5.46-3.44-18.82c-.97-5.31-1.57-10.22-1.78-15.6l-.4-9.96-.76-13.37-.95-8.78-2.88-22.62-1.43-16.36c-1.56.45-2.79,1.41-3.69,2.63l1,8.62.88,10.46.44,5.26.29,3.79.92,10.52.48,4.31,3.68,28.32.81,7.83,2.01,16.1ZM114.89,196.85l4.42-2.86,10.7-5.93,12.62-5.56,11.36-4.5-1.87-8.93-3.06-19.83-2.24-13.84-10.94,4.71-18.71,6.37-7.04,3.05,1.11,11.98.28,6.37.39,5.67.35,5.29.97,10.22c.26,2.78.56,5.14,1.66,7.79ZM115.16,207.18l-.34-7.99c-.37-.67-.85-1.75-.99-2.45l-1.12-5.33-1.25-12.57-.34-5.28-.39-6.46-.53-8.12-.49-7.29c-.03-.4-.01-1.27-.31-1.39l-1.58-.64,1.84-.9-.58-3.75-.58-3.79c-.1-.68-.26-1.39-.47-1.84-.17-.38-1.43-.47-1.88-.45l-3.63.2-4.1.33c-2.16.18-2.89-.87-6.41-.94l-10.48-.22-4.97-.41-8.3-1.09c.11,1.85,1.56,1.87,2.7,2.22.12.31.03,1.57-.36,1.61l-1.93.18,1.16,12.92,3.56,27.92.32,4.72.37,6.75.37,9.51.34,6.63.38,4.83,2.99,18.63.57,4.94.76,7.94,8-.58,4.98-.3,8.89-.79,11.88-2.12c-.07.39-.27,1.24,0,1.19l1.14-.24,3.92-.12-.74-7.89-1.3-15.36-1.12-12.2ZM25.46,266.54l.48,4.84.35,4.58.03,4.7.19,14.7,2.57-1.91,3.12-3.04,4.31-4.54,3.01-3.15,6.05-6.83,9.55-10.23,3.97-4.19,4.85-4.55,3.62-4.06,5.96-5.93-1.12-9.76-2.85-23.9-4.03-32.78-1.18-12.19-1.84-22.13-.76-6.75c-2.83,1.13-3.88,2.86-5.44,5.11l-2.92,4.21-7.66,12.62c-.95,1.57-1.99,2.56-1.97,4.63-3.49.54-4.98-2.49-8.5-3.52l-8.47,17.76-7.15-.6c-.61,1-.4,2.55-.28,3.88l.89,9.94.42,4.98.41,4.78.4,5.27.39,6.98.46,11.16.35,5.63.37,5.92.83,10.2.44,5.28.38,4.69.77,8.21ZM114.22,253.36c-.43.91-1.97,1.44-1.52,3.25l8.56-3.94,13.3-7.76c8.34-4.87,16.85-8.84,25.93-12.11l10.48-3.78,6.23-2.28,24.08-8.68,6.06-2.4,5.24-1.73,6.94-2.8,1.32-.58c.29-.13-.11-1.15-.22-1.47l-1.49-4.11-1.41-4.37-8.89-28.86-1.62-4.44-2.24-6.72-6.77,2.45-14.55,4.89-6.24,2.29-17.24,6.34-4.48,1.71-2.09.78c-10.05,3.74-19.78,7.76-29.31,12.69l-8.38,5.37.04,7.31.35,9.94,1.05-.52-.24,3.86.43,7.34,1.23,15.56,1.62-.04-1.34,2.42-4.86,10.4ZM42.36,285.61l5.08-4.25,5.33-4.79,2.77-2.43,3.23-3.31c1.72-1.76,2.91-4.06,4.91-5.53,1-.73,1.75-1.54,2.54-2.46l2.45-2.84,3.57-4.34,2.22-2.42c.95-1.03,1.59-2.41,2.11-3.61l2.63-2.78c-3.63-.7-5.75,1.12-7.83,3.45l-2.94,3.3-3.83,3.58-4.82,4.5-10.36,11.09-3.69,4.15-6.56,7.55-6.27,6.64-2.28,2.66c-.8.94-2.82,1.69-2,3.43l4.63-3.7,3.97-3.35,5.16-4.56Z"/>
  <path d="M102.44,300.66l14.81-2.5,12.83-2.05,10.45-1.86,8.04-1.7c6.19-1.31,12.01-2.96,18.3-3.93,5.19-.8,10.32-1.81,14.69-4.8.59-1.98.41-5.13-1.09-6.78-4.83-3.41-11.16-2.85-17.22-3.01-8.81-.22-17.22.57-25.91,2.02l-2.91.28c-5.41.52-10.43,1.38-15.74,2.49l-14.49,3.03-10.31,3-7.49,2.63.38-1.22,10-2.98,10.1-2.78,15.02-3.2c4.16-.89,8.27-1.26,12.51-1.76l15.47-1.84,23.9.07c2.43,0,5.07,1.3,7.03,2.62,1.61,1.08,2.88,7.69.09,8.87l-5.08,2.15-11.72,2.44-15.52,3.48-15.7,3.02-9.81,1.85-8.02,1-10.61,1.94-5.61.6-3.93.47c-3.02.36-5.56.55-8.62.48l-7.05-.17c-1.68-.04-2.99-2.9-2.61-4.44.8-3.25,2.37-5.63,4.6-8.21l.5.77c-2.23,2.05-3.8,4.76-4.31,7.79-.38,2.26,1.53,3.77,3.62,3.67l4.38-.21c3.58-.17,6.68.18,10.23-.6l6.81-.59Z"/>
  <path class="st0" d="M248.58,278.48l-4.24,5.19c-1.2,2.22-2.23,3.59-4.38,5.96-.47-1.03-.86-2.38-.96-3.73l-.38-5.36-.34-5.29v-18.99s-.76-3.7-.76-3.7l.13-22.24.57-12.94,1.11-6.89c-.04-2.97.66-5.67.89-8.63l.36-4.49,1.46-11.55c.05-.41.07-1.52-.33-1.59l-2.17-.43c3.1-4.65,2.34-9.19,5.55-15.47.73-1.43,3.08-1.43,4.42-1.56l2.55-.25.25-2.91.28-13.07,6.27,4,1.03.57c.28.16.62-.76.65-1.09l.66-9.37c.17-2.42,1.01-4.44,2.13-6.66l2.14-6.71c1.85,4.48,2.89,8.66,3.77,13.15l.57,2.88,1.87,9.56c1.27,6.49,3,12.59,4.93,18.93,1.55,5.09,2.74,10.02,5.05,14.83.97,2.02.86,4.22,1.17,6.37.57,4.07.78,7.78.36,11.92l-.4,4.05-.18,7.31-.73.15c-.95-1.48-1.69-2.47-2.95-3.55l-2.34,4.84-1.44-1.87c-.94-1.22-2.28,1.78-2.74,1.73l-1.66-.17c-.14-.09-.24-.18-.31-.08l-.51.7c.35.42,1.26,1.09,1.82,1.18.79.13,1.61-.56,2.45-1.49l2.2,1.23c1.41-.51,2.02-1.96,2.85-3.83,3.66,4.42,2.09,5.97-.15,9.89l-6.6,11.56-4.15,8.42c-3,6.08-6.37,11.64-10.75,16.84l-3.71,6.47-5.32,6.18Z"/>
  <path class="st0" d="M206.73,278.34l-5.82-1.64-9.17-1.84c-1.67-.33-2.9-.48-4.66-.43-2.37.06-4.62-2.22-6.65-3.08l-3.26-1.38c-5.51-2.34-12.72-1.68-19.24-3.47l-8.7-2.39,1.35-.93c.24-.17.25-.82.17-1.05l-2.82-.82c1.71-1.52,3.72-.26,4.31-2.08l-2.75-1.13,2.4-1.59c.41-.27,1.16-1.29.93-1.7l-3.05-2.24,2.04-1.17-1.86-2.27c1.57-.03,2.33.03,3.46.24l6.57,1.22c1.98.37,3.69.33,5.74.57l8.67,1.02,4.8.62,3.19.42,8.29,1.34,6.49.79,9.32.84,6.4.69c2.97.32,5.54,1.32,8.56,1.11l-.63,4.6v12.67s.3,6.74.3,6.74l-6.81-1.41-2.36-.68-5.22-1.56Z"/>
  <path class="st0" d="M235.1,287.03l-.2,3.46-4.62-1.06-5.61-2.52c-1.27-.57-1.73-1.48-1.84-2.78l-.87-10.47v-6.98s.45-6.25.45-6.25l.37-4.13-.32-4.96c-.06-2.42.15-4.73.72-7.01-.35-2.82-.1-5.63-.02-8.51l.28-9.57c.12-3.97.51-7.57,1.36-11.5-.02-1.91-.19-4.33.04-6.41l.64-6.04.36-6.07.3-9.38c.03-.83.6-1.84,1.43-1.82l6.21.13c.92.02,2.46.77,3.5,1.26.85.45.26,2.87.16,3.84l-.38,3.63c-.43,4.09-1.17,7.83-1.64,11.75l-.75,6.19c-.57,4.7-.68,9.38-2.22,13.83-1.86-2.94-4.27-4.57-5.79-3.11-1.74,1.68.43,5.61,2.11,5.85,1.96.28,3.1-.46,4.28-2.08l-.14,11.24-.74,5.8.23,9.58c.06,2.49.69,4.55,1.02,6.89l1.35,9.73.18,5.93.15,2.96-.02,8.56Z"/>
  <path class="st0" d="M166.93,249.97c-1.87.61-9.94-.82-12-3.94.92-3.18,3.65-4.92,6.41-6.38l5.86-3.09,6.24-2.94,10.83-4.72,6.75-2.88,7.01-3.07,8.09-3.31,11.78-4.07.24,5.37c.06,1.36.03,2.69-.6,3.88v1.82s-17.02,9.75-17.02,9.75l-11.13,5.86-9.52,3.52-12.94,4.21Z"/>
  <path class="st0" d="M231.53,183.66c-1.8.26-2.79.4-5.1.12l5.79-5.74,6.88-6.76,4.4-4.2-2.48,9.13c-.82,3.01-1.74,6.01-3.45,8.8-2.25-.83-4.1-1.63-6.05-1.35Z"/>
  <path class="st0" d="M235.63,251.34c-.06,2.73,1.99,4.85,1.24,13.85l-.43,5.25-.67-4.27c-.33-2.1-.75-3.9-.76-5.92-1.69-9.09-1.4-18.11.28-27.18l-.13-2.76c-.15-3.28-1.02-6.63-.08-9.89.39-1.35.51-2.47.6-3.89l.23-3.89,2.43-16.41.32-5.75.57-3.95c.03-.24.29-.81.41-.99.18-.27,1,.18.96.48l-.29,2.65-1.13,8.05-.19,3.42-.68,5.27-.28,6.74-1.56,6.44-.41,7.7-.16,12.14-.06,3.93-.2,9Z"/>
  <path class="st0" d="M250.91,164.43c-.06,1.64-3.36,1.83-3.89.7l2.9-10.62c.07-.25.49-.79.65-.91s.74.11.73.31l-.04.95-.36,9.57Z"/>
  <path class="st0" d="M259.26,152.74c-3.08-1.57-4.17-2.18-6.57-4.01l6.96-.33-.39,4.34Z"/>
  <path class="st0" d="M237.62,292.63c-2.11-2.78-1.52-6.09-.64-9.2.87,3.09,1.73,6.02.64,9.2Z"/>
  <path class="st0" d="M114.22,253.36l4.86-10.4,1.34-2.42-1.62.04-1.23-15.56-.43-7.34.24-3.86-1.05.52-.35-9.94-.04-7.31,8.38-5.37c9.53-4.92,19.26-8.95,29.31-12.69l2.09-.78,4.48-1.71,17.24-6.34,6.24-2.29,14.55-4.89,6.77-2.45,2.24,6.72,1.62,4.44,8.89,28.86,1.41,4.37,1.49,4.11c.11.32.51,1.34.22,1.47l-1.32.58-6.94,2.8-5.24,1.73-6.06,2.4-24.08,8.68-6.23,2.28-10.48,3.78c-9.09,3.28-17.59,7.25-25.93,12.11l-13.3,7.76-8.56,3.94c-.45-1.81,1.09-2.34,1.52-3.25ZM161.84,199.51c1.66,1.54,7.62-.54,8.55-3.5.52-1.64.25-3.13-.53-4.82l-1.85-4.02-3.48,1.22-2.4,1.29-5.77-2.66c.92,2.89,5.64,2.47,4.85,4.35-.09.22-.69.89-.92.84l-4.7-1.05c-.19-.07-.19.92.05.98l4.52,1.12c-.19,2.29-.01,4.66,1.69,6.24Z"/>
  <path class="st0" d="M25.46,266.54l-.77-8.21-.38-4.69-.44-5.28-.83-10.2-.37-5.92-.35-5.63-.46-11.16-.39-6.98-.4-5.27-.41-4.78-.42-4.98-.89-9.94c-.12-1.34-.33-2.88.28-3.88l7.15.6,8.47-17.76c3.52,1.03,5.01,4.06,8.5,3.52-.02-2.07,1.01-3.06,1.97-4.63l7.66-12.62,2.92-4.21c1.56-2.25,2.62-3.97,5.44-5.11l.76,6.75,1.84,22.13,1.18,12.19,4.03,32.78,2.85,23.9,1.12,9.76-5.96,5.93-3.62,4.06-4.85,4.55-3.97,4.19-9.55,10.23-6.05,6.83-3.01,3.15-4.31,4.54-3.12,3.04-2.57,1.91-.19-14.7-.03-4.7-.35-4.58-.48-4.84Z"/>
  <path class="st0" d="M114.89,196.85c-1.09-2.64-1.39-5.01-1.66-7.79l-.97-10.22-.35-5.29-.39-5.67-.28-6.37-1.11-11.98,7.04-3.05,18.71-6.37,10.94-4.71,2.24,13.84,3.06,19.83,1.87,8.93-11.36,4.5-12.62,5.56-10.7,5.93-4.42,2.86Z"/>
  <path class="st0" d="M73.42,232.74l-2.01-16.1-.81-7.83-3.68-28.32-.48-4.31-.92-10.52-.29-3.79-.44-5.26-.88-10.46-1-8.62c.9-1.21,2.13-2.18,3.69-2.63l1.43,16.36,2.88,22.62.95,8.78.76,13.37.4,9.96c.21,5.38.81,10.3,1.78,15.6l3.44,18.82.51,5.46-3.81-.26-1.51-12.88Z"/>
  <path class="st0" d="M42.36,285.61l-5.16,4.56-3.97,3.35-4.63,3.7c-.82-1.74,1.19-2.49,2-3.43l2.28-2.66,6.27-6.64,6.56-7.55,3.69-4.15,10.36-11.09,4.82-4.5,3.83-3.58,2.94-3.3c2.08-2.33,4.2-4.15,7.83-3.45l-2.63,2.78c-.52,1.21-1.17,2.58-2.11,3.61l-2.22,2.42-3.57,4.34-2.45,2.84c-.79.92-1.54,1.73-2.54,2.46-2,1.47-3.19,3.77-4.91,5.53l-3.23,3.31-2.77,2.43-5.33,4.79-5.08,4.25Z"/>
  <path d="M161.84,199.51c-1.7-1.58-1.88-3.96-1.69-6.24l-4.52-1.12c-.24-.06-.24-1.05-.05-.98l4.7,1.05c.23.05.83-.62.92-.84.8-1.88-3.93-1.46-4.85-4.35l5.77,2.66,2.4-1.29,3.48-1.22,1.85,4.02c.78,1.69,1.04,3.17.53,4.82-.93,2.97-6.89,5.04-8.55,3.5ZM163.26,198.67c1.54.35,4.57-.88,5.46-2.21,1.61-2.41.09-6.47-2.59-7.07-2.83-.63-4.73,2.26-4.78,4.84-.03,1.45-.17,3.98,1.91,4.44Z"/>
  <path class="st0" d="M163.26,198.67c-2.09-.47-1.94-2.99-1.91-4.44.05-2.58,1.95-5.47,4.78-4.84,2.68.6,4.2,4.66,2.59,7.07-.89,1.33-3.92,2.56-5.46,2.21Z"/>
  <g>
    <path class="st0" d="M115.16,207.18l1.12,12.2,1.3,15.36.74,7.89-3.92.12-1.14.24c-.27.06-.07-.8,0-1.19l-11.88,2.12-8.89.79-4.98.3-8,.58-.76-7.94-.57-4.94-2.99-18.63-.38-4.83-.34-6.63-.37-9.51-.37-6.75-.32-4.72-3.56-27.92-1.16-12.92,1.93-.18c.39-.04.47-1.3.36-1.61-1.15-.35-2.59-.38-2.7-2.22l8.3,1.09,4.97.41,10.48.22c3.52.07,4.25,1.12,6.41.94l4.1-.33,3.63-.2c.45-.02,1.7.07,1.88.45.21.45.36,1.16.47,1.84l.58,3.79.58,3.75-1.84.9,1.58.64c.3.12.29.99.31,1.39l.49,7.29.53,8.12.39,6.46.34,5.28,1.25,12.57,1.12,5.33c.15.7.63,1.78.99,2.45l.34,7.99ZM92.63,191.05c1.77,1.62,4.97,1.4,6.51-.62s1.3-5.11.22-7.16c-1.23-2.34-3.04-2.66-5.43-2.27l-2.53.42-1.88,2.48c-.54,2.87.87,5.1,3.11,7.15Z"/>
    <path d="M92.63,191.05c-2.23-2.05-3.65-4.28-3.11-7.15l1.88-2.48,2.53-.42c2.39-.4,4.2-.07,5.43,2.27,1.08,2.05,1.29,5.17-.22,7.16s-4.75,2.25-6.51.62ZM96.63,182.51c-.87-.65-3.23-.29-4.3.28-.68.36-1.66,2.12-1.47,2.92.39,1.64,1.55,3.31,2.93,4.36.76.58,2.51.46,3.34.03,2.54-1.31,1.72-5.92-.5-7.59Z"/>
    <path class="st0" d="M96.63,182.51c2.23,1.67,3.04,6.28.5,7.59-.83.43-2.57.55-3.34-.03-1.38-1.05-2.54-2.72-2.93-4.36-.19-.8.79-2.56,1.47-2.92,1.07-.57,3.43-.93,4.3-.28Z"/>
  </g>
</svg>