<?xml version="1.0" encoding="UTF-8"?>
<svg id="Layer_1" xmlns="http://www.w3.org/2000/svg" version="1.1" viewBox="0 0 212 273">
  <!-- Generator: Adobe Illustrator 30.4.0, SVG Export Plug-In . SVG Version: 2.1.4 Build 226)  -->
  <defs>
    <style>
      .st0 {
        fill: #fff;
      }

      .st1 {
        fill: none;
        stroke: #000;
        stroke-miterlimit: 10;
      }
    </style>
  </defs>
  <polygon class="st0" points="161.02 233.63 129.21 242.27 77.94 244.32 63.95 237.56 56.99 228.51 56.04 57.2 139.59 51.05 161.02 233.63"/>
  <g>
    <path d="M56.51,56.63c-.11-.22-.08-1.45.14-1.9l3.29-6.79-1.05-2.1c3.13-3.14,7.28-4.81,11.7-5.59l5.51-.98c-4.6-1.97-9.14-4.07-11.23-8.6-2.23-4.83.53-11.12,5.39-13.36,2.83-1.31,6.85-2.49,9.89-1.74s5.42,3.73,7.87,5.32c4.23,2.75,5.88,6.78,7.24,11.36l1.53,5.16,28.21-1.01c4.1-.15,8.02,2.79,11.62,4.39,3.34,1.48,2.74,7.48,2.95,10.27l2.07,27.61c.77,10.22,2.78,19.83,3.99,30.03l5.2,43.8,3.35,28.97,1.7,11.52c1.24,8.38,2.45,16.48,2.87,24.99l1.28,13.83.96,1.83c-3.02,2.06-6.21,3.4-9.84,4.51-12.46,3.83-24.97,6.2-38.13,6.83l-27.55.35c-4.37.05-8.76-.34-12.71-2.19l-9.7-4.53c-1.54-3.89-3.59-7.02-6.1-10.09l-.33-9.02c-.14-3.9-1.13-7.55-.99-11.54.78-21.61.57-42.79-.3-64.37l-.65-16.07c-.34-8.26-1.67-16.2-1.51-24.38l.34-18.12,1.86-22.81c-.95-.75-1.56-1.8-1.39-2.84.13-.83,1.21-2.04,2.03-2.14l.47-.57ZM92.99,40.71l3.09-3.68-2.08-5.92c-1.05-2.99-2.06-5.96-4.58-8.05-2.78-2.31-5.52-4.43-8.6-6.53-1.66-1.13-4.16-.09-6.11.15-6.44.79-11.81,7.27-9.06,13.7,1.49,3.49,5.68,6.16,9.15,7.24,2.41.75,5.23.55,7.23,1.78l4.93,3.04c2.41,1.49,4.4.22,6.03-1.73ZM137.63,45.47c.87-.48.34-2.99-.57-3.5-6.15-3.43-10.73-5.98-16.71-3.19,3.64.62,6.08,2.18,8.11,5.12l-4.64,4.92c4.28-.15,10.59-1.58,13.81-3.35ZM100.48,40.85c3.35-.96,5.23-1.04,7.54-2.69-4.47-.32-7.54-.11-11.88.39l4.35,2.3ZM106.74,49.51c4.68-.27,8.71-.04,12.79-.73-6.08-1.23-11.76-1.88-17.73-2.22-2.27-2.4-10.3,2.51-12.41-1.8-.11-.22,1-.37,1.21-.24s.14.15.22,1c3.12.64,8.19.22,9.13-.75.5-.52.54-2.15.36-2.75l-1.61.25c-.25.04.68-1.13.46-1.35-.74-.72-3.02-1.81-3.99-1.4-1.66.7-2.5,2.38-3.47,3.83-1.14.24-4.29.59-5.35-.18l-4.82-3.47c-8.15,1-16.26,1.06-21.84,6.47,6.82,5.28,15.6,4.22,22.92,4.07l18.32-.37,5.79-.33ZM57.06,56.24c7.14.84,12.31.79,18.48.8,4.15.19,8.23.22,12.49,0l35.96-1.77c5.31-.26,13.44-1.2,14.7-4.51.57-1.5.33-3.76-.45-4.9-4,2.05-7.57,3.17-11.79,3.41l-17.69.99-21.54.46c-9.13.2-18.87,1.7-26.27-2.85-1.38,2.78-2.58,5.26-3.88,8.35ZM56.39,57.29c-.4.49-.11,1.72.35,2.43l-2.08,23.24c-.55,6.2-.44,12.16-.51,18.32-.08,7.01.94,13.59,1.21,20.76l2.06,54.94-.4,33.51,1.21,17.73c2.21,2.8,4.32,6.05,5.72,9.33,6.77,4.65,14.77,6.9,23.03,6.75l27.25-.51c12.15-.23,33.97-4.48,44.92-10.24l-1.84-21.6c-.6-7.06-1.68-13.83-2.79-20.81l-1.44-9.04c-4,1.5-7.4.52-10.51-2.12l-.44,9.56c-1.46-2.63-1.2-5.27-.83-8.06.3-2.28-.4-3.9-1.43-5.81-3.37-6.3-3.12-13.31-5.76-14.32-1.69-.65-3.14,1.92-3.63,1.44-.18-.17-.51-.77-.33-.93l.75-.61c.72-.59,2.54-1.16,3.6-.97,2.97.53,3.66,10.55,6.8,15.73l1.27-7.57c.35-2.09.65-4.25,2.03-5.97l-2.15,15.49c2.67,3.55,6.6,4.84,10.52,2.93l-2.66-23.48c-2.18-19.23-3.93-37.98-6.98-57.09-1.48-9.24-2.6-18.03-3.28-27.33l-1.48-20.22c-2.76,1.38-5.17,2.39-8.12,2.62l-13.01,1.04-33.88,1.56c-6.81.31-22.5.06-26.59-1.16l-.6.43Z"/>
    <path class="st0" d="M57.06,56.24c1.3-3.09,2.5-5.57,3.88-8.35,7.41,4.55,17.14,3.04,26.27,2.85l21.54-.46,17.69-.99c4.22-.24,7.78-1.36,11.79-3.41.77,1.14,1.02,3.39.45,4.9-1.26,3.31-9.38,4.25-14.7,4.51l-35.96,1.77c-4.26.21-8.34.18-12.49,0-6.17-.02-11.33.04-18.48-.8Z"/>
    <path class="st0" d="M106.74,49.51l-5.79.33-18.32.37c-7.32.15-16.1,1.22-22.92-4.07,5.58-5.41,13.69-5.46,21.84-6.47l4.82,3.47c1.06.76,4.21.41,5.35.18.97-1.44,1.8-3.12,3.47-3.83.97-.41,3.25.68,3.99,1.4.22.22-.71,1.39-.46,1.35l1.61-.25c.18.6.13,2.23-.36,2.75-.94.98-6.01,1.39-9.13.75-.08-.85,0-.87-.22-1s-1.32.02-1.21.24c2.11,4.31,10.14-.61,12.41,1.8,5.97.34,11.65,1,17.73,2.22-4.09.69-8.11.46-12.79.73Z"/>
    <path class="st0" d="M137.63,45.47c-3.22,1.77-9.53,3.2-13.81,3.35l4.64-4.92c-2.03-2.94-4.47-4.5-8.11-5.12,5.98-2.78,10.56-.23,16.71,3.19.91.51,1.44,3.02.57,3.5Z"/>
    <path d="M71.31,210.73c.25,2.14,1.55,5.23,3.11,5.9,4.43.69,6.98-3.58,6.95-7.47,0-1.06.7-2.16,1.16-2.07.29,4.82-1.19,8.53-5.06,10.36-2.12,1-4.46.35-5.58-1.88-.76-1.52-1.72-3.68-1.85-5.55-.57-8.28-1.22-16.6.41-24.8l4.73-23.69c.99-4.97,3.52-12.94,6.56-13,1.97-.04,3.04,4.63,2.82,8.47l-.86,14.97-1.02.02.84-16.46c.11-2.23-.46-4.46-2.09-6.21-2.66,3.31-4.07,6.95-4.85,10.88l-5.07,25.41c-1.65,8.25-1.22,16.58-.21,25.13Z"/>
    <path d="M99.73,120.03l-15.65-7.11c-1.33,5.47-3.91,12.12-8.41,11.24-3.16-.62-4.85-5.15-3.26-7.94.77-1.34,2.35-1.76,3.94-2.26l6.8-2.14c3.5-6.49,4.78-12.96,5.83-20.03l3.17-21.2c1.31,6.76-1.13,13.1-1.93,19.74-.92,7.6-2.46,14.69-5.87,21.52l14.72,6.68c2.77,1.26,5.75,2.4,8.76,2.25.47-.02,1.28.53,1.24.9s-.52,1.43-.82,1.22l-1.28-.89c-2.58-.29-4.76-.85-7.24-1.98ZM81.06,119.32l2.18-6.6-8.89,2.83c-2.67.85-1.99,6.12.28,7.23,2.84,1.39,5.53-.75,6.42-3.46Z"/>
    <path d="M123.24,101.43c.29,2.12-.91,4.11-2.62,5.78-2.5,2.45-5.09-3.76-5.76-10.06-1.31,4.93-4.95,12.09-6.58,10.43-1.78-1.8,2.17-10.41,4.72-14.58,1.2-1.96,4.58-2.1,5.64-.29l-4.28.13c.94.95,1.5,1.54,1.56,2.14.47,4.78.84,10.79,4.03,11.62l3.29-5.17ZM114.07,93.8c-2.88,3.77-4.4,7.63-5.09,12.5,3.2-2.04,4.33-7.86,5.09-12.5Z"/>
    <path d="M103.87,184.72c-3.39,1.76-2.77-6.53-2.76-11.83-1.6,1.33-2.23,1.52-3.87.69l-2.43,8.9c-.39,1.43-1.87,3.85-2.54,5.07-.11.19-.82.4-1.03.47-1.54.52,2.29-3.34,3.01-6.79l2.81-13.42,1.69,5.19,4.44-4.68c-.86,5.76-1.44,10.11-.49,15.6l4.16-2.46c-.41,1.23-1.93,2.71-2.98,3.26Z"/>
    <path d="M119.46,188.13c-.79.88-2.24,1.37-2.97,1.16-.85-.24-2.01-1.56-2.09-2.68-.34-5.32.82-15.81,3.26-16.72.49-.18,1.44.05,1.94.26l-1.85,1.15c-.3.19,1.16.89,1.47,1.23,3.56,3.81,4.23,11.16.24,15.6ZM120.8,176.78c-.57-2.01-1.77-3.66-3.86-4.51-1.76,5.69-2.91,16-.2,16.34,2.46.31,5.91-5.33,4.06-11.83Z"/>
    <path d="M136.46,185c-1.45,1.84-4.86,2.57-6.2.3l-1.79-3.42c-.84,2.05-1.03,3.74-3.29,4.23,2.93-4.69,2.59-7.55,2.64-12.61l.02-1.32c0-.27,1.18-.19,1.2.07l.09,1.23c.28,3.74-.05,12.08,3.65,12.1,2.79.01,2.64-2.41,4.05-1.53.2.12-.13.65-.37.95Z"/>
    <path class="st0" d="M81.06,119.32c-.9,2.71-3.58,4.85-6.42,3.46-2.27-1.1-2.95-6.38-.28-7.23l8.89-2.83-2.18,6.6Z"/>
    <path class="st0" d="M114.07,93.8c-.76,4.64-1.89,10.46-5.09,12.5.69-4.87,2.22-8.73,5.09-12.5Z"/>
    <path class="st0" d="M120.8,176.78c1.85,6.5-1.61,12.13-4.06,11.83-2.71-.34-1.56-10.65.2-16.34,2.09.86,3.29,2.51,3.86,4.51Z"/>
    <g>
      <path class="st0" d="M100.48,40.85l-4.35-2.3c4.35-.5,7.42-.71,11.88-.39-2.31,1.64-4.19,1.73-7.54,2.69Z"/>
      <g>
        <path class="st0" d="M92.99,40.71c-1.64,1.95-3.63,3.22-6.03,1.73l-4.93-3.04c-2-1.23-4.82-1.03-7.23-1.78-3.46-1.08-7.65-3.75-9.15-7.24-2.75-6.43,2.62-12.91,9.06-13.7,1.96-.24,4.45-1.28,6.11-.15,3.08,2.09,5.82,4.22,8.6,6.53,2.52,2.09,3.53,5.06,4.58,8.05l2.08,5.92-3.09,3.68ZM81.33,23.23l-.95-3.08c-4.13-1.33-8.48-.41-11.18,3.05-1,1.28-1.15,3.41-.44,4.82.56,1.11,2.38,2.11,3.66,2.34,4.31.78,3.89-3.45,8.9-7.13ZM92.22,34.71c.69-2.8-4.06-8.09-6.51-8.13-2.22-.04-5.87,3.63-7.68,6.49,2.04,3.86,4.93,6.37,8.96,7.61,1.69-1.71,4.62-3.54,5.23-5.97Z"/>
        <path d="M81.33,23.23c-5.01,3.68-4.59,7.91-8.9,7.13-1.28-.23-3.1-1.23-3.66-2.34-.71-1.41-.56-3.54.44-4.82,2.7-3.46,7.05-4.38,11.18-3.05l.95,3.08ZM79.99,22.78c.05-3.33-6.35-2.51-9.07.08-1.25,1.19-1.86,2.76-1.33,4.3.33.97,2.08,2.04,3.16,2.19,2.93.4,3.59-3.66,7.24-6.57Z"/>
        <path d="M92.22,34.71c-.6,2.43-3.54,4.25-5.23,5.97-4.03-1.24-6.93-3.75-8.96-7.61,1.8-2.86,5.45-6.53,7.68-6.49,2.45.04,7.2,5.33,6.51,8.13ZM91.69,33.72c-.86-2.05-2.5-4.13-3.93-5.42-2.66-2.42-6.5,1.26-8.77,5.1,1.42,2.03,3.08,4.24,5.07,5.01,3.13,1.2,6.92-1.22,7.63-4.69Z"/>
        <path class="st0" d="M79.99,22.78c-3.65,2.91-4.31,6.97-7.24,6.57-1.08-.15-2.83-1.22-3.16-2.19-.52-1.54.08-3.1,1.33-4.3,2.72-2.6,9.11-3.41,9.07-.08Z"/>
        <path class="st0" d="M91.69,33.72c-.71,3.48-4.5,5.89-7.63,4.69-1.99-.76-3.65-2.98-5.07-5.01,2.28-3.84,6.12-7.52,8.77-5.1,1.42,1.29,3.07,3.37,3.93,5.42Z"/>
      </g>
    </g>
  </g>
  <line class="st1" x1="53.66" y1="100.93" x2="53.25" y2="106.22"/>
  <line class="st1" x1="57.12" y1="54.93" x2="54.88" y2="59.21"/>
</svg>