<?xml version="1.0" encoding="UTF-8"?>
<svg id="Layer_1" xmlns="http://www.w3.org/2000/svg" version="1.1" viewBox="0 0 211 274.5">
  <!-- Generator: Adobe Illustrator 30.4.0, SVG Export Plug-In . SVG Version: 2.1.4 Build 226)  -->
  <defs>
    <style>
      .st0 {
        fill: #fff;
      }
    </style>
  </defs>
  <path d="M164.94,239.54c-1.62,1.02-4.06,2.68-6.07,3.2l-19.38,5.07c-13.38,3.5-39.09,3.67-54.01,2.93-6.46-.32-12.77-3.31-18.01-6.62-1.89-3.45-3.5-7.08-6.22-9.69l-.91-15.91c-.48-8.45-.04-16.53.09-25.04.25-17.02-.31-33.49-1.15-50.47-.24-4.8,1.62-9.3,1.91-14.02.46-7.55.79-14.9.17-22.47-.35-4.28-3.97-11.44-3.61-16.55.53-7.5,1.1-14.8,2.19-22.17l.99-6.68c.35-2.37,2.45-5.2,3.23-7.42l-1.06-2.24c2.99-2.83,6.71-4.64,10.86-5.38l7.04-1.26c-4.88-1.23-9.53-3.94-11.87-8.37-1.75-3.3-.51-7.26,1.37-10.1,3.38-5.12,13-6.17,14.69-5.06,3.12,2.04,5.81,4.17,8.6,6.4,3.34,2.67,4.59,6.27,5.79,10.25.55,1.81,1.25,3.35,1.19,5.14l28.51-1.08c3.75-.14,7.44,2.7,10.74,3.91,4.76,1.74,3.68,8.49,3.91,11.34l1.07,13.75c.39,5,.09,9.91,1.41,14.88l-.35,22.14c-.05,2.84-.17,5.47-.93,8.14-1.31,6.55-2.68,12.84-4.82,19.11-.3.33-.98,1.23-.71,1.44l1.24,1.01,7.75,9.14,4.37,7.18c1.15,1.89,2.21,3.21,2.4,5.52.75,9.35,1.86,18.31,3.24,27.48l3.38,23.4,2.02,23.04.97,6.07ZM95.28,48.13l4.71-4.72c.68-1.14-.98-3.8-1.3-5.1-.94-3.86-2.63-7.9-6.05-10.48l-7.48-5.63c-1.41-1.06-4.1-.06-5.72.12-5.51.62-9.73,4.38-10.29,10.06-.32,3.23,1.8,5.82,4.19,7.77,6.23,5.08,10.21,2.11,16.06,6.96,1.4,1.16,4.3,2.59,5.88,1.02ZM110.03,45.15c.8-.19,1.65-.83,2.1-1.71l-11.95.65,4.4,2.35,5.45-1.29ZM134.28,53.62l6.2-1.7c.64-.17,1.69-1.08,1.86-1.7s-.51-2.23-1.13-2.59c-5.46-3.17-10.59-5.86-15.96-3.34,3.39,1.28,5.49,2.42,7.54,5.29-1.66,2.02-3.14,3.35-5.04,4.97,2.25-.08,4.46-.36,6.53-.92ZM122.4,54.44c-6.05-2.07-12.98-1.19-17.51-2.85l-7.33.55c-1.54.12-3-.31-3.99-1.44l1.51-.64c.28-.12.22.64.26,1.36,4.15.33,9.34.01,9.25-1.82l-.11-2.07-1.64.33c-.12.02-.12-.11-.04-.22l.71-1.02c-.52-.58-2.8-1.8-3.88-1.47-1.7.52-2.91,2.71-3.88,3.97-3.65.96-6.79-1.2-9.48-3.58-8.05.43-16.43,1.04-22.19,6.15,6.56,5.81,16,4.19,24.16,4.04l20.23-.38,4.51-.22c3.21-.16,6,.12,9.43-.69ZM65.16,53.77l-3.83,7.9c2.75.53,5.03.81,7.68.89,10.35.32,20.32.33,30.63-.2l28.33-1.46c5.16-.27,13.04-1.08,14.79-4.16.65-1.14.49-3.68-.06-5.02-3.14,1.14-5.71,2.4-8.69,2.75-4.76.56-9.28,1-14.05,1.11l-18.48.45-5.05.31-10.94.33c-4.67.14-11.78.52-15.23-.86l-5.12-2.04ZM163.53,239.04l-1.41-12.57c-.44-9.76-1.73-19.09-3.2-28.7l-1.52-9.98c-3.79,1.44-7.03.74-10.71-2.1l-.18,9.57c-2.51-3.21-.35-7.34-1.05-10.73-1.9-4.5-3.9-8.66-4.82-13.63-.22-1.18-1.09-3.39-2.21-3.77-1.2-.42-2.49.88-4.06,1.87-.94-1.86,2.94-3.77,4.83-2.94,2.54,1.1,3.49,10.82,6.46,15.87.96-5.1,1.08-9.4,2.9-13.88.8,5.41-2.37,10.24-1.25,15.47.8,3.71,6.59,4.85,9.93,3.05l-2.32-18.46c-.38-3.06.03-6.98-1.22-9.8-1.7-3.84-3.94-7.29-6.19-10.8-1.6-2.49-3.7-4.61-5.62-6.9-.93-1.11-2.05-2.01-3.19-2.65l-12.91,19.34c-.94,1.41-2.25,2.91-3.88,2.93l4.05-5.29,13.2-19.89c2.36-7.81,4.24-15.43,5.68-23.51l.22-20.08c.06-5.34-.78-10.57-.99-15.98s-.54-11-1.25-16.7c-6.57,2.93-14.39,3.03-21.32,3.37l-25.53,1.27c-11.46.57-22.48.34-33.99-.47-1.72,9.53-2.72,18.89-2.99,28.47-.07,2.45.96,4.93,2.18,6.82l4.29,6.83c3.07,4.89,8.23,8.22,10.64,13.46-3.97-3.02-6.19-6.96-9.49-10.14-1.87-1.8-2.96-3.86-4.74-6.2l.8,4.44c.12,7.56.28,14.85-.32,22.36-.39,4.92-2.06,9.5-1.85,14.55.73,17.19,1.41,33.93,1.04,51.09-.17,8.11-.91,15.82-.12,23.9l.97,9.86,5.4,1.86,3.44.79,4.28,8.11c-2.03-.91-3.24-3.08-3.99-5.09s-1.85-2.02-3.66-2.63l-5.46-1.82c-1.37,5.12,3.74,7.34,5.92,13.69,5.76,3.69,12.75,6.67,19.82,6.59l27.88-.3c7.71-.08,15.33-.87,22.74-2.76l17.51-4.47c2.51-.64,5-1.79,7.26-3.31Z"/>
  <path class="st0" d="M163.53,239.04c-2.26,1.51-4.75,2.66-7.26,3.31l-17.51,4.47c-7.41,1.89-15.03,2.68-22.74,2.76l-27.88.3c-7.07.08-14.05-2.9-19.82-6.59-2.18-6.35-7.29-8.56-5.92-13.69l5.46,1.82c1.81.6,2.88.53,3.66,2.63s1.97,4.18,3.99,5.09l-4.28-8.11-3.44-.79-5.4-1.86-.97-9.86c-.79-8.08-.05-15.79.12-23.9.36-17.16-.31-33.91-1.04-51.09-.21-5.05,1.45-9.64,1.85-14.55.6-7.51.44-14.8.32-22.36l-.8-4.44c1.78,2.34,2.87,4.4,4.74,6.2,3.3,3.18,5.52,7.11,9.49,10.14-2.41-5.24-7.57-8.57-10.64-13.46l-4.29-6.83c-1.22-1.89-2.24-4.37-2.18-6.82.27-9.58,1.27-18.94,2.99-28.47,11.52.82,22.53,1.04,33.99.47l25.53-1.27c6.93-.34,14.75-.44,21.32-3.37.71,5.7,1.02,11.11,1.25,16.7s1.05,10.64.99,15.98l-.22,20.08c-1.43,8.08-3.32,15.7-5.68,23.51l-13.2,19.89-4.05,5.29c1.63-.02,2.94-1.51,3.88-2.93l12.91-19.34c1.14.64,2.26,1.54,3.19,2.65,1.92,2.29,4.02,4.41,5.62,6.9,2.26,3.5,4.49,6.95,6.19,10.8,1.25,2.82.84,6.74,1.22,9.8l2.32,18.46c-3.34,1.8-9.13.65-9.93-3.05-1.13-5.24,2.04-10.06,1.25-15.47-1.82,4.48-1.94,8.78-2.9,13.88-2.97-5.05-3.92-14.77-6.46-15.87-1.89-.82-5.77,1.09-4.83,2.94,1.57-.99,2.85-2.28,4.06-1.87,1.12.39,1.99,2.6,2.21,3.77.92,4.96,2.92,9.13,4.82,13.63.7,3.39-1.46,7.51,1.05,10.73l.18-9.57c3.68,2.84,6.92,3.54,10.71,2.1l1.52,9.98c1.47,9.61,2.75,18.94,3.2,28.7l1.41,12.57ZM105.33,126.33c1.88.87,4.27,1.06,6.17,1.23l.49,1.61c.87-.85,1.32-1.45,1.33-1.95.01-.4-1.13-.84-1.52-.83-2.86.07-4.99-.68-7.42-1.79l-15.8-7.16c3.56-6.65,4.76-13.63,5.91-20.89,1.09-6.86,2.2-13.21,2.73-19.9l-1.36.62c-.25,6.47-1.16,12.19-2.6,18.39-.57,7.6-2.34,14.53-5.71,21.58l-6.15,2.19c-2.09.74-4.43.66-5.16,3.44-.52,1.98.22,5.35,2.36,6.46,2.42,1.26,5.72-.39,6.85-2.78,1.23-2.61,1.92-4.81,3.06-7.98l16.79,7.76ZM127.52,106.56l-3.4,5.98c-1.86-1.47-2.67-2.81-2.96-4.94l-1.03-7.66c-.05-.38-1.11-1.27-1.36-1.5l4.29.05c-1.37-2.05-4.37-1.74-5.64,0-4.37,6.04-6.48,15.23-4.64,14.81l1.65-.38c2.22-2.86,3.2-5.72,4.71-9.81l1.45,6.95c.25,1.18,2.08,3.34,3.26,3.23,2.5-1.01,4.17-3.84,3.66-6.73ZM75.29,214.3c-.13-6.79-.92-13.12,0-19.47,1.43-9.76,3.67-19.12,5.63-28.77.83-4.07,2.02-7.98,4.98-11.07,1.45,2.16,1.95,4.31,1.84,6.52l-.84,16.15,1.18-.15.76-16.05c.16-3.39-.98-7.54-3.07-7.3-2.71.31-5.28,7.81-6.16,12.34l-5.61,28.73c-.9,4.63.2,9.53-.08,14.26-.25,4.11.39,8.29,2.25,11.76,1.18,2.21,3.38,2.98,5.63,1.86,3.79-1.87,6.13-6.32,4.44-10.86l-1.11,5.37c-.53,2.57-3.72,5.87-6.53,4.35-2.17-1.18-3.25-4.93-3.3-7.69ZM105.41,188.36c0,1,1.67,2.44,2.42,2.07,1.53-.73,3.1-1.79,3.47-3.48l-4.48,2.55c-.67-5.75-.09-9.77.51-15.56l-4.26,4.83-1.72-5.24c-1.35,6.11-1.85,11.5-4.38,16.88-.73,1.14-1.63,2.18-1.7,3.55,1.53-.88,2.97-2.64,3.41-4.25l2.97-10.86c.74.8,1.78,1.23,2.17.86l1.63-1.49-.02,10.12ZM123.96,193.66c3.52-4.6,3.37-11.04-.29-15.33-.32-.37-1.51-1.11-1.17-1.38l1.48-1.23c-.83-.94-3.01-.3-3.47,1.29-1.69,5.75-3.38,16.79-.11,17.92.86.3,2.78-.25,3.56-1.26ZM141.24,189.59c0-.29-1-.18-1.2.01-.61.67-1.9,1.64-2.8,1.67-3.91.13-3.44-8.25-3.77-11.71l-.15-1.62c-.03-.29-.78-.27-1.17-.26l-.26,7.62c-.08,2.29-1.36,4.52-2.51,6.53,2.44-.02,2.57-2.71,3.39-4.13.94,2.02,1.73,3.81,2.93,4.34,1.9.85,5.48-.35,5.55-2.44ZM136.2,232.16c-.28.23-1.31.67-1.06.87l.89.7c.19.15.4-.14.68-.45l12.34-10.31c.87-.73.57-2.68.15-3.69l-4.92-11.97c-.11-.36-.88,1.21-.66,1.73l4.37,10.47c.9,2.16.01,2.86-1.49,4.1l-10.32,8.54Z"/>
  <path class="st0" d="M65.16,53.77l5.12,2.04c3.45,1.38,10.56,1,15.23.86l10.94-.33,5.05-.31,18.48-.45c4.76-.12,9.28-.55,14.05-1.11,2.97-.35,5.54-1.61,8.69-2.75.55,1.33.71,3.87.06,5.02-1.75,3.07-9.62,3.89-14.79,4.16l-28.33,1.46c-10.31.53-20.28.52-30.63.2-2.65-.08-4.93-.36-7.68-.89l3.83-7.9Z"/>
  <path class="st0" d="M122.4,54.44c-3.43.81-6.22.53-9.43.69l-4.51.22-20.23.38c-8.16.15-17.6,1.76-24.16-4.04,5.76-5.1,14.14-5.72,22.19-6.15,2.69,2.38,5.83,4.54,9.48,3.58.97-1.26,2.18-3.45,3.88-3.97,1.08-.33,3.36.88,3.88,1.47l-.71,1.02c-.08.11-.08.25.04.22l1.64-.33.11,2.07c.1,1.83-5.1,2.15-9.25,1.82-.04-.72.03-1.48-.26-1.36l-1.51.64c.99,1.13,2.45,1.56,3.99,1.44l7.33-.55c4.53,1.66,11.46.77,17.51,2.85Z"/>
  <path class="st0" d="M134.28,53.62c-2.07.57-4.27.84-6.53.92,1.9-1.61,3.38-2.95,5.04-4.97-2.05-2.87-4.16-4-7.54-5.29,5.38-2.51,10.5.17,15.96,3.34.62.36,1.3,1.97,1.13,2.59s-1.23,1.53-1.86,1.7l-6.2,1.7Z"/>
  <path d="M75.29,214.3c.05,2.75,1.13,6.51,3.3,7.69,2.81,1.52,6-1.78,6.53-4.35l1.11-5.37c1.69,4.53-.65,8.99-4.44,10.86-2.25,1.11-4.45.35-5.63-1.86-1.86-3.47-2.5-7.65-2.25-11.76.29-4.73-.82-9.63.08-14.26l5.61-28.73c.88-4.53,3.45-12.03,6.16-12.34,2.1-.24,3.23,3.91,3.07,7.3l-.76,16.05-1.18.15.84-16.15c.12-2.21-.39-4.36-1.84-6.52-2.96,3.09-4.15,6.99-4.98,11.07-1.96,9.64-4.2,19-5.63,28.77-.93,6.35-.13,12.68,0,19.47Z"/>
  <path d="M105.33,126.33l-16.79-7.76c-1.15,3.17-1.83,5.37-3.06,7.98-1.13,2.39-4.43,4.04-6.85,2.78-2.14-1.12-2.88-4.48-2.36-6.46.73-2.78,3.07-2.7,5.16-3.44l6.15-2.19c3.36-7.05,5.14-13.98,5.71-21.58,1.44-6.19,2.35-11.92,2.6-18.39l1.36-.62c-.53,6.69-1.65,13.04-2.73,19.9-1.15,7.27-2.34,14.24-5.91,20.89l15.8,7.16c2.43,1.1,4.56,1.86,7.42,1.79.39-.01,1.53.43,1.52.83-.02.5-.46,1.1-1.33,1.95l-.49-1.61c-1.91-.17-4.29-.36-6.17-1.23ZM84.41,126.83l3-8.23-6.49,1.81c-1.07.3-2.75.79-3.31,1.52s-.76,2.46-.59,3.38c.34,1.96,1.66,3.41,3.21,3.58,1.13.12,3.73-.82,4.18-2.07Z"/>
  <path d="M127.52,106.56c.51,2.9-1.15,5.72-3.66,6.73-1.18.11-3.02-2.06-3.26-3.23l-1.45-6.95c-1.5,4.09-2.49,6.95-4.71,9.81l-1.65.38c-1.84.42.27-8.77,4.64-14.81,1.26-1.75,4.26-2.05,5.64,0l-4.29-.05c.24.23,1.31,1.12,1.36,1.5l1.03,7.66c.28,2.12,1.1,3.47,2.96,4.94l3.4-5.98ZM116.85,106.41l1.31-6.33c-2.88,3.47-4.24,7.05-4.75,11.69,1.78-1.44,2.52-3.22,3.44-5.36Z"/>
  <path d="M105.41,188.36l.02-10.12-1.63,1.49c-.39.36-1.44-.07-2.17-.86l-2.97,10.86c-.44,1.61-1.88,3.37-3.41,4.25.07-1.38.98-2.41,1.7-3.55,2.53-5.38,3.03-10.77,4.38-16.88l1.72,5.24,4.26-4.83c-.6,5.79-1.18,9.81-.51,15.56l4.48-2.55c-.36,1.69-1.94,2.74-3.47,3.48-.76.36-2.42-1.07-2.42-2.07Z"/>
  <path d="M136.2,232.16l10.32-8.54c1.5-1.24,2.39-1.94,1.49-4.1l-4.37-10.47c-.22-.53.55-2.1.66-1.73l4.92,11.97c.42,1.01.72,2.96-.15,3.69l-12.34,10.31c-.29.31-.5.6-.68.45l-.89-.7c-.26-.2.77-.64,1.06-.87Z"/>
  <path d="M123.96,193.66c-.77,1.01-2.7,1.56-3.56,1.26-3.27-1.13-1.59-12.17.11-17.92.47-1.58,2.64-2.23,3.47-1.29l-1.48,1.23c-.33.28.86,1.01,1.17,1.38,3.66,4.28,3.81,10.73.29,15.33ZM123.1,193.33c3.73-4.84,3.59-11.95-1.7-15.67-1.76,5.12-2.08,10-1.9,15.21.64.56,1.24,1.07,1.7,1.31.36.2,1.62-.48,1.9-.85Z"/>
  <path d="M141.24,189.59c-.07,2.1-3.65,3.29-5.55,2.44-1.2-.54-1.99-2.32-2.93-4.34-.82,1.42-.95,4.12-3.39,4.13,1.15-2.01,2.44-4.24,2.51-6.53l.26-7.62c.4,0,1.15-.03,1.17.26l.15,1.62c.33,3.46-.14,11.84,3.77,11.71.9-.03,2.19-1,2.8-1.67.2-.19,1.21-.31,1.2-.01Z"/>
  <path class="st0" d="M84.41,126.83c-.45,1.24-3.05,2.19-4.18,2.07-1.55-.17-2.86-1.62-3.21-3.58-.16-.92.06-2.67.59-3.38s2.24-1.22,3.31-1.52l6.49-1.81-3,8.23Z"/>
  <path class="st0" d="M116.85,106.41c-.92,2.15-1.66,3.93-3.44,5.36.51-4.64,1.87-8.23,4.75-11.69l-1.31,6.33Z"/>
  <path class="st0" d="M123.1,193.33c-.29.37-1.54,1.05-1.9.85-.45-.25-1.06-.75-1.7-1.31-.18-5.21.14-10.08,1.9-15.21,5.29,3.72,5.43,10.83,1.7,15.67Z"/>
  <g>
    <path class="st0" d="M110.03,45.15l-5.45,1.29-4.4-2.35,11.95-.65c-.45.88-1.31,1.52-2.1,1.71Z"/>
    <g>
      <path class="st0" d="M95.28,48.13c-1.57,1.58-4.48.14-5.88-1.02-5.86-4.85-9.83-1.88-16.06-6.96-2.39-1.95-4.51-4.53-4.19-7.77.56-5.68,4.78-9.44,10.29-10.06,1.62-.18,4.32-1.18,5.72-.12l7.48,5.63c3.42,2.57,5.11,6.62,6.05,10.48.32,1.3,1.98,3.96,1.3,5.1l-4.71,4.72ZM85.74,28.9l-1.06-3.08c-4.07-1.38-8.22-.43-11.11,2.8-.97,1.09-1.25,3.53-.61,4.93.5,1.09,1.99,2.08,3.49,2.45,4.57,1.13,4.37-3.95,9.29-7.11ZM91.41,46.33c1.72-1.69,4.2-3.54,5.08-5.64,1.11-2.66-3.91-8.62-6.72-8.47-2,.1-6.44,3.93-7.24,6.76,1.69,3.9,4.97,6.27,8.89,7.36Z"/>
      <path d="M85.74,28.9c-4.92,3.16-4.72,8.24-9.29,7.11-1.49-.37-2.99-1.36-3.49-2.45-.64-1.4-.37-3.85.61-4.93,2.89-3.23,7.04-4.19,11.11-2.8l1.06,3.08ZM83.87,28.74l-.17-2.03c-3.39-.91-6.99-.01-9.27,2.71-1.17,1.4-.81,3.63.34,4.59,1.23,1.04,3.79,1.43,4.69.12,1.41-2.04,2.67-3.61,4.41-5.39Z"/>
      <path d="M91.41,46.33c-3.92-1.09-7.19-3.46-8.89-7.36.8-2.83,5.23-6.66,7.24-6.76,2.81-.14,7.83,5.82,6.72,8.47-.88,2.11-3.36,3.96-5.08,5.64ZM95.82,39.46c-.66-2.48-2.83-4.91-4.88-6.04-2.16-1.19-5.63,2.39-7.73,5.55,1.57,2.03,2.77,4.02,4.89,5.01,2.95,1.39,7.42-1.26,7.73-4.52Z"/>
      <path class="st0" d="M83.87,28.74c-1.74,1.78-3.01,3.36-4.41,5.39-.91,1.31-3.46.92-4.69-.12-1.14-.97-1.51-3.19-.34-4.59,2.28-2.73,5.88-3.62,9.27-2.71l.17,2.03Z"/>
      <path class="st0" d="M95.82,39.46c-.31,3.26-4.77,5.91-7.73,4.52-2.12-.99-3.32-2.98-4.89-5.01,2.1-3.16,5.57-6.74,7.73-5.55s4.22,3.56,4.88,6.04Z"/>
    </g>
  </g>
</svg>