<?xml version="1.0" encoding="UTF-8"?>
<svg id="Layer_1" xmlns="http://www.w3.org/2000/svg" version="1.1" viewBox="0 0 213.5 277">
  <!-- Generator: Adobe Illustrator 30.4.0, SVG Export Plug-In . SVG Version: 2.1.4 Build 226)  -->
  <defs>
    <style>
      .st0 {
        fill: #fff;
      }

      .st1 {
        fill: none;
        stroke: #000;
        stroke-miterlimit: 10;
      }
    </style>
  </defs>
  <polygon class="st0" points="152.79 254.07 107.23 258.33 57.01 246.71 52.53 231.93 54.72 204.01 85.23 132.29 167.04 137.57 154.85 168.45 152.79 254.07"/>
  <polygon class="st0" points="167.04 137.57 80.07 134.89 53.28 64.78 126.87 30.83 145.78 70.77 167.04 137.57"/>
  <g>
    <path d="M152.39,236.95c.58-8.85,1.03-17.24,1.14-25.93l.11-9.18c-3.97.99-6.93-.56-10.11-3.59-.83,2.65-1.26,5.64-1.64,8.55-.24,0-1.11-.14-1.1-.35l.03-1.03,1.61-9.04c-1.52-4.8-2.43-9.64-2.64-14.92-.05-1.25-1.07-3.26-2.09-3.37l-3.76,1.2c.64-2.01,2.57-2.39,4.25-2.15,1.52.22,2.33,2.16,2.55,3.89l.89,7.1c.26,2.04.65,4.08,1.53,5.64,1.61-4.8,2.76-8.66,4.79-12.93.57,2.95-1.04,5.04-1.75,7.44l-2.3,7.72c1.61,3.86,5.78,5.91,9.76,4.58l1.21-26.26-.72-3.83c-.68-3.61-1.95-7.13-3.84-10.35l-5.28-9.03-1.7-1.63-11.43,12.37-5.66,5.96c-.64.67-2.1,1.11-3.08.73l4.3-3.57,8.99-9.62,10.09-11.48c.04,2.17-1.84,3.68-2.58,4.75,1.16.97,1.87,1.78,2.52,2.81,3.45,5.4,6.34,10.51,8.35,17,2.93-2.12,4.22-4.96,5.09-8.17.66-2.4,2.51-4.66,3.3-7.05,1.29-3.88,1.54-7.88,2.18-11.98.46-2.93,1.05-6.56-.3-9.38-4.7-9.79-9.17-19.32-11.85-29.99l-3.16-18.37c-.77-4.49-2.64-8.52-4.33-12.75l-4.46-11.12-7.26-14.58c-2.35-4.73-4.4-9.46-7.2-14.23-1.68,1.83-3.22,3.41-5.37,4.66-5.52,3.21-10.99,5.93-16.77,8.63l-13.68,6.4c-7.12,3.33-13.88,6.97-21.28,9.64l-15.91,5.73c2.16,9.69,4.88,19.14,8.48,28.07,1.01,2.51,3.1,3.88,5.02,5.22,2.6,1.81,4.9,3.98,7.65,5.32l12.85,6.29c0,.54.04,1.08-.14,1.04l-1.04-.25-13.51-6.78-3.92-2.07c1.28,2.21,2.29,3.44,3.11,5.39,2.74,6.52,5.22,12.83,7.55,19.36-2.23-1.54-2.4-3.91-3.27-6l-6.39-15.28-3.74-4.63-5.06-6.51c-3.15-8.36-5.76-16.72-7.87-25.46-.41-1.71-.97-3.36-1.68-4.72l.55-8.34-1.91-1.62c1.63-3.48,4-6.51,7.24-8.61l6.5-4.23c-8.34.28-16.22-1.41-16.88-9.53-.4-4.99,2.44-9.28,6.88-11.78,1.39-.78,3.47-2.52,5.16-2.17,4.59.96,8.86,1.85,12.99,3.6,2.63,1.11,4.56,4.02,6.31,6l3.82,4.33,11.07-5.26c4.8-2.28,9.46-4.59,14.43-6.48,4.03-1.53,8.86-.57,13.07-.31,2.73.17,4.92,5.96,6.12,8.33l6.87,13.54,6.24,12.35c2.28,4.51,3.85,9.31,5.8,14.12l4.57,11.28c.37.9.18,3.26.44,4.19,1.51,5.47,1.75,10.86,2.91,16.18,2.12,9.68,5.9,18.37,10.32,27.04,1.57,3.08,3.12,6.8,2.65,10.09l-1.51,10.6c-.35,2.48-.93,5.2-1.98,7.41l-2.74,5.75c-1.34,2.8-2.34,5.34-4.54,7.7-.36,1.45-.1,3.94-.17,5.6l-1.59,35.39.14,4.96-.41,12.65-1.11,14.35c-.32,4.2-.62,8.05-.35,12.1-3.48,1.58-7,2.37-10.81,2.85-13.32,1.69-26.51,1.97-39.92.21-9.81-1.29-19.09-2.7-28.78-4.66-6.58-1.33-12.72-5.2-17.48-9.76l-4.42-10.85,1.49-15.84,1.85-12.02c.35-2.27,1.29-4.63,2.11-6.78l7.28-19.25,2.61-5.86c3.49-7.82,5.83-15.82,8.56-24.02,1.88-5.38,3.75-10.49,5.1-16.04l-.29-2.89,8.33,3.16c5.5-.52,10.2-.05,15.67.44,4.69.43,10.06-1.41,14.42-2.48.24-.13,1.07-.93,1.21-.71.18.29.56,1.04.54,1.38l-.1,1.35c-.02.33-1.21-.56-1.46-.79-4.8.72-10.07,2.88-15.15,2.36s-9.76-1.08-15.12-.36l-6.84-2.65c-.66,2.57-.98,5.21-1.8,7.55l-11.06,31.41-9.32,23.68c-2.88,7.32-4.93,14.5-5.47,22.51l-.71,10.41,3.22,1.76c1.49.82,3.18,1.57,4.91,2.13l3.06,8.05c-.19.19-.65.66-.63.67.02,0-.78-.68-.83-.83l-2.29-6.76-2.82-1.22-4.88-2.74-.42,4.45c1.89,3.25,3.08,6.75,4.24,10.34,4.65,4,10.23,7.83,16.47,9.07,16.57,3.29,39.07,7.07,55.22,5.6l15.04-1.37c2.75-.25,5.61-.99,7.83-2.3l1.07-16.33ZM79.17,39.61l2.22-6.23c.52-1.45-2.04-2.96-2.74-3.99-2.86-4.19-6.49-7.05-11.49-8.19-2.75-.62-5.25-1.42-8.27-1.86-1.37-.2-3.39,1.81-4.52,2.43-4.74,2.6-7.04,7.25-5.77,12.59,1.36,5.69,10.13,8.15,16.09,6.3,2.21-.68,4.74-.72,7.02-.48,2.38,1.36,5.53,1.16,7.46-.58ZM111.6,32.7c4.29-1.74,7.09-4.19,10.38-6.77.58-.64,1.32-1.88,1.3-2.6s-1.39-2.03-2.13-2.07l-6.1-.37c-3.96-.24-7.39.41-9.85,3.58,3.45-.24,5.85.21,8.76,1.73-.41,2.51-1.26,4.11-2.35,6.51ZM53.28,56l-.48,9.03c2.38-.54,3.97-.96,6.01-1.68,11.49-4.1,22.3-8.84,33.32-14.14l23.02-11.07c4.31-2.07,10.57-5.57,10.93-9,.17-1.56-.7-3.57-2.09-4.68-4.07,4.42-8.59,7.3-13.82,9.75l-6.79,3.19-21,9.49-10.68,4.86c-5.86,2.67-11.67,5.41-18.41,4.25ZM87.14,34.29l5.82-4.7-.72-.83-10.12,5.01,5.02.51ZM94.34,40.86c4.11-1.81,7.95-3.47,11.83-5.86-5.48.52-10.24,2.05-15.14,4.06l-2.5-.23c-3.14,2.77-8.61,5.23-10.05,3.4-.17-.22.51-.89.74-.74,1.97,1.38,3.48.27,6.34-1.31,1.05-.58,2.15-1.28,2.44-2.03.36-.94-.36-2.79-1.08-2.79-.92,1.17-1.32,1.15-.92-.3-.99-.85-3.52-.81-4.72.26l-1.65,4.94-3.68,1.83-6.6-1.62c-6.5,3.6-14.62,6.93-17.81,14.24,6.74,2.39,14.52-1.16,20.97-4.14l5.5-2.54,16.32-7.17Z"/>
    <path d="M119.83,107.73l-19.88-.76.17,7.05c.1,4.08-2.82,7.16-5.28,6.83-2.05-.28-4.99-3.16-4.71-6.03.14-1.44,1.25-2.61,2.52-3.64l5.18-4.21c1.74-7.33-.04-13.82-1.77-20.8l-5.29-21.38c3.72,5.69,4.13,12.11,5.59,18.2l2.61,10.92c.93,3.89.44,7.95.52,12.11l16.21.5c2.81.09,5.42.28,8.22-1.07.36-.18,1.34-.31,1.74-.26s.34,1.26.28,2.07l-1.85-.71c-.92.32-3.13,1.23-4.27,1.19ZM95.07,120c2.68-.26,4.39-2.74,4.25-4.94l-.49-7.78-5.58,4.54c-.93.76-2.28,1.94-2.32,2.95-.13,2.83,2.75,5.36,4.14,5.23Z"/>
    <path d="M130.49,88.36c-1.39,1.14-3.9-.82-4.76-2.05l-3.72-5.29c.01,4.96,1.03,8.36-1.39,12.05l-2.04-1.16c-.44-4.85-.5-9.1-.11-13.9.52-2.43,3-4.14,5.28-2.83l-3,1.32,5.72,9.02c.67,1.05,2.16,1.89,3.78,2.15l1.05-6.58c1.16,1.83,1.46,5.39-.83,7.27ZM121.48,86.3l-1.42-7.84c-1.5,4.54-1.19,8.22.09,12.96.66-1.51,1.01-3.16,1.32-5.12Z"/>
    <path class="st0" d="M53.28,56c6.74,1.16,12.55-1.59,18.41-4.25l10.68-4.86,21-9.49,6.79-3.19c5.23-2.46,9.75-5.33,13.82-9.75,1.39,1.11,2.26,3.12,2.09,4.68-.37,3.43-6.62,6.93-10.93,9l-23.02,11.07c-11.01,5.3-21.82,10.04-33.32,14.14-2.04.73-3.62,1.15-6.01,1.68l.48-9.03Z"/>
    <path class="st0" d="M94.34,40.86l-16.32,7.17-5.5,2.54c-6.46,2.99-14.23,6.53-20.97,4.14,3.19-7.31,11.31-10.64,17.81-14.24l6.6,1.62,3.68-1.83,1.65-4.94c1.19-1.08,3.73-1.11,4.72-.26-.4,1.44,0,1.46.92.3.73,0,1.44,1.85,1.08,2.79-.29.75-1.39,1.45-2.44,2.03-2.87,1.58-4.37,2.69-6.34,1.31-.23-.16-.91.52-.74.74,1.44,1.83,6.91-.63,10.05-3.4l2.5.23c4.9-2.01,9.66-3.53,15.14-4.06-3.88,2.4-7.71,4.06-11.83,5.86Z"/>
    <path class="st0" d="M79.17,39.61c-1.93,1.74-5.08,1.94-7.46.58-2.29-.23-4.82-.2-7.02.48-5.96,1.85-14.74-.62-16.09-6.3-1.27-5.34,1.03-9.99,5.77-12.59,1.13-.62,3.15-2.63,4.52-2.43,3.02.44,5.52,1.23,8.27,1.86,5,1.14,8.63,4,11.49,8.19.7,1.03,3.26,2.54,2.74,3.99l-2.22,6.23ZM59.97,33.29c.56-3.06,1.35-5.39,2.75-8.01l-1.84-2.21c-4.23-.24-8.14,2.68-9.43,6.85-.39,1.25.14,3.3.85,4.1,2.31,2.66,7.31,1.31,7.68-.73ZM74.63,39.41c1.2-2.8,2.09-5.09,2.97-7.81-2.57-3.17-5.86-5.19-9.89-4.89-2.26,2.33-4.35,5.77-4.02,9.3,2.63,2.64,6.88,3.5,10.94,3.4Z"/>
    <path class="st0" d="M111.6,32.7c1.09-2.4,1.94-4,2.35-6.51-2.91-1.52-5.3-1.97-8.76-1.73,2.46-3.16,5.89-3.82,9.85-3.58l6.1.37c.75.05,2.12,1.36,2.13,2.07s-.72,1.96-1.3,2.6c-3.29,2.59-6.09,5.03-10.38,6.77Z"/>
    <polygon class="st0" points="87.14 34.29 82.12 33.78 92.24 28.77 92.96 29.59 87.14 34.29"/>
    <path class="st0" d="M95.07,120c-1.38.13-4.26-2.4-4.14-5.23.04-1.01,1.39-2.19,2.32-2.95l5.58-4.54.49,7.78c.14,2.19-1.57,4.67-4.25,4.94Z"/>
    <path class="st0" d="M121.48,86.3c-.31,1.96-.66,3.61-1.32,5.12-1.28-4.74-1.59-8.43-.09-12.96l1.42,7.84Z"/>
    <path d="M59.97,33.29c-.37,2.04-5.37,3.39-7.68.73-.7-.81-1.23-2.85-.85-4.1,1.29-4.17,5.2-7.09,9.43-6.85l1.84,2.21c-1.4,2.63-2.19,4.95-2.75,8.01ZM58.79,32.89c.64-2.38,1.24-4.38,2.07-6.63.22-.59-.59-2.2-1.23-2.1-3.78.59-6.69,3.21-7.22,6.84-.23,1.61,1.27,3.11,2.36,3.35,1.45.32,3.68-.18,4.02-1.47Z"/>
    <path d="M74.63,39.41c-4.05.1-8.31-.76-10.94-3.4-.34-3.52,1.76-6.96,4.02-9.3,4.03-.3,7.33,1.72,9.89,4.89-.88,2.72-1.77,5.01-2.97,7.81ZM71.25,38.35c2.89-.09,5.87-3.99,4.89-6.76-.87-2.46-5.46-4.59-7.9-4-2.44,1.81-3.29,5.04-3.96,7.98,2.09,1.3,4.24,2.86,6.96,2.77Z"/>
    <path class="st0" d="M58.79,32.89c-.34,1.28-2.58,1.79-4.02,1.47-1.08-.24-2.59-1.75-2.36-3.35.53-3.63,3.44-6.25,7.22-6.84.64-.1,1.45,1.51,1.23,2.1-.83,2.25-1.43,4.25-2.07,6.63Z"/>
    <path class="st0" d="M71.25,38.35c-2.72.09-4.87-1.47-6.96-2.77.67-2.94,1.51-6.17,3.96-7.98,2.44-.59,7.03,1.54,7.9,4,.98,2.77-2,6.66-4.89,6.76Z"/>
    <g>
      <path d="M71.91,193.89c-2.61,6.88-5.73,26.93-1.59,29.1,2.91,1.53,6.08-1.02,7.13-3.56l1.9-4.62c1,5.07-3.08,9.75-7.94,9.81-4.07.05-4.79-7.79-3.89-13.35s1.21-10.89,2.84-16.12c2.79-8.96,6.43-17.34,9.69-26.13,1.72-4.62,5.57-12.3,8.59-11.93,2.18.26,2.09,5.18,1.32,9.4l-2.88,13.2-1.42,1.02,3.32-14.85c.57-2.56.72-5-.42-7.94-3.04,1.87-4.74,4.62-5.97,7.84l-10.68,28.12Z"/>
      <path d="M103.54,196.27c-2.44-.22-.46-7.54.58-12.36l-3.21,1.61c-.21-.46-.61-1.47-.73-1.32l-.86,1.12c-1.64,4.34-3.47,8.14-6.23,11.8-.36.3-1.22.74-1.41.45-1.11-1.7,1.98-.86,4.5-7.39l4.44-11.53.81,5.65,4.92-3.95c-1.33,5.06-2.54,9.55-2.9,15.1l4.76-1.83c-1.24,2.01-2.96,2.82-4.68,2.66Z"/>
      <path d="M119.27,202.41c-.86.7-2.46.93-3.12.63-3.88-1.77,1.98-19.11,4.64-19.23.49-.02,1.44.65,1.72.91l-1.48.72c-.33.16.34.93.67,1.42,3.16,4.83,2.27,11.74-2.43,15.54ZM122.55,191.02c-.26-2.02-1.25-3.75-3.03-4.81-2.34,4.97-5.25,13.84-3.21,15.99,1.34,1.42,7.31-2.88,6.24-11.18Z"/>
      <path d="M125.44,243.71c-.98.16-.92-.63-1.33-.82-.02,0,1.01-.47,1.19-.55l14.27-8.46c-.46-5.16-3.38-9.78-2.3-15.22l3.14,12.95c.26,1.06.34,2.89-.72,3.53l-14.23,8.57Z"/>
      <path d="M137.24,200.39c.38,2.53-2.92,2.78-4.3,2.71-2.52-.67-3.08-2.71-3.52-5.48-1.33,1.22-1.35,3.69-3.97,3.78,2.08-2.85,3.41-5.54,4.09-8.97l.99-5c2.46,1.81-2.11,8.57,1.32,13.73,1.19,1.79,3.65.46,5.39-.79Z"/>
      <path class="st0" d="M122.55,191.02c1.08,8.3-4.89,12.6-6.24,11.18-2.04-2.15.86-11.02,3.21-15.99,1.78,1.07,2.77,2.8,3.03,4.81Z"/>
    </g>
  </g>
  <line class="st1" x1="79.13" y1="126.37" x2="81.01" y2="129.99"/>
</svg>