<?xml version="1.0" encoding="UTF-8"?>
<svg id="Layer_1" xmlns="http://www.w3.org/2000/svg" version="1.1" viewBox="0 0 213 275.5">
  <!-- Generator: Adobe Illustrator 30.4.0, SVG Export Plug-In . SVG Version: 2.1.4 Build 226)  -->
  <defs>
    <style>
      .st0 {
        fill: #fff;
      }
    </style>
  </defs>
  <polygon class="st0" points="169.99 217.43 108.21 223.12 73.94 212.23 53.64 195.09 63.78 172.52 75.34 154.18 147.76 140.96 175.92 144.27 172.77 170.03 182.59 195.05 169.99 217.43"/>
  <polygon class="st0" points="155.13 106.7 164.44 121.1 147.76 140.96 73.94 154.35 57.61 164.05 54.86 161.91 46.03 126.85 113.04 107.26 155.13 106.7"/>
  <g>
    <g>
      <path d="M100.47,183.44c1.92,2.41,5.34,4.1,7.93,5.62,2.16,1.26,4.48.17,6.73-.38-2.63,5.02-11.89-.44-15.38-4.36-2.7-3.03-1.05-7.45.38-10.63,2.91-6.48,9.92-20.43,14.99-19.26,2.65.61,3.92,5.99,2.24,9.55l-.54-5.93c-.07-.78-1.04-2.25-1.75-2.49-.8-.27-2.54.5-3.27,1.23-4.88,4.9-7.7,10.69-10.54,17.04-1.22,2.72-3.16,6.63-.78,9.61Z"/>
      <path d="M131.99,179.75c-.81-1.94-1.27-4.21-1.7-6.29-1.02,1.58-2.36,3.14-4.39,4.12-.66-.77-1.23-1.96-1.73-3.2-1.24,3.62-3.08,7.41-6.99,9.53-.16-.05.29-1.34.67-1.62,5.51-4.18,4.79-9.03,6.9-13.97l.93,8.13c3.97-1.68,3.65-4.55,5.09-8.2l.79,5.32,1.11,5.59,2.32-.43c.23,1.53-2.55,2.1-3.01,1.03Z"/>
      <path d="M146.45,170.03c-1.79-.74-1.71-3.2-3.71-4.9-.58-.49-1.05,2.09-1.38,2.1l-.96.05c-.31.01-.34-1.3-.11-1.51l1.66-1.52c1.09-1,3.94,2.04,4.5,5.79Z"/>
      <path class="st0" d="M166.89,176.34l-3.42,7.89-3.05-2.88c1.83-3.67,2.86-7.22,4.42-11.07l.98-2.43,4.16,3.12-3.1,5.37Z"/>
    </g>
    <g>
      <path d="M97.99,148.97c-9.7-.97-10.64-2.21-21.66,3.85l-10.41,16.11c-2.5,3.87-4.4,7.98-6.25,12.25l-6.02,13.92c5.5,2.5,10.49,4.56,14.89,8.44,2.84,2.5,2.81,7.52,8.18,8.29,3.87.56,7.95.89,11.57,2.4,8.32,3.45,16.47,10.73,25.2,8.74l33.3-7.58c11.77-2.68,23.12,3.14,24.37-.07l4.68-11.99c2.13-5.46,8.32-7.8,6.96-9.91-2.33-3.6-4.16-6.66-5.86-10.36l-5.43-11.83c-1.94,1.71-2.59,3.99-3.62,6.2l-4.17,8.96c-3.26-3.57-6.14-5.88-10.23-7.31-3.48-4.01-7.84-6.52-12.82-8.08-.64,4.21-.5,7.97.42,11.97,2.09-.36,3.95-1.95,4.33-4l.92-4.99c1.83,4.36-.67,9.35-5.57,10.29-1.99-4.52-1.96-9.34-.89-14.25l-10.06-2.85c-3.74-1.06-7.64-.94-11.31.48-.04-1.94,1.48-2.14,2.97-2.2,7.63-.34,14.67,1.34,21.36,4.74l6.73,3.42.48-6.45c.03-.36.56-1.09.81-1.29,1.8-1.46-1.56,4.8.2,8.12.89,1.67,2.69,1.6,4.77,2.01l-2.43,1.33,6.24,3.46c1.93-3.88,3.2-7.24,4.35-11.39.21-.77,1.1-1.88,1.8-2.65l-.47-4.42-4.41,2.79c.28-2.36,2.78-3.54,5.01-3.49l1.24,3.95,3.12-6.4c.9,2.91-1.53,5.24-3.03,7.81.32,1.63,2.69,3.06,4.17,2.83.34-7.31,2.28-13.59,4.8-20.08.78-2,.87-5.41-1.44-6.35-2.44-.99-5.61-.51-8.22-.8l-9.55-1.05c-5.52-.61-11.65,2.28-8.71-1.21l16.18-19.18c-1.93-2.17-2.99-4.11-4.72-5.87-1.44-1.47-4.34-2.51-6.1-3.77-5-3.58-13.59-3.7-19.49-2.28-4.04.97-7.81,1.73-11.92,2.09-9.98.87-19.53,2.27-29.3,4.53-3.23.75-6.86.37-9.96,1.21l-14.61,3.97-9.61,2.76-14.05,4.74c-.25-1.35.44-2.29.78-3.5l3.67-12.92c-1.23.65-4.11.88-4.32-.17-2.25-10.87,13.83-14.4,23.41-16.8l-7.19-1.04-6.24-.77c-6.42-.8-16.41.21-17.45-4.63-.17-.79.35-2.81,1.01-3.29l4.74-3.52.43.45-4.21,3.56c-.46.39-1.01,1.74-.95,2.33.26,2.5,5.5,3.79,9.11,3.65s6.6.09,9.99.73l13.49,1.83,11.69-3.2-6.37-1.38c-2.79-2.08-5.5-3.29-8.65-4.51-5.01-1.93-9.85-3.86-14.97-5.5-2.74-.88-5.01.03-7.69,1.29,1-1.78,3.38-2.79,5.3-2.41,6.42,1.28,12.02,3.57,18,6,2.2.9,4.76,1.46,6.59,2.93,4.6,3.69,7.31,1.27,8.4,3.64l13.82-2.6c3.66-.69,7.37-.72,11.1-.95,6.08-.37,12.1-.3,18.2-.04,3.54.15,7.29,1.21,10.8,1.01,7-.38,13.83-.4,20,3.74.73.49,1.54,2.4,1.41,3.26s-1.3,2.28-2.1,2.63l-3.7,1.61,6.39,12.01c2.74,2.11,3.33,5.77,6.81,8.73-1.6,2.5-3.45,5.05-5.44,7.38l-10.61,12.41c2.91-.35,5.37-.36,8.13-.12l15.41,1.31c2.13.18,3.86,1.51,4.26,3.72.26,1.45.15,3.5-.39,4.95-2.18,5.87-3.99,11.48-4.63,17.78-.19,1.83.58,4.74,1.36,6.31l5.86,11.77,3.81,6.13c2.35,3.79-4.63,7.05-5.69,9.64l-5.74,14.01c-.54,1.32-3.32,1.89-4.75,1.69l-13.41-1.88c-2.78-.39-5.86.61-8.64,1.26l-29.11,6.79c-2.82.66-6.43,1.12-9.16.46-4.77-1.14-9.07-3.32-13.19-5.81-12.6-7.61-20.26-2.57-23.63-9.87-1.46-3.17-3.82-5.62-6.86-7.13l-9.38-4.67c-1.05-.52-2-1.89-1.46-3.07l9.54-21.01,13.47-21.93c-2.82,1.67-5.01,3.55-7.17,5.82-3.93,4.12-11.43,8.39-12.34,5.93-1.35-3.67-3.11-8.48-4-12.62-1.52-7.07-3.23-13.53-5.61-20.63,2.69,1.25,2.77,4.38,3.39,6.74l4.9,18.66,2.44,7.4c3.98-1,7.21-3.19,10.02-6.22s6.02-5.37,9.5-7.56c1.78-1.12,3.66-2.61,5.73-3.22,7.89-2.34,15.47-4.91,23.55-6.37l17.49-3.18-3.95-6.19c-1.2-1.89-2.44-4.04-4.03-5.22-1.01.43-1.28.58-1.69.55s-.4-1.96,0-1.95c1.24.03,3.57,1.24,4.31,2.38l4.23,6.47,2.01,3.89,10.96-1.13-.05.95-6.1.97c3.82.73,7.37-.72,10.7-1.67-1.01-4.73-1.68-12.49-.58-12.89.52-.19,1.55-.06,2.56.16l-2.19,1.17.99,10.21c.59-3.73-.07-6.57-.32-10.59l9.4,7.11c1.12.85,3.7.77,4.3-.21.11-.18.11-1.02.1-1.24-.01-.29.92.05,1.64.39,0,1.05-1.47,2.34-2.48,2.62-1.55.43-3.14.02-4.29-.85l-7.37-5.56c.28,3.33.53,6.39.17,9.59-.18,1.59-8.72,3.54-13.3,2.78-3.71,2.31-6.54,5.45-9.92,8.72l4.33,2.3c3.38-3.04.95-5.91,1.89-7.57.13-.22.8-.03.83.22l.12,1.12c.3,2.73.13,4.74-1.9,7l12.53.38,16.79.77,1.09.55c.22.11-.66.7-.92.85l-37.93-1.44c-6.02-.22-11.56-.58-17.55-1.18ZM93.2,99.54l4.83-.44c10.23-.13,20.11.05,30.24.16l23.18.25,4.82-2.21c.63-.29,1.36-1.88,1.33-2.56-.1-2.61-7.16-4.93-11.31-5.04l-13.64-.36-6.29-.65c-8.21-.85-24.69,0-33.03,1.68-4.59.93-8.89,1.81-13.51,2.45-2.76.38-5.12,1.33-7.7,2.24-6.21,2.18-13.04,2.53-21.07,6.95-3.53,1.94-5.67,5.19-5.42,9.51,1.52.07,2.93-.32,4.37-1.03,4.39-2.16,8.57-4.57,13.41-5.58,9.92-2.05,19.51-3.79,29.81-5.37ZM95.22,114.3c6.91-1.71,13.66-2.68,20.79-3.35,4.19-.39,8.27-.76,12.36-1.62,6.82-1.43,13.59-2.95,20.52-1.14,3.27.85,5.82,3.05,9.22,4.43l-6.26-12.47c-4.4.53-8.34.15-12.52.06l-22.09-.45c-4.61-.09-9.1-.43-13.76-.15l-6.52.4c-11.41,1.28-22.48,3.14-33.59,5.82-4.63,1.12-8.66,3.07-12.86,5.13l-4.48,15.87c3.28-1.11,6.45-2.33,9.93-3.33l14.68-4.23,12.61-3.36,11.97-1.62ZM122.07,149.04c-1.75-.96-2.95-1.62-4.65-2.98,3.5-3.99,6.47-6.86,10.57-9.93-15.79,1.94-31.36,5.37-46.66,10.58-1.67.57-3.1,2.07-3.12,3.33,3.09-1.13,5.8-3.57,8.94-3.36l34.93,2.36ZM166.89,176.34l3.1-5.37-4.16-3.12-.98,2.43c-1.56,3.85-2.6,7.4-4.42,11.07l3.05,2.88,3.42-7.89Z"/>
      <path class="st0" d="M95.22,114.3l-11.97,1.62-12.61,3.36-14.68,4.23c-3.48,1-6.65,2.22-9.93,3.33l4.48-15.87c4.19-2.06,8.23-4.01,12.86-5.13,11.11-2.68,22.18-4.55,33.59-5.82l6.52-.4c4.67-.29,9.15.05,13.76.15l22.09.45c4.18.09,8.12.47,12.52-.06l6.26,12.47c-3.4-1.39-5.96-3.58-9.22-4.43-6.93-1.81-13.7-.29-20.52,1.14-4.08.86-8.17,1.23-12.36,1.62-7.12.66-13.87,1.64-20.79,3.35Z"/>
      <path class="st0" d="M93.2,99.54c-10.3,1.57-19.89,3.31-29.81,5.37-4.84,1-9.03,3.41-13.41,5.58-1.44.71-2.85,1.11-4.37,1.03-.25-4.32,1.89-7.57,5.42-9.51,8.04-4.42,14.86-4.78,21.07-6.95,2.58-.9,4.94-1.85,7.7-2.24,4.62-.64,8.92-1.52,13.51-2.45,8.35-1.68,24.83-2.53,33.03-1.68l6.29.65,13.64.36c4.16.11,11.21,2.43,11.31,5.04.03.67-.7,2.27-1.33,2.56l-4.82,2.21-23.18-.25c-10.13-.11-20.01-.28-30.24-.16l-4.83.44Z"/>
      <path class="st0" d="M122.07,149.04l-34.93-2.36c-3.13-.21-5.85,2.23-8.94,3.36.02-1.26,1.45-2.76,3.12-3.33,15.29-5.21,30.87-8.65,46.66-10.58-4.09,3.06-7.06,5.94-10.57,9.93,1.7,1.36,2.9,2.03,4.65,2.98Z"/>
      <path d="M64.89,87.14l-5,3.69c4.06.28,7.35.68,11.16,1.85l2.61-1.92-3.08-2.21c1.03-.26,3.23.89,3.37,1.94-.07,2-2.62,3.37-4.22,2.86-3.47-.83-6.61-1.41-10.05-1.96l-.7-1.1c-.19-.29-1.22.28-1.6.25l-7.39-.62-4.86-.4c-.36-.03-1.27-.66-1.49-.95-.27-.37.3-1.45.73-1.71l4.35-2.59c2.67-1.59,4.71-2.22,7.81-1.22l4.77,1.54c.43.14,1.51,1.35,1.2,1.67l-1.44,1.51.23-1.5c.05-.34-.58-1.08-.91-1.16l-7.87-2.15c-2.8,1.51-5.06,2.95-8,5.16,4.03,1.99,8.55-.24,12.51,1.79l3.23-2.06.09,1.22,5.01-2.98c.25-.15,1.41.58,1.65.75l-2.12.33Z"/>
    </g>
  </g>
</svg>