<?xml version="1.0" encoding="UTF-8"?>
<svg id="Layer_1" xmlns="http://www.w3.org/2000/svg" version="1.1" viewBox="0 0 214.5 276.5">
  <!-- Generator: Adobe Illustrator 30.4.0, SVG Export Plug-In . SVG Version: 2.1.4 Build 226)  -->
  <defs>
    <style>
      .st0 {
        fill: #fff;
      }
    </style>
  </defs>
  <path class="st0" d="M113.32,171.12l3.66-4.54c.21-.26,1.66-.35,1.75-.03l.57,2.1c1.39-2.63,3.01-4.98,6.31-4.69l-.35,1.25c-.07.23.42.85.65.74l1.88-.89-.2,3.75c2.82-2.9,1.25-7.46,6.3-7.56.63-.01,1.76-.33,2.54-.58l.13,5.37c.16-.1.94-.9.94-1.16l-.04-5.37,9.31-3.55-.34,1.45-5.95,1.56.05,1,5.46-1.39-1.66,3.71c1.69-1.05,2.36-2.3,3.31-3.95l4.58,1.44c.01,6.56,6.86,9.33,10.89,15.16-1.12,2.21-2.75,3.24-4.2,4.98-2.65,3.18-4.45,6.72-6.71,10.6-8.59,1.39-17.97-1.01-27.26-1.01l-53.41-.02c-2.46,0-4.73.48-6.98-.73-1.09-.59-1.21-3.27-.84-4.43,1.23-3.83-.32-6.96-3.78-9.36l5-4.48c-1.09-2.75-2.62-5.01-3.26-7.68l-2.81-11.69c-.92-3.83-7.84-2.87-9.19-5.11-.59-.99-.75-3.04-.61-3.85,2.15,2.13,4.32,3.64,7.06,4.74,3.68,1.47,7.43,3.07,11.32,4.05,6.3,1.59,12.57,2.54,19.07,3.42,2.53.34,5.24.14,7.82.36,11.06.91,22.08-.19,32.87-2.16l1.15,2.33-2.29,1.84c-.59.48-1.12,2.1-.91,2.83.24.84,1.17,1.81,1.9,2.27l-11.08,2.84c-2.68.68-5.37-1.63-7.84-2.35-11.33-3.3-22.46-5.83-33.97-8.44-1.34-.31-2.6-1.99-4.25.02l6.3,1.85c9.98,2.22,19.44,4.3,29.45,7.19-2.36,2.11-6.46.98-6.26,6.43l-16.45-2.34c-3.12-.44-9.27-.03-11.04,1.28-.24.18.35,1.01.59.93,2.79-.97,7.65-1.25,10.94-.77l17.13,2.48c-1.09,1.1-1.5,1.63-1.77,2.53l2.95-1.57.91,3.53,7.02-3.34,5.92,1.14c1.36.26,3.15-1.72,4.39-2.19,2.76-1.05,6.01-.27,8.93.01l11.1,1.06c5.65.54,10.72-5.56,8.84-6.27l-1.13-.43c-.29-.11-.05,1.49-.21,1.78-1.26,2.24-5.06,3.93-7.89,3.62l-15.73-1.7c-5.95-.64-6.99,4.81-10.6,2Z"/>
  <path class="st0" d="M100.75,169.55c-.97-1.89.65-3.93,2.44-4.32l2.97-.66c.7,1.18,1.19,1.78,2.29,2.43l-1.37-3.59c2.88,1.24,5.8,2.34,8.8,2.77l-3.76,4.9-11.37-1.53Z"/>
  <polygon class="st0" points="107.38 171.89 103.6 173.95 102.45 171.09 107.38 171.89"/>
  <g>
    <path d="M130.26,191.11l-28.25-.23c-11.52-.09-22.5-.64-34.01.12-1.59.1-4.2-.66-5-1.96-2.02-3.3,2.17-8.94-2.95-12.22-.68-.43-1.44-2.29-.8-2.88l4.21-3.88c-4.07-6.9-3.95-13.38-6.5-19.93l-7.63-2.3c-2.24-2.84-1.87-6.17-1.49-9.33.35-2.86,1.03-5.08,2.97-7.24l4.61-5.14c.16-2.11.46-3.27,1.15-4.95s1.13-3.88,2.53-4.98c3.07-2.42,6.63-2.77,10.41-2.69,3.03.07,5.93-.16,8.96-.39l26.02-1.96,31.78-.03c1.51,0,4.24.58,4.88,1.62l4.41,7.19c1.9,1.87,3.89,3.35,5.64,5.4,1.53,1.8,3.38,3.19,5.34,4.79l1.15,6.22c5.54,4.14,11.1,11.12,8.2,17.15-2.33,4.85-10.93,2.67-12.1,6.15-.79,2.34.92,4.61,2.42,6.1l6.6,6.57c.81.81,1.72,3.47.93,4.33l-3.18,3.47c-3.13,3.41-5.24,7.34-7.43,11.64-4,.54-8.04.71-12.12.34l-10.74-.97ZM69.51,129.76c-4.85-.95-10.42-3.49-12.33-7.21-1.06,1.51-.79,3.16.27,4.47,5.05,6.25,18.87,12.54,26.22,12.79l10.79.37c1.96.07,3.67.21,5.59.04l7.43-.66,6.07-.57c5.62-.53,11.15-1.33,16.62-2.3,6.57-1.16,11.17-5.6,13.54-11.48,1.24-3.09,1.56-5.37-.79-7.97.03.04-.49.45-.75.67,0-1.39-.36-4.28-2.07-4.91-1.23-.45-3.35-.97-4.61-.96l-28.97.03-10.87.65-15.13,1.24-6.97.44c-4.31.27-8.52-.22-12.42,1.69-1.68.83-3.12,2.65-3.29,4.2-.55,5.07,8.09,8.24,14.18,9.25l17.99,2.98,24.47-.03,2.99-.53c6.13.22,12.02-1.11,17.07-4.43,2.42-1.54,5.27-3.34,7.07-5.39.58-.77.66-3.06,1.16-4.17.91,5.05-2.52,6.48-6.14,9.17-5.1,3.79-10.85,5.55-17.37,5.68-11.08.22-22.02.42-33.16-.05-5.58-.24-10.94-1.92-16.58-3.02ZM86.72,153.4l7.51.35c8.15.38,16.04-.06,24.29-.77l19.13-3.2.56-1.36c.09-.22.72,1.08.94,1l4.87-1.79c-.04-1.43.36-1.2.86-.21l7.3-4.36c2.07-1.24,3.58-4.33,4.76-6.4l-1.22-6.26c-2.26-1.4-3.77-2.87-5.54-4.61l-4.62-4.57c-2.09,10.51-8.84,15.76-18.92,16.93l-15.62,1.82-8.68.8c-5.52.51-11.13.35-16.69,0-6.29-.39-12.4-2.07-17.71-5.17l-7.04-4.12c-1.64-.96-2.97-3.01-4.57-4.64-2.14,2.21-4.29,4.38-6.05,6.87-2.27,3.21-1.66,7.57,1.86,9.76,5.09,3.17,11.01,5.5,17.05,6.79,5.81,1.25,11.37,2.83,17.54,3.12ZM128.32,161.5l29.57-10.6,7.04-2.15c.16-.66-.1-2.78-.66-3.45l-6.48-7.67c-1.63,2.11-2.52,4.2-4.12,5.5-7.37,5.99-16.24,8.48-25.73,9.24.57.66,1.58,1.56,2.19,1.38l2.84-.82-2.91,2.45c-.31,2.36-.86,4.35-1.74,6.11ZM113.32,171.12c3.61,2.81,4.66-2.64,10.6-2l15.73,1.7c2.83.31,6.63-1.38,7.89-3.62.16-.29-.07-1.89.21-1.78l1.13.43c1.88.71-3.19,6.81-8.84,6.27l-11.1-1.06c-2.92-.28-6.17-1.06-8.93-.01-1.24.47-3.03,2.45-4.39,2.19l-5.92-1.14-7.02,3.34-.91-3.53-2.95,1.57c.27-.9.68-1.43,1.77-2.53l-17.13-2.48c-3.29-.48-8.15-.2-10.94.77-.25.09-.83-.75-.59-.93,1.77-1.31,7.93-1.72,11.04-1.28l16.45,2.34c-.21-5.45,3.9-4.32,6.26-6.43-10.01-2.88-19.48-4.96-29.45-7.19l-6.3-1.85c1.66-2,2.91-.32,4.25-.02,11.51,2.61,22.64,5.14,33.97,8.44,2.46.72,5.16,3.04,7.84,2.35l11.08-2.84c-.72-.46-1.66-1.42-1.9-2.27-.21-.73.32-2.35.91-2.83l2.29-1.84-1.15-2.33c-10.79,1.97-21.81,3.07-32.87,2.16-2.58-.21-5.29-.02-7.82-.36-6.5-.87-12.77-1.83-19.07-3.42-3.89-.98-7.64-2.58-11.32-4.05-2.75-1.09-4.91-2.6-7.06-4.74-.14.82.01,2.87.61,3.85,1.34,2.24,8.27,1.28,9.19,5.11l2.81,11.69c.64,2.68,2.17,4.94,3.26,7.68l-5,4.48c3.46,2.4,5,5.54,3.78,9.36-.37,1.16-.25,3.84.84,4.43,2.25,1.21,4.52.73,6.98.73l53.41.02c9.28,0,18.67,2.4,27.26,1.01,2.26-3.88,4.05-7.42,6.71-10.6,1.45-1.74,3.08-2.77,4.2-4.98-4.03-5.83-10.88-8.61-10.89-15.16l-4.58-1.44c-.95,1.65-1.62,2.9-3.31,3.95l1.66-3.71-5.46,1.39-.05-1,5.95-1.56.34-1.45-9.31,3.55.04,5.37c0,.26-.78,1.06-.94,1.16l-.13-5.37c-.78.25-1.92.57-2.54.58-5.06.09-3.49,4.65-6.3,7.56l.2-3.75-1.88.89c-.23.11-.72-.5-.65-.74l.35-1.25c-3.3-.29-4.92,2.06-6.31,4.69l-.57-2.1c-.09-.32-1.54-.23-1.75.03l-3.66,4.54ZM153.68,156.34c6.21-.39,12.33-.89,11.26-6.24l-16.19,5.11-.82,1.58c-.26.5,3.39,2.1,3.95,1.49l1.79-1.95ZM126.93,160.91c2.03-.98,2.37-3.5,2.02-5.37l-2.64,1.98c-.75.56-.36,3.13.62,3.39ZM100.75,169.55l11.37,1.53,3.76-4.9c-3-.44-5.91-1.53-8.8-2.77l1.37,3.59c-1.1-.65-1.59-1.25-2.29-2.43l-2.97.66c-1.79.4-3.41,2.43-2.44,4.32ZM107.38,171.89l-4.93-.8,1.15,2.86,3.77-2.06Z"/>
    <path class="st0" d="M86.72,153.4c-6.17-.29-11.72-1.87-17.54-3.12-6.03-1.3-11.96-3.63-17.05-6.79-3.52-2.19-4.13-6.55-1.86-9.76,1.76-2.49,3.91-4.67,6.05-6.87,1.6,1.63,2.93,3.68,4.57,4.64l7.04,4.12c5.31,3.11,11.41,4.78,17.71,5.17,5.56.35,11.17.5,16.69,0l8.68-.8,15.62-1.82c10.08-1.17,16.83-6.43,18.92-16.93l4.62,4.57c1.77,1.75,3.28,3.21,5.54,4.61l1.22,6.26c-1.18,2.07-2.69,5.16-4.76,6.4l-7.3,4.36c-.5-.99-.91-1.21-.86.21l-4.87,1.79c-.22.08-.85-1.22-.94-1l-.56,1.36-19.13,3.2c-8.25.71-16.14,1.15-24.29.77l-7.51-.35ZM128.23,150.5c3.44-1.96,3.31-6.94,0-8.66,1.92,3.18,1.51,5.82,0,8.66Z"/>
    <path class="st0" d="M69.51,129.76c5.63,1.1,11,2.78,16.58,3.02,11.14.47,22.08.27,33.16.05,6.52-.13,12.27-1.89,17.37-5.68,3.62-2.69,7.05-4.13,6.14-9.17-.51,1.11-.58,3.4-1.16,4.17-1.8,2.05-4.65,3.85-7.07,5.39-5.05,3.31-10.93,4.65-17.07,4.43l-2.99.53-24.47.03-17.99-2.98c-6.08-1.01-14.72-4.17-14.18-9.25.17-1.55,1.61-3.37,3.29-4.2,3.89-1.91,8.1-1.42,12.42-1.69l6.97-.44,15.13-1.24,10.87-.65,28.97-.03c1.26,0,3.38.51,4.61.96,1.71.63,2.08,3.51,2.07,4.91.26-.22.79-.63.75-.67,2.35,2.6,2.03,4.88.79,7.97-2.37,5.88-6.97,10.32-13.54,11.48-5.47.96-10.99,1.77-16.62,2.3l-6.07.57-7.43.66c-1.92.17-3.63.02-5.59-.04l-10.79-.37c-7.36-.25-21.17-6.53-26.22-12.79-1.06-1.31-1.33-2.97-.27-4.47,1.92,3.73,7.48,6.27,12.33,7.21ZM82.95,127.69l25.03-1.86c5.35-.4,10.46-1.28,15.66-2.18,2.11-.36,3.79-3.8,1.93-5.28-4.25-3.39-15.28-.6-22.09.43l-13.52,2.05c-5.21-1.55-14.33-1.27-18.35.8-.68.35-1.41,2.27-1.05,2.93.99,1.82,9.67,3.31,12.37,3.11Z"/>
    <path class="st0" d="M128.32,161.5c.88-1.76,1.43-3.74,1.74-6.11l2.91-2.45-2.84.82c-.61.17-1.62-.72-2.19-1.38,9.49-.76,18.36-3.25,25.73-9.24,1.6-1.3,2.49-3.39,4.12-5.5l6.48,7.67c.56.67.82,2.79.66,3.45l-7.04,2.15-29.57,10.6Z"/>
    <path class="st0" d="M153.68,156.34l-1.79,1.95c-.56.61-4.21-.99-3.95-1.49l.82-1.58,16.19-5.11c1.07,5.35-5.05,5.85-11.26,6.24Z"/>
    <path class="st0" d="M126.93,160.91c-.97-.26-1.36-2.83-.62-3.39l2.64-1.98c.35,1.86,0,4.38-2.02,5.37Z"/>
    <path d="M128.23,150.5c1.51-2.84,1.92-5.48,0-8.66,3.31,1.72,3.44,6.7,0,8.66Z"/>
    <path d="M82.95,127.69c-2.7.2-11.38-1.29-12.37-3.11-.36-.67.36-2.58,1.05-2.93,4.01-2.07,13.14-2.35,18.35-.8l13.52-2.05c6.81-1.03,17.84-3.82,22.09-.43,1.85,1.48.17,4.92-1.93,5.28-5.2.9-10.31,1.78-15.66,2.18l-25.03,1.86ZM125.37,120.91c-.25-.25-.78-.72-1.1-.66l-1.28.26,1.09-1.58c-1.73-.72-3.73-1.29-5.51-1.16l-6.13.45,7.05.78c-.43,1.18-.52,2.48.43,3.28l-5.49,1.49c5.48,1.13,11.95-1.89,10.95-2.87ZM96.95,122.18c2.91.44,5.7.26,8.26.14.49.26,1.7.74,2.27.73l8-.08-1.02-1.07c1.92.23,4.09.45,4.42-2.36l-5.4-.2c-.46-.02-1.38.63-1.96,1.12-.03.04.04-.71.16-1.02l.38-.98-11.35,1.77-10.35,1.65,2.13,4.02c1.98-.75,3.72-1.25,5.77-1.62l5.81-1.06-9.11-.53c3.58-2.54,7.43-2.51,10.83-1.47-3.32.3-5.83.39-8.86.96Z"/>
    <path class="st0" d="M96.95,122.18c3.02-.57,5.54-.66,8.86-.96-3.4-1.05-7.26-1.07-10.83,1.47l9.11.53-5.81,1.06c-2.05.37-3.79.87-5.77,1.62l-2.13-4.02,10.35-1.65,11.35-1.77-.38.98c-.12.31-.19,1.06-.16,1.02.58-.49,1.5-1.13,1.96-1.12l5.4.2c-.33,2.81-2.5,2.58-4.42,2.36l1.02,1.07-8,.08c-.57,0-1.78-.47-2.27-.73-2.56.12-5.35.3-8.26-.14Z"/>
    <path class="st0" d="M125.37,120.91c1.01.98-5.47,4-10.95,2.87l5.49-1.49c-.95-.8-.86-2.1-.43-3.28l-7.05-.78,6.13-.45c1.78-.13,3.78.44,5.51,1.16l-1.09,1.58,1.28-.26c.32-.06.84.41,1.1.66Z"/>
  </g>
</svg>