<?xml version="1.0" encoding="UTF-8"?>
<svg id="Layer_1" xmlns="http://www.w3.org/2000/svg" version="1.1" viewBox="0 0 300.63 380.33">
  <!-- Generator: Adobe Illustrator 30.4.0, SVG Export Plug-In . SVG Version: 2.1.4 Build 226)  -->
  <defs>
    <style>
      .st0 {
        fill: #fff;
      }
    </style>
  </defs>
  <polygon class="st0" points="14.68 138.78 4.74 146.12 5.03 156.84 8.82 155.27 11.99 150.38 41.08 189.35 68.69 188.43 21.91 141.27 14.68 138.78"/>
  <g>
    <path d="M8.82,155.27c-.61.94-2.66,1.78-3.79,1.57-2.47-3.94-1.07-11.23,1.9-14.73l4.11-1.67c2.16-.88,4.98-2.93,7.57-1.81l4.2,1.82c5.54,2.4,10.77,11.13,15.41,16.23l14.47,15.89c3.08,3.39,6.64,6.1,9.26,9.8.79,1.12,1.63,1.84,2.89,2.95-.36.42-2.09.23-2.51-.43-2.67-4.3-6.44-7.18-9.86-10.91l-14.91-16.29-10.33-12.49c-1.33-1.61-3.38-3.08-5.33-3.91l-3.34-1.43c-2.49-1.07-4.76.73-6.96,1.6l-4.11,1.63c-2.24,3.82-3.23,8.44-1.84,12.89,3.69-1.23,4.05-5.98,5.93-6.5.51-.14,1.65.67,1.9,1.13l6.31,11.71c3.31,6.14,8.19,11.26,12.96,16.45l8.2,8.94c5.93,1.05,11.32,1.31,17.14.72l19.42-1.98,17.64-.27c10.03-.96,19.52-.93,29.6-.34,4.55.27,9-1.4,13.59-1.38,1.99,3.54,4.83,6.47,8.32,8.96,1.65,1.18,3.52,2.9,5.6,3.28,4.08.74,8.07.17,12.07-.7,1.54-.33,2.92-1.76,3.18-3.17l1.55-8.4,20.1-.53,13.68-.28,11.48-.42,11.12-1.23,14.47-.8,20.01-.13-18.21-16.68c-6.39-5.86-12.75-11.13-18.28-17.74-7.68-9.19-16.5-16.92-26.16-24.22-3.33-2.52-6.16-4.44-10.71-4.55s-9.76-6.46-8.27-11.15c2.04-6.42,11.1-11.78,16.52-7.32l9.55,7.86c4.82,4.7,9.04,9.55,13.09,14.78,2.42,3.13,4.89,5.97,7.93,8.59,6.76,5.84,12.93,11.78,19.07,18.21,6.63,6.93,13.33,13.29,20.69,19.55l10.97,10.64,1.08-.11c.24-.02.82.46.64.62l-.99.85c2.4.97,5.01,2.1,6.52,4.14l9.84,13.33c2.17,2.94,4.18,6.45,3.56,10.05l-1.76,10.15-3.31,22.14-2.19,8.87c-.36,3.97-1.59,7.58-4.42,10.7l-10.83,11.95c-4.54,4.23-11.03,6.35-17.26,7.62l-16.61,2.19c-6.56.87-21.15-3.27-27.8-6.17-6.48-2.82-12.38-7.28-16.75-12.46l-7.77-9.21c-7.04-8.34-8.1-15.46-10.8-25.02l-3.81-13.46c-4.75,3.12-8.06,6.56-13.13,3.89l-14.48-7.65c-.23,4.51.51,8.4,1.57,12.6l2.48,9.93c1.3,5.19.58,10.45-2.04,15.22l-9.49,17.23c-7.24,13.15-24.87,15.38-39.93,16.2l-9.69-.79c-10.64-.87-20.06-4.76-26.72-12.48-3.07-3.56-5.88-7.05-8.26-11.07l-7.22-10.07c-2.71-3.79-6.36-7.87-6.38-12.65l-.06-13.4,2.1-15.02c.38-2.73.06-5.37-.65-7.99-.91-3.33-.78-6.76-.45-9.77l-7.95-8.53c-5.37-5.76-10.82-11.39-14.53-18.24l-6.61-12.2-3.17,4.89ZM261.31,180.7l14.01-.79-18.88-17.73-12.21-11.96c-6.7-6.56-13.03-13.04-20.14-19.23s-14.09-17.88-21.88-24.17l-8.51-6.86c-4.29-3.46-13.3,1.66-14.33,7.74-.61,3.57,2.44,7.72,6.02,8.75,2.38.69,4.8.62,6.98,1.46,2.69,1.04,4.64,2.97,6.91,4.65,9.27,6.87,17.45,14.38,24.83,23.03,5.46,6.4,11.23,11.96,17.8,17.36l9.89,9.19,9.52,8.56ZM89.57,280.87c4.29.34,7.85.83,11.88.49,13.78-1.17,29.17-3.42,35.86-15.51l9.36-16.94c2.19-3.96,2.61-8.12,2.37-12.56l-2.66-11.36c-1.21-5.16-2.14-10.13-1.79-15.56l15.98,8.6c4.69,2.63,8.5-1.23,13.25-4.62,1.6,3.43,2.57,6.84,3.46,10.36l2.75,10.85,3.47,9.8c1.4,3.96,4.3,6.96,7.01,10.24l6.13,7.44c4.26,5.17,10.05,9.53,16.49,12.31,5.5,2.38,11.18,3.69,17.02,5.13,3.72.92,7.71,1.29,11.52.76l15.03-2.06c5.96-1.24,12.32-3.23,16.68-7.32l10.84-11.99c1.79-1.98,3.03-4.69,3.58-7.15l2.57-11.59,2.69-16.18,1.99-12.86c1.15-4.44.24-8.52-2.56-12.3l-10.4-14c-1.35-1.82-4.55-3.68-6.84-3.63l-6.2.14-11.07.77-20.28.22-12.32.87-13.72,1.22-11.93.29-21.17.31-8.56.56c-.48,4.67-1.37,10.98-5.34,11.49l-8.56,1.11c-3.79.49-6.62-1.17-9.37-3.25-3.65-2.76-6.95-5.52-9.18-9.42l-10.61,1.25-9.29-.14c-4.94-.07-9.61-.07-14.56.1l-18.94.65c-5.24.18-10.25.38-15.47,1.05-7.98,1.02-15.67,1.61-23.7.98-.71-.06-2.45.04-2.63.64-.74,3.73-.04,7.22.83,10.83.67,2.78.33,5.79-.08,8.62l-1.8,12.23c-.71,4.84-.73,9.74.17,14.53.81,4.3,3.57,7.87,6.11,11.38l6.89,9.54c3.05,5.1,6.62,9.65,10.89,13.94,6.32,6.34,14.82,9,24.2,9.74Z"/>
    <path class="st0" d="M89.57,280.87c-9.38-.75-17.88-3.4-24.2-9.74-4.27-4.29-7.84-8.83-10.89-13.94l-6.89-9.54c-2.54-3.51-5.3-7.08-6.11-11.38-.91-4.8-.88-9.69-.17-14.53l1.8-12.23c.42-2.84.75-5.84.08-8.62-.87-3.62-1.57-7.11-.83-10.83.18-.6,1.92-.7,2.63-.64,8.03.63,15.72.04,23.7-.98,5.22-.67,10.23-.87,15.47-1.05l18.94-.65c4.95-.17,9.62-.17,14.56-.1l9.29.14,10.61-1.25c2.23,3.91,5.53,6.67,9.18,9.42,2.75,2.08,5.58,3.74,9.37,3.25l8.56-1.11c3.97-.51,4.86-6.82,5.34-11.49l8.56-.56,21.17-.31,11.93-.29,13.72-1.22,12.32-.87,20.28-.22,11.07-.77,6.2-.14c2.29-.05,5.48,1.81,6.84,3.63l10.4,14c2.81,3.78,3.71,7.86,2.56,12.3l-1.99,12.86-2.69,16.18-2.57,11.59c-.55,2.46-1.79,5.17-3.58,7.15l-10.84,11.99c-4.36,4.09-10.72,6.08-16.68,7.32l-15.03,2.06c-3.82.52-7.8.15-11.52-.76-5.84-1.44-11.52-2.75-17.02-5.13-6.44-2.79-12.23-7.14-16.49-12.31l-6.13-7.44c-2.7-3.28-5.6-6.28-7.01-10.24l-3.47-9.8-2.75-10.85c-.89-3.52-1.86-6.93-3.46-10.36-4.76,3.39-8.57,7.25-13.25,4.62l-15.98-8.6c-.35,5.43.58,10.41,1.79,15.56l2.66,11.36c.24,4.44-.19,8.61-2.37,12.56l-9.36,16.94c-6.68,12.09-22.08,14.34-35.86,15.51-4.02.34-7.58-.15-11.88-.49ZM211.7,259.32c2.94,3.33,7.06,5.07,11,6.73l4.55,1.91c6.75,3.46,14.14,3.77,21.42,1.76,4.51-1.25,8.19-3.02,11.5-6.16l6.73-6.39c10.79-12.48,18.37-28.54,13.69-44.4l-2.94-9.97-4.39-7.33c-.97-1.62-.33-4.46-2.14-5.78s-4.99-1.29-7.37-1.37l-.94,1.25-24.63,3.76c-2.68.41-5.3.12-7.95,0l-13.27-.59-11.03-.03-19.84.17c-1.42.01-2.13,2.01-1.86,3.27,1.96,9,4.66,17.56,7.62,26.31l5.13,12.8,4.32,9.91c2.95,5.01,6.39,9.61,10.4,14.15ZM74.58,266.52l9.47,4.09c5.34,2.31,10.99,2.4,16.8,1.53l13.32-1.99c5.3-.79,10.58-3.27,13.05-7.88,4.34-8.12,6.85-16.8,7.53-25.88l-.41-5.3-.88-13.45c-.35-5.29-1.45-10.38-2.36-15.59-.54-3.1-1.79-6.08-4.2-7.96-1.59-1.24-2.74-1.42-4.89-1.39l-14.93.26-5.13.46-17.9,2.2c-2.37.29-5.03.79-7.44.5l-17.2-2.1c-2.56-.31-5.74-.39-7.45,1.69-2.65,3.23-2.42,7.25-1.97,11.07l1.71,14.74c.99,8.55,2.9,16.53,5.9,24.67,1.45,3.94,2.37,8.03,4.64,11.59,2.76,4.33,7.47,6.64,12.35,8.75Z"/>
    <path class="st0" d="M261.31,180.7l-9.52-8.56-9.89-9.19c-6.57-5.4-12.34-10.96-17.8-17.36-7.38-8.65-15.56-16.15-24.83-23.03-2.27-1.68-4.23-3.61-6.91-4.65-2.18-.84-4.6-.77-6.98-1.46-3.58-1.03-6.63-5.18-6.02-8.75,1.03-6.08,10.04-11.2,14.33-7.74l8.51,6.86c7.79,6.28,14.78,17.99,21.88,24.17s13.44,12.67,20.14,19.23l12.21,11.96,18.88,17.73-14.01.79Z"/>
    <path d="M211.7,259.32c-4.01-4.55-7.45-9.15-10.4-14.15l-4.32-9.91-5.13-12.8c-2.97-8.75-5.66-17.3-7.62-26.31-.27-1.26.44-3.26,1.86-3.27l19.84-.17,11.03.03,13.27.59c2.65.12,5.28.4,7.95,0l24.63-3.76.94-1.25c2.38.08,5.51,0,7.37,1.37s1.17,4.16,2.14,5.78l4.39,7.33,2.94,9.97c4.68,15.86-2.9,31.92-13.69,44.4l-6.73,6.39c-3.31,3.14-7,4.91-11.5,6.16-7.29,2.02-14.68,1.7-21.42-1.76l-4.55-1.91c-3.94-1.66-8.06-3.39-11-6.73ZM209.65,255.09c3.19,4.46,7.32,7.36,12.44,9.53l6.92,2.93c6.25,2.65,12.88,2.78,19.38,1.1,4.47-1.16,7.98-2.99,11.16-6.08l7.49-7.3c3.45-4.27,6.26-8.65,8.83-13.44,6.72-12.56,5.65-24.75.97-37.87-1.03-2.87-3.28-5.17-4.62-7.93l-1.12-4.31c-.15-.59-1.1-1.7-1.73-1.81-.53-.1-1.45.13-2.18.23l-6.41.82-16.55,2.6c-5.83.92-11.22.83-17.15.65l-9.99-.31c-3.84-.12-7.51-.02-11.34-.03h-8.37c-4.03,0-7.62-.27-11.75.12-.02,2.09.08,3.77.6,5.61l3.58,12.62,5.52,16.09,6.08,14.3c1.93,4.55,5.26,8.29,8.25,12.48Z"/>
    <path d="M74.58,266.52c-4.88-2.11-9.58-4.42-12.35-8.75-2.27-3.57-3.19-7.65-4.64-11.59-3-8.13-4.91-16.12-5.9-24.67l-1.71-14.74c-.44-3.82-.68-7.83,1.97-11.07,1.71-2.08,4.89-2,7.45-1.69l17.2,2.1c2.41.29,5.07-.21,7.44-.5l17.9-2.2,5.13-.46,14.93-.26c2.15-.04,3.3.15,4.89,1.39,2.41,1.88,3.66,4.87,4.2,7.96.91,5.21,2.01,10.3,2.36,15.59l.88,13.45.41,5.3c-.67,9.08-3.19,17.76-7.53,25.88-2.46,4.61-7.74,7.09-13.05,7.88l-13.32,1.99c-5.82.87-11.46.78-16.8-1.53l-9.47-4.09ZM75.49,265.66l8.86,3.84c5.46,2.36,11.08,2.37,16.98,1.46l14.49-2.23c4.14-.64,8.24-3.26,10.18-6.73,4.04-7.24,6.14-14.91,7.36-22.93.42-2.78-.07-5.57-.26-8.38l-1.03-15.08c-.39-5.64-1.72-11.1-3-16.59l-1.84-3.11-3.23-2.14-6.78.22-18.54.78-15.12,2.06c-3.24.44-6.38.61-9.62.19l-14.84-1.91c-1.99-.26-4.69-.52-6.16,1.2-1.77,2.08-2.32,5.24-2.02,7.93l2.06,18.08c.89,7.86,2.72,15.19,5.44,22.66,4.16,11.43,3.42,14.78,17.05,20.69Z"/>
  </g>
</svg>