<?xml version="1.0" encoding="UTF-8"?>
<svg id="Layer_1" xmlns="http://www.w3.org/2000/svg" version="1.1" viewBox="0 0 300.63 380.33">
  <!-- Generator: Adobe Illustrator 30.4.0, SVG Export Plug-In . SVG Version: 2.1.4 Build 226)  -->
  <defs>
    <style>
      .st0 {
        fill: #fff;
      }
    </style>
  </defs>
  <polygon class="st0" points="6.4 143.77 5.12 131.82 8.32 127.52 17.69 120.72 66.5 175.17 42.62 179.64 21.23 149.79 16.3 141.18 12.98 135.63 6.4 143.77"/>
  <g>
    <path d="M20.41,150.84l-7.04-14.18-3.17,5.38c-.61,1.04-2.69,1.96-3.81,1.73-2.49-4.32-1.09-12.41,1.92-16.25l4.08-1.81c2.43-1.08,5.21-3.24,7.93-1.92l3.63,1.76c1.69.82,3.78,2.24,4.97,3.8l10.82,14.24,14.54,17.52c3.1,3.73,6.67,6.72,9.31,10.81.79,1.23,1.63,2.03,2.91,3.25-.36.47-2.1.25-2.52-.48-2.68-4.74-6.47-7.92-9.9-12.03l-14.98-17.97-10.17-13.53c-1.49-1.98-3.67-3.69-5.85-4.71l-3.06-1.43c-2.51-1.17-4.8.81-6.99,1.76l-4.15,1.8c-2.2,4.3-3.39,9.51-1.69,14.28,3.67-1.85,3.99-6.67,5.81-7.23.51-.16,1.66.74,1.91,1.24l6.34,12.92c3.42,6.97,8.51,12.72,13.43,18.62l7.83,9.39c5.96,1.16,11.37,1.45,17.22.8l19.51-2.18,17.72-.29c10.08-1.06,19.62-1.02,29.74-.37,4.57.29,9.04-1.54,13.65-1.53,2,3.9,4.85,7.14,8.36,9.88,1.66,1.29,3.51,3.23,5.65,3.61,3.86.7,7.99.44,11.71-.8l5.01-2.64,8.26,1.61,19.76,7.76,17.04,6.63,11.53,3.57,12.22,4.23,16.85,7.01-8.62-21.24c-3.28-8.08-6.79-15.56-9-24.08-2.86-11.07-7.37-21.14-12.51-31.2-1.86-3.65-3.64-6.09-7.33-8.11-4.19-2.29-5.57-9.02-2.71-12.98,3.93-5.45,13.9-6.84,16.43-1.61l4.81,9.95,4.94,15.63,3.6,13.03,9.81,25.45,6.69,17.94,7.68,19.6c.8,2.03,2.65,2.2,1.98,2.54l-1.06.54c-.14-.2.13.19.36.53,1.6,1.8,3.03,3.91,3.5,6.29l2.97,14.98c.66,3.31,1.23,7.2-.55,10.13l-5.22,8.59-11.93,20.23-6.33,9.36c-1.97,2.92-4.69,5.26-7.81,6.88l-12.56,6.5c-4.97,2.57-11.2,1.84-16.66.91l-13.44-3.38c-4.97-1.25-9.36-3.9-13.15-7.32l-9.64-8.68c-4.54-5.07-8-11.31-9.62-17.94l-2.04-8.37c-2.13-5.39-2.9-10.75-2.16-16.41l2.11-16.17.83-9.03,2.36-14.74c-4.13,2.39-8.79,2.76-13.92,2.4-5.91-.42-8.28-3.14-10.22-1.46-1.47,1.26,0,9.22,1.03,13.71l2.59,11.31c1.31,5.72.59,11.52-2.05,16.78l-9.53,19c-7.27,14.5-24.98,16.96-40.12,17.87l-9.73-.87c-10.69-.96-20.16-5.25-26.85-13.76-3.08-3.92-5.91-7.77-8.3-12.21l-7.26-11.11c-2.73-4.17-6.39-8.68-6.41-13.96l-.06-14.78,2.07-16.13c.39-3.01.19-5.99-.54-8.88-.96-3.82-.89-7.7-.54-11.14l-9.01-10.6c-4.84-5.69-9.75-11.26-13.19-18.2ZM270.18,219.58l-5.72-14.94-9.08-23.53-9.5-24.91c-3.99-10.46-5.46-22.54-9.34-30.54l-4.52-9.34c-2.06-4.25-11.44-3.2-14.89,2.17-1.89,2.94-.96,8.87,2.08,10.58,4.26,2.39,6.35,5.03,8.49,9.25,5.06,9.98,9.52,19.91,12.42,30.86,2.27,8.58,5.3,16.41,9.18,24.36l8.72,21.73,12.15,4.31ZM171.18,222.66l-2.23,13.83-.76,9.81c-.3,3.94.77,7.61,1.76,11.38l2.53,9.65c1.58,6.04,4.49,11.99,8.67,16.69,4.47,5.03,9.6,9.19,15.09,12.94,5.23,3.57,20.26,7.39,27.12,7.45,3.57.03,7.47.07,10.62-1.61l13.62-7.24c3.05-1.62,4.78-4.41,6.68-7.16l4.75-6.89,8.97-14.67,7.81-13.15c2.05-3.44,2.15-7.31,1.36-11.19l-3.08-15.22c-1-4.94-4.83-7.05-9.04-8.45l-10.71-3.57-17.22-7.09-10-3.33-11.56-3.59-24.12-9.66c-4.59-1.84-9.01-3.89-13.82-4.77l-6.59-1.2-3.95,2.35c-2.89.97-5.96,1.2-8.88,1.42-3.86.28-6.65-1.27-9.43-3.58-3.66-3.04-6.98-6.08-9.22-10.39l-10.23,1.35-9.76-.12c-4.97-.06-9.65-.08-14.63.11l-19.03.72c-5.27.2-10.3.42-15.54,1.16-8.02,1.13-15.74,1.78-23.82,1.08-.71-.06-2.5.04-2.62.69-.78,4.16-.06,7.97.81,11.96.67,3.07.34,6.38-.08,9.51l-1.81,13.48c-.72,5.34-.74,10.74.17,16.03.82,4.75,3.59,8.68,6.14,12.55l6.93,10.52c3.06,5.63,6.66,10.65,10.95,15.37,6.35,7,14.92,9.91,24.14,10.72,4.31.38,8.15.96,12.49.54,13.74-1.35,28.98-3.83,35.64-17.08l9.4-18.7c2.16-4.29,3.28-9.09,2.3-13.83l-2.58-12.53c-1.19-5.75-2.13-11.03-1.8-17.02,2.72-.97,5.12,1.55,10.53,2,4.29.36,8.52.36,12.64-1.05l4.03-2.61-1.42,9.32-1.34,9.91c-.16,1.16-.22,2.18.12,3.18Z"/>
    <path class="st0" d="M171.18,222.66c-.34-1-.28-2.01-.12-3.18l1.34-9.91,1.42-9.32-4.03,2.61c-4.12,1.41-8.35,1.41-12.64,1.05-5.41-.45-7.81-2.97-10.53-2-.33,5.99.62,11.27,1.8,17.02l2.58,12.53c.98,4.74-.14,9.54-2.3,13.83l-9.4,18.7c-6.66,13.25-21.9,15.74-35.64,17.08-4.34.43-8.18-.16-12.49-.54-9.22-.8-17.79-3.72-24.14-10.72-4.29-4.73-7.88-9.74-10.95-15.37l-6.93-10.52c-2.55-3.87-5.32-7.81-6.14-12.55-.91-5.29-.89-10.68-.17-16.03l1.81-13.48c.42-3.13.75-6.45.08-9.51-.87-3.99-1.59-7.8-.81-11.96.12-.66,1.91-.75,2.62-.69,8.07.69,15.79.04,23.82-1.08,5.24-.74,10.28-.96,15.54-1.16l19.03-.72c4.98-.19,9.66-.17,14.63-.11l9.76.12,10.23-1.35c2.24,4.31,5.56,7.35,9.22,10.39,2.77,2.3,5.56,3.86,9.43,3.58,2.93-.21,6-.44,8.88-1.42l3.95-2.35,6.59,1.2c4.81.88,9.23,2.93,13.82,4.77l24.12,9.66,11.56,3.59,10,3.33,17.22,7.09,10.71,3.57c4.21,1.4,8.04,3.51,9.04,8.45l3.08,15.22c.79,3.88.69,7.75-1.36,11.19l-7.81,13.15-8.97,14.67-4.75,6.89c-1.9,2.75-3.63,5.54-6.68,7.16l-13.62,7.24c-3.15,1.68-7.05,1.64-10.62,1.61-6.86-.06-21.9-3.87-27.12-7.45-5.49-3.75-10.63-7.92-15.09-12.94-4.17-4.7-7.09-10.65-8.67-16.69l-2.53-9.65c-.99-3.77-2.06-7.44-1.76-11.38l.76-9.81,2.23-13.83ZM76.28,264.73l9.51,4.52c5.36,2.55,11.04,2.65,16.88,1.69l13.39-2.2c5.33-.87,10.63-3.61,13.11-8.7,4.36-8.96,6.88-18.53,7.56-28.54l-.41-5.85-.88-14.83-2.37-17.2c-.46-3.31-1.86-6.75-4.22-8.78-1.59-1.37-2.75-1.57-4.91-1.53l-15.01.29-5.15.51-17.99,2.42c-2.38.32-5.06.87-7.48.55l-17.28-2.32c-2.58-.35-5.77-.43-7.49,1.86-2.66,3.57-2.43,7.99-1.98,12.2l1.72,16.26c.99,9.42,2.92,18.24,5.93,27.2,1.46,4.35,2.38,8.85,4.66,12.79,2.78,4.78,7.5,7.32,12.41,9.65ZM262.22,250.9c1.12-6.26,1.39-11.54.19-17.67-.19-1.59,1.44-4.26.54-5.97-1.22-2.31-6.29-5.15-6.98-3.3l-22.15-5.27c-2.27-.54-4.25-1.64-6.29-2.63l-12.6-6.14-7.92-3.28-15.63-6.58c-.78-.33-2.31-.57-2.82-.11-2.57,2.36-5.23,28.41-5.38,35.58l-.33,16.4c-.13,6.54,1.84,13.15,3.76,19.37,1.44,4.69,5.31,7.49,8.11,11.06,4.84,6.15,10.98,9.99,18.9,10.65,3.84.32,7.45.25,11.04-1.36l10.77-4.86,11.53-8.49c8.4-7,13.31-16.42,15.27-27.4Z"/>
    <path class="st0" d="M270.18,219.58l-12.15-4.31-8.72-21.73c-3.88-7.95-6.91-15.78-9.18-24.36-2.9-10.95-7.35-20.88-12.42-30.86-2.14-4.22-4.23-6.86-8.49-9.25-3.04-1.7-3.97-7.63-2.08-10.58,3.45-5.36,12.83-6.42,14.89-2.17l4.52,9.34c3.88,8.01,5.34,20.08,9.34,30.54l9.5,24.91,9.08,23.53,5.72,14.94Z"/>
    <path d="M76.28,264.73c-4.9-2.33-9.63-4.87-12.41-9.65-2.28-3.93-3.2-8.44-4.66-12.79-3.01-8.97-4.94-17.78-5.93-27.2l-1.72-16.26c-.44-4.21-.68-8.64,1.98-12.2,1.71-2.29,4.91-2.21,7.49-1.86l17.28,2.32c2.42.32,5.1-.23,7.48-.55l17.99-2.42,5.15-.51,15.01-.29c2.16-.04,3.32.16,4.91,1.53,2.36,2.03,3.76,5.47,4.22,8.78l2.37,17.2.88,14.83.41,5.85c-.68,10.01-3.2,19.58-7.56,28.54-2.48,5.09-7.78,7.82-13.11,8.7l-13.39,2.2c-5.84.96-11.52.86-16.88-1.69l-9.51-4.52ZM77.19,263.79l8.9,4.23c5.48,2.61,11.13,2.62,17.06,1.61l14.56-2.46c4.16-.7,8.28-3.6,10.23-7.42,4.06-7.98,6.17-16.44,7.39-25.29.42-3.06-.07-6.14-.26-9.25l-1.03-16.63-2.98-18.27-1.9-3.46-3.22-2.36-6.82.24-18.63.86-15.2,2.27c-3.26.49-6.41.67-9.67.21l-14.91-2.1c-2-.28-4.72-.57-6.18,1.32-1.77,2.29-2.33,5.78-2.03,8.75l2.07,19.94c.9,8.66,2.74,16.75,5.47,24.99,4.18,12.61,3.43,16.3,17.13,22.82Z"/>
    <path d="M262.22,250.9c-1.97,10.98-6.87,20.4-15.27,27.4l-11.53,8.49-10.77,4.86c-3.59,1.62-7.2,1.69-11.04,1.36-7.91-.66-14.06-4.5-18.9-10.65-2.81-3.57-6.67-6.37-8.11-11.06-1.91-6.21-3.89-12.82-3.76-19.37l.33-16.4c.14-7.17,2.81-33.22,5.38-35.58.51-.46,2.04-.22,2.82.11l15.63,6.58,7.92,3.28,12.6,6.14c2.04.99,4.03,2.09,6.29,2.63l22.15,5.27c.69-1.84,5.76.99,6.98,3.3.9,1.7-.73,4.38-.54,5.97,1.2,6.13.93,11.41-.19,17.67ZM237.89,220.83l-3.75,7.73-3.31,7.39c-1.59,3.56-5.29,1.15-11.05,3.7l-2.22,11.19c-.1.49-.82,1.37-1.25,1.68-1.32-1.8-.57-3.14.54-4.27l2.09-9.42c3.18-1.69,6.58-1.99,10.14-2.03l5.3-11.16,2.27-5.03c-4.61-1.17-8-2.95-11.98-4.82l-9.09-4.27-12.29-5.1-13.84-5.94c-.6,1.13-1.34,2.43-1.53,3.7-1.81,11.71-3.58,23.2-3.74,35l-.18,13.44c-.08,6,1.75,11.86,3.35,17.55,1.05,3.75,3.76,6.6,6.23,9.34l4.46,4.95c4.12,4.57,9.75,6.75,15.69,7.45,4.11.49,7.57-.14,11.37-1.59,5.78-2.2,10.99-4.83,15.93-8.61,11.97-9.17,17.28-16.43,20.18-31.68,1.07-5.62,1.43-10.8-.03-16.42l.89-4.83c.09-.5-.3-2.01-.78-2.13l-1.91-.49-5.27-1.52-16.2-3.81Z"/>
  </g>
</svg>