<?xml version="1.0" encoding="UTF-8"?>
<svg id="Layer_1" xmlns="http://www.w3.org/2000/svg" version="1.1" viewBox="0 0 300.63 380.33">
  <!-- Generator: Adobe Illustrator 30.4.0, SVG Export Plug-In . SVG Version: 2.1.4 Build 226)  -->
  <defs>
    <style>
      .st0 {
        fill: #fff;
      }
    </style>
  </defs>
  <polyline class="st0" points="72.52 201.61 12.71 172.49 3.67 179.55 8.03 194.74 11.22 186.79 54.24 215.77 70.37 202.35 70.39 200.85"/>
  <g>
    <path d="M3.67,179.55l4.42-5.63c1.99-2.53,3.79-3.01,6.6-2.69,2.22.26,4.82.15,6.93,1.45l15.48,9.55,20.15,11.28c4.49,2.51,8.99,4.22,13.14,7.34l2.14.76c-.27.57-1.67,1.12-2.16.74-4.36-3.41-9.22-5.25-13.97-7.88l-16.38-9.07-15.1-9.5c-2.61-1.65-5.47-3.12-8.53-3.25l-3.67-.16c-2.54-.02-3.95,2.95-5.53,4.7l-2.79,3.07c-.53,4.96.21,10.48,3.64,14.49,2.76-3.51.59-8.29,2.98-9.45,2.09.77,4.21,2.63,5.82,4.4,7.36,8.04,15.71,14.02,25.24,18.57l9.79,5.52c5.66-.81,10.66-3.02,15.62-6.02l16.44-9.93,14.11-6.71,14.41-7.79,14.61-6.12,10.44-6.44c3.3,3.01,6.64,5.04,10.65,5.97l6.5,1.51c3.56-1.22,6.62-2.74,9.52-5.01l11.69-2.44,8.38-4.7,8.42,1.77,16.2,6.69,14.21,6.15,9.45,3.89,10.74,3.52,12.97,4.85,17.73,7.9-5.11-13.85-6.69-17.28c.43-1.03.49-2.58-.06-3.82l-7.45-16.92-1.97-5.39-9.91,8.02c-2,1.62-3.99,2.86-6.26,3.94l-7.2,3.41-5.99,2-3.04-3.95c-.84-1.09-1.29-2.69-1.73-4.46l-2.94-.25c-2.7-9.39,9.98-11.63,16.44-14.51l13.62-6.07c2.91-1.29,5.77-2.89,9.08-2.8,2.04.06,5.35.75,6.96,2.02,4.05,3.21,6.07,8.17,7.88,13.01l4.94,13.15,1.19,6.24-1.16,1.25,5.7,16.31,8.92,24.47.89.31c.22.08.75.76.54.86l-1.24.58c1.81,2.1,3.63,4.69,4.21,7.78l3.27,17.5c.98,5.27.08,9.89-2.46,14.4l-5.66,10.02c-3.74,6.62-7.03,13.38-11.01,19.82l-6.38,10.33c-1.67,2.7-4.14,5.17-6.81,6.72l-13.48,7.81c-3.87,2.24-8.58,2.17-12.95,2.07-5.38-.13-10.29-1.79-15.45-3.18-5.87-1.59-11.36-3.79-16.08-8-4.72-4.21-9.51-8.11-13.4-13.32-3.9-5.23-6.9-11.49-8.52-18.01l-3.48-14.01c-1.27-5.1-1.67-10.34-1.02-15.65l2.1-17.19.88-10.31,2.51-16.92c-2.69,1.73-5.39,2.98-8.34,2.38-1.74-.35-4.92-.48-6.3.51-9.35,6.74-14.44,2.33-15.89,6.69,2.11,5.82,5.22,10.54,8.68,15.51,7.42,10.67,9.31,16.67,8.07,30.67l-1.43,16.29c-1.36,15.49-16.52,24.91-28.29,31.42l-8.77,3.15c-10.41,3.74-20.96,3.41-30.48-2.68l-9.33-6.51-10.65-8.03c-4.39-3.31-9.52-6.3-12.15-11.67l-5.68-14.84-4.06-16.21c-1.62-6.47-6.67-10.38-8.07-18.19l-2.89-1.27-10.43-5.8c-5.51-3.06-10.72-6.3-15.79-10.16l-11.67-11.28-.96-.17c-.18-.03-.11.71-.15.96l-.63,4.81c-.18,1.37-1.56,3.17-2.72,3.43-4.07-2.91-5.93-14.06-4.06-16.44ZM263.11,165.08c.61,1.38.49,3.2.26,4.41l6.51,16.91,5.62,14.86,12.72,4.84-3.6-10.41-6.32-16.6-5.14-15.17c.91-1.03.49-1.78.4-2.9-.13-1.7.12-3.85-.55-5.48l-6.56-16.07c-.9-2.21-2.81-5.14-4.51-6.63-3.66-3.2-8.69-3.07-12.75-1.25l-16.52,7.4c-5.65,2.53-16.74,4.42-16.3,12.08,1.25,0,2.94.02,3.13.7l.85,2.93,3.33,4.78,5.34-1.84,6.88-3.27c2.18-1.04,4.08-2.18,6.01-3.74l9.73-7.87c.46-.37,1.73-.74,1.91-.63l2.3,6.54,7.27,16.4ZM181.72,187.59c1.66-.65,3.43-2.23,5.08-3.38.45,3.48-.72,6.39-1.12,9.56l-1.45,11.74-.18,4.81-.94,7.17c-1.06,8.09-2.4,15.92-1.82,24.1.19,2.69,1.13,5.29,1.75,7.85l2.55,10.6c1.64,6.83,4.66,13.62,8.97,19,4.87,6.09,16.04,16.38,22.74,18.28l14.99,4.25c5.79,1.16,12.08,1.51,17.57-.94l13.03-7.32c2.63-1.48,5.35-3.72,7.05-6.43l7.14-11.41,9.05-16.04,6.9-12.62c2.82-4.26,3.64-8.91,2.66-14.17l-3.22-17.33c-1.06-5.69-4.92-8.38-9.46-9.99l-10.23-3.64-19.01-8.41-11.78-4.2-11.67-4.01-23.16-10-10.64-4.54-3.8-1.24-8.66-1.69c-2.87,1.91-5.43,3.87-8.54,4.63l-11.46,2.82c-3.44,1.62-6.26,4.56-10.38,4.3-4.74-.3-12.21-3.56-16.47-7.04l-7.3,4.66c-3.97,2.54-8.61,3.51-12.79,5.66l-14.3,7.33-6.42,3.3c-6.71,3.45-13.35,6.18-19.71,10.4-6.42,4.27-12.87,7.85-20.03,10.43-.94.34-1.98.87-2.4,1.72.99,4.54,3.29,7.98,5.57,11.85,2.43,4.13,3.28,9.13,4.33,13.89,1.32,5.97,3,11.35,5.06,17.01,5.22,14.34,12.79,14.36,22.38,22.7,4.26,3.7,8.53,6.72,13.36,9.49,8.14,4.68,17.39,5.67,26.15,2.28l6.72-1.99c7.5-3.1,14.23-7.52,20.52-12.77s10.58-12.14,11.16-20.76l1.52-22.35c.32-4.79-.44-9.61-2.91-13.58l-6.89-11.09c-2.84-4.57-5.54-8.87-7.4-14.03-.23-.63-.42-1.38-.35-1.81s1.23-1.01,1.64-1c4.5.19,11.94-1.49,14.25-4.91,3.89-1.56,7.93-1.17,12.37-1.11Z"/>
    <path class="st0" d="M181.72,187.59c-4.44-.05-8.48-.45-12.37,1.11-2.31,3.42-9.75,5.1-14.25,4.91-.41-.02-1.57.56-1.64,1s.12,1.18.35,1.81c1.85,5.16,4.56,9.46,7.4,14.03l6.89,11.09c2.47,3.98,3.23,8.8,2.91,13.58l-1.52,22.35c-.58,8.62-4.93,15.56-11.16,20.76s-13.02,9.67-20.52,12.77l-6.72,1.99c-8.75,3.39-18.01,2.4-26.15-2.28-4.83-2.78-9.1-5.79-13.36-9.49-9.58-8.34-17.16-8.36-22.38-22.7-2.06-5.65-3.74-11.03-5.06-17.01-1.05-4.76-1.9-9.76-4.33-13.89-2.28-3.87-4.57-7.31-5.57-11.85.42-.86,1.46-1.38,2.4-1.72,7.16-2.58,13.61-6.16,20.03-10.43,6.35-4.23,13-6.95,19.71-10.4l6.42-3.3,14.3-7.33c4.18-2.14,8.82-3.12,12.79-5.66l7.3-4.66c4.26,3.48,11.72,6.74,16.47,7.04,4.12.26,6.94-2.68,10.38-4.3l11.46-2.82c3.11-.77,5.68-2.72,8.54-4.63l8.66,1.69,3.8,1.24,10.64,4.54,23.16,10,11.67,4.01,11.78,4.2,19.01,8.41,10.23,3.64c4.54,1.62,8.4,4.3,9.46,9.99l3.22,17.33c.98,5.26.16,9.91-2.66,14.17l-6.9,12.62-9.05,16.04-7.14,11.41c-1.7,2.72-4.41,4.95-7.05,6.43l-13.03,7.32c-5.49,2.45-11.78,2.1-17.57.94l-14.99-4.25c-6.7-1.9-17.87-12.19-22.74-18.28-4.3-5.38-7.32-12.17-8.97-19l-2.55-10.6c-.62-2.56-1.56-5.16-1.75-7.85-.58-8.18.76-16.01,1.82-24.1l.94-7.17.18-4.81,1.45-11.74c.39-3.18,1.57-6.09,1.12-9.56-1.65,1.16-3.41,2.73-5.08,3.38ZM279.59,242.69l1.39-11.35-.9-10.16c-.18-2.03,1.54-4.58.39-6.7s-6-5.26-7.07-3.38l-10.94-2.8-15.54-4.2-15.06-8.08-9.82-4.58-18.17-8.1c-1.14-.51-2.49,1.59-2.72,2.87-2.13,11.67-3.25,23.19-4.17,35.1l-.35,14.55c-.09,3.79-.52,7.51.13,11.26l2.08,11.92c1.13,6.46,4.25,11.35,8.3,16.1l5.61,6.58c6.11,7.17,18.99,9.93,27.58,6.18,4.16-1.82,8.25-3.43,12.05-6.01,13.24-9.01,25.03-21.43,27.21-39.2ZM115.28,283.54l11.01.28c4.84.12,9.16-2.33,13.21-5.1l12.79-8.75c3.13-2.14,6.11-6.52,6.53-10.75,1.12-11.17-.31-22.24-3.73-32.74l-2.77-5.82-5.78-12.91-9.27-16.87c-.94-1.72-3.01-3.51-4.46-4.7l-3.75-1.26-16.44,7.94-17.49,10.85c-3.54,2.2-6.76,4.38-10.72,5.52l-13.09,3.78c-2.35.68-5.23,1.7-6.11,4.65s-.19,7.01,1.29,9.94l10.54,20.87c3.55,7.03,7.78,13.07,12.57,19.17,8.72,11.1,10.32,15.51,25.64,15.9Z"/>
    <path class="st0" d="M263.11,165.08l-7.27-16.4-2.3-6.54c-.18-.11-1.46.26-1.91.63l-9.73,7.87c-1.93,1.56-3.82,2.71-6.01,3.74l-6.88,3.27-5.34,1.84-3.33-4.78-.85-2.93c-.2-.68-1.88-.7-3.13-.7-.44-7.67,10.64-9.55,16.3-12.08l16.52-7.4c4.06-1.82,9.09-1.94,12.75,1.25,1.7,1.49,3.61,4.42,4.51,6.63l6.56,16.07c.67,1.63.41,3.79.55,5.48.09,1.12.52,1.87-.4,2.9l5.14,15.17,6.32,16.6,3.6,10.41-12.72-4.84-5.62-14.86-6.51-16.91c.23-1.21.35-3.03-.26-4.41Z"/>
    <path d="M279.59,242.69c-2.18,17.77-13.98,30.19-27.21,39.2-3.8,2.58-7.89,4.2-12.05,6.01-8.58,3.75-21.47.99-27.58-6.18l-5.61-6.58c-4.05-4.76-7.17-9.65-8.3-16.1l-2.08-11.92c-.65-3.74-.22-7.47-.13-11.26l.35-14.55c.92-11.91,2.03-23.43,4.17-35.1.23-1.28,1.58-3.38,2.72-2.87l18.17,8.1,9.82,4.58,15.06,8.08,15.54,4.2,10.94,2.8c1.07-1.88,5.94,1.29,7.07,3.38s-.57,4.68-.39,6.7l.9,10.16-1.39,11.35ZM254.41,207.49l-2.93,6.64-4.79,11.03c-1.43,3.3-5.98.85-11.32,3.81l-2.09,11.02c-.22,1.18-.59,2.62-1.45,3.35-.62-.22-1.22-2.17-.88-2.72l1.2-1.91,2.28-10.67c3.35-2.14,7.05-2.28,10.69-2.48l6.08-13.7c.69-1.55,1.41-3.08,1.69-4.66-5.08-1.27-8.87-3.63-13.33-5.84l-7.42-3.67-8.29-4.14-11.8-5.24-8.69-3.93c-1.19,2.64-1.76,4.97-2.08,7.78l-2.85,25.45-.57,12.85-.02,15.16c.63,6.09,1.79,12.02,3.39,17.81,1.46,5.29,5.09,8.96,8.45,12.82,2.23,2.56,3.97,5.37,6.87,7.34,5.76,3.91,13.28,5.88,20.12,4.12,10.59-2.72,19.14-9.23,27.26-16.76,8.71-8.08,13.37-19.38,15.05-31.65.65-4.72,1.28-8.99.32-13.73-1.54-7.58,2.97-10.46-2.44-12.04l-5.99-1.76-16.46-4.28Z"/>
    <path d="M115.28,283.54c-15.32-.39-16.92-4.81-25.64-15.9-4.79-6.1-9.02-12.14-12.57-19.17l-10.54-20.87c-1.48-2.93-2.21-6.87-1.29-9.94s3.76-3.97,6.11-4.65l13.09-3.78c3.96-1.14,7.18-3.32,10.72-5.52l17.49-10.85,16.44-7.94,3.75,1.26c1.45,1.19,3.51,2.98,4.46,4.7l9.27,16.87,5.78,12.91,2.77,5.82c3.42,10.5,4.84,21.57,3.73,32.74-.42,4.23-3.41,8.61-6.53,10.75l-12.79,8.75c-4.05,2.77-8.36,5.23-13.21,5.1l-11.01-.28ZM127.68,282.35c1.99.04,4.68-.66,6.38-1.75l7.65-4.92,7.78-5.24c8.02-5.4,9.33-10.82,8.49-21.5-.59-7.57-1.36-15.14-4.07-22.2l-5.94-12.59c-2.98-6.31-5.43-12.53-9.18-18.42l-3.5-5.49-2.94-2.65-3.79-1.19-13.58,6.58-4.16,2.28c-6.26,3.43-12.05,7.13-17.84,11.45-2.29,1.7-4.95,2.76-7.6,3.53l-13.85,4.01c-1.86.54-4.4,1.34-5.09,3.67-.83,2.79-.16,6.44,1.14,9.04l6.82,13.7,8.99,16.2c4.81,7.26,9.98,14.13,15.76,20.43,3.8,4.15,9.64,4.69,14.59,4.79l13.95.26Z"/>
    <path d="M104.44,243.26c2.14,3.74,3.21,7,3.17,11.34l-.78.44c-.84.48.04-6.94-3.56-10.6l-9.53-1.37-1.29-10.97-.49-9.41c-7.99-.81-15.66-1.71-23.34-4.14-.23-.17-.73-.48-.67-.65l.39-1.05c.09-.24.64.2.95.5,5.71,1.8,11.47,2.8,17.43,3.49l6.13.08.81,10.49.91,10.38,6.19,1.01,3.66.46Z"/>
    <path d="M121.05,227.55c-.38-.27-.98-.98-1.13-1.33s.52-1.08.95-1.52l-.18-5.04c.77-1.22,1.47-2.76,1.43-4.35l-.37-13.92c-.07-2.78-.68-6.66-.06-9.11.29-.16,1.24.27,1.16.55l-.43,1.5c.99,10.21,1.17,20.21.18,30.44l-1.08,1.51c1.9,1.83,5.45,2.3,6.34,6l-6.81-4.74Z"/>
  </g>
</svg>