<?xml version="1.0" encoding="UTF-8"?>
<svg id="Layer_1" xmlns="http://www.w3.org/2000/svg" version="1.1" viewBox="0 0 300.63 380.33">
  <!-- Generator: Adobe Illustrator 30.4.0, SVG Export Plug-In . SVG Version: 2.1.4 Build 226)  -->
  <defs>
    <style>
      .st0 {
        fill: #fff;
      }
    </style>
  </defs>
  <polygon class="st0" points="72.06 226.62 9.68 224.14 2.78 237.68 14.27 256.22 13.64 247.09 63.05 246.1 72.06 226.62"/>
  <g>
    <g>
      <path d="M183.82,184.02c2.67-1.25-3.06.15-3.98-.69-1.55-1.41-3.65-6.89-2.4-9.38s5.84-3.56,6.84-4.02l7.89-3.64,7.93,1.44,15.25,5.51,13.37,5.06,8.89,3.2,9.8,2.81,12.82,4.19,16.38,6.39-4.8-11.39-6.29-14.22c.4-.85.46-2.12-.05-3.14l-7.01-13.92-1.86-4.43-9.32,6.6c-1.88,1.33-3.75,2.36-5.89,3.24l-6.78,2.81-5.6,1.61-2.09-2.28c-1.28-1.4-1.97-2.61-2.43-4.62l-2.77-.2c-2.54-7.73,9.39-9.57,15.47-11.94l12.82-4.99c2.73-1.06,5.43-2.38,8.55-2.31,1.92.05,5.04.62,6.55,1.67,3.81,2.64,5.71,6.72,7.42,10.7l4.65,10.83,1.12,5.14-1.12.91,8.14,19.72,5.19,12.94c.2.51.98,1.12,1.8,1.78l-1.17.7c1.66,1.67,3.41,3.87,3.95,6.37l3.07,14.4c.93,4.34.08,8.14-2.32,11.85l-5.32,8.24c-3.52,5.44-6.62,11.01-10.36,16.3l-6,8.5c-1.57,2.22-3.89,4.25-6.41,5.53l-12.69,6.43c-3.65,1.85-8.07,1.79-12.18,1.7-5.06-.11-9.69-1.47-14.54-2.62-5.52-1.31-10.69-3.12-15.13-6.58s-8.95-6.68-12.61-10.96-6.49-9.45-8.02-14.82l-3.27-11.53c-1.19-4.2-1.57-8.51-.96-12.88l1.97-14.15.89-8.86,2.32-13.59c-2.99,1.91-6.42,2.36-9.16,1.82l-1.14-.22c-.27-.05.36-.89.6-1ZM266.41,165.44c.58,1.14.47,2.63.24,3.63l6.12,13.91,5.29,12.23,11.97,3.98-3.39-8.56-5.95-13.66-4.84-12.48c.86-.85.46-1.47.37-2.39-.13-1.39.11-3.17-.52-4.51l-6.17-13.22c-.85-1.82-2.65-4.23-4.25-5.46-3.44-2.63-8.18-2.53-12-1.03l-15.55,6.09c-5.32,2.08-15.75,3.63-15.34,9.94,1.18,0,2.76.02,2.95.58l.8,2.41,3.13,3.94,5.03-1.51,6.48-2.69c2.05-.85,3.84-1.8,5.65-3.08l9.16-6.48c.43-.3,1.63-.61,1.8-.52l2.16,5.38,6.84,13.5ZM223.29,274.25l14.1,3.5c5.45.95,11.37,1.24,16.54-.77l12.26-6.02c2.48-1.22,5.03-3.06,6.63-5.29l6.72-9.39,8.51-13.2,6.49-10.39c2.66-3.51,3.42-7.33,2.5-11.66l-3.03-14.26c-.99-4.68-4.63-6.89-8.9-8.22l-9.63-3-17.89-6.92-11.09-3.46-10.98-3.3-22.09-8.35-9.71-3.61-3.61-1.02-8.08-1.35c-2.67,1.47-5.01,2.89-7.77,3.66-3.69,1.03-7.05,2.75-5.94,6l1.43,4.17c.16.48.96,1.39,1.41,1.31l1.67-.3,1.74-.18c.4-.04.8,1.13,1.16,1.3.9.43,3.26.93,4.12.44l4.8-2.77c.34,3.02-.78,5.48-1.16,8.22l-1.3,9.33-.17,3.96-.89,5.9c-1,6.65-2.26,13.1-1.72,19.83.18,2.21,1.07,4.35,1.64,6.46l2.4,8.72c1.55,5.62,4.39,11.21,8.44,15.63,4.59,5.01,15.09,13.47,21.4,15.04Z"/>
      <path class="st0" d="M223.29,274.25c-6.31-1.56-16.81-10.03-21.4-15.04-4.05-4.42-6.89-10.01-8.44-15.63l-2.4-8.72c-.58-2.11-1.47-4.24-1.64-6.46-.54-6.73.72-13.17,1.72-19.83l.89-5.9.17-3.96,1.3-9.33c.38-2.74,1.5-5.2,1.16-8.22l-4.8,2.77c-.85.49-3.22,0-4.12-.44-.36-.17-.77-1.34-1.16-1.3l-1.74.18-1.67.3c-.45.08-1.25-.84-1.41-1.31l-1.43-4.17c-1.11-3.25,2.25-4.97,5.94-6,2.76-.77,5.1-2.19,7.77-3.66l8.08,1.35,3.61,1.02,9.71,3.61,22.09,8.35,10.98,3.3,11.09,3.46,17.89,6.92,9.63,3c4.27,1.33,7.91,3.54,8.9,8.22l3.03,14.26c.92,4.33.15,8.15-2.5,11.66l-6.49,10.39-8.51,13.2-6.72,9.39c-1.6,2.23-4.15,4.07-6.63,5.29l-12.26,6.02c-5.16,2.01-11.09,1.73-16.54.77l-14.1-3.5ZM281.92,229.3l1.31-9.34-.85-8.36c-.17-1.67,1.45-3.77.37-5.52s-5.65-4.33-6.66-2.78l-10.3-2.3-14.62-3.45-14.17-6.64-9.24-3.76-17.09-6.67c-1.08-.42-2.35,1.31-2.57,2.36-2.01,9.6-3.06,19.08-3.92,28.88l-.33,11.97c-.09,3.12-.49,6.18.12,9.26l1.96,9.81c1.06,5.31,4,9.34,7.81,13.25l5.28,5.42c5.75,5.9,17.87,8.17,25.95,5.09,3.91-1.49,7.76-2.82,11.34-4.95,12.46-7.41,23.56-17.63,25.61-32.25Z"/>
      <path class="st0" d="M266.41,165.44l-6.84-13.5-2.16-5.38c-.17-.09-1.37.22-1.8.52l-9.16,6.48c-1.82,1.28-3.6,2.23-5.65,3.08l-6.48,2.69-5.03,1.51-3.13-3.94-.8-2.41c-.19-.56-1.77-.58-2.95-.58-.41-6.31,10.02-7.86,15.34-9.94l15.55-6.09c3.82-1.5,8.55-1.6,12,1.03,1.6,1.22,3.4,3.64,4.25,5.46l6.17,13.22c.63,1.34.39,3.12.52,4.51.08.92.49,1.54-.37,2.39l4.84,12.48,5.95,13.66,3.39,8.56-11.97-3.98-5.29-12.23-6.12-13.91c.22-1,.33-2.5-.24-3.63Z"/>
      <path d="M281.92,229.3c-2.05,14.62-13.15,24.84-25.61,32.25-3.57,2.13-7.42,3.45-11.34,4.95-8.08,3.08-20.2.81-25.95-5.09l-5.28-5.42c-3.82-3.91-6.75-7.94-7.81-13.25l-1.96-9.81c-.62-3.08-.21-6.15-.12-9.26l.33-11.97c.86-9.8,1.91-19.27,3.92-28.88.22-1.05,1.49-2.78,2.57-2.36l17.09,6.67,9.24,3.76,14.17,6.64,14.62,3.45,10.3,2.3c1-1.55,5.59,1.06,6.66,2.78s-.54,3.85-.37,5.52l.85,8.36-1.31,9.34ZM258.23,200.34l-2.76,5.46-4.51,9.07c-1.35,2.71-5.63.7-10.65,3.13l-1.97,9.07c-.21.98-.56,2.13-1.36,2.77-.6-.22-1.15-1.8-.83-2.25l1.13-1.58,2.14-8.78c3.15-1.76,6.63-1.88,10.06-2.04l5.72-11.27c.65-1.27,1.33-2.54,1.59-3.84-4.78-1.04-8.35-2.99-12.55-4.8l-6.99-3.02-7.8-3.4-11.1-4.31-8.18-3.23c-1.12,2.17-1.66,4.09-1.96,6.4l-2.68,20.94-.53,10.57-.02,12.47c.59,5.01,1.69,9.89,3.19,14.65,1.38,4.36,4.79,7.37,7.95,10.55,2.1,2.11,3.74,4.42,6.47,6.04,5.42,3.22,12.5,4.84,18.94,3.39,9.97-2.24,18.01-7.6,25.65-13.79,8.2-6.65,12.58-15.94,14.16-26.04.61-3.88,1.2-7.4.3-11.29-1.45-6.24,2.8-8.6-2.29-9.91l-5.64-1.45-15.49-3.52Z"/>
    </g>
    <g>
      <path d="M5.2,230.58c.44-.64,7.22-3.7,9.64-3.64l20.21.53,19.01-.28,17.23-.32.77-.26c.22-.07.53.31.66.49s-.57,1.04-.8,1.03l-6.43-.34-11.04.64-22.79.02-11.85-.46c-3.21-.13-6.48-.11-9.39,1.24l-3.67,1.69c-2.13,1.39-1.88,4.39-2.64,6.33-1.05,2.68-1.1,4.58.76,6.83,2.01,2.44,3.84,5.1,7.61,5.99.96-3.32-1.96-5.47-1.8-8.37,1.41-.37,2.95-.42,4.27-.12l13.32,3.07c5.66,1.3,11.58.98,17.38.92l13.94-.15c6.79-4.59,11.77-11.76,16.25-18.67,3.42-5.27,6.82-10.14,11.12-14.81l10.52-13.37,4.23-5.26,3.6-3.82c3.39-3.59,6.32-7.06,9.03-11.15l3.18-4.8c4.83,1,9.34.44,14.07-.47,3.12-.6,5.58-1.77,7.37-4.38l3.54-5.16,3.59-2.86c2.27-1.8,4.26-3.33,7.22-4.23,2.8,3.08,4.94,6.16,6.29,9.97.52,1.47-.93,4.86-2.67,5.76-1.33.68-1.59,1.69-2.24,2.79-2.09,3.6-5.8,6.3-9.46,8.19-.6.31-1.06,1.77-.87,2.31.7,2,8.31,5.67,11.98,7.45l8.96,4.36c4.82,2.35,8.46,6.05,10.66,10.89l8.3,18.25c2.45,5.39,2.71,11.11.85,16.82-2.4,7.4-6.27,14.15-11.29,20.19l-3.35,4.04-5.67,5.15c-12.03,10.93-22.12,10.95-37.91,9.08l-12.03-1.43c-5.89-.13-12.12-.56-17-3.97l-11.21-9.01-10.41-10.67c-4.08-4.18-10.24-4.98-14.62-10.28l-5.28.17-8.29.09c-7.08.08-14.15.43-21.09-1.08l-15.14-3.29,1.82,4.86c.39,1.03.71,3.72-1.06,3.94-3.43.44-7.37-4.6-9.69-7.89-1.33-1.89-.69-3.54-.11-5.46.74-2.45.87-4.83,2.43-7.1ZM109.36,278.82c5.4.32,10.37.42,15.63,1.44s10.9,1.23,16.5,1.18c9.73-.09,17.7-4.7,24.3-11.16,2.89-2.83,5.67-5.15,8-8.53,7.17-10.39,14.89-22.31,9.45-34.81l-6.2-14.24c-4.14-9.52-9.56-13.8-19.24-17.89-5.9-2.49-11.17-5.21-15.83-9.64.36-.82,1.19-1.82,2.04-2.27,2.73-1.42,4.78-3.09,6.94-5.13,1.53-1.44,2.07-3.03,3.12-4.8.98-1.66,4.59-2.82,4.36-5.48-.32-3.71-3.22-6.82-5.37-9.8l-3.2,1.68c-2.27,1.68-4.98,3.17-6.63,5.36l-4.6,6.12c-2.71,3.61-14.8,5.19-20.72,3.92l-1.91,3.08c-2.36,3.8-4.84,7.25-8.08,10.51-3.63,3.65-6.76,7.39-9.98,11.42l-11.5,14.43c-3.06,3.84-5.91,7.51-8.6,11.6-4.13,6.28-8.19,12.31-13.75,17.54-.66.62-1.83,1.88-1.05,2.74,1.89,2.09,4.18,3.74,6.74,4.91,3.69,1.68,6.61,3.96,9.35,6.83l7.49,7.85c3.74,3.93,8.11,7.32,12.87,10.25,2.74,1.69,6.64,2.69,9.87,2.88Z"/>
      <path class="st0" d="M109.36,278.82c-3.23-.19-7.13-1.19-9.87-2.88-4.75-2.93-9.12-6.32-12.87-10.25l-7.49-7.85c-2.74-2.87-5.65-5.15-9.35-6.83-2.56-1.16-4.85-2.82-6.74-4.91-.78-.86.39-2.12,1.05-2.74,5.56-5.24,9.62-11.26,13.75-17.54,2.69-4.09,5.53-7.75,8.6-11.6l11.5-14.43c3.21-4.03,6.34-7.77,9.98-11.42,3.24-3.26,5.72-6.71,8.08-10.51l1.91-3.08c5.92,1.27,18-.31,20.72-3.92l4.6-6.12c1.65-2.19,4.35-3.68,6.63-5.36l3.2-1.68c2.15,2.98,5.05,6.1,5.37,9.8.23,2.66-3.38,3.82-4.36,5.48-1.05,1.77-1.59,3.36-3.12,4.8-2.16,2.03-4.21,3.71-6.94,5.13-.85.44-1.68,1.45-2.04,2.27,4.66,4.43,9.93,7.15,15.83,9.64,9.68,4.09,15.1,8.37,19.24,17.89l6.2,14.24c5.44,12.5-2.28,24.42-9.45,34.81-2.33,3.38-5.11,5.7-8,8.53-6.6,6.46-14.57,11.07-24.3,11.16-5.6.05-11.02-.12-16.5-1.18s-10.23-1.12-15.63-1.44ZM130.8,275.28c5.61.22,10.03-1.56,14.69-3.73,7-3.26,14.26-5.51,18.75-12.77l7.26-11.74c3.61-4.99,4.98-11.1,1.94-16.8-4.14-7.76-9.21-15.1-16.07-20.89l-11.43-7.7-7.93-5.75-12.92-7.07-3.05-.76c-3.84-.96-5.86.14-7.92,2.62l-9.28,11.2-7.69,10.91-3.21,5.39c-2.62,4.39-5.62,8.15-9.74,11.26l-7.5,6.64c-1.77,1.57-3.98,3.84-3.39,6.38.95,4.08,4.41,6.53,7.81,8.67l15.04,9.47c6.62,4.17,13.4,7.26,20.77,10.05,4.56,1.73,8.93,3.59,13.88,4.65Z"/>
      <path d="M130.8,275.28c-4.95-1.06-9.32-2.92-13.88-4.65-7.36-2.79-14.15-5.88-20.77-10.05l-15.04-9.47c-3.4-2.14-6.86-4.59-7.81-8.67-.59-2.54,1.62-4.81,3.39-6.38l7.5-6.64c4.12-3.11,7.12-6.86,9.74-11.26l3.21-5.39,7.69-10.91,9.28-11.2c2.05-2.48,4.07-3.58,7.92-2.62l3.05.76,12.92,7.07,7.93,5.75,11.43,7.7c6.86,5.79,11.93,13.13,16.07,20.89,3.04,5.7,1.67,11.8-1.94,16.8l-7.26,11.74c-4.49,7.26-11.75,9.51-18.75,12.77-4.66,2.17-9.08,3.96-14.69,3.73ZM144.31,270.82l11.06-5.23c3.57-1.69,6.3-4.54,8.25-7.83l6.14-10.34,1.34-1.92c3.25-4.64,3.83-10.25,1.09-15.26-4.88-8.91-11.58-18.24-20.54-23.52-4.62-2.73-8.72-5.76-12.86-9.1l-14.81-8-3.79-.81-4.14,1.18-3.42,4.45c-4.29,4.66-8.14,9.24-11.45,14.5l-7.6,12.13c-1.57,2.5-3.43,4.76-5.64,6.7l-10.2,8.91c-1.66,1.45-3.94,3.38-3.22,5.85,1.16,4.01,4.85,6.14,8.21,8.27l12.72,8.05c7.12,4.5,14.39,8.02,22.39,10.9,10.05,3.62,13.69,7.13,26.47,1.09Z"/>
      <path d="M118.6,246.13l-5.1,2.1c-1.41.58-2.78.84-4.39.84l-9.09-13.6c-.22-.26-.77-.96-1.07-.87l-1.67.5c-6.64,2.77-13.26,4.95-20.36,6.46l-1.05-.16c-.27-.04-.33-.71-.24-.96s.85-.19,1.26-.12c6.06-1.19,11.69-3.02,17.38-5.2l5.15-2.47,5.59,8.54,4.78,6.87c3.81-.4,6.21-2.75,9.59-3.12,3.32,2.1,7.06,4.31,7.14,8.33-2.8-2.92-4.05-5.97-7.93-7.13Z"/>
      <path d="M134.94,225.69l-8.46-.64c-.3-.02-1.08-.63-1.02-.85l.39-1.44-2.24-3.35c-.22-.33.04-1.48.2-1.94l-2.77-5.72-4.1-6.76-4.14-6.57c-.1-.17-.05-1.05-.03-1.23s.73-.2.82-.04l2.14,3.79,2.82,4.24,6.55,11.89,1.9,4.35c.3.69.41,1.89.3,2.52,2.2.6,5.32-.69,7.63,1.74Z"/>
    </g>
  </g>
</svg>