<?xml version="1.0" encoding="UTF-8"?>
<svg id="Layer_1" xmlns="http://www.w3.org/2000/svg" version="1.1" viewBox="0 0 300.63 380.33">
  <!-- Generator: Adobe Illustrator 30.4.0, SVG Export Plug-In . SVG Version: 2.1.4 Build 226)  -->
  <defs>
    <style>
      .st0 {
        fill: #fff;
      }
    </style>
  </defs>
  <path class="st0" d="M242.76,238.87l8.67-9.7-6.34-4.26-8.01,6.42,8.01-6.42s-20.17,1.5-21.17,1.62-17.6,1.27-17.6,1.27l-20.45-3.29-6.78,1.5-.66,13.81-2.56,13.47,15.21,11.83,15.21,9.97s18.02-6.72,18.55-8.23-35.32-21.33-35.32-21.33l.44-8.45"/>
  <path class="st0" d="M236.68,239.4s-4.75,11.21-5.04,12.34-1.71,1.32-1.71,1.32l-7.74,3.62-3.04,2.74,2.06,8.96,10.45-3.57,7.06-9.52,12.7-12.47-.06-16.79"/>
  <polyline class="st0" points="59.5 228.92 30.99 227.19 15.99 224.41 16.59 233 8.19 225.41 11.6 212.01 22.98 208.8 69.2 207.83 81.64 195.16 92.86 195.26 79.25 210.42 71.71 229.17 108.61 254.59 123.72 259.42 141.4 250.04 150.32 236.52 156.21 211.57 144.91 191.94 143.61 182.53 158.99 186.14 168.35 213.9 168.34 231.45 157.38 247.92 150.32 263.68 145.14 266.87 132.02 271.9 106.02 266.13 91.3 265.71 66.86 240.07"/>
  <g>
    <g>
      <path d="M145.54,190.99c4.66,6.06,8.58,12.8,11.66,20.28,2.58,6.27,1.49,12.9-1.71,18.42l-6.33,12.86c-3.86,7.84-10.17,10.46-16.4,14-4.07,2.32-8.23,4.7-12.93,3.91-4.22-.71-8.03-3.11-12-4.94-6.47-2.99-12.37-6.43-18.15-11l-13.14-10.38c-2.97-2.35-6-5.03-6.83-9.51-.51-2.75,1.4-5.3,2.96-7l6.59-7.23c2.37-2.6,4.61-4.96,6.46-8.25.28-.5,1.11-1,1.63-1.01-1.28,3.14-2.94,5.27-4.86,7.38l-8.9,9.77c-1.45,1.59-3.44,3.71-2.82,6.42.96,4.15,3.93,6.5,6.73,8.72l11.56,9.17c6.22,4.94,12.58,8.79,19.56,11.96,8.8,3.99,12.02,7.79,23.13,1.19l9.66-5.74c3.12-1.85,5.5-4.98,7.21-8.59l5.36-11.34,1.17-2.11c2.78-4.98,3.35-11.02,1.06-16.43-3.05-7.2-6.73-13.69-11.3-19.63l-1.54.04.47-2.95-3.62-2.45-5.08-5.14-1.61,8.83-4.28-3.02-3.95-2.98-1.8,8.78-5.36-5.78c-1.77-1.91-4.46-2.82-6.92-2.19-1.41.36-2.94,1.99-3.69,3.46l-4.34,8.55c-.69,1.36-1.37,1.5-2.72,1.2l-3.26-.72c-1.37-.3-3.04-1.51-4.36-2.32l-4.29,5.97-.48.67c-.15.21-.67-.92-.51-1.14l4.35-6.08c-1.65-2.21-3.76-2.62-5.55-.94-3.44,1.77-6.68,3.9-9.51,6.65l-6.48,12.25c-2.73,4.85-5.62,9.32-9.06,13.48-.35.42-.78,1.16-.79,1.61-.04,1.62,3.64,4.93,6.1,6.32,3.23,1.83,5.78,4.34,8.17,7.49l6.54,8.61c3.27,4.31,7.09,8.03,11.24,11.24,2.39,1.85,5.8,2.95,8.62,3.16,4.72.35,9.06.46,13.65,1.58s9.52,1.35,14.41,1.3c8.5-.1,15.46-5.15,21.23-12.24,2.53-3.11,4.95-5.65,6.99-9.35,6.19-11.26,13.08-24.64,8.25-38.18l-6.84-19.19c-.86-1.13-1.84-2.3-2.53-3.85l-4.96-.07c-2.59-.04-5.77.66-7.8-2,4.59.78,8.53,1.31,12.61.49l-2.93-3.65c-1.1-1.36,1.09-2.78,5.7,6.77.41.85,1.44,1.36,2.33,1.92l-1.01,1.03,6.35,17.98c5.03,14.24-2.05,28.95-9.27,40.85-.95,1.57-1.87,3.16-2.97,4.4l-4.03,4.56c-10.91,12.34-18.48,13.14-33.54,10.88l-10.83-1.63c-5.15-.14-10.59-.62-14.86-4.35l-9.79-9.88-9.1-11.7c-3.56-4.58-8.94-5.46-12.77-11.27l-4.61.19-6.28.06c-6.58.06-13.19.56-19.68-1.22l-12.94-3.54,1.59,5.34c.33,1.12.62,4.08-.93,4.32-2.99.48-6.44-5.04-8.46-8.66-1.16-2.07-.61-3.88-.09-6,.68-2.75.72-5.56,2.29-8.01.28-.44,6.06-3.77,7.93-3.72l17.61.53,16.61-.28,15.41-.36.67-.3c.19-.08.46.34.58.53s-.5,1.14-.7,1.13l-5.61-.37-9.64.7-19.91.02-10.36-.5c-2.67-.13-5.51-.18-7.95,1.24l-3.42,1.98c-1.93,1.44-1.63,4.87-2.31,6.92-1.02,3.07-.89,5.22.81,7.76s3.28,5.37,6.5,6.3c.84-3.71-1.81-6.11-1.53-9.17.91-.37,2.45-.47,3.38-.21l12.55,3.57c4.76,1.36,9.7.96,14.59.88l12.14-.18c3.98-3.28,7.3-7.8,9.97-12.69l6.14-11.24c-.29-.61-.61-1.3-.56-1.77.05-.55.86-1.47,1.28-1.78l7.09-5.24,6.81-3.93c1.24.17,3.09,1.47,4.14,2.23l1.97-.88c1.84,2.82,4.4,4.4,7.33,4.81l4.76-9.44c.95-1.88,2.71-3.73,4.59-4.15,4.5-.99,8.51,3.05,11.69,6.96l1.18-5.75c.09-.45.5-1.31.77-1.58.32-.33,1.42-.04,1.79.25l6.14,4.98,1.42-7.76c.12-.52,1.58-.44,1.93-.08l4.52,4.57,4.67,3.33.78.72c.2.19-.17.85-.6,1.55Z"/>
      <path d="M109.28,228.7l-4.45,2.3c-1.23.64-2.42.92-3.84.92l-7.94-14.92c-.19-.28-.67-1.06-.93-.96l-1.46.55c-5.8,3.04-11.58,5.43-17.78,7.08l-.92-.18c-.23-.04-.29-.78-.21-1.05s.74-.2,1.1-.13c5.29-1.31,10.22-3.32,15.18-5.7l4.5-2.71,4.88,9.36,4.18,7.53c3.32-.44,5.43-3.01,8.38-3.42,2.9,2.3,6.17,4.73,6.23,9.14-2.44-3.2-3.54-6.55-6.93-7.82Z"/>
      <path d="M116.81,205.67c-.37-.04-1.47-.36-1.44-.7l.2-1.87-2.1-4.23c.92-2.78-1.48-4.26.12-5.32l2.49,6.47c.51,1.33.93,2.82.85,4.32,1.98.71,4.97-.65,6.77,2l-6.9-.67Z"/>
    </g>
    <g>
      <path d="M277.27,260.32c4.16-3.58,3.33-10.29.64-15.39-2-3.8-4.08-7.34-6.63-10.67-1.47-1.92-3.56-3.18-5.38-4.57l-8.56-6.58c-2.48-1.9-4.86-3.78-7.65-4.99-3.72-1.61-7.16-3.49-10.55-5.94-4.17-3.01-8.33-5.59-12.93-7.51l-13.43-5.58c-2.97-1.23-6.2-1.54-9.31-1.82l.41,4.06c-1.21-.92-1.18-2.1-1.39-3.78l-1.72.24c-.11-.1-.19-1.05.06-1.13l1.48-.51.11-10.66c0-.89.87-2.51,1.48-2.9s2.1-.68,2.93-.38l14.28,5.1c4.18,1.49,7.87,2.29,12.3,2.2s10.46,6.04,20.03,8.2c6.73,1.52,12.9,4.52,18.63,9.06l12.22,9.68c5.58,4.42,10.22,10.02,13.52,16.94,4.72,9.91,3.77,23.05-4.69,29.15l-9.19,6.63-10.12,6.47c-1.64,1.05-4.14,1.07-5.4-.79s-1.22-5.87.44-7.31l8.41-7.23ZM269.33,274.25c1.45,1.47,3.42.76,4.72-.08l10.07-6.55,8.48-6.15c8.63-6.26,8.88-19.42,3.24-29.68-3.22-5.86-7.37-10.6-12.27-14.48l-12-9.5c-5.56-4.4-11.52-7.37-18.07-8.86-4.69-1.07-8.9-2.95-13.13-5.53-3.11-1.9-6.41-3.25-9.96-3.03-2.65.16-5.04-.28-7.55-1.2l-15.61-5.72c-1.01-.37-2.74-.39-3.3.78-.7,1.47-.8,3.47-.74,5.1l.25,6.63c5.95.48,11.79,2.51,17.58,5.1s11.72,5.16,17.18,9.08c3.62,2.6,7.17,4.84,11.15,6.54,3,1.27,5.6,3.12,8.25,5.17l8.77,6.77c1.88,1.45,4.26,2.6,5.6,4.75l6.78,10.91c1.77,2.85,2.3,6.29,2.27,9.79-.03,3.2-1.15,5.5-3.28,7.31l-8.22,7c-1.2,1.03-1.28,4.78-.22,5.85Z"/>
      <path d="M237.96,253.67l-2.09,1.62c-.16.13-.75-.08-.92-.2s.2-.7.38-.83l2.24-1.69c3.39-6.49,10.36-8.97,11.89-16.79l1.91-9.75-6.29-1.11c-3.16-.56-5.88-.33-9.08.08l-23.29,2.98c-4.63.59-9.03-.51-13.38-2.09-4.09-1.48-11.39-3.66-13.46-1.37-2.46,2.72-4.38,5.89-5.72,9.54-.59,1.61-.62,4.06-.72,5.86s.78,3.06,1.87,4.03c2.31,2.06.18,6.73.59,7.17l.97,1.05c.31.34-1.17.77-1.64.59-1.29-.5.67-4.12-.07-7.56-1.76-1.28-2.83-2.78-2.71-5.37.33-7.05,1.62-8.98,5.36-14.65,5.22-7.89,17.21,3.08,29.66,1.51l27.27-3.43c3.85-.49,7.71,1.46,11.58,1.78-.37,5.04-1.18,9.04-2.6,13.28-2.3,6.87-7.92,8.72-11.4,15l.07.37.73.42c.21.12-.11.92-.37,1.19l-4.12,4.22c-4.02,5.73-8.95,8.74-14.81,10.74-4.81,1.64-9.15,2.4-14.09.67-3.37-1.18-6.58-2.39-9.4-5.12-3.8-3.67-8.22-5.6-13.05-6.47-1.12-.2-2.2-.06-3.01-1.71l5.08.96c4.26.81,8.05,3.02,11.49,6.17,2.58,2.37,5.37,3.96,8.57,4.78,2.24.58,4.6,1.4,6.91,1.3,3.11-.14,6-1.57,8.92-2.45,5.2-1.58,9.11-5.03,12.67-9.68,1.31-1.72,3.4-2.85,4.35-4.69l-.27-.34Z"/>
      <path d="M229.93,253.06c-.87.69-1.92,1.35-2.56,2.27-5.3,7.59-15.14,3.09-22.39-1.26l-8.28-3.86c-2.5-1.17-5.28-2.24-7.16-4.67-1.66-2.15-1.91-6.13-.8-8.65.79-1.78,2.85-2.15,4.41-1.86l12.45,2.34,21.45,1.99,9.63.03,6.07-.53c-3.76,5.6-7.98,10.3-12.83,14.19ZM228.11,252.58l2.64-3.68,1.1,1.16,8.57-9.54-5.58-.03-12.21-.15-6.35-.66c-6.85-.71-13.36-1.35-20.17-2.91-1.84-.42-4.62-1.22-6.14.32s-.98,5.86.26,7.55c1.71,2.32,4.14,3.24,6.42,4.3l9.05,4.23c7.37,4.42,17.08,8.62,21.7.15-1.37-.9-2.98-2.06-2.79-4l3.47,3.26Z"/>
      <path class="st0" d="M269.33,274.25c-1.06-1.07-.98-4.82.22-5.85l8.22-7c2.13-1.81,3.25-4.11,3.28-7.31.03-3.5-.49-6.94-2.27-9.79l-6.78-10.91c-1.34-2.15-3.71-3.3-5.6-4.75l-8.77-6.77c-2.66-2.05-5.26-3.9-8.25-5.17-3.98-1.69-7.52-3.94-11.15-6.54-5.46-3.92-11.2-6.41-17.18-9.08s-11.63-4.62-17.58-5.1l-.25-6.63c-.06-1.62.04-3.63.74-5.1.55-1.16,2.29-1.14,3.3-.78l15.61,5.72c2.5.92,4.9,1.36,7.55,1.2,3.55-.22,6.84,1.14,9.96,3.03,4.23,2.58,8.44,4.46,13.13,5.53,6.55,1.49,12.5,4.46,18.07,8.86l12,9.5c4.9,3.88,9.05,8.62,12.27,14.48,5.64,10.26,5.39,23.42-3.24,29.68l-8.48,6.15-10.07,6.55c-1.29.84-3.26,1.55-4.72.08Z"/>
    </g>
  </g>
</svg>